<?xml version="1.0" encoding="UTF-8"?>
<svg id="_レイヤー_1" data-name=" レイヤー 1" xmlns="http://www.w3.org/2000/svg" version="1.1" viewBox="0 0 150 150">
  <defs>
    <style>
      .cls-1 {
        fill: #fff;
      }

      .cls-1, .cls-2 {
        stroke-width: 0px;
      }

      .cls-2 {
        fill: #0d498c;
      }
    </style>
  </defs>
  <path class="cls-2" d="M95.98,3.62c-8.03,0-15.34,2.53-20.98,7.14-5.64-4.6-12.95-7.14-20.98-7.14h0c-9.23,0-18.36,3.5-25.06,9.59-5.36,4.88-11.75,13.67-11.75,27.89,0,27.31,10.46,39.38,16.08,45.86l.2.23c-.02.17-.05.33-.05.49v10.56c0,2.93,2.38,5.31,5.31,5.31h19.5c-.35,0-.64.29-.64.64v8.33h34.77v-8.33c0-.35-.29-.64-.64-.64h19.5c2.93,0,5.31-2.38,5.31-5.31v-10.56c0-.17-.03-.33-.05-.49l.2-.23c5.62-6.48,16.08-18.54,16.08-45.86,0-24.34-18.97-37.48-36.82-37.48ZM123.37,28.41c.25.59.47,1.2.69,1.81.05.14.1.27.14.42.23.69.43,1.4.61,2.13.04.15.07.31.11.46.16.67.29,1.36.41,2.06.02.11.04.21.06.32.12.77.21,1.57.28,2.38.02.19.03.37.04.56.06.83.1,1.68.1,2.55,0,23.75-8.15,34.09-14.37,41.27H38.57c-6.23-7.18-14.37-17.52-14.37-41.27,0-.87.04-1.72.1-2.55.01-.19.03-.38.04-.56.07-.81.16-1.61.28-2.38.02-.1.04-.21.05-.31.12-.71.25-1.4.41-2.07.04-.15.07-.3.1-.45.18-.73.38-1.45.61-2.14.04-.13.09-.26.14-.39.22-.63.45-1.25.7-1.85.04-.1.08-.19.12-.29.28-.66.59-1.3.92-1.92.07-.13.14-.26.21-.39.33-.61.68-1.21,1.05-1.79,0-.01.02-.03.02-.04.38-.59.78-1.16,1.2-1.71.08-.11.17-.22.25-.33.42-.54.85-1.07,1.31-1.57.03-.04.07-.07.1-.1.44-.48.89-.93,1.35-1.38.09-.08.17-.17.26-.25.49-.46.99-.89,1.51-1.31.07-.06.15-.12.22-.17.48-.38.98-.75,1.48-1.1.07-.05.14-.1.21-.15.55-.37,1.1-.72,1.67-1.06.1-.06.2-.12.31-.18.56-.32,1.12-.62,1.7-.91.02-.01.05-.02.07-.03.6-.29,1.2-.55,1.81-.8.12-.05.23-.09.35-.14.61-.24,1.23-.47,1.86-.67.02,0,.03,0,.05-.02.61-.19,1.22-.36,1.84-.52.12-.03.24-.06.36-.09.62-.15,1.25-.28,1.88-.39.09-.02.18-.03.27-.04.57-.09,1.14-.17,1.72-.24.11-.01.22-.03.34-.04.62-.06,1.25-.1,1.87-.12.13,0,.26,0,.39,0,.23,0,.46-.02.68-.02.29,0,.59.01.88.02.15,0,.31,0,.46.01.63.03,1.25.08,1.87.14.14.02.28.04.42.06.49.06.98.13,1.46.22.19.03.38.07.57.11.52.1,1.04.22,1.55.36.09.02.19.04.28.07.59.16,1.17.35,1.75.55.17.06.34.13.52.19.43.16.86.33,1.28.52.17.07.33.14.5.22.55.26,1.1.53,1.63.82.09.05.18.11.27.16.45.26.89.53,1.33.82.16.1.31.21.47.32.41.28.8.58,1.19.89.1.08.21.16.32.25.48.39.94.81,1.38,1.25.11.11.22.23.33.34.35.35.68.72,1.01,1.09.12.14.24.28.36.42.41.5.8,1.01,1.18,1.55.37-.54.77-1.05,1.18-1.55.12-.14.24-.28.35-.42.33-.38.66-.75,1.01-1.1.11-.11.21-.22.32-.33.45-.44.91-.86,1.39-1.25.1-.08.2-.15.3-.23.4-.32.8-.62,1.22-.91.15-.1.3-.21.45-.3.45-.3.91-.58,1.38-.85.07-.04.14-.09.22-.13.54-.3,1.09-.58,1.65-.83.15-.07.3-.13.45-.2.44-.19.89-.37,1.34-.54.16-.06.31-.12.47-.17.58-.2,1.17-.39,1.77-.56.07-.02.14-.03.21-.05.54-.14,1.08-.26,1.62-.37.18-.04.36-.07.54-.1.5-.09,1-.16,1.5-.23.13-.02.26-.04.39-.05.62-.07,1.25-.12,1.88-.14.15,0,.3,0,.45-.01.29,0,.59-.02.88-.02.23,0,.45.01.68.02.13,0,.27,0,.4,0,.62.02,1.24.06,1.86.12.12.01.24.03.36.04.56.06,1.12.14,1.67.23.1.02.21.03.31.05.62.11,1.23.24,1.85.39.14.03.27.07.41.1.59.15,1.17.31,1.74.49.05.01.09.03.14.04.61.2,1.21.42,1.81.65.14.05.28.11.42.17.59.24,1.18.5,1.76.78.05.03.11.06.16.08.54.26,1.07.55,1.59.85.13.07.25.14.37.21.55.32,1.09.66,1.62,1.02.1.07.19.13.28.2.47.33.93.67,1.39,1.03.1.08.19.15.29.23.5.41.99.83,1.46,1.27.11.1.21.2.31.3.44.42.86.85,1.28,1.3.05.06.1.11.16.16.44.49.87,1.01,1.28,1.53.1.12.19.25.29.37.41.54.81,1.1,1.18,1.68.02.03.04.06.06.09.36.56.69,1.13,1.01,1.72.08.14.15.28.23.42.32.62.63,1.25.91,1.9.05.1.09.21.13.32Z"/>
  <path class="cls-1" d="M122.11,25.77c-.32-.59-.65-1.17-1.01-1.72-.02-.03-.04-.06-.06-.09-.37-.58-.77-1.13-1.18-1.68-.09-.13-.19-.25-.29-.37-.41-.53-.84-1.04-1.28-1.53-.05-.06-.1-.11-.16-.16-.41-.45-.84-.88-1.28-1.3-.1-.1-.21-.2-.31-.3-.48-.44-.96-.87-1.46-1.27-.1-.08-.19-.15-.29-.23-.45-.36-.92-.7-1.39-1.03-.1-.07-.19-.14-.28-.2-.53-.36-1.07-.7-1.62-1.02-.12-.07-.25-.14-.37-.21-.52-.3-1.05-.58-1.59-.85-.05-.03-.11-.06-.16-.08-.58-.28-1.17-.54-1.76-.78-.14-.06-.28-.11-.42-.17-.6-.23-1.2-.45-1.81-.65-.05-.01-.09-.03-.14-.04-.58-.18-1.16-.34-1.74-.49-.14-.03-.27-.07-.41-.1-.61-.15-1.23-.28-1.85-.39-.1-.02-.21-.03-.31-.05-.56-.09-1.11-.17-1.67-.23-.12-.01-.24-.03-.36-.04-.62-.06-1.24-.1-1.86-.12-.13,0-.27,0-.4,0-.52-.01-1.05,0-1.57,0-.15,0-.3,0-.45.01-.63.03-1.25.08-1.88.14-.13.01-.26.04-.39.05-.5.06-1,.14-1.5.23-.18.03-.36.06-.54.1-.55.11-1.09.23-1.62.37-.07.02-.14.03-.21.05-.6.16-1.19.35-1.77.56-.16.06-.31.12-.47.17-.45.17-.9.35-1.34.54-.15.07-.3.13-.45.2-.56.26-1.11.53-1.65.83-.07.04-.14.09-.22.13-.47.27-.93.55-1.38.85-.15.1-.3.2-.45.3-.42.29-.82.59-1.22.91-.1.08-.2.15-.3.23-.48.4-.94.81-1.39,1.25-.11.11-.21.22-.32.33-.35.35-.68.72-1.01,1.1-.12.14-.24.27-.35.42-.41.5-.81,1.01-1.18,1.55-.37-.54-.77-1.05-1.18-1.55-.12-.14-.24-.28-.36-.42-.32-.38-.66-.74-1.01-1.09-.11-.11-.22-.23-.33-.34-.45-.44-.91-.85-1.38-1.25-.1-.09-.21-.16-.32-.25-.39-.31-.79-.61-1.19-.89-.16-.11-.31-.22-.47-.32-.43-.29-.88-.56-1.33-.82-.09-.05-.18-.11-.27-.16-.53-.3-1.08-.57-1.63-.82-.16-.08-.33-.15-.5-.22-.42-.18-.85-.36-1.28-.52-.17-.06-.34-.13-.52-.19-.57-.2-1.16-.39-1.75-.55-.09-.03-.19-.04-.28-.07-.51-.13-1.03-.25-1.55-.36-.19-.04-.38-.07-.57-.11-.49-.09-.97-.16-1.46-.22-.14-.02-.28-.04-.42-.06-.62-.07-1.24-.12-1.87-.14-.15,0-.31,0-.46-.01-.52-.02-1.04-.02-1.56,0-.13,0-.26,0-.39,0-.62.02-1.25.06-1.87.12-.11.01-.22.03-.34.04-.57.06-1.15.14-1.72.24-.09.02-.18.03-.27.04-.63.11-1.26.24-1.88.39-.12.03-.24.06-.36.09-.62.16-1.23.33-1.84.52-.02,0-.03,0-.05.02-.63.2-1.24.43-1.86.67-.12.05-.24.09-.35.14-.61.25-1.22.51-1.81.8-.02.01-.05.02-.07.03-.58.28-1.14.59-1.7.91-.1.06-.21.12-.31.18-.57.33-1.13.68-1.67,1.06-.07.05-.14.1-.21.15-.5.35-1,.72-1.48,1.1-.07.06-.15.11-.22.17-.52.42-1.02.86-1.51,1.31-.09.08-.17.17-.26.25-.46.44-.91.9-1.35,1.38-.03.03-.07.07-.1.1-.45.5-.89,1.03-1.31,1.57-.09.11-.17.22-.25.33-.42.55-.82,1.12-1.2,1.71,0,.01-.02.03-.02.04-.37.58-.71,1.18-1.05,1.79-.07.13-.14.26-.21.39-.33.62-.63,1.26-.92,1.92-.04.09-.08.19-.12.29-.25.6-.48,1.22-.7,1.85-.05.13-.09.26-.14.39-.23.7-.43,1.41-.61,2.14-.04.15-.07.3-.1.45-.16.68-.3,1.37-.41,2.07-.02.1-.04.21-.05.31-.12.78-.21,1.57-.28,2.38-.02.19-.03.37-.04.56-.06.83-.1,1.68-.1,2.55,0,23.75,8.15,34.09,14.37,41.27h72.85c6.23-7.18,14.37-17.52,14.37-41.27,0-.87-.04-1.72-.1-2.55-.01-.19-.03-.38-.04-.56-.07-.81-.16-1.61-.28-2.38-.02-.11-.04-.21-.06-.32-.12-.7-.25-1.39-.41-2.06-.04-.15-.07-.31-.11-.46-.18-.73-.38-1.44-.61-2.13-.05-.14-.1-.28-.14-.42-.21-.62-.44-1.22-.69-1.81-.04-.11-.08-.21-.13-.32-.28-.65-.59-1.28-.91-1.9-.07-.14-.15-.28-.23-.42Z"/>
  <rect class="cls-2" x="57.61" y="117.79" width="34.77" height="10.15"/>
  <path class="cls-2" d="M75,146.38h0c8.15,0,14.98-5.62,16.86-13.2h-33.71c1.88,7.57,8.7,13.2,16.86,13.2Z"/>
</svg>