<?xml version="1.0" encoding="UTF-8"?>
<svg id="_レイヤー_1" data-name=" レイヤー 1" xmlns="http://www.w3.org/2000/svg" version="1.1" viewBox="0 0 150 150">
  <defs>
    <style>
      .cls-1 {
        fill: #fff;
      }

      .cls-1, .cls-2 {
        stroke-width: 0px;
      }

      .cls-2 {
        fill: #0d498c;
      }
    </style>
  </defs>
  <path class="cls-1" d="M17.66,95.71c2.87,3.32,5.26,5.75,5.59,8.9.04.38.08.76.13,1.14.02.14.03.28.05.42.03.24.06.48.09.72.02.16.04.31.06.47.03.23.06.45.09.68.02.16.05.32.07.48.03.22.06.44.1.66.03.16.05.33.08.49.03.21.07.43.1.64.03.17.06.34.09.51.04.21.07.41.11.62.03.17.06.33.09.5.04.2.08.41.11.61.03.17.07.33.1.49.04.2.08.4.12.6.03.16.07.33.1.49.04.2.08.39.13.59.04.16.07.33.11.49.04.19.09.38.13.57.04.16.08.32.12.48.05.19.09.37.14.56.04.16.08.31.12.47.05.18.1.36.14.54.04.16.09.31.13.47.05.18.1.35.15.52.04.15.09.3.13.45.05.17.1.34.16.51.05.15.09.29.14.44.05.17.11.33.16.49.05.14.09.28.14.42.06.16.11.32.17.47.05.14.1.27.15.4.06.15.12.3.17.45.05.13.1.26.15.38.06.15.12.29.18.43.05.12.1.24.16.36.06.14.12.27.18.41.05.12.11.23.16.35.06.13.12.26.19.38.06.11.11.22.17.33.06.12.13.24.19.35.06.1.11.21.17.31.07.11.13.22.2.33.06.09.12.19.17.28.07.1.14.2.2.3.06.09.12.17.18.25.07.09.14.18.21.27.06.08.12.15.18.23.07.09.14.16.22.24.06.07.12.14.18.2.07.08.15.14.22.21.06.06.12.12.18.17.08.07.15.12.23.18.06.05.12.09.18.14.08.06.16.1.25.15.06.03.11.07.17.1.09.05.18.08.27.12.05.02.1.05.16.07.11.04.22.06.33.09.03,0,.07.02.1.03.15.02.29.04.44.04.15,0,.3-.01.46-.04,1.79-.32,3.25-1.32,4-4.53.08-.36.16-.74.22-1.15.07-.41.12-.85.17-1.33.05-.47.08-.98.11-1.51.03-.53.04-1.1.05-1.7,0,0,0-.01,0-.02,0-.45,0-.93,0-1.42-.02-1.49-.1-3.16-.23-5.05-.07-.97-.02-1.83.13-2.57,1.03-5.22,6.75-5.23,8.4-5.23,1.76,0,8.21.01,8.55,6.43.02.43.02.88-.02,1.37-.05.63-.08,1.23-.12,1.82-.03.58-.06,1.14-.08,1.68-.03.72-.04,1.4-.04,2.04,0,.64,0,1.25.02,1.82,0,.29.02.56.03.83.03.54.07,1.04.11,1.51.07.71.16,1.35.28,1.92.15.77.34,1.42.55,1.98.05.14.11.27.17.4.81,1.79,2,2.45,3.4,2.7.15.03.31.04.46.04.15,0,.29-.01.44-.04.04,0,.07-.02.11-.03.11-.02.22-.05.33-.08.06-.02.11-.05.16-.07.09-.04.18-.07.26-.11.06-.03.12-.07.18-.11.08-.05.16-.09.24-.15.06-.04.12-.09.19-.14.08-.06.15-.11.23-.17.06-.05.13-.12.19-.18.07-.07.14-.13.21-.2.06-.07.13-.14.19-.21.07-.08.14-.15.21-.23.06-.08.13-.16.19-.24.07-.09.13-.17.2-.26.06-.09.12-.18.19-.27.06-.09.13-.19.19-.29.06-.1.12-.2.18-.3.06-.1.13-.2.19-.31.06-.1.12-.21.18-.32.06-.11.12-.22.18-.34.06-.11.12-.23.18-.35.06-.12.12-.24.18-.36.06-.12.12-.25.17-.37.06-.13.11-.25.17-.38.06-.13.11-.26.17-.39.06-.13.11-.27.17-.4.06-.14.11-.28.16-.42.05-.14.11-.28.16-.42.05-.14.11-.29.16-.44.05-.14.1-.29.16-.44.05-.15.1-.3.15-.45.05-.15.1-.3.15-.46.05-.15.1-.31.15-.47.05-.16.1-.32.15-.48.05-.16.1-.32.14-.48.05-.16.09-.33.14-.49.05-.16.09-.33.14-.49.05-.17.09-.34.14-.51.04-.17.09-.33.13-.5.04-.17.09-.35.13-.52.04-.17.08-.35.13-.52.04-.18.08-.35.12-.53.04-.18.08-.35.12-.53.04-.18.08-.37.12-.55.04-.17.07-.35.11-.52.04-.19.08-.38.12-.58.03-.17.07-.34.1-.52.04-.2.07-.39.11-.59.03-.17.07-.35.1-.52.04-.2.07-.4.1-.59.03-.18.06-.35.09-.53.03-.2.07-.41.1-.62.03-.17.06-.34.08-.51.03-.21.06-.43.09-.64.02-.17.05-.33.07-.5.03-.23.06-.46.09-.69.02-.15.04-.3.06-.45.03-.27.07-.53.1-.8.01-.11.03-.23.04-.34.04-.38.09-.76.13-1.14.22-2.1,1.36-3.88,2.94-5.81.4-.48.82-.98,1.26-1.49.56-.65,1.16-1.33,1.78-2.05.22-.26.44-.53.67-.8.38-.46.77-.93,1.15-1.43.5-.65,1-1.33,1.5-2.05.5-.73.99-1.5,1.47-2.32.48-.82.95-1.69,1.39-2.62.45-.93.87-1.92,1.27-2.98.45-1.19.86-2.46,1.23-3.83.57-2.11,1.02-4.46,1.34-7.07.19-1.56.32-3.21.39-4.97,0-.07,0-.14.01-.21.04-.94.06-1.9.06-2.9,0-.67-.03-1.33-.07-1.97,0-.14-.02-.29-.03-.43-.05-.63-.12-1.25-.21-1.85-.01-.08-.03-.16-.04-.24-.09-.55-.2-1.08-.32-1.61-.03-.12-.05-.23-.08-.35-.14-.57-.3-1.12-.47-1.66-.03-.1-.07-.2-.11-.3-.17-.49-.35-.97-.54-1.43-.03-.07-.06-.15-.09-.22-.22-.51-.46-1-.71-1.48-.05-.1-.11-.2-.16-.3-.26-.47-.52-.93-.81-1.38,0-.01-.01-.02-.02-.04-.29-.45-.6-.89-.93-1.32-.07-.09-.13-.18-.2-.26-.32-.42-.66-.82-1.01-1.21-.03-.03-.06-.06-.09-.09-.33-.36-.68-.71-1.03-1.05-.07-.07-.14-.14-.22-.21-.37-.35-.76-.68-1.15-1-.06-.05-.13-.1-.19-.15-.36-.29-.74-.56-1.12-.83-.06-.04-.13-.09-.19-.13-.42-.28-.84-.55-1.28-.81-.09-.05-.18-.1-.26-.15-.42-.24-.84-.47-1.27-.68-.03-.02-.06-.03-.09-.05-.45-.22-.91-.42-1.38-.61-.1-.04-.2-.08-.3-.12-.47-.18-.94-.36-1.41-.51-.03,0-.06-.02-.08-.03-.45-.14-.91-.27-1.37-.39-.1-.03-.21-.05-.31-.08-.48-.11-.95-.21-1.43-.3-.08-.01-.16-.02-.24-.04-.43-.07-.86-.13-1.3-.18-.09-.01-.18-.02-.28-.03-.48-.05-.96-.08-1.44-.1-.1,0-.21,0-.31,0-.4,0-.81,0-1.21,0-.12,0-.23,0-.35,0-.49.02-.97.06-1.45.11-.1.01-.21.03-.31.04-.39.05-.77.11-1.15.17-.14.03-.28.05-.42.08-.41.08-.83.18-1.23.28-.06.02-.13.03-.19.05-.46.13-.91.27-1.36.43-.13.04-.26.09-.38.14-.34.13-.68.26-1.01.41-.12.05-.25.11-.37.16-.43.2-.85.41-1.27.64-.07.04-.13.08-.19.12-.35.2-.7.42-1.04.64-.12.08-.24.16-.36.24-.32.22-.63.45-.93.7-.08.06-.16.12-.24.19-.37.31-.72.63-1.07.97-.09.08-.17.17-.25.26-.27.27-.53.55-.78.85-.09.11-.18.21-.27.32-.32.38-.62.78-.91,1.2-.29-.42-.59-.81-.91-1.2-.09-.11-.18-.21-.27-.32-.25-.29-.51-.58-.78-.85-.08-.08-.16-.17-.25-.25-.35-.34-.71-.66-1.08-.97-.07-.06-.15-.12-.23-.18-.31-.25-.62-.48-.94-.71-.11-.08-.23-.16-.34-.24-.35-.23-.7-.45-1.07-.66-.06-.03-.11-.07-.17-.1-.42-.23-.85-.45-1.28-.65-.12-.05-.23-.1-.35-.15-.34-.15-.69-.29-1.04-.42-.12-.04-.24-.09-.36-.13-.45-.16-.91-.3-1.37-.43-.05-.01-.11-.03-.16-.04-.42-.11-.84-.21-1.26-.29-.14-.03-.27-.05-.41-.08-.39-.07-.78-.13-1.17-.18-.1-.01-.2-.03-.3-.04-.48-.05-.97-.09-1.45-.11-.12,0-.23,0-.35,0-.4-.01-.8-.01-1.21,0-.1,0-.21,0-.31,0-.48.02-.96.05-1.44.09-.09,0-.19.02-.28.03-.43.05-.86.11-1.29.18-.08.01-.17.02-.25.04-.48.08-.95.18-1.42.3-.11.03-.22.05-.32.08-.45.11-.9.24-1.34.38-.04.01-.07.02-.11.03-.47.15-.93.32-1.39.5-.11.04-.22.09-.32.13-.46.19-.91.39-1.36.6-.04.02-.09.04-.13.07-.41.2-.82.42-1.22.65-.1.06-.19.11-.29.17-.42.25-.84.51-1.25.79-.08.05-.15.11-.22.16-.36.25-.72.52-1.07.8-.07.06-.15.12-.23.18-.39.31-.76.64-1.13.98-.08.08-.16.15-.24.23-.34.32-.67.66-.99,1.01-.04.04-.08.08-.12.13-.34.38-.67.78-.99,1.19-.07.1-.15.19-.22.29-.32.42-.62.85-.91,1.3-.02.02-.03.05-.04.07-.27.43-.53.88-.78,1.33-.06.11-.12.21-.17.32-.25.48-.48.96-.7,1.47-.03.08-.07.16-.1.25-.19.46-.37.92-.53,1.4-.04.11-.08.21-.11.32-.17.54-.33,1.08-.47,1.65-.03.12-.06.24-.08.36-.12.52-.23,1.05-.32,1.59-.01.08-.03.16-.04.24-.09.6-.16,1.22-.21,1.84-.01.14-.02.29-.03.43-.04.65-.07,1.3-.07,1.97,0,8.12,1.23,14.22,3.02,18.97.4,1.06.82,2.05,1.27,2.98.45.93.91,1.8,1.39,2.62,1.2,2.05,2.47,3.78,3.72,5.31.5.61.99,1.19,1.47,1.74Z"/>
  <path class="cls-1" d="M81.35,36.57c1.1,1.92,3.56,2.58,5.47,1.48-.24.14-.46.3-.66.47-.4.35-.72.78-.94,1.24-.57,1.16-.56,2.56.13,3.76,1.1,1.92,3.56,2.58,5.47,1.48-1.92,1.1-2.58,3.56-1.48,5.47.07.12.16.23.24.34.06.08.11.17.18.25.04.05.08.09.12.13.15.17.32.32.49.46,0,0,.01.01.02.02.18.14.38.26.59.36.05.03.1.05.16.08.19.09.39.17.6.22.02,0,.03.01.04.01.22.06.44.09.67.11.06,0,.11,0,.17.01.21.01.43,0,.64-.02.02,0,.03,0,.05,0,.23-.03.45-.08.68-.15.05-.02.11-.04.16-.05.22-.08.45-.17.66-.3l13.29-7.65-12-20.85-13.29,7.65c-.72.41-1.26,1.02-1.6,1.71-.23.46-.36.97-.4,1.48-.06.77.11,1.56.52,2.28h0Z"/>
  <path class="cls-2" d="M17.95,105.16c.7,6.73,2.04,13.12,3.76,17.98.99,2.8,4.01,11.33,11.05,11.33.47,0,.94-.04,1.4-.12,3.82-.68,6.53-3.14,7.85-7.11,1.11-3.36,1.38-8.06.86-15.23-.07-1.02.11-1.45.16-1.5.09-.1.66-.58,3.05-.58s2.96.48,3.05.58c.05.06.24.48.16,1.5-.52,7.17-.26,11.87.86,15.23,1.31,3.97,4.03,6.43,7.85,7.11.46.08.93.12,1.4.12,7.04,0,10.06-8.53,11.05-11.33,1.72-4.87,3.06-11.25,3.76-17.98.12-1.14,1.65-2.9,3.43-4.94,5.2-5.96,13.06-14.97,13.06-36.15,0-2.38-.24-4.62-.68-6.72.9.28,1.84.45,2.81.45,1.63,0,3.24-.43,4.65-1.24l13.29-7.65,30.22,52.53c.95,1.66,3.07,2.23,4.73,1.27l1.08-.62c1.66-.95,2.23-3.07,1.27-4.73L101.99,17.26c-.95-1.66-3.07-2.23-4.73-1.27l-1.08.62c-.67.39-1.15.97-1.44,1.63-.37.13-.74.28-1.09.48l-13.49,7.76c-2.16,1.24-3.71,3.26-4.36,5.66-.62,2.3-.34,4.7.77,6.8-4.41-2.48-9.39-3.76-14.28-3.76-6.22,0-11.87,1.97-16.23,5.54-4.36-3.57-10.01-5.54-16.23-5.54-13.76,0-28.39,10.13-28.39,28.9,0,21.18,7.86,30.19,13.06,36.15,1.78,2.04,3.31,3.79,3.43,4.94ZM81.22,32.81c.34-.69.88-1.3,1.6-1.71l13.29-7.65,12,20.85-13.29,7.65c-.21.12-.44.22-.66.3-.05.02-.11.04-.16.05-.22.07-.45.12-.68.15-.02,0-.03,0-.05,0-.15.02-.3.03-.45.03-.07,0-.13,0-.2-.01-.06,0-.11,0-.17-.01-.23-.02-.45-.05-.67-.11-.02,0-.03-.01-.04-.01-.21-.06-.4-.14-.6-.22-.05-.02-.1-.05-.16-.08-.2-.1-.4-.22-.59-.36,0,0-.01-.01-.02-.02-.18-.14-.34-.29-.49-.46-.04-.04-.08-.09-.12-.13-.07-.08-.13-.16-.19-.25,0,0,.01,0,.02,0-.08-.11-.17-.22-.24-.34-1.1-1.92-.44-4.37,1.48-5.47-1.92,1.1-4.37.44-5.47-1.48-.69-1.2-.69-2.61-.13-3.76.23-.46.54-.88.94-1.24.2-.18.42-.34.66-.47-1.92,1.1-4.37.44-5.47-1.48h0c-.41-.72-.58-1.51-.52-2.28.04-.51.17-1.02.4-1.48ZM11.08,86.03c-.45-.93-.87-1.92-1.27-2.98-1.79-4.75-3.02-10.85-3.02-18.97h0c0-.67.03-1.33.07-1.97,0-.15.02-.29.03-.43.05-.63.12-1.24.21-1.84.01-.08.03-.16.04-.24.09-.54.2-1.07.32-1.59.03-.12.05-.24.08-.36.14-.56.3-1.11.47-1.65.04-.11.07-.21.11-.32.16-.48.34-.95.53-1.4.03-.08.07-.17.1-.25.22-.5.45-.99.7-1.47.06-.11.12-.22.17-.32.25-.46.51-.9.78-1.33.02-.02.03-.05.04-.07.29-.45.6-.88.91-1.3.07-.1.15-.19.22-.29.32-.41.65-.81.99-1.19.04-.04.08-.08.12-.13.32-.35.65-.68.99-1.01.08-.08.16-.16.24-.23.37-.34.74-.67,1.13-.98.07-.06.15-.12.23-.18.35-.28.71-.54,1.07-.8.07-.05.15-.11.22-.16.41-.28.83-.54,1.25-.79.1-.06.19-.11.29-.17.4-.23.81-.45,1.22-.65.04-.02.09-.05.13-.07.45-.22.9-.41,1.36-.6.11-.04.21-.09.32-.13.46-.18.93-.35,1.39-.5.04-.01.07-.02.11-.03.44-.14.89-.27,1.34-.38.11-.03.22-.06.32-.08.47-.11.95-.21,1.42-.3.08-.01.17-.03.25-.04.43-.07.86-.13,1.29-.18.09-.01.19-.02.28-.03.48-.05.96-.08,1.44-.09.1,0,.21,0,.31,0,.18,0,.35-.01.52-.01.23,0,.46.01.68.02.12,0,.23,0,.35,0,.49.02.97.06,1.45.11.1.01.2.03.3.04.39.05.78.11,1.17.18.14.02.27.05.41.08.42.08.84.18,1.26.29.05.01.11.02.16.04.46.13.92.27,1.37.43.12.04.24.09.36.13.35.13.7.27,1.04.42.12.05.23.1.35.15.43.2.86.41,1.28.65.06.03.11.07.17.1.36.21.72.43,1.07.66.12.08.23.16.34.24.32.22.64.46.94.71.08.06.15.12.23.18.37.31.73.63,1.08.97.08.08.16.17.25.25.27.27.53.56.78.85.09.11.18.21.27.32.32.39.62.78.91,1.2.29-.42.59-.81.91-1.2.09-.11.18-.22.27-.32.25-.29.51-.57.78-.85.08-.09.17-.18.25-.26.35-.34.7-.66,1.07-.97.08-.06.16-.12.24-.19.3-.24.61-.47.93-.7.12-.08.24-.16.36-.24.34-.23.68-.44,1.04-.64.07-.04.13-.08.19-.12.41-.23.84-.44,1.27-.64.12-.06.25-.11.37-.16.33-.15.67-.28,1.01-.41.13-.05.25-.1.38-.14.45-.16.9-.3,1.36-.43.06-.02.12-.03.19-.05.41-.11.82-.2,1.23-.28.14-.03.28-.05.42-.08.38-.07.77-.13,1.15-.17.1-.01.21-.03.31-.04.48-.05.96-.09,1.45-.11.12,0,.23,0,.35,0,.23,0,.45-.02.68-.02.17,0,.35,0,.53.01.1,0,.21,0,.31,0,.48.02.96.05,1.44.1.09,0,.18.02.28.03.43.05.87.11,1.3.18.08.01.16.02.24.04.48.08.96.19,1.43.3.1.02.21.05.31.08.46.12.92.24,1.37.39.03,0,.06.02.08.03.48.15.95.33,1.41.51.1.04.2.08.3.12.46.19.93.39,1.38.61.03.01.06.03.09.05.43.21.85.44,1.27.68.09.05.18.1.26.15.43.25.86.52,1.28.81.06.04.13.09.19.13.38.26.75.54,1.12.83.06.05.13.1.19.15.39.32.78.65,1.15,1,.07.07.14.14.22.21.35.34.7.69,1.03,1.05.03.03.06.06.09.09.35.39.68.79,1.01,1.21.07.09.13.17.2.26.32.43.63.86.93,1.32,0,.01.01.02.02.04.28.44.55.9.81,1.38.05.1.11.2.16.3.25.48.49.97.71,1.48.03.07.06.15.09.22.19.47.37.94.54,1.43.03.1.07.2.11.3.18.54.33,1.09.47,1.66.03.12.05.23.08.35.12.52.23,1.06.32,1.61.01.08.03.16.04.24.09.6.16,1.22.21,1.85.01.14.02.29.03.43.04.65.07,1.3.07,1.97,0,1-.02,1.96-.06,2.9,0,.07,0,.14-.01.21-.07,1.76-.21,3.41-.39,4.97-.31,2.61-.77,4.95-1.34,7.07-.37,1.37-.78,2.64-1.23,3.83-.4,1.06-.82,2.05-1.27,2.98-.45.93-.91,1.8-1.39,2.62-.48.82-.97,1.59-1.47,2.32-.5.73-1,1.41-1.5,2.05-.39.5-.77.97-1.15,1.43-.23.27-.45.54-.67.8-.62.72-1.21,1.4-1.78,2.05-.44.51-.87,1.01-1.26,1.49-1.58,1.94-2.72,3.71-2.94,5.81-.04.38-.08.76-.13,1.14-.01.11-.03.23-.04.34-.03.27-.06.53-.1.8-.02.15-.04.3-.06.45-.03.23-.06.46-.09.69-.02.17-.05.33-.07.5-.03.21-.06.43-.09.64-.03.17-.05.34-.08.51-.03.21-.07.41-.1.62-.03.18-.06.35-.09.53-.03.2-.07.4-.1.59-.03.18-.06.35-.1.52-.04.2-.07.39-.11.59-.03.17-.07.34-.1.52-.04.19-.08.39-.12.58-.04.18-.07.35-.11.52-.04.18-.08.37-.12.55-.04.18-.08.35-.12.53-.04.18-.08.35-.12.53-.04.17-.08.35-.13.52-.04.17-.09.35-.13.52-.04.17-.09.34-.13.5-.04.17-.09.34-.14.51-.05.17-.09.33-.14.49-.05.17-.09.33-.14.49-.05.16-.09.32-.14.48-.05.16-.1.32-.15.48-.05.16-.1.31-.15.47-.05.15-.1.31-.15.46-.05.15-.1.3-.15.45-.05.15-.1.29-.16.44-.05.15-.11.29-.16.44-.05.14-.11.28-.16.42-.05.14-.11.28-.16.42-.06.14-.11.27-.17.4-.06.13-.11.26-.17.39-.06.13-.11.26-.17.38-.06.13-.12.25-.17.37-.06.12-.12.24-.18.36-.06.12-.12.23-.18.35-.06.12-.12.23-.18.34-.06.11-.12.22-.18.32-.06.11-.12.21-.19.31-.06.1-.12.2-.18.3-.06.1-.13.19-.19.29-.06.09-.12.18-.19.27-.07.09-.13.18-.2.26-.06.08-.13.16-.19.24-.07.08-.14.16-.21.23-.06.07-.13.14-.19.21-.07.07-.14.14-.21.2-.06.06-.13.12-.19.18-.07.06-.15.12-.23.17-.06.05-.12.1-.19.14-.08.05-.16.1-.24.15-.06.03-.12.07-.18.11-.09.04-.17.08-.26.11-.05.02-.11.05-.16.07-.11.04-.22.06-.33.08-.04,0-.07.02-.11.03-.14.02-.29.04-.44.04,0,0,0,0,0,0-.15,0-.3-.01-.46-.04-1.4-.25-2.58-.91-3.4-2.7-.06-.13-.11-.26-.17-.4-.22-.56-.4-1.21-.55-1.98-.11-.58-.21-1.21-.28-1.92-.05-.47-.08-.98-.11-1.51-.01-.27-.02-.55-.03-.83-.02-.57-.02-1.18-.02-1.82,0-.64.02-1.32.04-2.04.02-.54.05-1.1.08-1.68.03-.58.07-1.19.12-1.82.04-.49.04-.94.02-1.37-.33-6.42-6.78-6.43-8.55-6.43-1.65,0-7.37,0-8.4,5.23-.15.75-.2,1.6-.13,2.57.14,1.88.21,3.56.23,5.05,0,.5,0,.97,0,1.42,0,0,0,.01,0,.02,0,.6-.02,1.17-.05,1.7-.03.54-.07,1.04-.11,1.51-.05.47-.1.91-.17,1.33-.07.41-.14.8-.22,1.15-.75,3.2-2.21,4.21-4,4.53-.15.03-.31.04-.46.04,0,0,0,0,0,0-.15,0-.29-.01-.44-.04-.03,0-.07-.02-.1-.03-.11-.02-.22-.05-.33-.09-.05-.02-.1-.04-.16-.07-.09-.04-.18-.07-.27-.12-.06-.03-.11-.07-.17-.1-.08-.05-.17-.09-.25-.15-.06-.04-.12-.09-.18-.14-.08-.06-.16-.12-.23-.18-.06-.05-.12-.11-.18-.17-.07-.07-.15-.14-.22-.21-.06-.06-.12-.13-.18-.2-.07-.08-.14-.16-.22-.24-.06-.07-.12-.15-.18-.23-.07-.09-.14-.18-.21-.27-.06-.08-.12-.17-.18-.25-.07-.1-.14-.2-.2-.3-.06-.09-.12-.19-.17-.28-.07-.11-.13-.21-.2-.33-.06-.1-.11-.2-.17-.31-.06-.12-.13-.23-.19-.35-.06-.11-.11-.22-.17-.33-.06-.13-.13-.25-.19-.38-.05-.11-.11-.23-.16-.35-.06-.13-.12-.27-.18-.41-.05-.12-.1-.24-.16-.36-.06-.14-.12-.29-.18-.43-.05-.13-.1-.25-.15-.38-.06-.15-.12-.3-.17-.45-.05-.13-.1-.27-.15-.4-.06-.16-.11-.31-.17-.47-.05-.14-.1-.28-.14-.42-.05-.16-.11-.33-.16-.49-.05-.14-.09-.29-.14-.44-.05-.17-.1-.34-.16-.51-.05-.15-.09-.3-.13-.45-.05-.17-.1-.35-.15-.52-.04-.15-.09-.31-.13-.47-.05-.18-.1-.36-.14-.54-.04-.16-.08-.31-.12-.47-.05-.19-.09-.37-.14-.56-.04-.16-.08-.32-.12-.48-.04-.19-.09-.38-.13-.57-.04-.16-.07-.32-.11-.49-.04-.2-.09-.39-.13-.59-.03-.16-.07-.33-.1-.49-.04-.2-.08-.4-.12-.6-.03-.16-.07-.33-.1-.49-.04-.2-.08-.41-.11-.61-.03-.17-.06-.33-.09-.5-.04-.2-.07-.41-.11-.62-.03-.17-.06-.34-.09-.51-.04-.21-.07-.43-.1-.64-.03-.16-.05-.33-.08-.49-.03-.22-.07-.44-.1-.66-.02-.16-.05-.32-.07-.48-.03-.23-.06-.45-.09-.68-.02-.16-.04-.31-.06-.47-.03-.24-.06-.48-.09-.72-.02-.14-.04-.28-.05-.42-.04-.38-.09-.76-.13-1.14-.33-3.15-2.73-5.57-5.59-8.9-.48-.55-.97-1.13-1.47-1.74-1.24-1.53-2.52-3.26-3.72-5.31-.48-.82-.95-1.69-1.39-2.62Z"/>
</svg>