<svg xmlns="http://www.w3.org/2000/svg" width="120" height="120" viewBox="0 0 120 120">
  <g id="グループ_37" data-name="グループ 37" transform="translate(-430 -220)">
    <g id="楕円形_1" data-name="楕円形 1" transform="translate(430 220)" fill="none" stroke="#fff" stroke-width="2">
      <circle cx="60" cy="60" r="60" stroke="none"/>
      <circle cx="60" cy="60" r="59" fill="none"/>
    </g>
    <path id="前面オブジェクトで型抜き_1" data-name="前面オブジェクトで型抜き 1" d="M51.5,103A51.513,51.513,0,0,1,31.454,4.047,51.513,51.513,0,0,1,71.546,98.953,51.178,51.178,0,0,1,51.5,103ZM47.251,65.87c1.684,0,1.9.985,1.9,1.842h-.009A7.741,7.741,0,0,0,45,68.689,3.384,3.384,0,0,0,43.375,71.7a3.068,3.068,0,0,0,3.172,3.173,3.4,3.4,0,0,0,2.813-1.31h.057l.171,1.1h2.527a15.542,15.542,0,0,1-.152-2.508V68.283c0-2.925-1.406-4.408-4.18-4.408a7.348,7.348,0,0,0-3.667.893l.532,1.824A5.125,5.125,0,0,1,47.251,65.87Zm22.02-2.014a4.423,4.423,0,0,0-3.584,1.691,6.374,6.374,0,0,0-1.261,3.971c0,3.343,1.918,5.339,5.13,5.339a8.988,8.988,0,0,0,3.42-.607l-.4-1.939a7.647,7.647,0,0,1-2.584.437c-1.768,0-2.821-.921-2.888-2.527h6.327a6.4,6.4,0,0,0,.076-1.121,6.028,6.028,0,0,0-1.157-3.9A3.865,3.865,0,0,0,69.271,63.856Zm-31.9-4.009a7.093,7.093,0,0,0-5.035,1.931,7.853,7.853,0,0,0-2.128,5.764,7.745,7.745,0,0,0,1.765,5.282,6.562,6.562,0,0,0,5.057,2.033,8.192,8.192,0,0,0,3.23-.551l-.4-2.261a6.559,6.559,0,0,1-2.375.418,4.055,4.055,0,0,1-3.156-1.3,5.556,5.556,0,0,1-1.176-3.777,5.681,5.681,0,0,1,1.271-3.918A4.055,4.055,0,0,1,37.5,62.2a5.747,5.747,0,0,1,2.336.475l.551-2.28A6.507,6.507,0,0,0,37.371,59.846Zm17.955,4.237v2.071h1.406v8.512h2.812V66.155h2.091V64.084h-2.11c0-1.061,0-2.66,1.578-2.66a2.953,2.953,0,0,1,1.026.171l.209-2.166a5.511,5.511,0,0,0-1.672-.248,3.8,3.8,0,0,0-2.743,1.036,4.64,4.64,0,0,0-1.19,3.43v.437ZM38.563,39.614h.019v6.917h1.824V43.889a7.689,7.689,0,0,1,1.254,1.14l.741-.836v2.223h1.843V43.7a6.63,6.63,0,0,1,1.235,1.064l.913-1.1v1.12c0,.192-.059.229-.248.248-.466,0-.882-.006-1.235-.019a4.849,4.849,0,0,1,.494,1.5h.057a5.514,5.514,0,0,0,2.157-.255c.473-.231.675-.666.675-1.454v-6.84H44.244V36.878h4.693V35.093H38.867V34.086h9.272V29.24H36.758v5.453c0,3.6-.248,7.675-2.09,10.564a8.1,8.1,0,0,1,1.786,1.2,16.876,16.876,0,0,0,2.109-6.839Zm-20.71-1.653v8.55h2.432V37.848a21.665,21.665,0,0,0,6.194,6.726,10.4,10.4,0,0,1,1.748-2.014A19.314,19.314,0,0,1,21.2,35.3h6.27V33.041H20.285V29.127c.359-.057.513-.167.532-.38l-2.964-.152v4.446H10.69V35.3h6.175a18.389,18.389,0,0,1-6.916,7.447,12.373,12.373,0,0,1,1.691,1.939,19.956,19.956,0,0,0,6.212-6.723Zm15.808.931h0a56.942,56.942,0,0,1-2.546,6.232l2.394,1.33a.588.588,0,0,0,.058-.247.574.574,0,0,0-.171-.418c.641-1.449,1.444-3.573,2.146-5.681l-1.881-1.216ZM75.4,29.715v16.53H77.76V44.992h8.17v1.235h2.451V29.715ZM56.157,39.633v0l-.019,6.229h2.355c-.019-.988-.019-4.541-.019-8.3,1.659-1.819,3.568-3.04,4.75-3.04.734,0,1.121.585,1.121,1.691,0,.161-.017.352-.035.554l0,.036c-.281,3.24-.284,4.853-.284,4.92a4.537,4.537,0,0,0,.6,2.682,2.418,2.418,0,0,0,2.137.871,5.944,5.944,0,0,0,3.02-1.139c-.075-.492-.228-2.035-.228-2.66A5.409,5.409,0,0,1,67.2,42.749c-.6,0-.7-.465-.7-1.444a48.989,48.989,0,0,1,.3-4.921c.019-.224.038-.455.038-.684,0-2.318-1.1-3.648-3.021-3.648-1.475,0-3.4,1-5.281,2.736A14.649,14.649,0,0,1,59.6,32.395l-.817-.342c.053-.659.146-1.56.247-2.413.311-.052.49-.186.533-.4l-3.1-.209s0,.109-.008.285c-.024.772-.088,2.823-.105,3.1a27.572,27.572,0,0,1-3.4.209l.038,2.337a23.2,23.2,0,0,0,3.249-.323c-.009.223-.014.438-.019.646s-.01.432-.019.647a17.067,17.067,0,0,1-4.1,4.959l1.1,2.261a17.115,17.115,0,0,0,2.963-3.512Zm-23.94-5.776h0l-1.255,1.672a12.528,12.528,0,0,1,3.1,1.919l1.349-1.842a11.841,11.841,0,0,0-3.191-1.749Zm.931-5.168-1.292,1.672a12.79,12.79,0,0,1,3.078,2.014L36.3,30.551a13.813,13.813,0,0,0-3.154-1.862ZM47.46,72.861a1.287,1.287,0,0,1-1.33-1.444c0-1.261,1.042-1.9,3.1-1.9v1.52A1.763,1.763,0,0,1,47.46,72.861Zm23.446-4.6h-3.8c.066-.911.561-2.452,1.994-2.452a1.568,1.568,0,0,1,1.163.462,2.894,2.894,0,0,1,.642,1.989Zm-28.5-24.6,0,0a8.2,8.2,0,0,0-1.442-1.043l-.551.589V41.343a6.588,6.588,0,0,1,1.329,1.064l.665-.835v2.09Zm3.991-.038,0,0a8.985,8.985,0,0,0-1.614-1.2l-.532.589V41.21a8.073,8.073,0,0,1,1.463,1.121l.684-.912v2.2Zm39.539-.932H77.76V38.436h8.17v4.255ZM46.391,41.039h0a8.882,8.882,0,0,0-1.5-.967l-.646.8V39.652h2.147v1.387ZM42.4,41h0a8.874,8.874,0,0,0-1.385-.91l-.607.722V39.652H42.4V41Zm0-3.04H38.753l.057-1.083H42.4V37.96ZM85.93,36.176H77.76V32.015h8.17v4.16ZM45.954,32.261H38.867v-1.2h7.087v1.2Z" transform="translate(439 229)" fill="#fff"/>
  </g>
</svg>
