<svg viewBox="0 0 24 24" xmlns="http://www.w3.org/2000/svg">
  <path d="M 22.483 11.985 C 22.459 9.978 21.862 8.019 20.761 6.34 C 19.661 4.661 18.104 3.332 16.272 2.508 C 14.441 1.685 12.414 1.401 10.427 1.692 C 8.44 1.982 6.579 2.834 5.061 4.147 C 3.542 5.461 2.43 7.18 1.857 9.103 C 1.283 11.027 1.271 13.075 1.822 15.005 C 2.372 16.936 3.464 18.669 4.967 20 C 6.469 21.331 8.322 22.205 10.304 22.52 L 10.304 15.054 L 7.671 15.054 L 7.671 11.985 L 10.304 11.985 L 10.304 9.654 C 10.243 9.113 10.302 8.564 10.476 8.047 C 10.651 7.53 10.937 7.058 11.314 6.664 C 11.691 6.27 12.149 5.963 12.657 5.766 C 13.164 5.567 13.71 5.484 14.254 5.521 C 15.044 5.531 15.832 5.602 16.611 5.731 L 16.611 8.365 L 15.295 8.365 C 15.067 8.334 14.837 8.359 14.619 8.431 C 14.403 8.503 14.205 8.624 14.039 8.783 C 13.876 8.942 13.751 9.137 13.67 9.351 C 13.591 9.564 13.561 9.795 13.583 10.023 L 13.583 12.011 L 16.507 12.011 L 16.033 15.079 L 13.597 15.079 L 13.597 22.453 C 16.084 22.06 18.351 20.786 19.98 18.867 C 21.611 16.946 22.498 14.504 22.483 11.985 Z" style=""></path>
</svg>