<?xml version="1.0" encoding="UTF-8"?><svg id="b" xmlns="http://www.w3.org/2000/svg" width="393.505" height="287.248" viewBox="0 0 393.505 287.248"><defs><style>.f{fill:#7abee6;}.f,.g,.h,.i,.j{stroke-width:0px;}.g{fill:#fff;}.h{fill:#3d8dcc;}.i{fill:#211715;}.j{fill:#645d5c;}</style></defs><g id="c"><g id="d"><path class="i" d="m257.348,240.755c-5.573,0-11.145,0-16.718,0-8.044,0-16.089,0-24.133,0-9.775,0-19.549,0-29.324,0-10.91,0-21.821,0-32.731,0-11.281,0-22.562,0-33.843,0-11.07,0-22.14,0-33.21,0-10.092,0-20.184,0-30.276,0-8.522,0-17.045,0-25.567,0-6.208,0-12.415,0-18.623,0-3.262,0-6.523,0-9.785,0-.274,0-.547,0-.821,0-3.089,0-3.094,4.8,0,4.8,2.435,0,4.87,0,7.304,0,5.575,0,11.15,0,16.725,0,7.995,0,15.989,0,23.984,0,9.805,0,19.61,0,29.414,0,10.859,0,21.718,0,32.577,0,11.328,0,22.656,0,33.984,0,11.028,0,22.056,0,33.084,0,10.144,0,20.288,0,30.432,0,8.501,0,17.003,0,25.504,0,6.233,0,12.466,0,18.699,0,1.108,0,2.215,0,3.323,0,3.089,0,3.094-4.8,0-4.8h0Z"/><path class="g" d="m150.006,144.855l.357.094c-3.055,11.829-6.527,23.768-10.169,34.958-4.034,12.39-5.361,16.603-10.527,29.342h-1.668c-5.165-12.739-6.493-16.951-10.527-29.342-3.651-11.19-7.114-23.13-10.169-34.958l.349-.094c6.57,3.055,13.862,4.434,21.172,4.238,7.318.196,14.611-1.183,21.181-4.238Z"/><path class="j" d="m186.599,83.164c1.026,6.005.184,13.414-3.598,20.09-5.12,9.038-14.054,14.265-26.435,13.699h-6.963l-42.167-.756h-7.011c-13.075-1.559-21.745-5.763-26.384-14.549-4.051-7.673-3.898-16.379-2.426-25.042,1.711-9.587,3.873-21.128,6.058-30.614,3.344-14.514,6.276-22.206,13.409-29.912,6.37-6.19,19.716-13.685,35.844-13.685,9.837,0,16.762,1.816,23.411,4.552l1.208.694s2.229,1.282,5.525,3.176c8.698,4.009,14.356,12.731,17.085,18.38,3.644,7.555,4.568,18.743,6.403,27.472,2.183,10.362,4.467,17.454,6.041,26.184v.312Z"/><path class="g" d="m112.347,119.885c.045-.804.057-1.389.064-1.961-4.753-2.194-9.137-5.849-12.969-10.435-4.507-5.395-7.155-11.188-8.671-16.084-1.999.462-4.138-.288-5.567-1.458-3.298-2.699-4.667-6.463-5.502-8.923-1.179-3.474-1.254-9.089.503-12.136.589-1.021,1.956-2.759,5.171-2.873,1.789-.063,3.943.628,5.23,2.526.38-.123.599-.195.599-.195l4.481-1.465c7.937-2.573,14.096-4.506,22.883-8.928,16.123-8.114,20.969-11.432,29.893-19.321,6.493,8.13,13.243,18.796,17.271,27.029,0,0,.885,1.928,1.352,2.946,1.28-1.949,3.462-2.656,5.27-2.593,3.215.113,4.582,1.852,5.171,2.873,1.757,3.047,1.683,8.662.503,12.136-.835,2.46-2.203,6.224-5.502,8.923-1.359,1.112-3.359,1.845-5.272,1.522l-.363-.061c-.625,1.822-1.406,3.442-1.669,4.242-1.341,3.639-8.812,16.494-18.226,21.312,0,1.21-.002,2.03.129,3.925.083,1.072.166,2.228.564,3.272.527,1.368,1.248,2.561,2.394,3.494,1.473,1.186,2.977,1.992,4.615,2.711-1.071,4.671-2.217,9.373-3.429,14.078-6.787,3.345-14.402,4.86-22.034,4.655-7.955.214-15.89-1.441-22.889-5.091-1.114-4.346-2.173-8.689-3.17-13.007,2.27-.898,4.214-1.806,6.145-3.344,1.15-.94,1.87-2.13,2.4-3.5.4-1.04.48-2.2.56-3.27.027-.371.048-.7.065-1Z"/><path class="i" d="m121.4,103.619c2.456,1.297,5.1,1.85,7.878,1.832,2.88-.019,5.731-.611,8.03-2.403.995-.775.875-2.591,0-3.394-1.055-.969-2.332-.827-3.394,0,.812-.633-.147.061-.412.2-.212.111-.779.266-.077.06-.221.065-.434.167-.654.238-.599.193-1.211.316-1.831.418.347-.057.188-.025-.066,0-.18.018-.36.033-.54.044-.433.028-.868.039-1.302.036-.389-.002-.777-.016-1.165-.042-.178-.012-.356-.026-.534-.044-.101-.01-.753-.131-.15-.013-.576-.112-1.147-.211-1.711-.38-.24-.072-.473-.158-.71-.239-.574-.196.449.221-.07-.024-.293-.138-.583-.283-.87-.434-1.11-.586-2.66-.318-3.284.861-.586,1.109-.324,2.658.861,3.284h0Z"/><path class="i" d="m127.872,85.3c.335,1.276.656,2.571.847,3.877l-.086-.638c.023.179.033.355.015.535l.086-.638c-.013.083-.031.161-.059.241l.242-.573c-.025.056-.051.104-.085.155l.375-.486c-.04.048-.078.086-.127.125l.486-.375c-.098.063-.201.114-.307.163l.573-.242c-.169.071-.337.122-.518.151l.638-.086c-.163.019-.323.018-.486,0l.638.086c-.183-.026-.363-.07-.546-.095-.319-.1-.638-.114-.957-.043-.319.014-.617.109-.892.285-.498.291-.973.862-1.103,1.434-.14.614-.11,1.304.242,1.849.312.484.835,1.022,1.434,1.103.453.061.894.175,1.355.196.727.032,1.396-.194,2.044-.493.809-.373,1.443-1.123,1.658-1.993.183-.74.107-1.358-.019-2.1-.211-1.249-.5-2.487-.821-3.712-.152-.579-.588-1.133-1.103-1.434s-1.273-.429-1.849-.242c-1.25.404-2.018,1.651-1.676,2.952h0Z"/><path class="i" d="m107.771,74.212c-.647,2.104-.225,6.944,3.76,7.356,5.268-.032,5.548-5.883,3.775-8.634-1.452-2.253-5.721-3.189-7.535,1.279Z"/><path class="i" d="m149.957,74.212c.648,2.104.226,6.944-3.76,7.355-5.268-.032-5.549-5.883-3.775-8.634,1.452-2.252,5.721-3.189,7.535,1.279Z"/><path class="i" d="m69.3,75.968c-1.829,10.93-1.583,22.786,5.923,31.665,6.022,7.123,15.486,9.719,24.381,10.862,2.564.33,5.248.102,7.831.102,3.089,0,3.094-4.8,0-4.8-2.212,0-4.429.049-6.64,0-1.682-.037-3.396-.418-5.041-.745-2.174-.432-4.327-.985-6.42-1.719-7.605-2.669-13.097-8.188-15.22-16.045-1.587-5.875-1.18-12.105-.187-18.045.214-1.277-.336-2.584-1.676-2.952-1.15-.316-2.737.391-2.952,1.676h0Z"/><path class="i" d="m152.756,5.568c-3.093-1.778-6.684-2.866-10.132-3.738-4.512-1.142-9.181-1.701-13.83-1.813-9.655-.233-19.204,1.936-27.818,6.304-3.429,1.738-6.67,3.839-9.626,6.299-2.638,2.196-4.821,4.916-6.728,7.76-4.415,6.585-6.693,14.338-8.551,21.965-2.706,11.106-4.761,22.374-6.77,33.623-.228,1.275.346,2.587,1.676,2.952,1.161.319,2.723-.393,2.952-1.676,1.719-9.625,3.505-19.245,5.643-28.787,1.722-7.683,3.505-15.65,7.337-22.604,1.566-2.841,3.438-5.48,5.653-7.841,2.166-2.309,4.775-4.072,7.493-5.702,7.287-4.371,15.691-7.013,24.185-7.447,5.173-.264,10.435.096,15.497,1.213,2.162.477,4.292,1.091,6.383,1.819.987.344,1.963.719,2.935,1.102.678.267.241.113.112.044.156.085.309.177.462.266l.704.405c2.683,1.542,5.103-2.604,2.423-4.145h0Z"/><path class="i" d="m184.285,83.802c1.384,8.449-1.465,17.719-7.531,23.788-2.526,2.527-5.619,4.443-9.012,5.567-3.698,1.225-7.41,1.462-11.277,1.396-2.286-.039-4.575,0-6.861,0-3.089,0-3.094,4.8,0,4.8,6.376,0,12.929.495,19.091-1.462,8.778-2.788,15.267-9.568,18.547-18.075,2.118-5.492,2.622-11.5,1.673-17.29-.21-1.28-1.798-1.993-2.952-1.676-1.36.374-1.887,1.668-1.676,2.952h0Z"/><path class="i" d="m158.569,14.34c7.404,4.62,12.923,12.78,15.362,21.086,1.464,4.988,2.24,10.154,3.101,15.271.902,5.359,2.06,10.651,3.364,15.927,1.385,5.603,2.853,11.184,3.888,16.866.232,1.276,1.782,1.998,2.952,1.676,1.342-.369,1.909-1.673,1.676-2.952-1.946-10.689-5.255-21.069-7.082-31.788-.896-5.259-1.662-10.566-3.109-15.71-1.243-4.42-3.182-8.553-5.709-12.381-3.166-4.795-7.122-9.083-12.021-12.14-2.628-1.64-5.041,2.511-2.423,4.145h0Z"/><path class="i" d="m165.375,87.508c-.238,1.754-.815,3.421-1.477,5.056-.251.619-.522,1.231-.768,1.852-.09.227-.534,1.334-.216.606-.738,1.689-1.648,3.303-2.612,4.872-2.81,4.577-6.22,8.878-10.387,12.295-2.271,1.862-4.832,3.312-7.662,3.97-3.007.7-1.734,5.329,1.276,4.629,6.008-1.398,11.022-5.751,14.956-10.312,3.253-3.771,6.276-8.008,8.36-12.553,1.316-2.87,2.733-6.006,3.158-9.141.174-1.283-.309-2.577-1.676-2.952-1.119-.307-2.777.383-2.952,1.676h0Z"/><path class="i" d="m87.537,88.629c1.838,7.893,5.579,15.263,10.905,21.373,5.227,5.998,12.175,11.095,20.206,12.3,1.28.192,2.58-.321,2.952-1.676.311-1.133-.387-2.759-1.676-2.952-7.313-1.097-13.329-5.606-18.088-11.066-4.787-5.493-8.023-12.179-9.67-19.255-.7-3.007-5.33-1.734-4.629,1.276h0Z"/><path class="i" d="m91.557,65.959c-2.761-2.464-6.723-3.038-10.076-1.426-2.426,1.166-3.866,3.531-4.498,6.076-1.441,5.802.006,12.436,3.304,17.379,2.263,3.391,5.841,6.444,10.189,5.88,1.285-.167,2.4-.984,2.4-2.4,0-1.167-1.106-2.568-2.4-2.4-3.206.416-5.37-2.167-6.79-4.73-1.198-2.162-2.125-4.675-2.351-7.146s-.199-5.313,1.177-7.466c.093-.133.068-.107-.074.079.07-.087.143-.172.22-.253.061-.06.545-.511.36-.369.427-.327.902-.521,1.42-.645,1.3-.312,2.713-.088,3.726.815,2.299,2.051,5.705-1.332,3.394-3.394h0Z"/><path class="i" d="m169.566,69.353c1.013-.904,2.426-1.125,3.726-.815.515.122.997.321,1.42.645-.134-.103.766.913.453.464,1.465,2.104,1.454,5.098,1.23,7.545-.221,2.417-1.116,4.866-2.268,6.992-1.417,2.615-3.604,5.308-6.873,4.884-1.288-.167-2.4,1.223-2.4,2.4,0,1.436,1.109,2.232,2.4,2.4,7.094.921,11.411-6.78,13.184-12.501,1.577-5.089,1.564-12.963-3.303-16.329-3.337-2.308-8.028-1.698-10.963.921-2.31,2.061,1.095,5.446,3.394,3.394h0Z"/><path class="i" d="m104.55,133.018c3.156-1.313,6.5-2.918,8.386-5.911,1.73-2.745,1.834-6.042,1.876-9.193.017-1.256-1.116-2.458-2.4-2.4-1.315.059-2.382,1.054-2.4,2.4-.015,1.136-.072,2.27-.163,3.402-.015.183-.03.366-.048.549-.019.186-.067.488-.01.137-.06.368-.132.734-.24,1.091-.043.142-.094.282-.144.422-.217.609.13-.225-.04.096-.159.301-.296.608-.471.901-.069.115-.14.229-.215.341-.117.176-.253.342-.041.083-.215.264-.448.514-.698.745-.103.095-.211.183-.317.275.303-.263-.072.052-.138.099-.293.213-.592.417-.897.612-.564.361-1.149.689-1.746.992-.315.159-.633.311-.954.457-.13.059-.26.117-.39.175-.037.016-.687.29-.225.098-1.154.48-2.11,1.611-1.676,2.952.359,1.11,1.711,2.193,2.952,1.676h0Z"/><path class="i" d="m144.595,116.993c0,3.049.013,6.23,1.302,9.044,1.394,3.045,4.324,4.913,7.273,6.256,1.14.519,2.636.364,3.284-.861.556-1.053.359-2.728-.861-3.284-1.273-.58-2.505-1.241-3.639-2.065-.096-.07-.417-.333-.174-.129-.133-.112-.265-.225-.391-.345-.222-.21-.429-.435-.622-.672.212.26.077.095-.04-.082-.074-.112-.146-.225-.214-.341-.175-.293-.312-.599-.47-.9-.163-.311.11.34,0,.002-.06-.185-.135-.364-.19-.551-.102-.346-.166-.699-.229-1.053-.027-.173-.025-.158.007.045l-.025-.237c-.012-.157-.029-.314-.042-.471-.033-.392-.059-.784-.083-1.177-.063-1.06-.083-2.118-.083-3.179,0-1.255-1.104-2.458-2.4-2.4s-2.4,1.055-2.4,2.4h0Z"/><path class="i" d="m106.847,146.924c7.132,3.275,14.58,4.557,22.388,4.572s15.272-1.304,22.388-4.572c1.178-.541,1.469-2.243.861-3.284-.707-1.209-2.101-1.404-3.284-.861-6.324,2.905-13.059,3.93-19.965,3.917s-13.628-1.006-19.965-3.917c-1.177-.541-2.584-.334-3.284.861-.605,1.034-.322,2.74.861,3.284h0Z"/><path class="g" d="m169.375,90.026c-3.145,0-5.318,2.212-5.318,4.8,0,2.896,2.22,4.89,5.319,4.89,3.218,0,5.319-2.013,5.319-4.89,0-2.606-2.185-4.8-5.319-4.8Z"/><path class="i" d="m169.375,87.626c-3.294.04-6.232,1.878-7.364,5.02-1.072,2.977.229,6.325,2.729,8.108,2.458,1.753,6.05,1.759,8.675.396,2.809-1.46,4.049-4.667,3.535-7.691-.611-3.594-4.125-5.792-7.575-5.834-1.256-.015-2.458,1.115-2.4,2.4.059,1.313,1.054,2.384,2.4,2.4.16.002.319.015.478.017.419.007-.122.001-.176-.035.162.108.532.1.731.156.14.039.275.09.414.134.382.121-.15-.043-.179-.08.124.152.546.285.724.403.057.038.441.286.083.052-.342-.224-.001.013.062.072.154.143.287.352.449.48-.394-.312-.235-.341-.105-.118.054.093.117.182.17.276.052.092.091.2.149.287.079.168.042.076-.112-.277.032.081.061.162.088.244.062.189.067.466.159.633-.018-.032-.05-.635-.034-.245.005.134.017.267.017.401,0,.093-.002.187-.007.28-.012.243-.153.528.032-.095-.068.229-.088.474-.158.704-.029.096-.09.206-.102.303.061-.478.2-.409.066-.168-.101.182-.205.359-.313.538-.14.231-.272.152.115-.14-.056.042-.113.131-.164.186-.085.091-.174.178-.266.262-.221.2-.341.131.095-.059-.187.081-.36.241-.544.339-.11.059-.253.102-.355.173.039-.027.565-.2.198-.094-.223.065-.441.14-.668.191-.121.027-.317.026-.426.079l.344-.048c-.1.011-.201.019-.302.025-.257.016-.516.019-.773.008-.1-.004-.2-.016-.301-.02-.533-.022.571.114.056.008-.232-.047-.461-.097-.687-.166-.088-.027-.174-.061-.262-.087-.401-.121.533.27-.044-.026-.196-.1-.377-.22-.563-.335-.184-.115-.116-.218.177.143-.075-.093-.199-.17-.287-.255-.092-.089-.489-.575-.236-.23.257.35.006-.003-.035-.066-.07-.107-.135-.217-.195-.329-.124-.231-.091-.46.024.106-.016-.078-.064-.168-.09-.245-.071-.212-.115-.429-.167-.646-.117-.487.027.599.014.09-.002-.094-.012-.189-.015-.283-.003-.137-.002-.274.006-.41.019-.332.16-.313-.025.115.095-.219.13-.522.2-.753.109-.36-.068.184-.095.214.101-.115.161-.323.242-.457.045-.074.095-.144.14-.218.228-.375-.405.419-.014.023.143-.146.425-.334.521-.508l-.275.208c.072-.054.146-.107.221-.157.114-.076.231-.148.351-.215.099-.055.217-.096.309-.16.166-.078.083-.044-.25.1.089-.035.179-.069.27-.099.282-.096.57-.157.861-.219.351-.075-.115.104-.18.023.031.038.564-.03.636-.031,1.255-.015,2.459-1.093,2.4-2.4-.058-1.287-1.055-2.416-2.4-2.4Z"/><path class="f" d="m63.374,253.668c-5.747,0-10.691-1.495-13.771-3.116-3.299-1.736-5.782-4.683-7.949-7.77-3.123-4.45-3.925-10.461-3.135-15.886,3.028-20.78,9.329-40.578,15.309-60.673,1.01-3.394,2.043-5.98,3.915-8.964l.161-.335c7.457-11.632,21.273-17.216,37.379-23.618,2.754-2.298,5.63-4.35,7.803-5.742,3.875,17.207,8.938,35.607,14.386,52.338,4.037,12.396,5.366,16.603,10.529,29.346h1.666c5.164-12.743,6.493-16.95,10.529-29.346,5.448-16.731,10.511-35.131,14.386-52.338,2.033,1.302,4.68,3.181,7.268,5.3,16.583,6.59,30.865,12.161,38.493,24.059l.161.335c1.871,2.984,2.904,5.57,3.915,8.964,5.981,20.094,12.282,39.893,15.309,60.673.79,5.424-.011,11.436-3.135,15.886-2.167,3.087-4.651,6.035-7.949,7.77-3.081,1.621-8.025,3.116-13.771,3.116H63.374Z"/><path class="i" d="m117.32,208.587c-9.214-15.973-18.322-32.018-26.828-48.382-.557-1.071-1.11-2.143-1.661-3.217-.044-.087-.421-.909-.329-.471.037.175-.493.632.239-.153.433-.465.871-.926,1.314-1.382,1.884-1.942,3.847-3.805,5.82-5.656,1.124-1.055.825-3.021-.486-3.769-1.188-.678-2.377-1.357-3.565-2.035-.559-.319-1.118-.638-1.678-.958-.28-.16-.559-.319-.839-.479-.14-.08-.28-.16-.419-.239-.307-.199-.287-.15.062.145l.328,1.211c-.024.556.227-.261.352-.469.2-.333.416-.656.639-.974.439-.622.933-1.2,1.441-1.766,1.281-1.429,2.68-2.752,4.126-4.013,2.658-2.319,5.495-4.433,8.461-6.342l-3.526-1.434c5.046,22.361,11.39,44.484,18.961,66.123,1.835,5.244,3.869,10.412,5.954,15.561.486,1.201,1.599,2.048,2.952,1.676,1.139-.313,2.166-1.744,1.676-2.952-8.12-20.056-14.53-40.832-20.037-61.745-1.743-6.617-3.372-13.264-4.878-19.939-.333-1.474-2.261-2.249-3.526-1.434-4.645,2.99-9.181,6.444-12.975,10.473-.929.987-1.798,2.028-2.597,3.124-.771,1.057-1.738,2.399-1.808,3.739-.115,2.21,1.795,3.061,3.44,4,1.678.958,3.355,1.915,5.033,2.873l-.486-3.769c-1.857,1.742-3.704,3.495-5.487,5.314-1.755,1.792-3.85,3.634-3.098,6.402.3,1.103.99,2.156,1.512,3.167.591,1.146,1.186,2.29,1.783,3.432,1.106,2.114,2.222,4.223,3.348,6.328,4.668,8.73,9.483,17.381,14.367,25.992,2.737,4.826,5.497,9.638,8.269,14.443,1.543,2.675,5.693.261,4.145-2.423h0Z"/><path class="i" d="m144.492,211.01c9.779-16.952,19.449-33.984,28.387-51.399.69-1.345,1.35-2.686.938-4.24-.373-1.406-1.505-2.426-2.478-3.439-1.985-2.067-4.063-4.04-6.152-6l-.486,3.769c1.678-.958,3.355-1.915,5.033-2.873,1.642-.937,3.565-1.787,3.44-4-.073-1.295-.98-2.584-1.719-3.615-.819-1.142-1.722-2.224-2.686-3.247-3.795-4.029-8.331-7.482-12.975-10.473-1.265-.814-3.193-.039-3.526,1.434-5.046,22.361-11.39,44.484-18.961,66.123-1.835,5.244-3.869,10.412-5.954,15.561-.487,1.202.529,2.637,1.676,2.952,1.372.377,2.464-.47,2.952-1.676,8.12-20.056,14.53-40.832,20.037-61.745,1.743-6.617,3.372-13.264,4.878-19.939l-3.526,1.434c2.965,1.909,5.803,4.023,8.461,6.342,1.445,1.261,2.844,2.584,4.126,4.013.508.566,1.002,1.144,1.441,1.766.224.317.439.641.639.974.125.208.376,1.025.352.469l.328-1.211c.199-.383.321-.261-.148-.025-.286.144-.561.32-.839.479-.629.359-1.258.718-1.887,1.077-1.188.678-2.377,1.357-3.565,2.035-1.311.748-1.61,2.714-.486,3.769,1.741,1.633,3.473,3.275,5.151,4.973.392.397.781.797,1.166,1.2.327.342.972.786,1.14,1.215-.199-.509-.221-.098-.413.275-.275.535-.55,1.07-.826,1.605-2.08,4.028-4.201,8.035-6.352,12.026-4.439,8.238-9,16.409-13.622,24.545-2.547,4.484-5.113,8.956-7.69,13.423-1.546,2.681,2.6,5.101,4.145,2.423h0Z"/><path class="i" d="m63.371,251.265c-4.546-.033-9.491-.854-13.423-3.278-3.758-2.316-7.1-6.649-8.397-10.859-1.517-4.924-.742-9.845.112-14.81.972-5.651,2.173-11.26,3.526-16.832,2.744-11.299,6.108-22.434,9.445-33.568,1.432-4.778,2.721-9.389,5.298-13.697,2.002-3.348,4.929-6.227,7.983-8.619,8.22-6.435,18.392-10.159,27.994-13.974,1.204-.478,2.047-1.605,1.676-2.952-.315-1.145-1.741-2.158-2.952-1.676-9.362,3.72-19.078,7.335-27.379,13.16-3.787,2.658-7.16,5.745-9.953,9.441-3.018,3.994-4.775,8.605-6.196,13.364-3.509,11.754-7.124,23.484-10.089,35.391-1.462,5.87-2.765,11.782-3.817,17.74-.998,5.651-1.988,11.255-.646,16.94s5.267,11.013,9.983,14.431,11.158,4.555,16.834,4.596c3.089.022,3.093-4.778,0-4.8h0Z"/><path class="i" d="m161.841,135.265c-.625,0,.239.259.38.315.267.106.535.213.802.319.597.238,1.194.476,1.791.715,1.238.495,2.475.993,3.71,1.498,2.248.919,4.485,1.863,6.698,2.864,4.099,1.853,8.136,3.887,11.903,6.355,3.486,2.285,6.69,4.999,9.319,8.247,2.738,3.383,4.495,7.372,5.733,11.515,3.33,11.146,6.755,22.271,9.665,33.536,1.452,5.622,2.773,11.28,3.882,16.981,1.009,5.187,2.366,10.671,1.741,15.983-.619,5.262-3.661,10.042-7.727,13.375-4.005,3.283-9.845,4.261-14.865,4.297-3.087.022-3.094,4.822,0,4.8,5.215-.037,10.739-1.043,15.332-3.629,2.381-1.34,4.415-3.27,6.137-5.371s3.258-4.261,4.297-6.775c2.196-5.314,1.925-10.851,1.047-16.408-.971-6.14-2.224-12.233-3.663-18.28-2.877-12.087-6.487-23.981-10.05-35.878-1.499-5.005-2.921-10.039-5.84-14.442-2.579-3.889-5.857-7.147-9.561-9.962-4.258-3.236-9.011-5.761-13.854-7.998-2.749-1.27-5.54-2.45-8.34-3.601-1.426-.586-2.855-1.162-4.286-1.734-1.251-.5-2.891-1.521-4.249-1.521-3.089,0-3.094,4.8,0,4.8h0Z"/><path class="g" d="m129.322,184.666c-28.574.207-57.009.373-67.106.407-1.606.005-2.9,1.309-2.894,2.916.059,16.404.85,73.175,1.452,94.042.046,1.593,1.363,2.846,2.957,2.822,9.125-.141,37.385-.054,65.591.043,28.205-.096,56.466-.183,65.591-.043,1.594.025,2.911-1.229,2.957-2.822.603-20.867,1.394-77.638,1.452-94.042.006-1.606-1.287-2.91-2.894-2.916-10.097-.034-38.532-.2-67.106-.407Z"/><path class="i" d="m62.216,182.673c-1.839.112-3.538.928-4.52,2.544-.691,1.137-.776,2.384-.77,3.674.007,1.573.019,3.146.031,4.719.034,4.237.079,8.473.128,12.709.125,10.888.276,21.775.445,32.662.165,10.598.343,21.197.57,31.794.045,2.114.093,4.228.145,6.341.047,1.91-.126,4.008.244,5.887.535,2.717,2.972,4.252,5.608,4.243.588-.002,1.176-.011,1.764-.015,4.833-.032,9.666-.039,14.499-.048,7.75-.015,15.501-.023,23.251-.029,9.11-.007,18.221-.009,27.331-.009s18.132.004,27.197.011c7.451.006,14.902.014,22.353.031,4.415.01,8.831.013,13.246.051,1,.009,1.967.04,2.939-.283,1.712-.57,3.026-2.043,3.445-3.79.235-.98.174-2.058.201-3.062.112-4.186.203-8.372.288-12.558.223-10.905.402-21.811.566-32.717.16-10.633.304-21.267.42-31.901.042-3.914.082-7.829.108-11.744.013-1.914.298-4.105-.679-5.827-1.108-1.955-3.12-2.681-5.254-2.686-4.135-.01-8.27-.01-12.405-.013-7.313-.004-14.627-.006-21.94-.008-8.982-.002-17.964-.003-26.946-.003-9.245,0-18.49,0-27.735.001-8.108.001-16.216.003-24.325.006-5.454.002-10.907.004-16.361.011-1.281.002-2.563.003-3.844.007-3.088.01-3.094,4.81,0,4.8,3.552-.012,7.105-.011,10.657-.013,6.763-.005,13.527-.007,20.29-.008,8.577-.002,17.155-.003,25.732-.004,9.129,0,18.258,0,27.388,0,8.29,0,16.58.002,24.869.005,6.098.002,12.196.004,18.294.01,1.798.002,3.596.003,5.394.006.493,0,1.08-.087,1.565.004.917.171.508,2.389.503,3.172-.054,8.572-.161,17.143-.272,25.714-.143,11.048-.306,22.095-.492,33.142-.16,9.501-.329,19.003-.567,28.503-.022.866-.044,1.732-.068,2.598-.013.47.16,1.476-.255,1.771-.312.222-1.195.068-1.586.065-1.706-.014-3.413-.021-5.119-.027-5.924-.022-11.848-.032-17.772-.04-8.203-.011-16.407-.018-24.61-.021-9.068-.004-18.136-.005-27.204-.002-8.54.002-17.079.007-25.619.017-6.618.007-13.236.016-19.854.036-2.145.006-4.29.013-6.434.025-.717.004-1.433.008-2.15.014-.393.003-1.229.145-1.528-.084-.431-.329-.235-1.439-.249-1.951-.024-.873-.046-1.746-.068-2.619-.051-2.033-.097-4.067-.141-6.1-.105-4.807-.197-9.614-.284-14.421-.2-11.042-.371-22.085-.524-33.127-.132-9.537-.254-19.074-.339-28.612-.014-1.597-.027-3.193-.037-4.79-.004-.662-.4-3.207.48-3.261,3.069-.187,3.09-4.988,0-4.8Z"/><path class="i" d="m72.984,275.188c13.781-.085,27.564-.013,41.345.029,16.7.051,33.399-.025,50.1-.051,6.588-.01,13.177-.019,19.766.022,3.089.019,3.093-4.781,0-4.8-13.477-.084-26.956-.012-40.434.031-16.864.053-33.726-.028-50.59-.052-6.729-.01-13.458-.02-20.186.022-3.088.019-3.094,4.819,0,4.8h0Z"/><path class="i" d="m120.226,227.552c-.004,1.879-.006,3.758-.002,5.637.004,2.119-.287,4.447,1.358,6.082,1.596,1.586,3.788,1.325,5.843,1.323,1.85-.002,3.7-.001,5.551.003,1.087.003,2.136-.04,3.113-.586,1.052-.589,1.918-1.679,2.182-2.863.223-1,.146-2.074.149-3.093.003-.99.004-1.979.004-2.969,0-.904,0-1.808-.002-2.713-.002-1.131-.06-2.231-.687-3.22-.709-1.118-1.874-1.905-3.188-2.082-.863-.116-1.738-.074-2.607-.074-2.064,0-4.129,0-6.193,0-1.203,0-2.39.034-3.43.734-1.315.885-2.019,2.249-2.089,3.821-.056,1.256,1.144,2.456,2.4,2.4,1.348-.06,2.34-1.055,2.4-2.4.027-.61-.142.486.037-.078l-.097.251c.142-.222.119-.202-.069.062.158-.1.266-.125-.088.038.496-.229-.488.008.071-.044-.678.063.247.017.415.017.372,0,.744,0,1.116,0,1.537,0,3.073,0,4.61,0,.717,0,1.435,0,2.152,0,.204,0,.686-.078.872.008l-.279-.025c.256.083.229.067-.08-.046.492.202-.342-.204.063.053l-.16-.212c.128.231.126.197-.007-.101.173.545.05-.514.037.078-.007.305.001.611.002.917.001.763.002,1.525.002,2.288,0,1.577-.001,3.154-.01,4.73,0,.072.045.523-.004.567l.052-.27c-.021.118-.052.234-.093.347.105-.101.069-.464.004-.103l.158-.213c-.192.179-.163.166.086-.039-.55.144.381-.063.014.016-.352.075.604.023.007.007-.348-.009-.697-.002-1.045-.003-1.511-.003-3.022-.004-4.533-.003-.74,0-1.48.001-2.219.003-.3,0-.6.001-.9.002-.119,0-.415.048-.519-.006.305.047.37.047.193,0-.171-.054-.116-.029.164.074-.54-.228.413.272-.065-.05.187.264.209.285.067.063l.096.252-.053-.171c-.058-.266-.053-.235.013.094-.072-.065-.004-.655-.005-.763-.004-.847-.006-1.695-.008-2.542-.002-1.732,0-3.464.003-5.196.003-1.255-1.106-2.458-2.4-2.4-1.303.058-2.397,1.054-2.4,2.4Z"/><path class="i" d="m146.764,36.936c-5.628,4.97-11.269,9.165-17.884,12.886-9.146,5.145-18.546,9.691-28.511,13.008-3.261,1.085-6.535,2.133-9.802,3.201-2.923.956-1.672,5.592,1.276,4.629,7.733-2.528,15.51-4.92,22.945-8.255,5.152-2.311,10.185-4.948,15.131-7.669,3.485-1.917,6.908-3.953,10.154-6.254,3.53-2.503,6.844-5.29,10.085-8.152,2.32-2.049-1.085-5.433-3.394-3.394h0Z"/><path class="i" d="m146.764,40.33c7.345,9.229,13.611,19.388,18.529,30.102.541,1.178,2.244,1.469,3.284.861,1.21-.708,1.404-2.101.861-3.284-5.098-11.106-11.671-21.513-19.28-31.074-.808-1.015-2.551-.844-3.394,0-1.003,1.003-.81,2.377,0,3.394h0Z"/><g id="e"><path class="g" d="m253.78,230.354h129.357c0,13.543,0,32.589,0,46.536h-138.267c0-13.94,0-32.596-.003-46.536,1.396,0,3.52,0,8.914,0h0Z"/><path class="g" d="m236.477,182.245c.008.731.008,22.554.008,31.758,2.845,0,9.087,0,17.295,0,1.653,0,84.907,0,120.973,0,0-1.213,0-1.887,0-1.887,0-9.645,0-20.322,0-29.871-53.022,0-135.422,0-138.275,0Z"/><path class="g" d="m254.985,155.409c-5.8,0-11.822,0-15.146,0v-9.535c-1.219,0-2.174,0-2.83,0v-10.481c3.596,0,6.971,0,6.971,0,0,0,77.006,0,131.297,0v10.481c.85,0,1.79,0,2.83,0,0,0,0,4.574.001,9.535-25.171,0-82.14,0-123.123,0h0Z"/><path class="h" d="m253.78,230.354v-16.351c2.096,0,135.438,0,137.324,0,0,.419,0,11.18,0,16.351h-137.324Z"/><path class="i" d="m256.18,230.354v-16.351l-2.4,2.4c4.767,0,9.533,0,14.3,0,10.868,0,21.736,0,32.604,0,13.01,0,26.02,0,39.03,0,11.327,0,22.654,0,33.981,0,3.783,0,7.567,0,11.35,0,1.891,0,3.817.108,5.706,0,.117-.007.236,0,.353,0l-2.4-2.4c0,5.45,0,10.9,0,16.351l2.4-2.4h-123.669c-4.476,0-8.988-.167-13.462,0-.064.002-.129,0-.193,0-3.089,0-3.094,4.8,0,4.8h137.324c1.297,0,2.4-1.1,2.4-2.4,0-5.45,0-10.9,0-16.351,0-1.297-1.1-2.4-2.4-2.4-4.734,0-9.467,0-14.201,0-10.851,0-21.702,0-32.553,0-13.009,0-26.018,0-39.027,0-11.342,0-22.684,0-34.026,0-5.711,0-11.439-.131-17.149,0-.122.003-.245,0-.367,0-1.297,0-2.4,1.1-2.4,2.4v16.351c0,3.089,4.8,3.094,4.8,0Z"/><path class="i" d="m372.352,183.503c0,9.538,0,19.076,0,28.614,0,3.089,4.8,3.094,4.8,0,0-9.538,0-19.076,0-28.614,0-3.089-4.8-3.094-4.8,0h0Z"/><path class="i" d="m247.909,195.336c4.922,0,9.843,0,14.765,0,8.719,0,17.439,0,26.158,0,10.036,0,20.073,0,30.109,0,9.02,0,18.04,0,27.061,0,5.524,0,11.048,0,16.572,0h.963c3.089,0,3.094-4.8,0-4.8-4.922,0-9.843,0-14.765,0h-26.158c-10.036,0-20.073,0-30.109,0-9.02,0-18.04,0-27.061,0-5.524,0-11.048,0-16.572,0h-.963c-3.089,0-3.094,4.8,0,4.8h0Z"/><path class="i" d="m247.909,205.712c4.922,0,9.843,0,14.765,0h26.158c10.036,0,20.073,0,30.109,0,9.02,0,18.04,0,27.061,0,5.524,0,11.048,0,16.572,0h.963c3.089,0,3.094-4.8,0-4.8-4.922,0-9.843,0-14.765,0-8.719,0-17.439,0-26.158,0h-30.109c-9.02,0-18.04,0-27.061,0-5.524,0-11.048,0-16.572,0h-.963c-3.089,0-3.094,4.8,0,4.8h0Z"/><path class="i" d="m253.78,211.603c-5.765,0-11.53,0-17.295,0l2.4,2.4c0-9.512.002-19.025-.004-28.537,0-1.074.005-2.147-.004-3.221l-2.4,2.4c5.768,0,11.536,0,17.303,0,3.089,0,3.094-4.8,0-4.8-5.768,0-11.536,0-17.303,0-1.289,0-2.411,1.1-2.4,2.4.07,8.051.008,16.105.008,24.156,0,2.534,0,5.068,0,7.602,0,1.297,1.1,2.4,2.4,2.4,5.765,0,11.53,0,17.295,0,3.089,0,3.094-4.8,0-4.8h0Z"/><path class="i" d="m380.737,231.926c0,14.988,0,29.976,0,44.964l2.4-2.4h-132.623c-1.782,0-3.628-.139-5.407,0-.078.006-.159,0-.237,0l2.4,2.4c0-15.512,0-31.024-.003-46.536l-2.4,2.4c2.971,0,5.943,0,8.914,0,3.089,0,3.094-4.8,0-4.8-2.971,0-5.943,0-8.914,0-1.297,0-2.4,1.1-2.4,2.4.004,15.512.003,31.024.003,46.536,0,1.297,1.1,2.4,2.4,2.4h121.238c5.586,0,11.208.183,16.792,0,.079-.003.158,0,.237,0,1.297,0,2.4-1.1,2.4-2.4,0-14.988,0-29.976,0-44.964,0-3.089-4.8-3.094-4.8,0h0Z"/><path class="i" d="m255.246,256.022c5.277,0,10.555,0,15.832,0,8.681,0,17.362,0,26.043,0h29.887c8.956,0,17.912,0,26.868,0,5.83,0,11.66,0,17.489,0h1.186c3.089,0,3.094-4.8,0-4.8-5.277,0-10.555,0-15.832,0-8.681,0-17.362,0-26.043,0h-29.887c-8.956,0-17.912,0-26.868,0-5.83,0-11.66,0-17.489,0h-1.186c-3.089,0-3.094,4.8,0,4.8h0Z"/><path class="i" d="m255.246,244.702c5.277,0,10.555,0,15.832,0h26.043c9.962,0,19.925,0,29.887,0h26.868c5.83,0,11.66,0,17.489,0h1.186c3.089,0,3.094-4.8,0-4.8-5.277,0-10.555,0-15.832,0h-26.043c-9.962,0-19.925,0-29.887,0h-26.868c-5.83,0-11.66,0-17.489,0h-1.186c-3.089,0-3.094,4.8,0,4.8h0Z"/><path class="i" d="m255.246,267.237h14.526c8.362,0,16.723,0,25.085,0h28.728c8.646,0,17.292,0,25.938,0,5.408,0,10.816,0,16.223,0h1.041c3.089,0,3.094-4.8,0-4.8-4.842,0-9.684,0-14.526,0h-25.085c-9.576,0-19.152,0-28.728,0-8.646,0-17.292,0-25.938,0-5.408,0-10.816,0-16.223,0h-1.041c-3.089,0-3.094,4.8,0,4.8h0Z"/><path class="h" d="m243.98,117.988c54.068,0,135.959,0,135.959,0v17.404c-54.424,0-135.959,0-135.959,0,0-1.457,0-9.641,0-17.404Z"/><path class="i" d="m380.506,154.153v-8.28c0-1.297-1.1-2.4-2.4-2.4-3.528,0-7.056,0-10.584,0-1.255,0-2.458,1.104-2.4,2.4s1.055,2.4,2.4,2.4c3.528,0,7.056,0,10.584,0l-2.4-2.4v8.28c0,1.255,1.104,2.458,2.4,2.4s2.4-1.055,2.4-2.4h0Z"/><path class="i" d="m372.876,135.392v10.481c0,1.255,1.104,2.458,2.4,2.4s2.4-1.055,2.4-2.4v-10.481c0-1.255-1.104-2.458-2.4-2.4s-2.4,1.055-2.4,2.4h0Z"/><path class="i" d="m237.439,145.873v9.535c0,1.297,1.1,2.4,2.4,2.4,5.049,0,10.097,0,15.146,0,1.255,0,2.458-1.104,2.4-2.4s-1.055-2.4-2.4-2.4c-5.049,0-10.097,0-15.146,0l2.4,2.4v-9.535c0-1.255-1.104-2.458-2.4-2.4s-2.4,1.055-2.4,2.4h0Z"/><path class="i" d="m250.95,132.992c-4.647,0-9.294,0-13.942,0-1.297,0-2.4,1.1-2.4,2.4v10.481c0,1.297,1.1,2.4,2.4,2.4,4.972,0,9.944,0,14.916,0,8.917,0,17.835,0,26.752,0,10.288,0,20.577,0,30.865,0,9.231,0,18.463,0,27.694,0,5.601,0,11.202,0,16.803,0,.318,0,.635,0,.953,0,3.089,0,3.094-4.8,0-4.8-4.972,0-9.944,0-14.916,0-8.917,0-17.835,0-26.752,0-10.288,0-20.577,0-30.865,0-9.231,0-18.463,0-27.694,0-5.601,0-11.202,0-16.803,0-.318,0-.635,0-.953,0l2.4,2.4v-10.481l-2.4,2.4c4.647,0,9.294,0,13.942,0,3.089,0,3.094-4.8,0-4.8h0Z"/><path class="i" d="m243.98,120.388c23.163,0,46.327,0,69.49,0,18.597,0,37.194,0,55.791,0,3.559,0,7.118,0,10.677,0l-2.4-2.4v17.404l2.4-2.4c-23.249,0-46.498,0-69.747,0-18.529,0-37.058,0-55.586,0-3.542,0-7.084,0-10.626,0l2.4,2.4c0-5.801,0-11.602,0-17.404,0-3.089-4.8-3.094-4.8,0,0,5.801,0,11.602,0,17.404,0,1.297,1.1,2.4,2.4,2.4,10.292,0,20.583,0,30.875,0,22.166,0,44.331,0,66.497,0,12.862,0,25.725,0,38.587,0,1.297,0,2.4-1.1,2.4-2.4v-17.404c0-1.297-1.1-2.4-2.4-2.4-10.298.002-20.596,0-30.893,0-22.2,0-44.399,0-66.599,0-12.822,0-25.645,0-38.467,0-3.089,0-3.094,4.8,0,4.8Z"/><path class="f" d="m254.985,155.409c54.068,0,135.959,0,135.959,0v26.837c-54.424,0-135.959,0-135.959,0,0-1.457,0-19.074,0-26.837Z"/><path class="i" d="m254.985,157.809c23.163,0,46.327,0,69.49,0,18.597,0,37.194,0,55.791,0,3.559,0,7.118,0,10.677,0l-2.4-2.4v26.837l2.4-2.4c-23.249,0-46.498,0-69.747,0-18.529,0-37.058,0-55.586,0-3.542,0-7.084,0-10.626,0l2.4,2.4c0-8.946,0-17.891,0-26.837,0-3.089-4.8-3.094-4.8,0,0,8.946,0,17.891,0,26.837,0,1.297,1.1,2.4,2.4,2.4,10.292,0,20.583,0,30.875,0,22.166,0,44.331,0,66.497,0,12.862,0,25.725,0,38.587,0,1.297,0,2.4-1.1,2.4-2.4v-26.837c0-1.297-1.1-2.4-2.4-2.4-10.298.002-20.596,0-30.893,0-22.2,0-44.399,0-66.599,0-12.822,0-25.645,0-38.467,0-3.089,0-3.094,4.8,0,4.8Z"/><path class="i" d="m276.63,155.409v26.837c0,3.089,4.8,3.094,4.8,0v-1.026c0-3.089-4.8-3.094-4.8,0v1.026c0,3.089,4.8,3.094,4.8,0v-26.837c0-3.089-4.8-3.094-4.8,0h0Z"/><path class="i" d="m266.325,155.638v26.379c0,3.089,4.8,3.094,4.8,0v-26.379c0-3.089-4.8-3.094-4.8,0h0Z"/><path class="g" d="m380.41,163.088v11.477h-44.425c0-.089,0-.179,0-.179,0,0,0-9.4-.011-11.298,3.924,0,24.303,0,44.436,0Z"/><path class="i" d="m378.01,163.088v11.477l2.4-2.4h-44.425l2.4,2.4c0-3.826.009-7.651-.011-11.477l-2.4,2.4c14.812,0,29.624,0,44.436,0,3.089,0,3.094-4.8,0-4.8-14.812,0-29.624,0-44.436,0-1.292,0-2.407,1.1-2.4,2.4.021,3.826.011,7.651.011,11.477,0,1.297,1.1,2.4,2.4,2.4h44.425c1.297,0,2.4-1.1,2.4-2.4v-11.477c0-3.089-4.8-3.094-4.8,0Z"/></g></g></g></svg>