<?xml version="1.0" encoding="UTF-8"?><svg id="b" xmlns="http://www.w3.org/2000/svg" width="379.47" height="359.157" viewBox="0 0 379.47 359.157"><defs><style>.y{fill:#bdbdbd;}.y,.z,.aa,.ab,.ac,.ad,.ae{stroke-width:0px;}.z{fill:#7abee6;}.aa{fill:none;}.ab{fill:#fff;}.ac{fill:#3d8dcc;}.ad{fill:#211715;}.ae{fill:#645d5c;}</style></defs><g id="c"><path class="ab" d="M168.65,6.949c0-1.683.001-3.337.002-4.958-33.999,19.632-93.207,53.822-128.115,73.982-.013,30.429-.033,72.814-.039,98.052,34.828-20.109,94.592-54.625,128.113-73.986.011-24.02.027-63.156.039-93.089Z"/><g id="d"><path class="ac" d="M275.105,179.107c-4.095-2.365-8.183-4.726-12.241-7.069v-39.274c5.156,2.968,10.414,5.995,13.226,7.614,1.252.721,2.018,2.044,2.018,3.488.003,6.567.011,25.513.016,36.985-1.007-.581-2.014-1.163-3.02-1.744Z"/></g><g id="e"><path class="ac" d="M348.725,221.624c-2.428-1.402-4.928-2.846-7.491-4.326v-37.286c5.633,3.243,11.709,6.74,14.811,8.525,1.252.721,2.018,2.044,2.018,3.488.003,6.201.011,23.44.016,35.001-2.975-1.718-6.1-3.523-9.354-5.403Z"/></g><path class="ad" d="M347.322,185.824c2.213,1.274,4.427,2.548,6.64,3.822.708.408,1.563.739,1.928,1.525.262.564.174,1.243.174,1.851.001,2.895.003,5.789.004,8.684.003,7.641.006,15.281.009,22.922.001,3.369.002,6.737.002,10.106,0,2.574,4,2.578,4,0,0-14.02-.008-28.041-.015-42.061-.001-2.514-.921-4.605-3.135-5.934-2.501-1.502-5.061-2.913-7.589-4.368-2.235-1.286-4.252,2.169-2.019,3.454h0Z"/><path class="ad" d="M267.366,137.664c2.213,1.274,4.427,2.548,6.64,3.822.708.408,1.563.739,1.928,1.525.262.564.174,1.243.174,1.851.001,2.895.003,5.789.004,8.684.003,7.641.006,15.281.009,22.922.001,3.369.002,6.737.002,10.106,0,2.574,4,2.578,4,0,0-14.02-.008-28.041-.015-42.061-.001-2.514-.921-4.605-3.135-5.934-2.501-1.502-5.061-2.913-7.589-4.368-2.235-1.286-4.252,2.169-2.019,3.454h0Z"/><g id="f"><path class="ab" d="M377.404,296.917c0-6.19,0-32.869.005-58.726-29.568-17.08-100.431-58.002-151.668-87.591-15.937-9.203-29.975-17.31-40.276-23.27-29.043,16.789-70.638,40.824-103.722,59.93,52.055,30.051,175.729,101.469,192.241,111.003-.009,29.042-.009,58.62-.009,58.62v.283c.355-.204.71-.409.71-.409,2.87-1.652,86.339-49.893,102.718-59.354,0-.145,0-.307,0-.487Z"/></g><g id="g"><path class="ad" d="M295.675,188.676c-10.601-6.122-21.201-12.244-31.802-18.365-2.233-1.29-4.25,2.166-2.019,3.454,10.601,6.122,21.201,12.244,31.802,18.365,2.233,1.29,4.25-2.166,2.019-3.454h0Z"/></g><g id="h"><path class="ad" d="M247.071,172.581c-7.516-4.34-15.032-8.68-22.548-13.021-1.213-.7-2.426-1.401-3.638-2.101-.623-.36-1.396-.36-2.019,0-6.042,3.489-12.081,6.985-18.124,10.474-1.298.75-1.297,2.704,0,3.454,7.341,4.244,14.686,8.482,22.029,12.722,1.385.8,2.77,1.6,4.155,2.399.623.36,1.396.36,2.019,0,6.043-3.49,12.083-6.984,18.126-10.473.829-.479,1.07-1.376.919-2.259h0c-.182-1.066-1.494-1.663-2.46-1.398-1.128.31-1.579,1.392-1.397,2.46h0c.306-.752.613-1.505.919-2.258-6.043,3.489-12.083,6.983-18.126,10.473h2.019c-7.44-4.296-14.881-8.593-22.321-12.89-1.288-.744-2.576-1.487-3.863-2.232v3.454c6.042-3.489,12.081-6.985,18.124-10.474h-2.019c7.587,4.38,15.172,8.762,22.759,13.142,1.143.66,2.285,1.32,3.428,1.979,2.233,1.289,4.25-2.166,2.019-3.454Z"/></g><g id="i"><path class="ab" d="M228.855,152.398c6.645,3.837,13.595,7.851,20.72,11.966l-.092,1.352c1.249-.004,2.363.056,2.866.113l.754.085c.891,2.664,2.288,6.448,3.136,9.593,2.026-1.142,4.669-2.432,7.221-3.962,4.167-2.493,8.13-5.645,8.949-9.875.347-1.817.205-3.686-.027-5.521-.801-6.474-2.333-14.737-6.367-20.062-2.458-3.259-6.34-7.462-10.124-9.403,0,0-10.529-2.549-16.694-3.661s-11.731,3.764-11.731,3.764c-5.889,4.427-10.09,11.047-11.589,18.26l.357,3.417c2.267-1.908,5.238-2.334,8.88-.459.977.503,2.253,2.333,2.25,3.724l1.491.539"/></g><path class="ab" d="M213.258,154.481c.008-2.756.953-4.314,2.975-6.016,2.267-1.908,5.238-2.334,8.88-.459.977.503,2.253,2.333,2.25,3.724-.006,3.488-1.971,4.442-5.892,4.359-3.487-.074-6.363,3.852-7.752.653-.322-.742-.464-1.503-.461-2.261Z"/><path class="ab" d="M240.057,170.791c.156-.299.334-.581.533-.838.831-1.07,2.522-2.764,4.042-3.597,1.507-.826,6.476-.665,7.713-.528l.758.084c.812,2.433,2.048,5.8,2.902,8.761-5.646,4.085-13.547,5.275-15.992,2.505-1.069-1.212-1.075-4.242.044-6.388Z"/><path class="ad" d="M226.456,125.06c-6.316,4.796-10.851,11.668-12.508,19.456-.225,1.056.312,2.162,1.397,2.46.996.274,2.234-.336,2.46-1.397,1.427-6.704,5.186-12.901,10.67-17.065.859-.652,1.309-1.724.718-2.736-.495-.846-1.871-1.375-2.736-.718h0Z"/><path class="ad" d="M226.855,139.633v12.636c0,1.046.92,2.048,2,2s2-.879,2-2v-12.636c0-1.046-.92-2.048-2-2s-2,.879-2,2h0Z"/><path class="ad" d="M257.472,151.057c-.12-.85.027.488.043.72.044.623.078,1.247.107,1.871.066,1.413.114,2.83.087,4.245-.006.292-.013.584-.03.876-.014.234.114.754-.007.314.185.673-.57-.157.123-.092-.213-.02-.954.755-1.132.899-1.713,1.39-3.383,2.831-5.103,4.212-.519.417-.717,1.333-.514,1.946,1.098,3.327,2.336,6.608,3.263,9.99.347,1.264,1.815,1.823,2.938,1.195,7.374-4.122,17.578-8.327,17.364-18.317-.089-4.182-.942-8.572-1.969-12.618-1.016-4.003-2.494-8.042-5.008-11.361-2.921-3.857-6.408-7.689-10.735-9.98-2.274-1.204-4.297,2.248-2.019,3.454,3.403,1.802,6.168,4.693,8.584,7.645,2.328,2.846,3.825,6.08,4.855,9.595,1.024,3.497,1.659,7.113,2.09,10.727.241,2.02.442,4.191-.315,6.13-.638,1.634-1.871,2.98-3.159,4.132-3.419,3.058-7.74,4.922-11.706,7.139l2.938,1.195c-.927-3.381-2.165-6.663-3.263-9.99l-.514,1.946c1.908-1.533,3.752-3.145,5.669-4.667,1.377-1.093,1.581-2.251,1.64-3.914.097-2.758.018-5.62-.369-8.356-.151-1.071-1.515-1.657-2.46-1.397-1.151.316-1.548,1.386-1.397,2.46h0Z"/><path class="ad" d="M215.258,154.481c.004-.353.018-.704.055-1.055-.035.335-.002.016.012-.047.039-.182.073-.363.121-.542.031-.115.065-.23.102-.344-.003.01.205-.523.087-.252s.126-.238.122-.23c.082-.153.171-.302.265-.448.064-.098.131-.194.199-.29-.249.35.109-.124.139-.158.167-.191.344-.373.525-.55.245-.239.501-.464.761-.685.484-.412-.153.095.15-.113.162-.112.326-.219.496-.319.14-.082.286-.154.428-.232.331-.184.145-.071.054-.034.3-.122.614-.215.93-.287.128-.029.257-.055.387-.076-.409.065.243-.011.268-.012.349-.016.7-.007,1.047.029-.298-.031.166.029.233.042.189.037.376.079.562.127.394.103.787.226,1.163.38.247.101.502.217.738.35.093.052.418.329.101.041.134.122.257.253.386.381.251.248.12.133.058.052.104.135.195.28.283.425.09.147.17.298.251.45.193.367.068.164.038.081.065.183.12.369.157.559-.021-.106.009-.341-.016.007-.008.12-.003.243-.008.364-.003.062-.075.695-.027.403.038-.238-.091.353-.123.474-.04.149-.248.48.005.035-.022.038-.123.209-.121.232.005.044-.11.168-.136.216.277-.523.133-.048-.003-.019-.026.005-.177.166-.18.17.328-.364.155-.101-.001-.014-.147.082-.751.294-.243.146-.236.069-.463.151-.704.205-.157.036-.697.116-.266.064-.359.044-.72.067-1.081.079-1.364.043-2.643.068-3.938.563-.707.27-1.392.591-2.077.911-.124.058-.247.116-.372.172-.09.041-.563.194-.092.043-.217.07-.538.123-.728.232-.223.128.497-.031.103-.01-.184.01-.477-.08.077.032-.303-.061.122.061.162.082-.174-.108-.137-.074.112.105-.114-.123-.122-.122-.024.004l.068.094c-.06-.085-.115-.173-.166-.265-.199-.35.031.213-.141-.335-.146-.463-.193-.774-.201-1.232-.02-1.08-.905-2-2-2-1.069,0-2.02.915-2,2,.037,2.025.767,4.618,2.914,5.334,1.476.493,2.908-.149,4.232-.766.311-.145.623-.288.934-.434.525-.247-.371.126.179-.077.17-.063.338-.129.51-.186.345-.114.699-.211,1.059-.267-.453.071.143.005.201.003.199-.005.399.005.599.005,1.592.002,3.249-.165,4.678-.92,2.995-1.583,3.48-5.75,1.878-8.473-1.977-3.36-6.942-4.738-10.545-3.447-1.854.664-3.488,1.911-4.708,3.453-1.338,1.691-1.902,3.628-1.929,5.774-.013,1.081.929,2,2,2,1.095,0,1.987-.915,2-2Z"/><path class="ad" d="M254.989,172.941c-2.285,1.637-4.694,2.759-7.416,3.38-1.274.29-2.022.4-3.398.356-.246-.008-.491-.029-.736-.048-.089-.007-.388-.069.008.003-.112-.02-.224-.038-.335-.061-.213-.044-.425-.096-.632-.161-.124-.038-.245-.085-.368-.127-.22-.075.298.195,0-.009-.082-.056-.632-.384-.395-.215.235.168-.192-.19-.249-.246-.184-.185.232.412.013-.002-.043-.081-.158-.33-.004.046-.112-.273-.177-.563-.234-.851.076.387-.022-.348-.024-.442-.007-.278.002-.556.023-.832.032-.411.018-.201.005-.107.025-.179.063-.357.103-.533.072-.318.161-.633.273-.94.071-.194.095-.252.291-.589.07-.121.145-.238.222-.354.208-.316-.284.33.103-.139.441-.534.927-1.034,1.433-1.507.437-.409.876-.789,1.366-1.113.132-.087.265-.173.402-.252-.028.016.553-.275.171-.11-.293.126-.017.01.062-.01.117-.029.231-.067.348-.095.267-.065.538-.111.81-.15-.393.055-.069.011.009.005.19-.014.379-.036.569-.05.655-.049,1.312-.069,1.968-.073.989-.006,1.988.007,2.973.112,1.076.115,2-1.001,2-2,0-1.177-.921-1.885-2-2-2.35-.25-4.929-.239-7.242.264-1.506.328-2.753,1.302-3.887,2.3-1.155,1.017-2.336,2.22-3.007,3.621-1.252,2.613-1.7,6.7.664,8.86,1.979,1.809,4.97,1.999,7.503,1.685,3.809-.471,7.507-1.929,10.628-4.164.877-.628,1.299-1.743.718-2.736-.507-.867-1.854-1.35-2.736-.718h0Z"/><path class="ab" d="M236.836,93.923c6.405-3.976,14.909-3.643,21.271.877,6.212,4.414,8.433,12.638,5.772,19.473,1.369.614,2.461,1.895,2.704,3.418.332,2.078-.75,4.357-2.433,5.707-1.834,1.471-4.456,2.262-6.707,2.097-5.299,4.641-13.596,5.442-19.786,2.038-1.784-.981-3.381-2.287-4.727-3.812-6.367-7.205-6.479-19.146-.099-26.405,1.192-1.356,2.544-2.487,4.005-3.394Z"/><path class="ae" d="M238.25,93.132c-2.006,1.007-3.851,2.401-5.419,4.186-2.302,2.619-3.758,5.846-4.381,9.241,4.891,2.797,9.47,2.501,14.225,1.827,1.779-.158,4.357-.876,6.563-1.664,1.635-.584,3.248.117,3.926,1.819.361.907.76,2.179,1.23,3.379.775,1.978,3.062,2.89,4.996,2.01l.385-.175c1.241.063,2.514.128,2.514.128,2.053.105,3.963,1.73,4.296,3.808.332,2.078-.75,4.357-2.433,5.707-.199.159-.407.311-.622.454.77.635,1.638,1.134,2.578,1.452,1.846.629,3.908.553,5.717-.179.342-.144.679-.311.998-.493,2.008-1.175,3.458-3.257,3.871-5.547-1.082-.25-2.237-.549-2.946-1.395-.964-1.128-.792-2.792-.813-4.267-.031-1.615-.869-3.055-2.086-4.103-1.393-1.206-4.415-1.586-5.802-1.481,0,0-.026.002-.066.005-.144-5.026-2.535-9.964-6.872-13.045-5.904-4.194-13.653-4.783-19.857-1.669Z"/><path class="ad" d="M265.046,109.84c1.335-.081,2.354.068,3.642.531.527.189.878.423,1.32.92s.774,1.088.888,1.745.019,1.43.051,2.122c.047,1.004.209,1.992.66,2.899.885,1.782,2.728,2.529,4.553,2.958l-1.397-2.46c-.393,1.991-1.564,3.733-3.442,4.612-2.153,1.008-4.521.598-6.409-.748-.88-.627-2.226-.155-2.736.718-.587,1.004-.165,2.108.718,2.736,2.974,2.12,6.901,2.392,10.194.868,2.83-1.31,4.931-4.077,5.533-7.123.203-1.028-.283-2.199-1.397-2.46-.613-.144-1.468-.263-1.903-.692-.327-.323-.361-.933-.38-1.441-.071-1.955-.067-3.741-1.219-5.433-1.916-2.816-5.357-3.952-8.677-3.751-1.078.065-2,.872-2,2,0,1.032.916,2.066,2,2h0Z"/><path class="ad" d="M266.077,114.059c2.381-7.416-.157-15.806-6.365-20.541-5.871-4.478-14.075-5.639-20.917-2.813-7.216,2.981-11.74,9.722-12.57,17.385s2.381,15.558,8.703,20.086c7.298,5.228,17.92,4.361,24.431-1.721,1.885-1.761-.948-4.585-2.828-2.828-4.543,4.244-11.829,5.247-17.381,2.435-5.788-2.931-9.019-9.158-9.05-15.522-.03-6.111,2.852-12.074,8.234-15.182,5.118-2.956,11.64-2.874,16.799-.058,6.347,3.465,9.301,10.799,7.087,17.695-.789,2.457,3.072,3.509,3.857,1.063h0Z"/><path class="ad" d="M262.288,115.883c.465.033-.303-.101.11.011.156.043.315.074.469.124.179.058.419.2.123.04.143.078.288.149.427.234.14.086.388.284.125.065.125.104.247.212.362.328s.224.236.327.363c-.283-.348.008.038.061.127.084.14.159.284.229.431-.196-.412-.004.029.026.135.045.159.08.32.107.483-.077-.463-.014.038-.012.148.003.172-.01.342-.017.514-.018.458.087-.256-.028.152-.047.168-.079.34-.129.507-.019.063-.227.621-.141.422.091-.211-.137.267-.166.321-.084.157-.174.31-.27.46-.033.052-.335.475-.204.306s-.202.228-.244.273c-.12.13-.245.254-.375.374-.046.043-.426.355-.278.244.145-.11-.276.187-.333.224-.159.104-.321.202-.486.296-1.171.665-2.562,1.025-3.808,1.055-1.045.026-2.049.902-2,2,.048,1.062.88,2.027,2,2,4.305-.106,8.621-2.446,10.081-6.659.663-1.914.523-4.205-.63-5.908-1.235-1.824-3.134-2.912-5.327-3.067-1.046-.074-2.046.973-2,2,.051,1.147.88,1.921,2,2h0Z"/><path class="ad" d="M239.192,116.025c-.007.128-.087,1.405-1.133,2.092-.686.45-1.374.339-1.591.301-.167-.03-1.251-.242-1.749-1.318-.472-1.019-.258-2.467.701-3.262.995-.824,2.308-.595,3.05.168.668.687.745,1.369.722,2.019Z"/><path class="ad" d="M249.869,118.206c-.007.128-.087,1.405-1.133,2.092-.686.45-1.374.339-1.591.301-.167-.03-1.251-.242-1.749-1.318-.472-1.019-.258-2.467.701-3.262.995-.824,2.308-.595,3.05.168.668.687.745,1.369.722,2.019Z"/><path class="aa" d="M228.75,108.802c.983.382,8.22.098,12.79-.758,2.476-.464,5.302-1.428,7.722-2.573.807-.382,1.766-.243,2.431.353,2.013,1.805,3.654,4.029,4.793,6.486.52,1.122,1.841,1.629,2.958,1.096.617-.294,1.279-.494,1.957-.586"/><path class="ad" d="M228.407,108.803c3.715,1.772,7.626,2.281,11.704,1.895,1.875-.177,3.783-.392,5.618-.829.959-.229,1.907-.505,2.844-.81.567-.184,1.381-.684,1.988-.522,1.107.295,1.403,2.611,1.749,3.513.633,1.652,1.564,2.985,3.233,3.715,2.513,1.099,4.672-.024,6.947-1.059.983-.447,1.223-1.872.718-2.736-.591-1.01-1.749-1.167-2.736-.718-1.323.602-2.981,1.851-4.059.247-.909-1.353-.968-3.198-1.842-4.594-.849-1.355-2.288-2.27-3.894-2.365-1.652-.097-3.24.721-4.804,1.157-1.552.433-3.1.696-4.697.886-3.683.438-7.341.392-10.75-1.234-2.312-1.103-4.344,2.345-2.019,3.454h0Z"/><path class="ab" d="M322.567,169.303c-1.402-.246-2.766-.46-3.989-.613-6.227-.778-12.324,3.257-12.324,3.257-5.889,4.427-10.09,11.047-11.589,18.26l.357,3.417c2.267-1.908,5.238-2.334,8.88-.459.977.503,2.253,2.333,2.25,3.724,0,.05,0,.099-.001.148,7.357,4.247,14.549,8.4,21.435,12.377l-.231,1.246c.378-.02.737-.01,1.063.027l1.788.279,1.743.272c.891,2.653,2.248,6.347,3.078,9.428,2.026-1.142,4.669-2.432,7.221-3.962,4.167-2.493,8.13-5.645,8.949-9.875.347-1.817.205-3.686-.027-5.521-.801-6.474-2.333-14.737-6.367-20.062-2.458-3.259-6.34-7.462-10.124-9.403,0,0-6.377-1.534-12.113-2.541Z"/><path class="ab" d="M292.047,199.641c.008-2.756.953-4.314,2.975-6.016,2.267-1.908,5.238-2.334,8.88-.459.977.503,2.253,2.333,2.25,3.724-.006,3.488-1.971,4.442-5.892,4.359-3.487-.074-6.363,3.852-7.752.653-.322-.742-.464-1.503-.461-2.261Z"/><path class="ad" d="M294.047,199.641c.004-.353.018-.704.055-1.055-.035.335-.002.016.012-.047.039-.182.073-.363.121-.542.031-.115.065-.23.102-.344-.003.01.205-.523.087-.252s.126-.238.122-.23c.082-.153.171-.302.265-.448.064-.098.131-.194.199-.29-.249.35.109-.124.139-.158.167-.191.344-.373.525-.55.245-.239.501-.464.761-.685.484-.412-.153.095.15-.113.162-.112.326-.219.496-.319.14-.082.286-.154.428-.232.331-.184.145-.071.054-.034.3-.122.614-.215.93-.287.128-.029.257-.055.387-.076-.409.065.243-.011.268-.012.349-.016.7-.007,1.047.029-.298-.031.166.029.233.042.189.037.376.079.562.127.394.103.787.226,1.163.38.247.101.502.217.738.35.093.052.418.329.101.041.134.122.257.253.386.381.251.248.12.133.058.052.104.135.195.28.283.425.09.147.17.298.251.45.193.367.068.164.038.081.065.183.12.369.157.559-.021-.106.009-.341-.016.007-.008.12-.003.243-.008.364-.003.062-.075.695-.027.403.038-.238-.091.353-.123.474-.04.149-.248.48.005.035-.022.038-.123.209-.121.232.005.044-.11.168-.136.216.277-.523.133-.048-.003-.019-.026.005-.177.166-.18.17.328-.364.155-.101-.001-.014-.147.082-.751.294-.243.146-.236.069-.463.151-.704.205-.157.036-.697.116-.266.064-.359.044-.72.067-1.081.079-1.364.043-2.643.068-3.938.563-.707.27-1.392.591-2.077.911-.124.058-.247.116-.372.172-.09.041-.563.194-.092.043-.217.07-.538.123-.728.232-.223.128.497-.031.103-.01-.184.01-.477-.08.077.032-.303-.061.122.061.162.082-.174-.108-.137-.074.112.105-.114-.123-.122-.122-.024.004l.068.094c-.06-.085-.115-.173-.166-.265-.199-.35.031.213-.141-.335-.146-.463-.193-.774-.201-1.232-.02-1.08-.905-2-2-2-1.069,0-2.02.915-2,2,.037,2.025.767,4.618,2.914,5.334,1.476.493,2.908-.149,4.232-.766.311-.145.623-.288.934-.434.525-.247-.371.126.179-.077.17-.063.338-.129.51-.186.345-.114.699-.211,1.059-.267-.453.071.143.005.201.003.199-.005.399.005.599.005,1.592.002,3.249-.165,4.678-.92,2.995-1.583,3.48-5.75,1.878-8.473-1.977-3.36-6.942-4.738-10.545-3.447-1.854.664-3.488,1.911-4.708,3.453-1.338,1.691-1.902,3.628-1.929,5.774-.013,1.081.929,2,2,2,1.095,0,1.987-.915,2-2Z"/><path class="ad" d="M305.245,170.22c-6.316,4.796-10.851,11.668-12.508,19.456-.225,1.056.312,2.162,1.397,2.46.996.274,2.234-.336,2.46-1.397,1.427-6.704,5.186-12.901,10.67-17.065.859-.652,1.309-1.724.718-2.736-.495-.846-1.871-1.375-2.736-.718h0Z"/><path class="ad" d="M305.644,184.793v13.301c0,1.046.92,2.048,2,2s2-.879,2-2v-13.301c0-1.046-.92-2.048-2-2s-2,.879-2,2h0Z"/><path class="ab" d="M306.382,154.526c-.187,5.159,1.452,10.396,4.881,14.277,1.365,1.545,2.983,2.869,4.791,3.863,5.958,3.276,13.842,2.709,19.222-1.383.563-.428,1.258-.633,1.964-.675,1.987-.118,4.107-.883,5.665-2.133,1.706-1.369,2.803-3.679,2.466-5.785-.145-.909-.588-1.732-1.212-2.383-.812-.848-1.139-2.077-.866-3.219,1.539-6.434-.852-13.577-6.513-17.599-7.919-5.626-19.112-4.852-25.619,2.551-3.03,3.447-4.616,7.937-4.781,12.486Z"/><path class="ae" d="M310.656,142.643c-1.344,1.672-2.37,3.56-3.081,5.564s.344,4.242,2.387,4.85c3.573,1.062,7.038.769,10.602.264,1.779-.158,4.357-.876,6.563-1.664,1.635-.584,3.248.117,3.926,1.819.361.907.76,2.179,1.23,3.379.775,1.978,3.062,2.89,4.996,2.01l.077-.035c1.241-.565,2.692-.405,3.78.417h0s.557.421,1.121.847c3.255-7.085,1.086-15.942-5.476-20.604-7.919-5.626-19.112-4.852-25.619,2.551-.174.198-.343.399-.507.603Z"/><path class="ad" d="M344.833,159.001c2.412-7.509-.161-16.004-6.448-20.796-5.915-4.509-14.2-5.703-21.102-2.868-7.349,3.019-11.952,9.851-12.79,17.651s2.423,15.721,8.81,20.304c7.38,5.297,18.144,4.413,24.729-1.74,1.885-1.761-.948-4.586-2.828-2.828-4.564,4.265-11.884,5.318-17.495,2.551-5.967-2.943-9.303-9.312-9.339-15.833-.034-6.175,2.871-12.214,8.296-15.375,5.272-3.072,12.003-2.957,17.297.004,6.337,3.545,9.235,10.954,7.015,17.867-.789,2.457,3.072,3.508,3.857,1.063h0Z"/><path class="ad" d="M341.019,160.83c.466.033-.295-.1.119.012.158.043.319.075.476.125.172.055.429.204.132.043.145.078.292.151.433.237.133.082.397.289.132.07.127.105.25.215.367.332s.227.239.331.367c-.278-.344.014.048.066.134.085.142.161.288.232.437-.192-.407,0,.04.029.143.046.161.082.325.109.49-.075-.457-.013.05-.011.157.003.174-.01.347-.017.521-.019.458.086-.247-.029.161-.048.17-.08.344-.131.514-.019.065-.226.622-.144.431.087-.203-.14.274-.169.328-.085.159-.177.314-.274.466-.034.053-.335.475-.209.312s-.207.233-.25.279c-.122.131-.249.258-.38.379-.048.044-.425.355-.285.249.137-.104-.281.19-.34.229-.161.105-.326.205-.493.3-1.192.676-2.603,1.042-3.873,1.073-1.045.026-2.049.902-2,2,.048,1.062.88,2.027,2,2,4.35-.107,8.716-2.471,10.191-6.73.67-1.933.529-4.247-.635-5.967-1.246-1.84-3.163-2.939-5.375-3.095-1.046-.074-2.046.973-2,2,.051,1.147.88,1.921,2,2h0Z"/><path class="ad" d="M316.61,161.001c-.008.13-.089,1.424-1.148,2.12-.695.456-1.393.344-1.612.305-.169-.03-1.268-.246-1.773-1.336-.479-1.033-.262-2.5.71-3.306,1.008-.836,2.339-.603,3.091.17.677.696.755,1.388.732,2.047Z"/><path class="ad" d="M327.431,163.211c-.008.13-.089,1.424-1.148,2.12-.695.456-1.393.344-1.612.305-.169-.03-1.268-.246-1.773-1.336-.479-1.033-.262-2.5.71-3.306,1.008-.836,2.339-.603,3.091.17.677.696.755,1.388.732,2.047Z"/><path class="ad" d="M306.296,153.737c3.715,1.772,7.626,2.281,11.704,1.895,1.875-.177,3.783-.392,5.618-.829.959-.229,1.907-.505,2.844-.81.567-.184,1.381-.684,1.988-.522,1.107.295,1.403,2.611,1.749,3.513.633,1.652,1.564,2.985,3.233,3.715,2.513,1.099,4.672-.024,6.947-1.059.983-.447,1.223-1.872.718-2.736-.591-1.01-1.749-1.167-2.736-.718-1.323.602-2.981,1.851-4.059.247-.909-1.353-.968-3.198-1.842-4.594-.849-1.355-2.288-2.27-3.894-2.365-1.652-.097-3.24.721-4.804,1.157-1.552.433-3.1.696-4.697.886-3.683.438-7.341.392-10.75-1.234-2.312-1.103-4.344,2.345-2.019,3.454h0Z"/><path class="ab" d="M291.534,224.408c-4.09-2.361-8.179-4.722-12.268-7.083v-27.323c9.481,5.474,18.962,10.948,28.442,16.422v4.864c6.57,3.799,13.148,7.597,19.726,11.396-6.478,3.744-12.963,7.481-19.44,11.226-5.489-3.167-10.975-6.334-16.46-9.5Z"/><path class="ad" d="M309.709,226.248v-14.961l-3.009,1.727c6.574,3.801,13.15,7.598,19.726,11.396v-3.454c-6.478,3.745-12.962,7.481-19.44,11.226h2.019c-9.577-5.526-19.153-11.055-28.728-16.584l.991,1.727v-27.323l-3.009,1.727c9.481,5.474,18.962,10.948,28.442,16.422l-.991-1.727v4.864c0,2.574,4,2.578,4,0,0-1.606.122-3.263,0-4.864-.135-1.76-2.244-2.45-3.576-3.22l-8.619-4.976c-5.746-3.317-11.492-6.635-17.238-9.952-1.312-.758-3.009.205-3.009,1.727v26.761c0,.836.08,1.562.788,2.132.879.709,2.009,1.2,2.989,1.765,4.073,2.352,8.145,4.703,12.218,7.054,4.574,2.641,9.149,5.281,13.724,7.921.623.359,1.396.36,2.019,0,6.478-3.745,12.962-7.481,19.44-11.226,1.297-.75,1.298-2.704,0-3.454-6.576-3.797-13.152-7.595-19.726-11.396-1.312-.758-3.009.206-3.009,1.727v14.961c0,2.574,4,2.578,4,0h0Z"/><path class="ab" d="M334.909,220.248c-5.61,3.83-13.15,4.88-15.53,2.19-1.22-1.38-1.06-5.12.58-7.23.83-1.07,2.52-2.76,4.04-3.59,1.51-.83,3.19-1.07,4.42-.93"/><path class="ad" d="M333.899,218.521c-2.188,1.474-4.429,2.478-6.991,3.06-1.128.256-1.753.356-3.001.356-.251,0-.502-.007-.752-.024-.118-.008-.789-.108-.352-.028-.456-.084-.89-.198-1.329-.348-.269-.092.306.163.068.024-.083-.048-.171-.087-.255-.134-.081-.046-.157-.104-.239-.147-.235-.125.267.248.077.067-.112-.108-.224-.212-.333-.324.431.443.029.105.062.056-.042.063-.23-.658-.06-.094-.067-.223-.125-.444-.178-.671-.018-.077-.037-.377-.007-.023-.011-.129-.021-.258-.026-.388-.009-.235-.006-.471.007-.705.007-.138.018-.275.033-.412.015-.142.015-.138,0,.012l.038-.208c.064-.276.122-.552.207-.823.021-.067.294-.739.179-.504.122-.25.264-.479.404-.718.028-.048.233-.325.03-.06.097-.127.203-.246.308-.367.783-.903,1.715-1.812,2.644-2.425.567-.375,1.149-.656,1.805-.835.671-.182,1.032-.182,1.778-.202.563-.015-.437-.088.097-.005.198.031.396.062.594.093l.968.151c1.066.166,2.151-.272,2.46-1.397.261-.949-.323-2.293-1.397-2.46-.802-.125-1.61-.29-2.418-.36-1.743-.151-3.54.306-5.091,1.086-1.413.711-2.679,1.832-3.764,2.971-1.059,1.112-1.892,2.302-2.389,3.766-.843,2.485-.834,6.012,1.38,7.801,2.012,1.626,4.79,1.816,7.266,1.513,3.637-.444,7.159-1.794,10.196-3.841.895-.603,1.288-1.762.718-2.736-.519-.888-1.837-1.324-2.736-.718h0Z"/><path class="ad" d="M336.261,196.217c-.12-.85.027.488.043.72.044.623.078,1.247.107,1.871.066,1.413.114,2.83.087,4.245-.006.292-.013.584-.03.876-.014.234.114.754-.007.314.185.673-.57-.157.123-.092-.213-.02-.954.755-1.132.899-1.713,1.39-3.383,2.831-5.103,4.212-.519.417-.717,1.333-.514,1.946,1.098,3.327,2.336,6.608,3.263,9.99.347,1.264,1.815,1.823,2.938,1.195,7.374-4.122,17.578-8.327,17.364-18.317-.089-4.182-.942-8.572-1.969-12.618-1.016-4.003-2.494-8.042-5.008-11.361-2.921-3.857-6.408-7.689-10.735-9.98-2.274-1.204-4.297,2.248-2.019,3.454,3.403,1.802,6.168,4.693,8.584,7.645,2.328,2.846,3.825,6.08,4.855,9.595,1.024,3.497,1.659,7.113,2.09,10.727.241,2.02.442,4.191-.315,6.13-.638,1.634-1.871,2.98-3.159,4.132-3.419,3.058-7.74,4.922-11.706,7.139l2.938,1.195c-.927-3.381-2.165-6.663-3.263-9.99l-.514,1.946c1.908-1.533,3.752-3.145,5.669-4.667,1.377-1.093,1.581-2.251,1.64-3.914.097-2.758.018-5.62-.369-8.356-.151-1.071-1.515-1.657-2.46-1.397-1.151.316-1.548,1.386-1.397,2.46h0Z"/><g id="j"><path class="ad" d="M328.596,207.688c-6.647-3.839-13.295-7.678-19.942-11.517-2.233-1.29-4.25,2.166-2.019,3.454,6.647,3.839,13.295,7.678,19.942,11.517,2.233,1.29,4.25-2.165,2.019-3.454h0Z"/></g><g id="k"><path class="ad" d="M250.584,162.637c-6.907-3.989-13.814-7.977-20.72-11.966-2.233-1.29-4.25,2.166-2.019,3.454,6.907,3.989,13.814,7.977,20.72,11.966,2.233,1.29,4.25-2.166,2.019-3.454h0Z"/></g><g id="l"><path class="ab" d="M241.684,237.961c-.643.371-20.799,12.011-21.783,12.579-.438-.253-14.732-8.514-15.076-8.713,1.887-1.091,19.425-11.218,21.781-12.579.402.232,14.745,8.52,15.078,8.712,0,0,0,0,0,0Z"/></g><g id="m"><path class="ab" d="M271.171,252.473c-.643-.371-20.799-12.011-21.783-12.579-.438.253-14.732,8.514-15.076,8.713,1.887,1.091,19.425,11.218,21.781,12.579.402-.232,14.745-8.52,15.078-8.712,0,0,0,0,0,0Z"/></g><path class="ab" d="M86.138,116.229c0,.376-.007,12.305-.007,12.783.929-.536,16.795-9.699,17.39-10.042,0-.346.006-12.344.006-12.783-2.223,1.284-15.607,9.012-17.388,10.043Z"/><path class="ab" d="M111.441,83.361c0,.376-.007,30.565-.007,31.043.929-.536,16.795-9.699,17.39-10.042,0-.346.006-30.605.006-31.044-2.223,1.284-15.607,9.012-17.388,10.043Z"/><path class="ac" d="M136.743,50.492c0,.376-.007,48.826-.007,49.304.929-.536,16.795-9.699,17.39-10.042,0-.346.006-48.865.006-49.304-2.223,1.284-15.607,9.012-17.388,10.043Z"/><g id="n"><path class="ad" d="M83.745,246.909c0-13.389,0-26.779.003-40.168,0-6.399.002-12.797.003-19.196,0-2.574-4-2.578-4,0-.003,18.43-.005,36.859-.005,55.289,0,1.358,0,2.716,0,4.075,0,2.574,4,2.578,4,0h0Z"/></g><path class="ad" d="M170.65,6.949c0-1.653.001-3.305.002-4.958,0-1.522-1.698-2.484-3.009-1.727-12.863,7.428-25.727,14.856-38.59,22.284-14.723,8.502-29.446,17.004-44.169,25.506-13.5,7.796-26.999,15.591-40.499,23.387-1.449.837-2.897,1.673-4.346,2.51-1.083.626-1.502,1.292-1.502,2.561,0,1.032,0,2.063-.001,3.095-.002,4.214-.004,8.427-.005,12.641-.004,8.871-.008,17.741-.012,26.612-.007,16.74-.014,33.48-.019,50.22,0,1.649,0,3.297-.001,4.946,0,1.522,1.698,2.484,3.009,1.727,12.614-7.283,25.228-14.567,37.841-21.851,14.299-8.258,28.599-16.516,42.898-24.774,13.059-7.542,26.117-15.084,39.175-22.626,2.711-1.566,5.603-2.987,8.199-4.735,1.547-1.042.992-3.871.992-5.522,0-1.798.002-3.596.002-5.394.004-8.103.007-16.206.01-24.308.007-17.786.015-35.572.022-53.358,0-2.078.002-4.156.003-6.234.001-2.574-3.999-2.578-4,0-.01,25.062-.02,50.125-.031,75.187-.003,5.967-.005,11.935-.008,17.902l.991-1.727c-16.069,9.281-32.139,18.562-48.209,27.843-17.979,10.383-35.957,20.766-53.936,31.148-8.656,4.998-17.312,9.997-25.968,14.995l3.009,1.727c.006-25.528.018-51.055.03-76.583.003-7.156.006-14.313.009-21.469l-.991,1.727c16.355-9.445,32.71-18.89,49.065-28.334,17.869-10.319,35.739-20.638,53.609-30.956,8.481-4.897,16.961-9.794,25.442-14.691l-3.009-1.727c0,1.653-.001,3.305-.002,4.958-.001,2.574,3.999,2.578,4,0Z"/><path class="ad" d="M75.208,102.631c-1.219,1.531-2.4,3.092-3.53,4.689-.285.402-.328,1.083-.202,1.541.128.464.486.967.919,1.195.464.245,1.026.368,1.541.202l.478-.202c.301-.178.54-.417.718-.718.762-1.077,1.546-2.138,2.353-3.182l-.313.405c.286-.37.574-.737.865-1.103.195-.181.333-.396.414-.644.125-.238.183-.495.172-.771,0-.491-.218-1.076-.586-1.414-.381-.35-.882-.61-1.414-.586-.495.022-1.091.18-1.414.586h0Z"/><path class="ab" d="M24.078,81.991c11.502-3.451,18-.292,19.917,4.208.958,1.708,1.917,4,2.292,5.5.248.991.417,2.426.527,3.623.03.323.055.629.076.904.38,4.908-1.373,9.945-4.718,13.557-3.345,3.612-8.232,5.746-13.155,5.744-5.211-.002-10.38-2.398-13.722-6.409-2.231-.069-3.495-.046-5.332-.86-1.689-.749-3.134-2.183-3.72-3.992-.587-1.809-.212-3.97,1.092-5.314.857-.884,1.459-1.249,2.933-1.53,0,0-.939-8.513,6.728-12.263,1.876-.918,4.583-2.417,7.083-3.167Z"/><path class="ab" d="M42.128,82.299c-1.727-2.732-4.174-5.057-6.939-6.253-4.111-1.778-6.767-1.76-10.278-1.639-4.247.147-8.121,1.77-11.542,4.292-4.414,3.254-8.181,10.847-6.125,18.403,0,0,.154.565.416,1.527.704-.657,1.326-.964,2.606-1.209l6.061-2.763c4.392-1.24,8.723-3.141,12.744-5.281,1.859-.989,4.241-3.334,6.35-3.552,1.165-.12,2.326.662,3.36,1.087,1.423.585,2.903,1.224,4.442,1.408.436.052.884.061,1.323.017-.369-2.048-1.22-4.141-2.419-6.038Z"/><path class="ab" d="M40.949,113.485c-.727,7.887-2.553,15.457-5.276,21.876-.227.535-.474,1.082-.82,1.361-.762.615-1.627-.285-2.294-1.175-4.738-6.316-8.331-12.891-11.453-21.758l19.844-.304Z"/><path class="ab" d="M69.659,107.019c-.961-.054-1.91.098-2.775.518-4.86,2.358-4.723,10.631-3.25,10.178,2.752,1.783,5.504,3.566,8.255,5.35.187-.033.372-.08.552-.134,2.72-.816,4.842-3.294,5.315-6.093.473-2.8-.683-5.796-2.859-7.62-1.439-1.206-3.363-2.094-5.239-2.199Z"/><path class="ad" d="M64.751,114.63c.064-.459.147-.914.263-1.363.052-.2.109-.399.172-.596.025-.077.253-.712.169-.508.19-.457.435-.902.708-1.314.059-.089.119-.178.183-.264.208-.281-.145.164.085-.1.165-.19.338-.372.522-.542.564-.52,1.404-.887,2.113-.924.924-.048,1.814.137,2.628.486.993.426,1.775.952,2.479,1.677.612.629,1.134,1.472,1.397,2.23.655,1.883.495,3.623-.539,5.247-.458.72-1.22,1.451-2.004,1.901-.568.326-.724.386-1.35.532-.332.077-.265.074-.61.05-.142-.01-.145-.017-.361-.153-2.184-1.377-4.193,2.082-2.019,3.454,2.778,1.752,6.526-.014,8.548-2.156,2.144-2.272,3.043-5.308,2.572-8.379-.921-5.995-8.149-10.983-13.933-8.046-2.842,1.443-4.458,4.66-4.881,7.706-.149,1.068.26,2.148,1.397,2.46.935.257,2.311-.32,2.46-1.397h0Z"/><path class="ac" d="M51.315,119.064c-3.082-2.448-6.678-4.579-10.268-6.727-.65,8.299-2.519,16.295-5.374,23.024-.227.535-.474,1.082-.82,1.361-.762.615-1.627-.285-2.294-1.175-4.817-6.422-8.451-13.111-11.604-22.207-3.627-.455-9.329,3.714-11.752,6.552-1.189,1.393-2.55,3.387-3.358,5.03-1.386,2.817-2.164,5.351-2.956,8.389-1.837,7.047-.865,14.784,2.656,21.158,1.057,1.914,2.341,3.698,3.808,5.318-.15,1.279-.236,2.002-.236,2.002,0,0-.484,4.067-.484,6.667,5.233,1.244,10.541,2.232,16.943,2.578,9.682.523,20.049-.406,25.518-.844.314-4.092.207-22.707.484-27.107,0,0,.082-1.305.164-2.609l.753.402,2.785,1.487c4.187,1.298,8.194-4.679,9.928-7.099,2.692-3.757,5.164-7.679,7.489-11.673-3.489-2.262-6.978-4.524-10.467-6.785-1.781,2.028-4.044,4.517-6.29,6.758-1.316-1.639-2.889-3.118-4.624-4.497Z"/><path class="ab" d="M9.93,226.722c.135-1.354.853-3.413,2.003-4.258.942.287,1.925.466,2.528.524,4.884.469,9.516.746,13.835-1.582l3.487-2.551c4.11.614,8.647.843,11.868-.273.365-.126.707-.276,1.036-.438,1.666,1.492,5.285,4.693,6.11,6.209.899,1.652,1.232,3.721.416,5.416-.758,1.575-2.399,2.59-4.105,2.965-1.707.375-3.486.189-5.208-.111-2.921-.509-5.164-1.18-7.961-2.338.126.905.128,1.98-.056,2.65-.474,1.729-1.471,2.666-3.028,3.556-1.683.961-3.961.998-5.893.858-3.001-.218-5.886-1.211-8.708-2.255-1.818-.672-3.732-1.449-4.856-3.029-1.202-1.69-1.674-3.278-1.469-5.342Z"/><path class="ad" d="M42.872,219.197c1.53,1.384,3.086,2.743,4.536,4.212.372.377.739.761,1.086,1.161.113.13.223.263.333.397-.311-.379.066.103.12.187.563.892.874,2.064.683,3.079-.484,2.582-3.735,2.836-5.891,2.645-3.038-.27-6.062-1.232-8.88-2.358-1.003-.401-2.197.438-2.46,1.397-.313,1.139.39,2.058,1.397,2.46,2.598,1.038,5.265,1.81,8.03,2.25,2.887.459,6.054.564,8.597-1.129,2.523-1.68,3.612-4.417,3.101-7.386-.383-2.224-1.68-3.893-3.214-5.456-1.471-1.499-3.054-2.88-4.61-4.288-.801-.724-2.038-.791-2.828,0-.736.736-.804,2.101,0,2.828h0Z"/><path class="ad" d="M29.11,226.551c2.003,1.359,4.072,4.474,2.397,6.867-1.83,2.615-5.996,2.179-8.684,1.615-1.917-.402-3.776-1.04-5.613-1.713-1.423-.521-3.083-1.055-4.084-2.266-.989-1.195-1.42-2.805-1.196-4.333.136-.928.523-2.321,1.425-2.781,2.294-1.17.272-4.623-2.019-3.454-3.018,1.54-3.868,6.033-3.252,9.052.811,3.979,3.91,6.085,7.469,7.419,3.884,1.456,8.052,2.788,12.259,2.393,3.479-.327,7.077-2.266,8.001-5.884,1.067-4.177-1.324-8.091-4.683-10.37-2.136-1.449-4.139,2.015-2.019,3.454h0Z"/><path class="ab" d="M25.576,171.032c2.152.116,4.337.158,6.495.152.254,0,.505,0,.759-.001.038,0,.076,0,.114-.001,5.458-.018,10.734-.377,14.751-.701-.008.241-.011.373-.011.373-.233,11.4-1.383,37.319-1.898,46.628-.612.46-1.332.821-2.134,1.099-3.221,1.116-7.758.887-11.868.273l-3.487,2.551c-4.319,2.328-8.952,2.051-13.835,1.582-1.048-.101-3.244-.556-4.378-1.333-.156-12.441-.017-40.493.751-52.696,4.537,1.002,9.234,1.776,14.741,2.074Z"/><path class="ad" d="M28.439,173.077c0,12.169-.009,24.338-.084,36.507-.022,3.594-.051,7.188-.094,10.782-.031,2.575,3.969,2.576,4,0,.158-13.119.168-26.241.176-39.361.002-2.643.002-5.285.002-7.928,0-2.574-4-2.578-4,0h0Z"/><path class="ad" d="M45.684,170.854c-.266,12.788-.872,25.575-1.48,38.351-.131,2.759-.266,5.518-.418,8.277l.991-1.727c-3.394,2.423-8.597,1.734-12.461,1.171-1.068-.156-2.149.264-2.46,1.397-.258.941.321,2.304,1.397,2.46,4.757.693,10.712,1.43,15.036-1.23,1.175-.723,1.467-1.5,1.538-2.819.038-.712.076-1.424.112-2.137.087-1.7.17-3.401.251-5.102.417-8.74.792-17.483,1.112-26.228.152-4.137.295-8.274.381-12.413.054-2.575-3.946-2.575-4,0h0Z"/><path class="ad" d="M27.287,219.679c-2.704,1.405-5.666,1.707-8.672,1.608-2.435-.081-5.383-.02-7.522-1.359l.991,1.727c-.172-13.986-.073-27.991.312-41.973.093-3.358.205-6.717.399-10.071.149-2.572-3.852-2.563-4,0-.527,9.121-.612,18.275-.701,27.409-.047,4.908-.07,9.817-.067,14.725.002,2.112.008,4.224.023,6.336.006.885.013,1.769.023,2.654.017,1.563.371,2.433,1.854,3.103,2.86,1.292,6.24,1.421,9.332,1.467,3.511.052,6.913-.542,10.047-2.171,2.285-1.188.265-4.641-2.019-3.454h0Z"/><path class="ad" d="M14.772,107.102c-.456-.013-.913-.025-1.368-.053-.177-.011-.353-.023-.529-.039-.077-.007-.618-.106-.145-.011-.395-.079-.783-.149-1.169-.268-.176-.054-.348-.116-.521-.178-.545-.197.248.148-.226-.095-.338-.173-.667-.349-.981-.564-.073-.049-.144-.099-.214-.152.173.135.171.13-.006-.015-.128-.12-.262-.233-.386-.358s-.238-.258-.358-.386c-.145-.177-.15-.18-.014-.008-.052-.071-.102-.143-.15-.216-.114-.171-.22-.346-.317-.528-.044-.082-.246-.554-.095-.164-.127-.329-.211-.663-.291-1.006-.039-.233-.04-.228-.001.015-.009-.087-.015-.173-.018-.26-.01-.203-.01-.406.002-.609.006-.111.122-.571.01-.158.045-.166.069-.339.116-.505.017-.062.223-.623.129-.408-.096.217.174-.317.206-.37.052-.086.355-.472.079-.149.108-.127.22-.247.337-.365.104-.104.21-.206.32-.304.068-.061.138-.12.209-.177-.232.176-.261.203-.087.081.113-.061.226-.13.337-.196.368-.22-.409.119.027-.015.376-.116.748-.216,1.135-.292,1.028-.204,1.713-1.484,1.397-2.46-.354-1.093-1.359-1.616-2.46-1.397-1.987.395-3.689,1.502-4.747,3.256-1.091,1.81-1.329,4.228-.617,6.216.729,2.037,2.2,3.768,4.114,4.791,1.978,1.057,4.083,1.282,6.288,1.347,1.047.031,2.047-.942,2-2-.05-1.11-.879-1.967-2-2h0Z"/><path class="ad" d="M17.407,111.84c-9.638,3.464-14.823,12.819-16.779,22.37-2,9.765.837,20.105,7.672,27.38,3.614,3.848,8.199,6.692,13.213,8.316,2.455.795,3.506-3.066,1.063-3.857-7.678-2.486-14.155-8.499-16.921-16.123-1.492-4.113-2.03-8.559-1.469-12.905.545-4.222,1.954-8.795,4.137-12.461,2.298-3.86,5.856-7.319,10.148-8.862,2.404-.864,1.367-4.731-1.063-3.857h0Z"/><path class="ad" d="M41.546,114.968c4.691,2.818,9.472,5.719,12.979,10.007.684.837,2.125.705,2.828,0,2.174-2.18,4.257-4.447,6.29-6.758l-2.424.313c3.489,2.262,6.978,4.524,10.467,6.785l-.718-2.736c-2.904,4.976-5.918,10.147-9.659,14.554-1.136,1.338-2.731,3.219-4.613,3.404-.204.02-.404-.003-.6-.028.08.01.285.134.056.052-.319-.115-.631-.337-.929-.496l-1.72-.918c-2.27-1.212-4.293,2.24-2.019,3.454,1.516.809,3.018,1.878,4.789,1.934,2.767.089,5.176-1.697,6.998-3.607,1.798-1.885,3.284-4.085,4.764-6.221,2.271-3.278,4.378-6.666,6.387-10.11.563-.965.191-2.148-.718-2.736-3.489-2.262-6.978-4.524-10.467-6.785-.701-.454-1.862-.326-2.424.313-2.034,2.311-4.116,4.578-6.29,6.758h2.828c-3.704-4.53-8.833-7.655-13.789-10.632-2.212-1.329-4.225,2.128-2.019,3.454h0Z"/><path class="ad" d="M49.578,143.081c-.544,9.017.178,18.097-.484,27.107l2-2c-6.639.534-13.283,1.028-19.949.999-7.457-.033-14.727-.946-21.98-2.661l1.468,1.929c.016-2.226.223-4.457.484-6.667.127-1.074-1.01-2-2-2-1.186,0-1.873.922-2,2-.261,2.21-.468,4.441-.484,6.667-.006.85.623,1.729,1.468,1.929,7.431,1.757,14.938,2.743,22.579,2.801,6.821.052,13.619-.45,20.413-.996,1.14-.092,1.915-.845,2-2,.662-9.01-.06-18.09.484-27.107.155-2.571-3.845-2.562-4,0h0Z"/><path class="ad" d="M42.268,87.208c3.972,7.24,3.721,16.693-2.797,22.41-6.475,5.679-16.36,4.899-22.19-1.262-1.773-1.874-4.598.958-2.828,2.828,5.504,5.816,14.22,7.936,21.713,4.984,7.542-2.971,12.643-10.209,12.774-18.349.072-4.488-1.067-8.711-3.217-12.63-1.239-2.257-4.694-.241-3.454,2.019h0Z"/><path class="ad" d="M36.575,94.802c.021.143.233,1.571,1.474,2.241.813.44,1.577.249,1.816.185.185-.049,1.382-.392,1.839-1.649.433-1.191.054-2.796-1.1-3.597-1.197-.831-2.65-.447-3.411.481-.685.836-.706,1.61-.618,2.338Z"/><path class="ad" d="M25.074,99.104c.021.143.233,1.571,1.474,2.241.813.44,1.577.249,1.816.185.185-.049,1.382-.392,1.839-1.649.433-1.191.054-2.796-1.1-3.597-1.197-.831-2.65-.447-3.411.481-.685.836-.706,1.61-.618,2.338Z"/><path class="ad" d="M45.923,85.667c-1.365-3.922-3.793-7.401-7.159-9.861-3.249-2.375-7.456-3.41-11.434-3.445-4.368-.039-8.478.75-12.32,2.897-3.417,1.91-6.187,4.571-7.987,8.07-2.274,4.42-2.95,9.476-1.707,14.304.642,2.491,4.501,1.435,3.857-1.063-1.648-6.399,1.02-13.525,6.598-17.104s13.617-4.461,19.56-1.12c3.178,1.787,5.548,4.973,6.735,8.384.841,2.416,4.706,1.377,3.857-1.063h0Z"/><path class="ad" d="M45.708,85.816c-2.223,1.474-5.248-.365-7.359-1.299-2.657-1.175-4.885-.493-7.205,1.068-2.205,1.483-4.361,2.783-6.777,3.914-2.771,1.298-5.629,2.384-8.57,3.229-2.47.71-1.419,4.571,1.063,3.857,5.632-1.619,11.167-4.003,15.992-7.334.772-.533,1.879-1.46,2.879-1.444.503.008,1.073.389,1.514.593.652.302,1.318.573,1.985.84,2.729,1.092,5.873,1.769,8.497.029,2.135-1.417.135-4.882-2.019-3.454h0Z"/><path class="ad" d="M38.949,113.485c-.377,3.97-1.041,7.905-2.02,11.772-.471,1.859-1.012,3.7-1.634,5.514-.301.878-.621,1.75-.96,2.614-.143.363-.283.73-.44,1.087-.073.172-.152.342-.236.51-.254.381-.207.386.142.014h1.063c-.305-.041-.352-.187-.662-.568-.313-.385-.594-.804-.884-1.206-.597-.829-1.179-1.669-1.743-2.521-1.134-1.712-2.198-3.472-3.184-5.274-2.134-3.9-3.873-7.982-5.357-12.17-.854-2.41-4.72-1.372-3.857,1.063,2.408,6.797,5.474,13.33,9.547,19.295.956,1.401,1.914,3.007,3.143,4.183,1.485,1.421,3.659,1.504,4.91-.264,1-1.413,1.533-3.323,2.111-4.943.641-1.796,1.201-3.62,1.69-5.463,1.186-4.468,1.936-9.044,2.372-13.644.102-1.077-.992-2-2-2-1.167,0-1.898.92-2,2h0Z"/><path class="ab" d="M19.16,155.635c2.259-3.467,5.051-9.017,8.055-13.948,7.05,1.845,13.446,3.563,19.726,5.131-3.947,7.509-8.087,14.958-12.414,22.315-2.021-.607-5.366-1.494-7.663-2.24l-7.704-11.258Z"/><path class="ad" d="M20.887,156.644c2.911-4.51,5.273-9.358,8.055-13.948l-2.259.919c6.572,1.721,13.134,3.483,19.726,5.131l-1.195-2.938c-3.964,7.534-8.101,14.975-12.414,22.315l2.259-.919c-2.551-.759-5.128-1.426-7.663-2.24-2.457-.789-3.509,3.072-1.063,3.857,2.534.814,5.112,1.481,7.663,2.24.847.252,1.817-.167,2.259-.919,4.313-7.34,8.45-14.781,12.414-22.315.585-1.111.106-2.613-1.195-2.938-6.591-1.648-13.153-3.41-19.726-5.131-.87-.228-1.795.154-2.259.919-2.782,4.59-5.144,9.438-8.055,13.948-1.4,2.169,2.061,4.177,3.454,2.019h0Z"/><path class="ab" d="M34.361,157.384c.137.3.244.603.312.904,1.276,5.62-4.976,9.53-8.559,9.03-7.032-.982-9.76-4.054-11.524-10.193-.436-2.836.04-5.484,2.523-7.564,1.859-1.557,3.512-2.086,5.023-1.645,2.357.688,3.605,2.323,3.743,4.206,2.122.46,4.386,1.166,6.276,2.47.893.616,1.713,1.715,2.205,2.793Z"/><path class="ad" d="M32.433,157.916c1.077,2.557-.227,4.927-2.342,6.294-.48.31-1.1.631-1.429.752-.298.11-.603.203-.912.277-.132.032-.265.059-.399.085-.226.044.219-.003-.149.02-1.301.081-2.69-.284-4.05-.724-2.356-.762-4.011-2.137-5.172-4.262-1.252-2.29-2.312-5.416-.759-7.945.783-1.274,2.661-2.875,4.189-2.634,1.163.184,2.364,1.276,2.47,2.342.085.849.558,1.726,1.468,1.929,1.474.327,2.964.715,4.319,1.397,1.399.704,2.28,1.525,2.968,2.946.47.972,1.856,1.232,2.736.718.993-.581,1.189-1.76.718-2.736-1.827-3.78-5.805-5.322-9.677-6.182l1.468,1.929c-.235-2.362-1.454-4.385-3.605-5.491-2.282-1.174-4.691-1.058-6.884.272-2.158,1.308-3.925,3.293-4.599,5.758-.618,2.259-.35,4.576.432,6.747,1.235,3.431,3.263,6.517,6.625,8.163,1.811.887,3.745,1.393,5.735,1.676,1.907.271,3.708-.149,5.434-.972,4.11-1.96,7.179-6.897,5.273-11.422-.419-.995-1.322-1.71-2.46-1.397-.938.258-1.819,1.458-1.397,2.46Z"/><path class="aa" d="M30.217,117.136c-.204.579-.567,1.691-.968,2.885"/><path class="aa" d="M33.353,115.633c.731,1.215,1.417,2.457,2.058,3.722"/><g id="o"><path class="ad" d="M216.948,143.212c-10.159-5.867-20.318-11.734-30.473-17.609-2.232-1.292-4.249,2.164-2.019,3.454,10.154,5.875,20.314,11.742,30.473,17.609,2.233,1.29,4.25-2.165,2.019-3.454h0Z"/></g><g id="p"><path class="ad" d="M378.419,236.464c-12.058-6.965-24.117-13.93-36.175-20.894-2.233-1.29-4.25,2.165-2.019,3.454,12.059,6.964,24.117,13.929,36.175,20.894,2.233,1.29,4.25-2.165,2.019-3.454h0Z"/></g><g id="q"><path class="ad" d="M184.457,125.604c-26.909,15.555-53.82,31.105-80.734,46.652-7.662,4.426-15.325,8.852-22.988,13.277-1.297.749-1.298,2.705,0,3.454,12.496,7.214,24.991,14.428,37.486,21.643,15.192,8.772,30.385,17.544,45.577,26.316,15.382,8.882,30.765,17.765,46.147,26.647,12.864,7.428,25.727,14.856,38.591,22.284,7.687,4.439,15.373,8.877,23.06,13.316.46.266.92.531,1.381.797l-.991-1.727c-.005,18.307-.008,36.614-.008,54.922,0,1.327,0,2.654,0,3.982,0,1.523,1.697,2.483,3.009,1.727,5.123-2.95,10.238-5.912,15.356-8.87,10.501-6.068,21.003-12.137,31.504-18.205,11.379-6.576,22.757-13.151,34.136-19.726,4.556-2.633,9.112-5.265,13.668-7.898,1.727-.998,3.454-1.996,5.181-2.993,1.204-.695,3.584-1.562,4.3-2.787.539-.923.273-2.637.273-3.707,0-1.344,0-2.688,0-4.033,0-3.881,0-7.761,0-11.642,0-10.667.002-21.333.003-32,0-2.947,0-5.894.001-8.841,0-2.574-4-2.578-4,0-.003,17.341-.005,34.682-.005,52.022,0,2.397,0,4.794,0,7.191l.991-1.727c-13.853,8.001-27.703,16.007-41.555,24.012-16.556,9.568-33.112,19.136-49.669,28.702-4.068,2.35-8.133,4.704-12.204,7.049l3.009,1.727c0-13.183.002-26.365.004-39.548.001-6.452.003-12.904.005-19.355,0-.702-.381-1.375-.991-1.727-6.897-3.983-13.794-7.965-20.692-11.948-12.332-7.121-24.664-14.242-36.996-21.363-15.215-8.786-30.43-17.571-45.645-26.357-15.404-8.895-30.808-17.789-46.212-26.684-12.935-7.468-25.869-14.937-38.804-22.404-1.297-.749-2.595-1.498-3.892-2.247v3.454c27.61-15.945,55.218-31.896,82.823-47.85,6.966-4.026,13.933-8.053,20.899-12.079,2.228-1.288.216-4.746-2.019-3.454h0Z"/></g><g id="r"><path class="ad" d="M273.977,300.462c.692.027,1.39-.489,1.975-.827.733-.423,1.465-.847,2.198-1.27,2.526-1.46,5.052-2.919,7.577-4.379,7.953-4.596,15.906-9.192,23.858-13.788,9.629-5.565,19.258-11.13,28.887-16.694,8.377-4.841,16.754-9.683,25.131-14.524,4.442-2.567,8.938-5.062,13.335-7.706.13-.078.263-.152.394-.228.85-.491,1.042-1.366.919-2.259l-.007-.054c-.147-1.071-1.517-1.656-2.46-1.397-1.154.317-1.545,1.386-1.397,2.46l.007.054.919-2.259c-3.714,2.145-7.427,4.292-11.14,6.438-8.018,4.634-16.037,9.268-24.055,13.902-9.561,5.525-19.121,11.051-28.682,16.576-8.34,4.82-16.679,9.639-25.019,14.459-4.343,2.51-8.825,4.871-13.067,7.551-.122.077-.252.145-.377.218l1.009-.273h-.007c-2.574-.102-2.57,3.898,0,4h0Z"/></g><g id="s"><path class="ad" d="M240.674,236.234c-6.243,3.605-12.486,7.21-18.729,10.815-1.018.588-2.036,1.176-3.054,1.763h2.019c-5.026-2.903-10.05-5.81-15.076-8.713v3.454c7.259-4.196,14.521-8.386,21.781-12.579h-2.019c5.026,2.903,10.051,5.809,15.078,8.712l-.919-2.259h0c-.181,1.064.282,2.155,1.397,2.461.961.264,2.278-.326,2.46-1.397h0c.15-.884-.099-1.786-.919-2.259-5.027-2.903-10.051-5.809-15.078-8.712-.623-.36-1.396-.36-2.019,0-7.261,4.193-14.522,8.383-21.781,12.579-1.297.75-1.298,2.704,0,3.454,5.026,2.903,10.05,5.81,15.076,8.713.623.36,1.396.36,2.019,0,6.302-3.639,12.603-7.278,18.905-10.917.959-.554,1.918-1.108,2.878-1.662,2.229-1.287.217-4.745-2.019-3.454Z"/></g><g id="t"><path class="ad" d="M272.181,250.746c-6.243-3.605-12.486-7.21-18.729-10.815-1.018-.588-2.036-1.176-3.054-1.763-.623-.36-1.396-.36-2.019,0-5.026,2.903-10.05,5.81-15.076,8.713-1.298.75-1.297,2.704,0,3.454,7.259,4.196,14.521,8.386,21.781,12.579.623.36,1.396.36,2.019,0,5.026-2.903,10.051-5.809,15.078-8.712.829-.479,1.07-1.376.919-2.259h0c-.182-1.066-1.494-1.663-2.46-1.398-1.128.31-1.579,1.392-1.397,2.46h0c.306-.752.613-1.505.919-2.258-5.027,2.903-10.051,5.809-15.078,8.712h2.019c-7.261-4.193-14.522-8.383-21.781-12.579v3.454c5.026-2.903,10.05-5.81,15.076-8.713h-2.019c6.302,3.639,12.603,7.278,18.905,10.917.959.554,1.918,1.108,2.878,1.662,2.233,1.289,4.25-2.166,2.019-3.454Z"/></g><path class="ab" d="M212.666,236.643c2.763-.851,5.385-2.356,7.182-4.619,2.67-3.363,3.528-8.304,3.26-12.502-.263-4.118-1.6-8.107-4.399-11.201-.404-.446-.831-.87-1.279-1.272-6.597-5.923-16.342-6.233-23.617-1.364-2.09,1.399-3.919,3.205-5.221,5.366-2.453,4.072-2.912,9.13-2.007,13.797.577,2.977,1.729,5.926,3.825,8.118,5.372,5.614,15.213,5.817,22.184,3.701.024-.007.049-.015.073-.022Z"/><path class="ac" d="M223.472,303.842v9.931c-5.39,3.109-20.486,11.776-25.474,14.659-1.41.815-3.714.814-5.124,0-5.409-3.124-17.902-10.339-24.991-14.433-1.57-.907-2.528-2.569-2.528-4.382v-11.304l58.117,5.53Z"/><path class="ab" d="M187.876,282.668c12.941-3.659,35.69,2.425,35.69,2.425,6.085,1.288,11.377,4.909,12.464,11.493.179,3.548-.821,14.992-1.365,19.454-.088.724-.039,1.473-.307,2.159-.275.704-.791,1.305-1.316,1.879-2.775,3.032-6.556,3.222-9.21,3.664l-2.522.024c.003-3.676.008-7.306.014-9.442.932-.576,1.498-1.587,1.498-2.688,0-1.881-.001-4.165-.001-5.588,0,0,0-1.502,0-3.713-5.424,3.006-10.393,5.401-16.773,6.785-1.444.313-3.83.365-5.289.133-2.053-.326-4.311-1.156-5.444-2.556,0,0-6.147-3.531-15.886-9.127l.458-.129s1.607-12.97,7.989-14.775Z"/><g id="u"><path class="aa" d="M256.214,250.56c-.931.537-30.089,17.375-31.512,18.197-.634-.366-21.312-12.317-21.81-12.604,2.73-1.578,28.101-16.229,31.51-18.197.581.336,21.332,12.326,21.812,12.603,0,0,0,0,0,.001Z"/></g><path class="ab" d="M253.256,262.763c0-1.282-.221-2.59-.879-3.437-.759-.979-1.761-1.744-2.942-2.117-1.626-.515-3.361.166-5.051-.561-1.19-.512-2.127-1.45-3.422-1.473-1.135-.02-2.008.423-2.722,1.306-.892,1.103-2.472,3.722-3.514,5.639l-.532.978c.211.066.444.15.602.298,2.649,2.468,5.298,4.936,7.948,7.404.02.019.04.038.057.061,1.747-.452,6.204-2.081,8.386-3.773.471-.365.929-.832,1.254-1.331.481-.74.766-1.613.804-2.495.007-.165.011-.332.011-.499Z"/><path class="ad" d="M236.454,263.128c.669-1.224,1.371-2.431,2.116-3.611.317-.502.646-.993.985-1.481.06-.086.121-.172.186-.255-.23.296.061-.065.096-.099.189-.185.349-.373.616-.467.877-.307,1.986.717,2.787,1.096,1.648.779,3.21.565,4.958.694,2.493.184,3.723,2.982,2.835,5.165-.417,1.024-1.392,1.617-2.309,2.139-1.027.584-2.106,1.085-3.204,1.52-2.12.839-4.725,2.043-6.784.496-.864-.649-2.235-.139-2.736.718-.598,1.023-.149,2.086.718,2.736,2.754,2.069,6.21,1.28,9.164.177,2.981-1.113,6.774-2.522,8.44-5.441,1.02-1.788,1.121-3.946.721-5.93-.388-1.922-1.674-3.483-3.317-4.508-.885-.552-1.872-.889-2.903-1.01-.948-.112-1.898.025-2.843-.07-.817-.082-1.43-.533-2.13-.925-.891-.5-1.849-.881-2.886-.896-2.202-.033-3.72,1.23-4.925,2.933-1.126,1.59-2.104,3.295-3.038,5.002-1.235,2.26,2.217,4.281,3.454,2.019h0Z"/><path class="y" d="M229.262,264.405c-.686.196-1.317.4-1.869.68-.197.1-.42.188-.634.134-.245-.062-.402-.294-.533-.51-3.897-6.427-4.953-14.595-10.943-21.061-2.133-2.068-3.588-2.717-6.265-4.004-4.809-2.312-9.208-4.162-14.516-4.702-1.416-.144-2.868.094-4.253.587-2.667,1.232-5.845,3.589-7.395,6.521-3.607,6.824-4.16,17.231-4.194,22.391,7.622,14.496,11.704,19.462,17.391,22.758,1.127.66,3.565,1.62,4.835,1.9,5.81,1.34,10.93,1.57,15.639-.51.572-.24,1.143-.55,1.429-1.08.244-.46.202-1.02.168-1.55-.193-2.829-.404-5.658-.611-8.454.466.507.978,1.006,1.572,1.511,2.095,1.778,5.195,3.091,7.939,3.231,3.586.183,7.21-1.644,10.407-4.143,2.034-1.59,3.797-3.491,5.499-5.433.203-.232.416-.486.439-.794.033-.428-.308-.783-.622-1.076-2.649-2.468-5.298-4.936-7.948-7.404-.183-.171-.465-.257-.706-.329-.364-.108-.815-.01-1.025.086-1.341.614-2.65.922-3.805,1.252Z"/><path class="ad" d="M163.363,310.909c0,8.289-.008,16.578-.008,24.867,0,2.574,4,2.578,4,0,0-8.289.008-16.578.008-24.867,0-2.574-4-2.578-4,0h0Z"/><path class="ad" d="M193.118,329.042v23.909c0,2.574,4,2.578,4,0v-23.909c0-2.574-4-2.578-4,0h0Z"/><path class="ab" d="M241.879,319.85c-.572-.472-1.239-.813-2.017-.999-1.509-.362-3.776-.337-5.809-.044-.279.454-.642.87-1.01,1.271-2.901,3.17-6.901,3.234-9.564,3.726-.003,3.208-.006,6.457-.008,9.086,1.251.8,2.804,1.196,4.301,1.139,1.987-.077,3.88-.822,5.717-1.583,3.266-1.353,6.608-2.864,8.944-5.518.212-.241.417-.497.602-.765.558-.805.738-1.679.674-2.641-.045-.686-.218-1.64-.583-2.222-.356-.567-.768-1.055-1.248-1.451Z"/><path class="ad" d="M224.365,325.671c4.439-.716,9.224-1.76,11.564-6.118.935-1.741.824-4.163,1.025-6.119.204-1.981.383-3.965.546-5.951.288-3.525.761-7.197.538-10.738-.279-4.436-3.299-8.439-6.923-10.781-3.12-2.016-6.718-2.73-10.272-3.566-2.504-.589-3.572,3.267-1.063,3.857,2.438.573,5.006.995,7.291,2.047,3.315,1.527,5.925,4.136,6.812,7.745.299,1.214.166,2.552.115,3.819-.071,1.757-.186,3.513-.315,5.267-.254,3.469-.553,6.939-.956,10.394-.128,1.097-.092,1.972-.837,2.848-.761.894-1.664,1.601-2.727,2.099-1.824.854-3.897,1.023-5.861,1.34-1.067.172-1.661,1.5-1.397,2.46.312,1.135,1.39,1.57,2.46,1.397h0Z"/><path class="ad" d="M223.567,299.626c-4.444,2.508-8.952,4.919-13.838,6.452-2.255.707-4.515,1.33-6.892,1.319-2.124-.01-4.637-.445-6.106-2.113-1.705-1.935-4.525.903-2.828,2.828,3.805,4.319,10.741,3.589,15.666,2.189,5.671-1.612,10.906-4.337,16.018-7.222,2.242-1.265.228-4.722-2.019-3.454h0Z"/><path class="ad" d="M219.659,331.616c1.866,3.559,6.053,4.864,9.825,4.22,2.102-.359,4.081-1.254,6.029-2.089,1.742-.747,3.468-1.555,5.047-2.612s3.154-2.349,4.202-3.962c1.108-1.706,1.199-3.928.56-5.829-1.452-4.319-6.162-4.987-10.089-4.676-1.077.085-2,.858-2,2,0,1.016.917,2.086,2,2,2.179-.173,5.873-.465,6.415,2.407.48,2.542-2.453,4.288-4.347,5.373-2.473,1.416-5.32,2.733-8.103,3.377-2.298.532-4.916,0-6.084-2.228-1.196-2.281-4.649-.261-3.454,2.019h0Z"/><path class="ad" d="M221.486,313.824c0,7.317-.016,14.635-.016,21.952,0,2.574,4,2.578,4,0,0-7.317.016-14.635.016-21.952,0-2.574-4-2.578-4,0h0Z"/><path class="ad" d="M209.633,262.095c-.06-.262-.108-.525-.145-.791l.071.532c-.089-.707-.091-1.417-.003-2.125l-.071.532c.055-.399.135-.793.252-1.178.058-.191.131-.375.198-.562-.23.648-.004.03.091-.146.093-.172.194-.339.304-.501.092-.136.323-.344-.082.091.066-.071.123-.151.188-.224.119-.134.245-.261.377-.381.059-.054.354-.289.061-.065-.306.234.057-.035.119-.077.865-.585,1.329-1.787.718-2.736-.556-.862-1.809-1.344-2.736-.718-3.062,2.07-3.992,5.939-3.198,9.412.233,1.021,1.464,1.719,2.46,1.397,1.068-.346,1.647-1.366,1.397-2.46h0Z"/><path class="ad" d="M180.706,267.565c-.184-3.751.004-7.555.407-11.284.663-6.14,1.891-13.559,7.28-17.364,1.526-1.078,3.13-1.96,5.041-2.011,2.051-.054,4.186.498,6.142,1.065,3.774,1.094,7.46,2.772,10.919,4.629,6.655,3.572,8.787,11.638,11.53,18.113.747,1.765,1.51,3.644,2.617,5.22,1.559,2.222,3.837.767,5.875.2.538-.15,1.076-.3,1.606-.477.349-.117,1.25-.648,1.558-.612.15.017.8.789.967.945.482.449.963.897,1.445,1.346.963.897,1.927,1.795,2.89,2.692.772.719,2.148,1.619,2.618,2.551l-.273-1.009c.243-.365.254-.412.035-.142-.15.171-.301.342-.453.512-.303.34-.609.679-.919,1.013-.516.556-1.043,1.104-1.587,1.633-1.178,1.146-2.429,2.197-3.802,3.101-2.459,1.619-5.366,2.954-8.381,2.476-6.312-1.001-9.504-6.899-12.971-11.586-.641-.867-1.733-1.305-2.736-.718-.855.5-1.364,1.863-.718,2.736,2.568,3.471,4.934,7.533,8.366,10.229,3.407,2.677,7.893,4.035,12.179,3.11,4.532-.978,8.531-4.068,11.694-7.328,1.448-1.493,3.975-3.469,3.12-5.809-.369-1.01-1.321-1.715-2.08-2.422-.963-.897-1.927-1.795-2.89-2.692-1.084-1.01-2.168-2.019-3.251-3.029-1.056-.983-2.084-1.722-3.589-1.59-1.177.103-2.36.78-3.501,1.102-.562.159-1.129.302-1.685.481-.227.073-.453.15-.676.235-.125.047-.999.345-.724.337l1.009.273c.145.074.214.416.09.048-.053-.159-.196-.332-.28-.479-.183-.322-.36-.648-.531-.976-.402-.772-.772-1.559-1.124-2.355-.647-1.465-1.215-2.965-1.806-4.454-1.276-3.216-2.61-6.44-4.526-9.337-1.883-2.848-4.184-5.27-7.225-6.873-3.171-1.671-6.501-3.194-9.889-4.367-3.511-1.215-7.579-2.295-11.287-1.517-3.275.688-6.492,3.115-8.569,5.675-3.765,4.64-4.825,11.335-5.474,17.101-.431,3.833-.631,7.748-.442,11.606.126,2.562,4.126,2.577,4,0h0Z"/><path class="ad" d="M215.701,280.058c.131,1.802.267,3.604.387,5.408.018.275.192.926.071,1.149.14-.258-.382.127-.474.17-.625.29-1.293.503-1.955.692-2.776.794-5.72.79-8.565.404-2.616-.356-5.263-.935-7.626-2.149-2.558-1.314-4.711-3.24-6.607-5.377-1.712-1.929-4.533.908-2.828,2.828,2.23,2.513,4.916,4.857,7.99,6.279,3.263,1.509,6.738,2.238,10.311,2.556s7.199-.057,10.518-1.441c1.834-.765,3.169-1.893,3.221-4.016.052-2.145-.286-4.362-.441-6.501-.186-2.552-4.188-2.573-4,0h0Z"/><path class="ad" d="M221.472,303.842v9.931l.991-1.727c-7.137,4.117-14.286,8.215-21.427,12.326-1.317.758-2.616,1.61-3.975,2.291-1.899.951-3.451-.116-5.07-1.051-4.136-2.389-8.272-4.777-12.407-7.165-2.398-1.385-4.795-2.769-7.193-4.154-1.919-1.108-4.945-2.089-5.036-4.676-.09-2.567-4.091-2.579-4,0,.112,3.185,1.896,5.172,4.53,6.693,2.153,1.243,4.306,2.487,6.46,3.73,4.632,2.675,9.264,5.35,13.895,8.025,1.781,1.028,3.689,2.49,5.745,2.838,2.575.436,4.552-.474,6.706-1.715,3.778-2.177,7.558-4.35,11.338-6.523,4.152-2.387,8.304-4.772,12.453-7.164.609-.351.991-1.025.991-1.727v-9.931c0-2.574-4-2.578-4,0h0Z"/><path class="ac" d="M165.355,297.407c.005-12.285.013-27.542.013-32.483,0-1.296,1.376-2.112,2.512-1.488,6.112,3.392,18.064,10.32,24.592,14.224,1.552.928,2.512,2.592,2.512,4.4v32.523c-9.202-5.425-20.661-12.068-29.629-17.176Z"/><path class="ad" d="M196.987,318.583v-34.541c0-2.03.047-4.046-1.133-5.817-1.313-1.969-3.525-2.985-5.507-4.155-4.234-2.5-8.486-4.971-12.749-7.422-1.994-1.146-3.991-2.288-5.994-3.419-1.903-1.075-4.048-2.765-6.286-1.557-1.844.995-1.947,2.826-1.948,4.669,0,1.421,0,2.843-.001,4.264-.001,3.878-.003,7.757-.005,11.635-.004,9.126-.009,18.251-.01,27.377,0,2.574,4,2.578,4,0,0-14.454.013-28.907.016-43.361,0-.289.036-1.241-.02-1.26.133.047-.384.333-.34.228-.033.077-.493-.428.086.064.326.277.817.455,1.189.664,1.802,1.011,3.598,2.033,5.392,3.06,4.107,2.35,8.2,4.724,12.281,7.119,1.759,1.032,3.526,2.053,5.268,3.115,1.654,1.008,1.76,2.39,1.76,4.156v35.183c0,2.574,4,2.578,4,0h0Z"/><path class="ae" d="M197.073,203.912c-1.127.484-2.219,1.075-3.261,1.772-2.09,1.399-3.919,3.205-5.221,5.366-2.453,4.072-2.912,9.13-2.007,13.797.577,2.977,1.729,5.926,3.825,8.118,5.372,5.614,15.213,5.817,22.184,3.701.024-.007.049-.015.073-.022.106-.033.211-.066.317-.101-.622-3.473-1.141-7.346-.36-10.841.431-1.927,1.443-3.633,2.947-4.912,2.127-1.808,4.159-1.893,7.516-1.59-.311-4.004-1.65-7.866-4.377-10.88-.404-.446-.831-.87-1.279-1.272-5.652-5.075-13.615-6.029-20.356-3.136Z"/><path class="ad" d="M213.198,238.571c4.134-1.321,7.823-3.835,9.802-7.796,1.903-3.809,2.479-8.279,1.997-12.485-.516-4.505-2.245-8.804-5.497-12.037-2.856-2.84-6.608-4.835-10.571-5.568-8.158-1.508-17.12,1.811-21.745,8.85-2.448,3.726-3.32,8.412-2.948,12.811.376,4.439,1.759,9.066,4.999,12.276,6.07,6.013,16.226,6.315,23.963,3.949,2.455-.751,1.408-4.613-1.063-3.857-5.582,1.707-12.45,1.935-17.642-1.079-6.26-3.634-7.614-12.634-5.381-19.034,2.251-6.455,9.243-10.329,15.856-10.307,6.932.024,13.433,4.362,15.413,11.123,1.1,3.756,1.065,7.931-.155,11.655-1.28,3.905-4.237,6.41-8.091,7.642-2.443.781-1.399,4.644,1.063,3.857Z"/><path class="ad" d="M221.528,217.087c-1.985-.081-3.976.128-5.739,1.112-1.819,1.015-3.375,2.723-4.254,4.607-2.039,4.374-1.318,9.504-.515,14.089.187,1.065,1.49,1.664,2.46,1.397,1.124-.309,1.584-1.392,1.397-2.46-.6-3.425-1.308-7.548.056-10.882.524-1.282,1.488-2.467,2.668-3.178s2.414-.747,3.926-.685c1.08.044,2-.951,2-2,0-1.12-.916-1.956-2-2h0Z"/><path class="ad" d="M179.814,207.425c-6.218,3.59-12.437,7.18-18.655,10.771-2.229,1.287-.217,4.745,2.019,3.454,6.218-3.59,12.437-7.18,18.655-10.771,2.229-1.287.217-4.745-2.019-3.454h0Z"/><path class="ad" d="M139.079,208.141c6.265-3.617,12.531-7.235,18.796-10.852,2.229-1.287.217-4.745-2.019-3.454-6.265,3.617-12.531,7.235-18.796,10.852-2.229,1.287-.217,4.745,2.019,3.454h0Z"/><path class="ad" d="M181.833,207.425c-7.987-4.607-15.973-9.218-23.958-13.829l.991,1.727v-22.382l-3.009,1.727c7.982,4.616,15.975,9.213,23.958,13.829l-.991-1.727v22.382c0,2.574,4,2.578,4,0v-19.336c0-1.003.074-2.045,0-3.046-.095-1.285-1.04-1.756-2.059-2.345-7.627-4.409-15.263-8.801-22.889-13.212-1.312-.759-3.009.206-3.009,1.727v19.397c0,1.074-.217,2.468.071,3.517.303,1.101,1.521,1.543,2.417,2.06,7.486,4.323,14.972,8.645,22.46,12.964,2.234,1.289,4.251-2.167,2.019-3.454h0Z"/><g id="v"><path class="aa" d="M180.823,207.158c-.931.537-30.089,17.375-31.512,18.197-.634-.366-21.312-12.317-21.81-12.604,2.73-1.578,28.101-16.229,31.51-18.197.581.336,21.332,12.326,21.812,12.603,0,0,0,0,0,.001Z"/></g><path class="ac" d="M147.011,258.887v9.931c-5.39,3.109-20.486,11.776-25.474,14.659-1.41.815-3.714.814-5.124,0-5.409-3.124-17.902-10.339-24.991-14.433-1.57-.907-2.528-2.569-2.528-4.382v-11.304l58.117,5.53Z"/><path class="ab" d="M118.855,261.743c1.133,1.4,3.392,2.23,5.444,2.556,1.459.232,3.845.18,5.289-.133,6.634-1.439,11.743-3.971,17.423-7.147,0,1.415,0,2.954,0,4.458l.504-.243c3.102-1.423,7.623-3.258,11.011-4.764.75-.333,1.216-1.094,1.18-1.914-.043-.988-.089-1.964-.137-2.924-1.088-6.584-6.379-10.206-12.464-11.493l-28.84-3.614.59,25.22Z"/><path class="ab" d="M147.209,288.671c-.068-.045-.135-.091-.201-.139.002-2.302.005-5.159.007-8.073,1.287-.053,2.653-.1,3.837-.159,1.473-.073,3.051-.184,4.208-1.098.35-.276.85-1.52,1.049-2.565.049-.298.097-.595.144-.892,1.316-.388,4.466.039,5.763.35,1.284.308,2.331,1.315,3.032,2.434.328.524.384,1.113.425,1.73.057.865-.103,1.687-.605,2.41-.167.241-.351.471-.542.688-2.1,2.386-5.104,3.744-8.04,4.96-1.652.684-3.354,1.354-5.14,1.423-1.374.053-2.799-.319-3.938-1.069Z"/><path class="ab" d="M155.984,277.182c.049-.183.092-.367.125-.545.745-4.523,1.232-8.94,1.608-13.837.125-1.63.17-3.984.284-5.615l.035-.501c-3.322,1.462-7.566,3.192-10.522,4.548l-.503.231c.002,2.755.005,5.099.005,7.38,0,2.961-.003,7.351-.005,11.617,1.287-.053,2.655-.1,3.84-.159,1.473-.073,3.051-.184,4.208-1.098.29-.229.684-1.125.923-2.02Z"/><path class="ad" d="M147.106,254.671c-4.444,2.508-8.952,4.919-13.838,6.452-2.255.707-4.515,1.33-6.892,1.319-2.124-.01-4.637-.445-6.106-2.113-1.705-1.935-4.525.903-2.828,2.828,3.805,4.319,10.741,3.589,15.666,2.189,5.671-1.612,10.906-4.337,16.018-7.222,2.242-1.265.228-4.722-2.019-3.454h0Z"/><path class="ad" d="M146.573,242.066c4.494.98,9.036,3.408,10.564,8.042.448,1.36.482,2.659.553,4.077.008.161.056.348-.007.5.182-.146.127-.127-.167.057-.197.088-.394.175-.591.261-.625.275-1.251.545-1.879.814-2.85,1.222-5.72,2.4-8.541,3.689-.983.449-1.224,1.871-.718,2.736.59,1.009,1.75,1.168,2.736.718,3.24-1.48,6.543-2.815,9.809-4.236,1.895-.825,3.323-1.921,3.373-4.169.039-1.738-.113-3.567-.622-5.23-1.875-6.124-7.422-9.802-13.447-11.116-2.509-.547-3.581,3.308-1.063,3.857h0Z"/><path class="ad" d="M143.68,287.673c1.331,2.539,4.095,3.935,6.891,4.065,3.069.143,6.13-1.362,8.85-2.611,2.58-1.185,5.096-2.727,6.846-5.008,1.975-2.575,1.429-6.151-.873-8.317-2.122-1.997-5.615-2.378-8.42-2.181-1.078.076-2,.865-2,2,0,1.024.917,2.076,2,2,1.825-.128,4.608-.141,5.918,1.339,1.795,2.028-.823,4.041-2.439,5.079-2.271,1.459-4.959,2.669-7.561,3.392-2.117.588-4.635.367-5.759-1.776-1.196-2.281-4.649-.261-3.454,2.019h0Z"/><path class="ad" d="M156.002,257.186c-.316,4.808-.55,9.589-1.155,14.377-.147,1.164-.314,2.325-.496,3.485-.093.595-.175,1.192-.342,1.772-.075.26-.172.504-.262.757-.031.088-.3.427-.078.207.281-.279-.299.119-.418.166-.223.088-.473.141-.708.19-.496.102-1.002.125-1.506.153-1.353.074-2.707.116-4.061.17-2.565.103-2.578,4.104,0,4,2.711-.109,6.023.206,8.482-1.138,2.504-1.369,2.675-4.594,3.032-7.113.805-5.666,1.135-11.322,1.51-17.024.169-2.57-3.832-2.56-4,0h0Z"/><path class="ad" d="M145.024,268.869c0,7.317-.016,14.635-.016,21.952,0,2.574,4,2.578,4,0,0-7.317.016-14.635.016-21.952,0-2.574-4-2.578-4,0h0Z"/><path class="ad" d="M145.011,258.887v9.931l.991-1.727c-7.137,4.117-14.286,8.215-21.427,12.326-1.317.758-2.616,1.61-3.975,2.291-1.899.951-3.451-.116-5.07-1.051-4.136-2.389-8.272-4.777-12.407-7.165-2.398-1.385-4.795-2.769-7.193-4.154-1.919-1.108-4.945-2.089-5.036-4.676-.09-2.567-4.091-2.579-4,0,.112,3.185,1.896,5.172,4.53,6.693,2.153,1.243,4.306,2.487,6.46,3.73,4.632,2.675,9.264,5.35,13.895,8.025,1.781,1.028,3.689,2.49,5.745,2.838,2.575.436,4.552-.474,6.706-1.715,3.778-2.177,7.558-4.35,11.338-6.523,4.152-2.387,8.304-4.772,12.453-7.164.609-.351.991-1.025.991-1.727v-9.931c0-2.574-4-2.578-4,0h0Z"/><path class="ab" d="M165.036,216.237c.987-.105,1.948-.367,2.926-.191,1.135.204,2.151.791,2.969,1.604.801.796,1.157,2.202,1.271,3.531.07.818-.089,1.659-.444,2.399-.24.5-.608.986-.999,1.379-1.625,1.633-4.903,4.058-6.688,5.008-.116-.208-.3-.39-.475-.553-2.649-2.468-5.298-4.936-7.948-7.404-.183-.171-.465-.257-.706-.329-.086-.026-.177-.04-.269-.043l.847-1.393,2.077-3.374c.554-.9,1.251-1.895,2.301-2.013,1.199-.134,2.174.942,3.334,1.273.616.176,1.215.169,1.804.106Z"/><path class="ad" d="M157.246,221.255c.772-1.254,1.515-2.532,2.324-3.763.169-.257.44-.644.708-.72-.228.064-.141.037-.105.096.033.055.439.202.612.299,1.273.712,2.522,1.198,4.011,1.09,1.12-.081,2.324-.512,3.409-.088,1.005.393,1.551,1.02,1.802,1.955.269.999.351,2.049-.256,2.939-.55.805-1.447,1.463-2.197,2.076-.764.625-1.552,1.211-2.424,1.81-.459.315-.924.622-1.4.909-.199.12-.399.237-.603.347-.071.038-.634.315-.326.176.354-.159-.15.049-.238.078-.165.055-.332.103-.5.144-.283.07-.464.102-.755.112-.584.02-1.053-.057-1.566-.348-2.243-1.271-4.261,2.183-2.019,3.454,2.812,1.594,5.954.821,8.527-.82,1.211-.772,2.364-1.632,3.492-2.519,1.06-.833,2.149-1.695,2.988-2.758,2.211-2.803,1.953-7.591-.877-9.93-1.396-1.154-3.145-1.916-4.987-1.793-.787.052-1.559.248-2.348.271-.777.022-1.16-.258-1.82-.62-1.891-1.037-3.941-1.088-5.55.504-.621.614-1.082,1.388-1.537,2.126l-1.818,2.952c-1.353,2.198,2.105,4.21,3.454,2.019h0Z"/><path class="z" d="M147.008,223.132c.061.104.123.207.185.31.131.216.288.449.533.51.214.054.437-.034.634-.134,1.481-.752,3.537-.953,5.674-1.932.21-.096.661-.194,1.025-.086.24.071.522.158.706.329,2.649,2.468,5.298,4.936,7.948,7.404.314.293.654.648.622,1.076-.023.307-.236.562-.439.794-1.701,1.942-3.464,3.843-5.499,5.433-3.197,2.499-6.822,4.326-10.407,4.143-2.385-.122-5.038-1.129-7.062-2.562.104,1.432.206,2.868.304,4.303.034.53.076,1.09-.168,1.55-.286.53-.858.84-1.429,1.08-4.708,2.08-9.829,1.85-15.639.51-1.27-.28-3.708-1.24-4.835-1.9-4.088-2.37-13.869-7.036-18.144-13.992-1.347-2.193-1.391-8.608-1.159-12.461.39-5.284,1.414-11.899,3.964-16.724,1.55-2.932,4.728-5.289,7.395-6.521,1.193-.664,2.837-.731,4.253-.587,5.308.541,9.708,2.39,14.516,4.702,2.677,1.287,4.132,1.936,6.265,4.004.089.096.178.193.265.291,5.664,6.315,6.804,14.18,10.494,20.461Z"/><path class="ad" d="M135.1,204.085c4.8,5.446,6.23,12.638,9.546,18.914.825,1.561,1.833,3.394,3.935,2.872.782-.194,1.547-.623,2.332-.848.869-.249,1.743-.472,2.593-.78.239-.087.981-.529,1.171-.491.014.003.749.793.756.8.843.785,1.686,1.571,2.529,2.356s1.686,1.571,2.529,2.356c.652.607,1.686,1.272,2.076,2.047l-.273-1.009c.243-.365.254-.412.035-.142-.15.171-.301.342-.453.512-.303.34-.609.679-.919,1.013-.516.556-1.043,1.104-1.587,1.633-1.178,1.146-2.429,2.197-3.802,3.101-2.459,1.619-5.366,2.954-8.381,2.476-6.312-1.001-9.504-6.899-12.971-11.586-.641-.867-1.733-1.305-2.736-.718-.855.5-1.364,1.863-.718,2.736,2.568,3.471,4.934,7.533,8.366,10.229,3.407,2.677,7.893,4.035,12.179,3.11,4.532-.978,8.531-4.068,11.694-7.328,1.448-1.493,3.975-3.469,3.12-5.809-.369-1.01-1.321-1.715-2.08-2.422-.963-.897-1.927-1.795-2.89-2.692-1.084-1.01-2.168-2.019-3.251-3.029-1.056-.983-2.084-1.722-3.589-1.59-1.177.103-2.36.78-3.501,1.102-.562.159-1.129.302-1.685.481-.227.073-.453.15-.676.235-.125.047-.999.345-.724.337l1.009.273c.253.31.251.273-.005-.111-.125-.213-.247-.428-.366-.644-.239-.434-.467-.874-.687-1.318-.422-.855-.812-1.726-1.179-2.605-.74-1.773-1.409-3.574-2.144-5.349-1.641-3.966-3.569-7.7-6.426-10.941-1.705-1.935-4.525.903-2.828,2.828h0Z"/><path class="ad" d="M86.902,265.953c0,8.289-.008,16.578-.008,24.867,0,2.574,4,2.578,4,0,0-8.289.008-16.578.008-24.867,0-2.574-4-2.578-4,0h0Z"/><path class="ad" d="M116.656,284.087v23.909c0,2.574,4,2.578,4,0v-23.909c0-2.574-4-2.578-4,0h0Z"/><path class="ad" d="M130.6,220.828c-.06-.262-.108-.525-.145-.791l.071.532c-.089-.707-.091-1.417-.003-2.125l-.071.532c.055-.399.135-.793.252-1.178.058-.191.131-.375.198-.562-.23.648-.004.03.091-.146.093-.172.194-.339.304-.501.092-.136.323-.344-.082.091.066-.071.123-.151.188-.224.119-.134.245-.261.377-.381.059-.054.354-.289.061-.065-.306.234.057-.035.119-.077.865-.585,1.329-1.787.718-2.736-.556-.862-1.809-1.344-2.736-.718-3.062,2.07-3.992,5.939-3.198,9.412.233,1.021,1.464,1.719,2.46,1.397,1.068-.346,1.647-1.366,1.397-2.46h0Z"/><path class="ad" d="M101.673,226.298c-.264-5.38.099-10.93,1.162-16.207.796-3.953,1.912-8.27,4.934-11.128,1.435-1.357,3.545-3.005,5.558-3.299,2.471-.36,5.283.452,7.628,1.162,2.774.84,5.411,2.028,8.021,3.278,2.231,1.069,4.432,2.124,6.126,3.982,1.738,1.907,4.56-.929,2.828-2.828-1.629-1.787-3.703-3.041-5.857-4.089-2.624-1.276-5.275-2.522-8.02-3.52-2.768-1.007-5.648-1.698-8.584-1.974-2.794-.262-5.163.594-7.486,2.089-2.255,1.452-4.343,3.338-5.703,5.674-1.127,1.936-1.902,4.135-2.509,6.283-1.203,4.257-1.75,8.713-2.005,13.12-.143,2.477-.214,4.977-.092,7.458.126,2.562,4.126,2.577,4,0h0Z"/><path class="ad" d="M138.922,238.418c.067.874.131,1.749.193,2.624.044.62.319,1.613.144,2.205-.042.141.021.052-.296.221-.306.162-.661.285-.985.402-.624.226-1.263.414-1.909.568-2.735.649-5.642.55-8.402.112-2.46-.39-4.927-.947-7.144-2.125-2.503-1.33-4.612-3.205-6.486-5.311-1.715-1.927-4.536.91-2.828,2.828,2.199,2.471,4.834,4.78,7.845,6.209,3.112,1.477,6.405,2.191,9.818,2.562,3.394.369,6.936.179,10.169-.987,1.668-.602,3.606-1.375,4.082-3.289.461-1.854-.058-4.143-.201-6.02-.194-2.551-4.196-2.572-4,0h0Z"/><path class="ac" d="M88.897,252.451c.005-12.285.013-27.542.013-32.483,0-1.296,1.376-2.112,2.512-1.488,6.112,3.392,18.064,10.32,24.592,14.224,1.552.928,2.512,2.592,2.512,4.4v32.523c-9.202-5.425-20.661-12.068-29.629-17.176Z"/><path class="ad" d="M120.526,272.301v-34.412c0-2.372-.615-4.612-2.509-6.189-1.61-1.34-3.64-2.298-5.441-3.357-4.224-2.485-8.462-4.945-12.713-7.382-1.918-1.1-3.839-2.194-5.767-3.277-1.988-1.117-4.306-2.296-6.201-.229-1.149,1.253-.985,2.892-.985,4.457,0,1.41,0,2.82-.001,4.23-.001,3.932-.003,7.863-.005,11.795-.004,8.908-.009,17.817-.009,26.725,0,2.574,4,2.578,4,0,0-14.28.012-28.56.016-42.841,0-.481.023-.967,0-1.448,0-.019.021-.24,0-.274-.193-.308.14.103-.1.072-.731-.093-.017.247.288.418,1.687.941,3.367,1.895,5.045,2.853,4.05,2.312,8.086,4.648,12.111,7.004,1.754,1.027,3.507,2.057,5.255,3.095,1.701,1.01,3.002,1.782,3.018,3.947.024,3.301,0,6.604,0,9.905v24.909c0,2.574,4,2.578,4,0h0Z"/><path class="ad" d="M132.909,197.143c4.036-1.292,7.646-3.756,9.554-7.64,1.815-3.695,2.378-8.007,1.9-12.077-.512-4.358-2.179-8.519-5.33-11.647-2.796-2.775-6.474-4.73-10.357-5.421-7.931-1.412-16.675,1.839-21.093,8.752-2.358,3.691-3.17,8.306-2.734,12.624.425,4.206,1.752,8.538,4.829,11.581,5.889,5.824,15.728,6.123,23.231,3.829,2.455-.751,1.408-4.613-1.063-3.857-5.347,1.635-11.918,1.867-16.911-.979-6.02-3.432-7.388-11.931-5.37-18.101,2.082-6.364,8.859-10.222,15.341-10.209,6.616.013,12.878,4.114,14.824,10.559,1.092,3.616,1.086,7.64-.06,11.243-1.216,3.822-4.058,6.281-7.825,7.487-2.442.782-1.398,4.645,1.063,3.857Z"/><path class="ae" d="M113.817,164.671c-.857.528-1.615,1.113-2.302,1.741-3.583,3.278-5.167,7.833-5.647,10.55-1.16,6.565-.689,10.2-.103,13.7.266,1.592,1.137,3.545,1.958,4.667.926,1.264,2.941,2.651,4.375,3.282,8.727,3.839,15.81,2.256,19.099.607.755-.379,1.612-.675,2.084-1.348-.719-3.969-1.854-8.969-.875-13.353.416-1.863,1.395-3.513,2.85-4.75,2.086-1.773,4.077-1.833,7.406-1.525-.599-4.431-2.793-8.645-6.126-11.633-4.685-4.199-11.059-5.429-17.155-4.105-2.252.489-4.06,1.238-5.565,2.166Z"/><path class="ad" d="M141.02,176.121c-2.238-.083-4.458.224-6.318,1.562-1.914,1.377-3.32,3.316-4.026,5.569-1.528,4.875-.211,10.287.681,15.151l.514-1.946c-.622.735-1.909,1.181-2.557,1.417-1.076.392-2.185.688-3.315.878-2.768.465-5.668.262-8.388-.385-2.884-.686-6.523-1.783-8.35-4.321-1.516-2.106-1.828-4.897-2.017-7.417-.411-5.477.28-11.507,3.397-16.158,3.484-5.2,10.138-7.216,16.158-6.282,7.451,1.156,12.788,7.11,13.917,14.443.165,1.068,1.505,1.659,2.46,1.397,1.141-.314,1.562-1.389,1.397-2.46-1.489-9.667-9.485-16.903-19.206-17.529-4.438-.286-9.326.718-13.05,3.222-3.661,2.461-6.192,6.176-7.621,10.312-1.313,3.8-1.691,8.166-1.506,12.165.175,3.773.695,7.961,3.12,11.005,2.875,3.609,8.063,5.246,12.454,5.91,3.74.566,7.682.451,11.282-.803,1.685-.587,4.644-1.542,5.168-3.447.325-1.181-.35-2.912-.56-4.103-.238-1.348-.447-2.698-.548-4.064-.186-2.492-.216-5.291,1.163-7.478,1.358-2.155,3.335-2.727,5.752-2.636,2.574.096,2.57-3.904,0-4h0Z"/><path class="ad" d="M84.138,116.229c0,4.261-.006,8.522-.007,12.783,0,1.522,1.697,2.484,3.009,1.727,4.234-2.444,8.467-4.889,12.7-7.334,1.54-.89,3.16-1.708,4.648-2.684,1.097-.719,1.032-1.775,1.033-2.904,0-1.306.001-2.612.002-3.919.001-2.571.003-5.141.003-7.712,0-1.522-1.698-2.485-3.009-1.727-5.796,3.347-11.594,6.693-17.388,10.043-2.228,1.288-.216,4.746,2.019,3.454,5.795-3.35,11.592-6.695,17.388-10.043l-3.009-1.727c0,4.261-.005,8.522-.006,12.783l.991-1.727c-5.797,3.347-11.593,6.695-17.39,10.042l3.009,1.727c0-4.261.006-8.522.007-12.783,0-2.574-4-2.578-4,0Z"/><path class="ad" d="M94.531,61.09c-7.852,4.534-15.704,9.069-23.556,13.604-1.408.813-2.816,1.626-4.224,2.44-2.228,1.288-.216,4.746,2.019,3.454,7.729-4.468,15.46-8.93,23.191-13.394,1.53-.883,3.059-1.767,4.589-2.65,2.229-1.287.217-4.745-2.019-3.454h0Z"/><path class="ad" d="M92.865,75.22c-7.852,4.534-15.704,9.069-23.556,13.604-1.408.813-2.816,1.626-4.224,2.44-2.228,1.288-.216,4.746,2.019,3.454,7.729-4.468,15.46-8.93,23.191-13.394,1.53-.883,3.059-1.767,4.589-2.65,2.229-1.287.217-4.745-2.019-3.454h0Z"/><path class="ad" d="M109.441,83.361c0,9.018-.004,18.036-.006,27.055,0,1.33,0,2.659,0,3.989,0,1.522,1.697,2.484,3.009,1.727,3.167-1.828,6.333-3.657,9.499-5.486,1.904-1.1,3.808-2.199,5.712-3.299,1.236-.714,3.064-1.369,3.169-3,.164-2.55,0-5.163.001-7.717,0-4.717.002-9.434.003-14.152,0-3.053.001-6.107.002-9.16,0-1.522-1.697-2.485-3.009-1.727-5.796,3.347-11.594,6.693-17.388,10.043-2.228,1.288-.216,4.746,2.019,3.454,5.795-3.35,11.592-6.695,17.388-10.043l-3.009-1.727c0,9.038-.003,18.077-.005,27.115,0,1.31,0,2.619,0,3.929l.991-1.727c-5.797,3.347-11.593,6.695-17.39,10.042l3.009,1.727c0-9.036.004-18.071.006-27.107,0-1.312,0-2.624,0-3.936,0-2.574-4-2.578-4,0Z"/><path class="ad" d="M134.743,50.492c0,5.56-.002,11.121-.002,16.681-.001,8.789-.003,17.579-.004,26.368,0,2.085,0,4.17,0,6.255,0,1.522,1.697,2.484,3.009,1.727,4.672-2.698,9.344-5.396,14.016-8.094,1.436-.829,4.255-1.829,4.364-3.735.059-1.031,0-2.083,0-3.115.001-11.685.003-23.369.004-35.054,0-3.692.001-7.384.001-11.076,0-1.522-1.697-2.485-3.009-1.727-5.796,3.347-11.594,6.693-17.388,10.043-2.228,1.288-.216,4.746,2.019,3.454,5.795-3.35,11.592-6.695,17.388-10.043l-3.009-1.727c0,5.591-.001,11.181-.002,16.772-.001,8.792-.002,17.584-.003,26.376,0,2.052,0,4.104,0,6.157l.991-1.727c-5.797,3.347-11.593,6.695-17.39,10.042l3.009,1.727c0-5.585.002-11.169.002-16.754.001-8.783.003-17.565.004-26.348,0-2.067,0-4.135,0-6.202,0-2.574-4-2.578-4,0Z"/><g id="w"><path class="ab" d="M262.421,239.888c-.643-.371-20.799-12.011-21.783-12.579-.438.253-14.732,8.514-15.076,8.713,1.887,1.091,19.425,11.218,21.781,12.579.402-.232,14.745-8.52,15.078-8.712,0,0,0,0,0,0Z"/></g><g id="x"><path class="ad" d="M263.43,238.161c-6.243-3.605-12.486-7.21-18.729-10.815-1.018-.588-2.036-1.176-3.054-1.763-.623-.36-1.396-.36-2.019,0-5.026,2.903-10.05,5.81-15.076,8.713-1.298.75-1.297,2.704,0,3.454,7.259,4.196,14.521,8.386,21.781,12.579.623.36,1.396.36,2.019,0,5.026-2.903,10.051-5.809,15.078-8.712.829-.479,1.07-1.376.919-2.259h0c-.182-1.066-1.494-1.663-2.46-1.398-1.128.31-1.579,1.392-1.397,2.46h0c.306-.752.613-1.505.919-2.258-5.027,2.903-10.051,5.809-15.078,8.712h2.019c-7.261-4.193-14.522-8.383-21.781-12.579v3.454c5.026-2.903,10.05-5.81,15.076-8.713h-2.019c6.302,3.639,12.603,7.278,18.905,10.917.959.554,1.918,1.108,2.878,1.662,2.233,1.289,4.25-2.166,2.019-3.454Z"/></g></g></svg>