<?xml version="1.0" encoding="UTF-8"?>
<svg id="_レイヤー_1" data-name="レイヤー 1" xmlns="http://www.w3.org/2000/svg" viewBox="0 0 1133.86 850.39">
  <defs>
    <style>
      .cls-1 {
        fill: none;
      }

      .cls-1, .cls-2, .cls-3 {
        stroke-width: 0px;
      }

      .cls-2 {
        fill: #fff;
      }

      .cls-3 {
        fill: #6ee9c2;
      }
    </style>
  </defs>
  <rect class="cls-1" x="0" y="0" width="1133.86" height="850.39"/>
  <g>
    <path class="cls-2" d="M372.39,70.74c-4.38,0-8.55.84-12.16,2.19-10.56,3.95-21.85,14.29-21.85,31.48v359.68c0,30.8,10.97,60.69,30.9,84.17l195.52,230.43c.56.65,1.27.99,2.13.99v-502l-169.56-195.3c-7.41-8.54-16.57-11.64-24.97-11.64Z"/>
    <path class="cls-3" d="M566.93,779.68c.86,0,1.57-.33,2.13-.99l195.52-230.43c19.92-23.48,30.9-53.37,30.9-84.17V104.41c0-17.19-11.28-27.53-21.85-31.48-10.56-3.95-25.86-3.54-37.14,9.45l-169.56,195.3h0s0,502,0,502h0Z"/>
    <path class="cls-3" d="M788.45,33.25c-30-11.21-62.95-2.82-83.95,21.36l-137.57,158.45h0S429.35,54.61,429.35,54.61c-20.99-24.18-53.95-32.57-83.95-21.36-30,11.21-49.39,39.14-49.39,71.17v359.68c0,40.82,14.55,80.45,40.96,111.58l195.52,230.43c8.6,10.13,21.15,15.94,34.43,15.94h0c13.29,0,25.84-5.81,34.43-15.94l195.52-230.43c26.41-31.13,40.96-70.75,40.96-111.58V104.41c0-32.02-19.38-59.96-49.39-71.17ZM795.47,464.1c0,30.79-10.97,60.69-30.9,84.17l-195.52,230.43c-.56.65-1.27.99-2.13.99h0c-.86,0-1.57-.33-2.13-.99l-195.52-230.43c-19.92-23.48-30.9-53.37-30.9-84.17V104.41c0-17.19,11.28-27.53,21.85-31.48,3.62-1.35,7.79-2.19,12.16-2.19,8.4,0,17.56,3.1,24.97,11.64l169.56,195.3h0s169.56-195.3,169.56-195.3c11.27-12.98,26.58-13.39,37.14-9.45,10.56,3.94,21.85,14.29,21.85,31.48v359.68Z"/>
  </g>
</svg>