<?xml version="1.0" encoding="UTF-8"?>
<svg id="_2" data-name="2" xmlns="http://www.w3.org/2000/svg" viewBox="0 0 512 512">
  <defs>
    <style>
      .cls-1 {
        fill: #6ee9c2;
        stroke-width: 0px;
      }
    </style>
  </defs>
  <path class="cls-1" d="M.45,253.54c12.82,40.62,50.66,71.21,95.51,71.21s82.79-29.46,95.6-70.08l.35-.15-.17-.39c.06-.2.13-.39.19-.59h-.46L110.77,67.96c30.98,6.37,70.48,15.1,111.34,25.44,1.26,8.54,5.26,16.25,11.08,22.03,3.42,3.45,7.53,6.24,12.07,8.23v276.37h-20.41c-6.25,0-11.78,4.07-13.58,10.05-3.76,12.54-12.54,33.38-30.81,41.93-5.07,2.37-8.34,7.44-8.34,13.04h0c0,7.94,6.44,14.38,14.38,14.38h148.94c7.94,0,14.38-6.44,14.38-14.38h0c0-5.6-3.26-10.66-8.34-13.04-17.21-8.06-26-27.03-30.11-39.68-2.37-7.32-9.15-12.3-16.84-12.3h-17.85V123.66c4.53-1.99,8.63-4.78,12.06-8.23.96-.97,1.91-1.98,2.77-3.06,41.73,12.26,81.55,25.37,112.33,36l-83.33,191.61h-.45c.06.2.13.39.2.59l-.17.39.34.15c12.82,40.62,50.75,70.08,95.61,70.08s82.78-29.45,95.6-70.07l.34-.16-.17-.39c.06-.2.14-.39.19-.59h-.45l-78.91-181.46c2.33.84,4.54,1.64,6.64,2.41,6.74,2.46,14.21-.97,16.74-7.69h0c2.57-6.82-.91-14.43-7.76-16.93-31-11.3-87.22-30.79-147.98-48.66,0-10.82-4.43-20.67-11.52-27.75-7.08-7.11-16.95-11.5-27.77-11.5s-20.72,4.39-27.79,11.5c-2.33,2.32-4.35,4.94-6.02,7.8-60.02-15.17-116.63-26.79-148.41-32.75-7.16-1.34-14.04,3.42-15.31,10.6h0c-1.25,7.07,3.42,13.82,10.47,15.15,2.98.56,6.18,1.17,9.6,1.83L.45,253.54M174.34,253.54H17.59L95.97,73.32l78.37,180.23ZM275.78,102.48c-1.55,1.54-3.33,2.87-5.3,3.84-2.83,1.49-6.05,2.31-9.51,2.31-5.81,0-11-2.33-14.82-6.15-1.07-1.11-2.05-2.28-2.88-3.59-2.07-3.23-3.25-7.04-3.25-11.21,0-5.82,2.33-11.01,6.13-14.83.08-.08.16-.15.24-.21,3.79-3.67,8.87-5.92,14.58-5.92s11.01,2.33,14.8,6.12c2.54,2.54,4.45,5.71,5.42,9.27.47,1.76.73,3.62.73,5.56,0,5.82-2.33,11-6.16,14.8ZM337.66,339.98l78.38-180.23,78.37,180.23h-156.75Z"/>
</svg>