<svg xmlns="http://www.w3.org/2000/svg" width="407.294" height="288.715" viewBox="0 0 407.294 288.715"><defs><style>.a{fill:#211715;}.b{fill:#b3b3b3;}.c{fill:#fff;}.d{fill:#645d5c;}.e{fill:#3d8dcc;}.f{fill:#7abee6;}</style></defs><path class="a" d="M2.318,260.8H242.49c3.089,0,3.094-4.8,0-4.8H2.318c-3.088,0-3.093,4.8,0,4.8Z"/><path class="b" d="M44.493,262.037a97.667,97.667,0,0,1-10.283-4.489c-3.54-1.815-6.9-4.04-9.226-7.267-3.352-4.651-4.212-10.935-3.364-16.605,3.249-21.722,10.01-42.418,16.428-63.423a34.6,34.6,0,0,1,4.316-9.3l.211-.417c8.721-13.253,25.55-18.995,44.834-26.518,2.42-1.909,4.812-3.589,6.711-4.8,4.222,18.749,9.739,38.8,15.675,57.029,4.4,13.507,5.846,18.09,11.473,31.975h1.815c5.627-13.885,7.075-18.468,11.473-31.975,5.936-18.231,11.453-38.28,15.675-57.029,1.739,1.114,3.891,2.616,6.1,4.326,19.793,7.763,37.15,13.465,46.056,27l.173.35a34.707,34.707,0,0,1,4.2,9.37c6.418,21.005,13.179,41.7,16.429,63.423.848,5.67-.012,11.954-3.364,16.605-2.326,3.227-4.991,6.308-8.53,8.123a33.58,33.58,0,0,1-14.778,3.257Z"/><path class="c" d="M163.32,68.993a6.394,6.394,0,0,1,4.624-1.693,5.937,5.937,0,0,1,5.332,2.962c1.812,3.142,1.735,8.932.519,12.514-.861,2.537-2.272,6.418-5.673,9.2a7.048,7.048,0,0,1-5.436,1.569l-.522-.088a41.572,41.572,0,0,1-1.87,5.077c-1.372,3.723-8.907,16.712-18.469,21.922,0,.722,0,1.191,0,1.191-.794.643-16.991,13.413-18.219,14.284h-2.853c-1.228-.871-17.425-13.641-18.219-14.284v-1.519A38.343,38.343,0,0,1,91.8,110.864a48.621,48.621,0,0,1-9.23-17.413,6.922,6.922,0,0,1-5.882-1.474c-3.4-2.783-4.812-6.664-5.674-9.2-1.216-3.582-1.292-9.372.52-12.514A5.935,5.935,0,0,1,76.864,67.3a6.394,6.394,0,0,1,4.624,1.693S74.227,33.6,121.268,33.6C169.1,33.6,163.32,68.993,163.32,68.993Z"/><path class="d" d="M87.814,60.5c-1.669,1.72-3.291,3.579-3.694,5.869-.318,1.809-.471,3.042-.591,4.329l-2.041-1.706A6.394,6.394,0,0,0,76.864,67.3a7.416,7.416,0,0,0-2.439.47,63.26,63.26,0,0,1-1.988-16.188c-.339-12.059,4.2-24.22,9.885-29.786A45.41,45.41,0,0,1,91.1,12.661,50.288,50.288,0,0,1,122.223,2.428c11.626,0,23.431,2.865,32.019,13.447,11.644,8.983,17.056,15.776,17.9,35.707A52.371,52.371,0,0,1,170.206,67.7a7.568,7.568,0,0,0-2.262-.4,6.394,6.394,0,0,0-4.624,1.693l-5.478-5.621c-2.155-7.294-8-13.325-14.978-14.825L121.433,45.6a71.951,71.951,0,0,0-11.27-.5,30.959,30.959,0,0,0-9.291,1.31,11.476,11.476,0,0,0-6.244,5.079A46.748,46.748,0,0,1,89.5,58.775C88.961,59.342,88.384,59.913,87.814,60.5Z"/><path class="c" d="M121.268,218.214c-5.627-13.885-7.075-18.468-11.473-31.975-5.45-16.738-10.546-35.009-14.612-52.4a5.971,5.971,0,0,1,1.343-4.918c1.829-2.118,4.134-5.183,6-7.274.794.643,16.991,13.413,18.219,14.284H123.6c1.228-.871,17.425-13.641,18.219-14.284,1.87,2.091,4.175,5.156,6,7.274a5.967,5.967,0,0,1,1.343,4.918c-4.065,17.39-9.162,35.661-14.612,52.4-4.4,13.507-5.846,18.09-11.473,31.975Z"/><path class="e" d="M116.377,205.7c1.3,3.514,2.809,7.378,4.891,12.515h1.815c5.18-12.782,6.818-17.682,10.478-28.917-1.775-15.214-4.122-33.306-4.122-33.839a12.635,12.635,0,0,1,.436-2.842q.163-.638.294-1.275c.468-2.112.554-3.194,1.1-5.433l.033-.109c-2.612-3.523-5.773-7.7-7.7-9.867h-2.853c-1.909,2.148-5.032,6.273-7.633,9.777.148.413.243.683.243.683a27.8,27.8,0,0,1,1.336,4.345,18.092,18.092,0,0,1,1.055,5.033c.015.895-2.454,18.05-4.744,34.189C113.077,196.313,114.509,200.644,116.377,205.7Z"/><path class="a" d="M109.444,217.6C99.3,200.024,89.28,182.366,79.935,164.35q-.471-.907-.939-1.817a7.966,7.966,0,0,1-.928-1.809c-.022-.129-.412.469.24-.255.425-.471.87-.926,1.311-1.382,2.1-2.172,4.29-4.253,6.493-6.319A2.422,2.422,0,0,0,85.626,149l-3.871-2.21-1.721-.982-1.075-.614-.43-.245q-.436-.284,0,.088l.328,1.211c-.012.281-.031.095.094-.063a6.016,6.016,0,0,0,.349-.6c.2-.336.423-.664.649-.986a21.215,21.215,0,0,1,1.556-1.92,50.642,50.642,0,0,1,4.561-4.446,79.642,79.642,0,0,1,9.262-6.944l-3.525-1.435a653.8,653.8,0,0,0,20.683,72.113c1.993,5.692,4.2,11.3,6.465,16.891a2.476,2.476,0,0,0,2.952,1.677,2.416,2.416,0,0,0,1.676-2.953c-8.865-21.895-15.861-44.579-21.868-67.412q-2.828-10.749-5.28-21.592a2.417,2.417,0,0,0-3.525-1.434,75.848,75.848,0,0,0-13.968,11.243c-1.792,1.886-4.34,4.476-4.82,7.14-.438,2.425,1.741,3.432,3.491,4.431l5.591,3.191-.486-3.769c-2.028,1.9-4.046,3.818-5.993,5.806-1.762,1.8-4.087,3.771-3.354,6.584a17.359,17.359,0,0,0,1.585,3.393q.941,1.825,1.892,3.645,1.824,3.489,3.68,6.96c5.127,9.594,10.417,19.1,15.784,28.562q4.462,7.869,8.989,15.7c1.543,2.675,5.692.26,4.144-2.423Z"/><path class="a" d="M139.051,220.024c10.739-18.614,21.478-37.291,31.172-56.476a5.436,5.436,0,0,0,.73-4.062,8.753,8.753,0,0,0-2.5-3.449c-2.2-2.3-4.5-4.488-6.823-6.663l-.486,3.769,5.591-3.191c1.685-.962,3.674-1.833,3.534-4.112-.088-1.439-1.164-2.912-2-4.045a35.616,35.616,0,0,0-2.864-3.414,75.814,75.814,0,0,0-13.968-11.243,2.417,2.417,0,0,0-3.525,1.434,653.8,653.8,0,0,1-20.683,72.113c-1.993,5.692-4.2,11.3-6.465,16.891a2.416,2.416,0,0,0,1.676,2.953,2.459,2.459,0,0,0,2.952-1.677c8.866-21.9,15.861-44.579,21.868-67.412q2.828-10.749,5.28-21.592l-3.525,1.435a79.557,79.557,0,0,1,9.262,6.944,51.486,51.486,0,0,1,4.446,4.318,22.05,22.05,0,0,1,1.583,1.923c.231.323.454.652.663.99.122.2.226.415.357.606.093.137.177.563.16.183l.328-1.211c.191-.37.169-.161-.212.035-.365.187-.718.41-1.075.613l-1.936,1.1L158.725,149a2.421,2.421,0,0,0-.485,3.769c1.912,1.794,3.815,3.6,5.658,5.465q.586.6,1.165,1.2c.324.338,1.17.952,1.3,1.387.036.12.008-.362-.081-.094a13.792,13.792,0,0,1-.929,1.809q-3.438,6.674-7,13.281-7.29,13.548-14.922,26.907-4.233,7.457-8.523,14.88c-1.547,2.681,2.6,5.1,4.144,2.423Z"/><path class="a" d="M128.817,151.413c-4.221,0-8.442-.089-12.664-.09a2.4,2.4,0,0,0,0,4.8c4.222,0,8.443.088,12.664.09a2.4,2.4,0,1,0,0-4.8Z"/><path class="a" d="M128.953,145.27c-.393,1.655-.655,3.332-1,5a22.225,22.225,0,0,0-.907,5.238c.043,1.146.266,2.308.406,3.444.737,5.974,1.491,11.945,2.223,17.92q.764,6.238,1.5,12.48a2.473,2.473,0,0,0,2.4,2.4,2.415,2.415,0,0,0,2.4-2.4q-1.238-10.6-2.572-21.191c-.511-4.1-1.2-8.227-1.524-12.35a11.462,11.462,0,0,1,.521-3.4c.439-1.945.729-3.918,1.19-5.858.714-3-3.914-4.284-4.629-1.276Z"/><path class="a" d="M113.433,189.8c1.259-8.865,2.538-17.727,3.763-26.6.318-2.305.718-4.62.914-6.94a13.012,13.012,0,0,0-.564-4.365,43.729,43.729,0,0,0-2.114-6.721,2.418,2.418,0,0,0-3.284-.861,2.459,2.459,0,0,0-.861,3.284,19.457,19.457,0,0,1,.887,3.03c.266,1.006.615,1.988.861,3a8.058,8.058,0,0,1,.252,2.844c-.266,2.394-.506,3.913-.852,6.4-1.187,8.552-2.417,17.1-3.63,25.646a2.48,2.48,0,0,0,1.676,2.952,2.415,2.415,0,0,0,2.952-1.676Z"/><path class="a" d="M114.649,105.822a17,17,0,0,0,8.188,1.9,13.383,13.383,0,0,0,8.325-2.482,2.4,2.4,0,0,0,0-3.394,2.475,2.475,0,0,0-3.394,0c.744-.58.234-.183.042-.061-.161.1-.327.2-.5.288-.224.117-.779.249-.107.073-.231.061-.457.176-.685.249a12.823,12.823,0,0,1-1.917.438c.358-.057.127-.018-.1,0q-.282.029-.565.047-.68.044-1.362.038-.61,0-1.22-.044-.279-.019-.558-.046c-.085-.009-.767-.128-.187-.018a17.706,17.706,0,0,1-1.79-.4c-.251-.075-.5-.165-.743-.249-.585-.2.429.212-.1-.037-.307-.145-.609-.3-.91-.454a2.4,2.4,0,1,0-2.422,4.144Z"/><path class="a" d="M121.474,86.718a37.768,37.768,0,0,1,.887,4.058l-.086-.638a2.439,2.439,0,0,1,.015.56l.086-.638a1.279,1.279,0,0,1-.062.251l.242-.573a.979.979,0,0,1-.089.162l.376-.486a.867.867,0,0,1-.133.131l.486-.375a2.663,2.663,0,0,1-.321.17l.573-.242a2.324,2.324,0,0,1-.542.158l.638-.086a2.158,2.158,0,0,1-.508,0l.638.086c-.192-.027-.38-.073-.572-.1a1.823,1.823,0,0,0-.957-.043,1.784,1.784,0,0,0-.892.285,2.4,2.4,0,0,0-.861,3.283,2.292,2.292,0,0,0,1.434,1.1c.465.063.916.18,1.389.2a4.5,4.5,0,0,0,2.082-.5,3.074,3.074,0,0,0,1.684-2.019,4.932,4.932,0,0,0-.019-2.139c-.221-1.307-.523-2.6-.859-3.885a2.4,2.4,0,0,0-2.953-1.676,2.446,2.446,0,0,0-1.676,2.952Z"/><path class="a" d="M100.245,75.144c-.678,2.2-.236,7.266,3.935,7.7,5.513-.033,5.807-6.156,3.951-9.036C106.611,71.448,102.143,70.468,100.245,75.144Z"/><path class="a" d="M144.564,75.144c.677,2.2.236,7.266-3.935,7.7-5.513-.033-5.807-6.156-3.951-9.036C138.2,71.448,142.665,70.468,144.564,75.144Z"/><path class="a" d="M83.185,67.3a9.344,9.344,0,0,0-10.2-1.5,8.923,8.923,0,0,0-4.638,6.028c-1.614,6-.082,12.973,3.337,18.1,2.316,3.471,5.983,6.616,10.442,6.026a2.48,2.48,0,0,0,2.4-2.4c0-1.165-1.106-2.571-2.4-2.4-3.33.441-5.589-2.25-7.066-4.915A19.351,19.351,0,0,1,72.6,78.577c-.2-2.472-.188-5.533,1.342-7.627.095-.132.076-.107-.055.077q.15-.172.313-.333c.047-.042.531-.427.305-.268a3.962,3.962,0,0,1,1.614-.649,4.269,4.269,0,0,1,3.671.913c2.294,2.057,5.7-1.326,3.394-3.394Z"/><path class="a" d="M165.017,70.69a4.26,4.26,0,0,1,3.491-.95,4.069,4.069,0,0,1,1.794.686c-.145-.1.83.86.506.444,1.605,2.064,1.6,5.236,1.4,7.707a19.353,19.353,0,0,1-2.37,7.5c-1.473,2.717-3.759,5.522-7.152,5.073a2.411,2.411,0,0,0-2.4,2.4,2.461,2.461,0,0,0,2.4,2.4c7.305.967,11.8-7.073,13.565-12.979,1.563-5.23,1.546-13.307-3.526-16.686a9.3,9.3,0,0,0-11.1,1.015c-2.3,2.067,1.1,5.452,3.394,3.394Z"/><path class="a" d="M160.622,89.816a51.288,51.288,0,0,1-2.773,8.416c-.135.34.234-.486-.007.008-.082.169-.156.342-.237.511-.2.423-.413.841-.631,1.255-.5.956-1.042,1.893-1.6,2.815A50.72,50.72,0,0,1,144.459,115.8a19.965,19.965,0,0,1-8.056,4.187c-3.007.7-1.734,5.328,1.277,4.628,6.259-1.453,11.478-6,15.569-10.757a56.218,56.218,0,0,0,8.706-13.128c.156-.343.3-.691.446-1.04.042-.1.249-.6.11-.273s.012-.015.037-.07c.138-.305.265-.617.393-.926.175-.423.344-.847.5-1.275a40.859,40.859,0,0,0,1.8-6.056c.623-3.015-4-4.3-4.628-1.276Z"/><path class="a" d="M79.441,90.947A51.711,51.711,0,0,0,90.66,113.22c5.319,6.172,12.173,11.078,20.379,12.3a2.479,2.479,0,0,0,2.953-1.676,2.417,2.417,0,0,0-1.677-2.952c-7.491-1.114-13.4-5.428-18.261-11.065a46.665,46.665,0,0,1-9.985-20.154c-.683-3.011-5.312-1.737-4.628,1.276Z"/><path class="a" d="M154.745,12.779A38.51,38.51,0,0,0,132.738.92a58.218,58.218,0,0,0-25.7,1.132A50.168,50.168,0,0,0,85.5,14.4a46.974,46.974,0,0,0-4.525,5.177c-1.071,1.428-2.335,2.692-3.362,4.169a41.074,41.074,0,0,0-5.322,11.446c-3.171,10.373-3.012,22.126-.348,32.6.761,2.992,5.392,1.724,4.629-1.276a60.891,60.891,0,0,1-1.722-13.883,51.763,51.763,0,0,1,1.19-12.887A41.832,41.832,0,0,1,80.268,28.55,23.919,23.919,0,0,1,82.98,24.6c1.254-1.439,2.382-2.97,3.646-4.4A44.243,44.243,0,0,1,105.473,7.581a53.253,53.253,0,0,1,23.478-2.4,34.924,34.924,0,0,1,22.4,10.99c2.081,2.291,5.468-1.111,3.394-3.394Z"/><path class="a" d="M172.658,67.791a60.511,60.511,0,0,0,1.916-12.948,75.372,75.372,0,0,0-.865-12.4A38.7,38.7,0,0,0,167.635,25.7a42.255,42.255,0,0,0-6.356-7.115c-2.282-2.073-5.687,1.312-3.394,3.394a32.231,32.231,0,0,1,8.612,11.6c2.489,6.121,3.2,12.991,3.285,19.545a53.251,53.251,0,0,1-1.752,13.388c-.734,3,3.893,4.28,4.628,1.276Z"/><path class="a" d="M121.433,43.2a73.894,73.894,0,0,0-12.689-.459c-3.842.162-8.068.621-11.419,2.674-3.087,1.891-4.765,4.921-6.67,7.877a27.98,27.98,0,0,1-3.5,4.456,36.647,36.647,0,0,0-3.47,3.9c-2.329,3.18-2.423,7.331-2.727,11.124a2.419,2.419,0,0,0,2.4,2.4,2.449,2.449,0,0,0,2.4-2.4,47.018,47.018,0,0,1,.68-5.762,9.1,9.1,0,0,1,2.639-4.355A53.053,53.053,0,0,0,93.3,57.911c1.311-1.771,2.378-3.7,3.608-5.522,2.19-3.253,5.728-4.33,9.49-4.691a67.363,67.363,0,0,1,15.04.3,2.411,2.411,0,0,0,2.4-2.4,2.461,2.461,0,0,0-2.4-2.4Z"/><path class="a" d="M142.226,50.861a17.534,17.534,0,0,1,2.51.75c.1.037.2.076.293.115q-.325-.141-.089-.037c.191.089.384.173.573.265q.571.274,1.121.589.6.341,1.173.725c.178.118.353.24.526.364.083.059.583.434.2.137a20.023,20.023,0,0,1,1.933,1.715,22.329,22.329,0,0,1,1.733,1.955c-.3-.377.134.188.153.214q.193.267.38.539.373.548.714,1.114a22.914,22.914,0,0,1,1.235,2.354c.061.135.121.271.18.407-.084-.2-.093-.217-.029-.059.082.207.163.415.24.624.167.455.317.914.457,1.378a2.4,2.4,0,1,0,4.628-1.276c-2.34-7.775-8.535-14.7-16.654-16.5a2.4,2.4,0,0,0-1.276,4.629Z"/><path class="a" d="M137,44.8a13.608,13.608,0,0,0-6.1-7.033c-3.684-2-7.981-2.556-12.1-2.816a2.414,2.414,0,0,0-2.4,2.4,2.455,2.455,0,0,0,2.4,2.4c1.063.067,2.125.156,3.182.293-.427-.055.247.038.329.05q.35.054.7.115.662.117,1.318.262a22.209,22.209,0,0,1,2.352.656c.178.061.356.125.532.191.24.091.476.192.1.03.345.15.686.309,1.019.484.291.154.578.318.857.493q.2.127.4.263c.064.044.518.371.2.134s.116.1.176.147q.173.147.339.3.328.3.629.634c.1.109.192.223.29.333.354.4-.129-.21-.013-.024.155.249.339.48.494.73s.3.511.437.775c.084.164.519,1.155.231.459a2.478,2.478,0,0,0,2.952,1.676A2.415,2.415,0,0,0,137,44.8Z"/><path class="a" d="M100.833,119.951c-1.135,1.281-2.2,2.616-3.277,3.95-1.118,1.391-2.379,2.724-3.4,4.189a7.414,7.414,0,0,0-.609,7.864,89.662,89.662,0,0,0,8.135,11.587,28.118,28.118,0,0,0,6.076,5.855,2.458,2.458,0,0,0,3.283-.861c3.742-5,7.263-10.221,11.4-14.906a2.447,2.447,0,0,0-.486-3.77c-.141-.1-.278-.206-.416-.31-.167-.126-.982-.756-.369-.281q-1.077-.834-2.148-1.672-2.984-2.329-5.957-4.67c-2.951-2.32-5.921-4.619-8.843-6.975a2.472,2.472,0,0,0-3.394,0,2.416,2.416,0,0,0,0,3.394c2.99,2.411,6.03,4.764,9.051,7.138,3.2,2.515,6.345,5.15,9.654,7.521l-.486-3.769c-4.407,4.991-8.165,10.553-12.151,15.877l3.283-.861a16.428,16.428,0,0,1-2.723-2.4c-1.048-1.091-2.028-2.249-2.972-3.433-1.775-2.226-3.405-4.576-4.961-6.959-.554-.847-1.1-1.7-1.62-2.569a6.969,6.969,0,0,1-.471-.81c-.111-.258.036-.013.048.078a2.83,2.83,0,0,1,.008-.8c.255-1.637,1.692-2.869,2.684-4.1,1.333-1.651,2.642-3.322,4.05-4.911C106.268,121.039,102.886,117.632,100.833,119.951Z"/><path class="a" d="M140.124,123.345c1.408,1.589,2.717,3.26,4.05,4.911.99,1.227,2.429,2.465,2.684,4.1a3,3,0,0,1,.018.786c0-.013.159-.343.038-.063a7.115,7.115,0,0,1-.471.81c-.521.868-1.066,1.722-1.619,2.569-1.557,2.383-3.187,4.733-4.962,6.959-.944,1.184-1.923,2.342-2.972,3.433a16.428,16.428,0,0,1-2.723,2.4l3.283.861c-3.986-5.324-7.744-10.886-12.151-15.877L124.814,138c3.308-2.371,6.454-5.006,9.653-7.521,3.021-2.374,6.061-4.727,9.051-7.138a2.415,2.415,0,0,0,0-3.394,2.456,2.456,0,0,0-3.394,0c-2.922,2.356-5.892,4.655-8.843,6.975q-2.975,2.339-5.956,4.67-1.074.839-2.149,1.672c.613-.475-.2.155-.369.281-.138.1-.275.21-.416.31a2.447,2.447,0,0,0-.486,3.77c4.138,4.685,7.659,9.908,11.4,14.906a2.447,2.447,0,0,0,3.283.861c4.372-2.87,7.608-7.575,10.548-11.8,1.186-1.705,2.338-3.439,3.411-5.219a7.329,7.329,0,0,0,.241-7.243,23.683,23.683,0,0,0-3.349-4.431c-1.289-1.6-2.559-3.214-3.922-4.752C141.466,117.633,138.082,121.038,140.124,123.345Z"/><path class="c" d="M122.4,179.693c-30.41.22-60.674.4-71.42.434a3.088,3.088,0,0,0-3.08,3.1c.063,17.458.9,77.879,1.546,100.087a3.093,3.093,0,0,0,3.147,3c9.711-.149,39.789-.057,69.807.046,30.019-.1,60.1-.195,69.808-.046a3.092,3.092,0,0,0,3.146-3c.642-22.208,1.484-82.629,1.546-100.087a3.088,3.088,0,0,0-3.08-3.1C183.079,180.09,152.815,179.913,122.4,179.693Z"/><path class="a" d="M50.984,177.727a5.663,5.663,0,0,0-4.736,2.728,7.213,7.213,0,0,0-.74,3.754q.012,2.495.034,4.99.054,6.781.136,13.563.2,17.438.475,34.873.263,16.882.606,33.763.073,3.406.156,6.813a31.81,31.81,0,0,0,.279,6.239,5.654,5.654,0,0,0,5.817,4.265c.626,0,1.252-.012,1.877-.016,5.172-.035,10.343-.041,15.515-.051q12.36-.026,24.719-.031,14.519-.011,29.036-.009,14.442,0,28.882.012,11.925.009,23.85.033c4.688.01,9.376.013,14.064.054a9.425,9.425,0,0,0,3.02-.267,5.545,5.545,0,0,0,3.609-3.828,15.414,15.414,0,0,0,.234-3.417q.178-6.647.305-13.293.356-17.374.6-34.75.257-17.026.448-34.052.066-6.211.114-12.425c.013-1.978.327-4.289-.652-6.078a5.889,5.889,0,0,0-5.519-2.872q-6.6-.016-13.2-.014-11.656-.006-23.311-.008l-28.769,0q-14.8,0-29.606,0-12.86,0-25.719.006-8.731,0-17.461.012-2.032,0-4.066.008c-3.088.01-3.094,4.81,0,4.8q5.67-.019,11.339-.014,10.8-.007,21.589-.009,13.761,0,27.522,0,14.571,0,29.141,0,13.222,0,26.444.006,9.716,0,19.43.01,2.869,0,5.737.007a9.236,9.236,0,0,1,1.638,0c1.16.225.671,2.661.665,3.607-.058,9.188-.173,18.377-.292,27.565q-.229,17.634-.525,35.269c-.171,10.079-.35,20.158-.6,30.235q-.036,1.394-.073,2.787c-.017.6.18,1.574-.443,1.872a4.79,4.79,0,0,1-1.7.044q-2.719-.022-5.44-.029-9.516-.036-19.031-.043-13.1-.018-26.2-.022-14.466-.006-28.933,0-13.614,0-27.228.017-10.542.012-21.085.038-3.426.01-6.852.027-1.131.006-2.261.015c-.483,0-1.366.153-1.714-.142-.5-.421-.288-1.564-.3-2.169q-.038-1.414-.073-2.83-.081-3.23-.15-6.46-.168-7.711-.3-15.423-.318-17.622-.556-35.245-.211-15.21-.36-30.42-.024-2.586-.04-5.173c-.006-.812-.481-3.453.665-3.518C54.055,182.351,54.075,177.55,50.984,177.727Z"/><path class="a" d="M62.444,275.881c14.668-.091,29.337-.014,44,.031,17.77.054,35.538-.027,53.307-.054,7.016-.011,14.032-.021,21.048.023,3.09.019,3.093-4.781,0-4.8-14.336-.089-28.674-.013-43.01.032-17.947.057-35.893-.029-53.841-.055-7.169-.011-14.339-.022-21.508.023-3.088.019-3.094,4.819,0,4.8Z"/><path class="a" d="M113.308,223.8q-.006,2.817,0,5.636c0,2.119-.288,4.447,1.358,6.082,1.6,1.586,3.788,1.325,5.843,1.323q2.775,0,5.55,0a6.087,6.087,0,0,0,3.113-.586,4.56,4.56,0,0,0,2.182-2.863,14.526,14.526,0,0,0,.149-3.093q0-1.485,0-2.969,0-1.356,0-2.712a5.762,5.762,0,0,0-.687-3.221,4.528,4.528,0,0,0-3.188-2.081,19.542,19.542,0,0,0-2.607-.074h-6.193a5.849,5.849,0,0,0-3.43.733,4.714,4.714,0,0,0-2.089,3.822,2.418,2.418,0,0,0,2.4,2.4,2.452,2.452,0,0,0,2.4-2.4c.027-.611-.142.485.037-.078l-.1.251q.213-.333-.069.062c.158-.1.267-.126-.087.037.5-.229-.488.008.07-.044-.678.063.247.017.415.017h7.879a2.917,2.917,0,0,1,.871.008l-.279-.025c.256.083.229.067-.079-.046.492.2-.342-.2.062.053l-.16-.212c.129.231.126.2-.006-.1.173.544.05-.515.037.078-.007.305,0,.611,0,.916q0,1.144,0,2.288,0,2.365-.01,4.73a2.23,2.23,0,0,1,0,.567l.052-.27a2.19,2.19,0,0,1-.092.347c.1-.1.069-.464,0-.1l.158-.212q-.288.268.085-.04c-.549.144.382-.062.014.016-.352.076.6.023.007.007-.348-.009-.7,0-1.045,0q-2.266-.006-4.533,0l-2.219,0-.9,0a1.609,1.609,0,0,1-.519-.006q.457.071.194,0t.164.074c-.54-.228.412.272-.065-.05.186.264.209.285.066.063l.1.252-.053-.171q-.087-.4.012.094c-.072-.065,0-.655,0-.763q-.007-1.27-.008-2.542,0-2.6,0-5.2a2.4,2.4,0,0,0-4.8,0Z"/><path class="a" d="M44.647,161.744C51.491,151.454,63.535,146.08,74.6,141.6c3.867-1.568,7.766-3.059,11.657-4.568a2.47,2.47,0,0,0,1.676-2.952,2.417,2.417,0,0,0-2.952-1.676c-12.9,5-26.879,9.6-37.452,18.878a40.659,40.659,0,0,0-7.023,8.045c-1.715,2.579,2.44,4.985,4.145,2.422Z"/><path class="a" d="M204.459,159.322c-7.5-11.277-20.107-17.171-32.249-22.125-4.053-1.653-8.144-3.215-12.225-4.8a2.419,2.419,0,0,0-2.953,1.676,2.455,2.455,0,0,0,1.677,2.952c6.6,2.559,13.244,5.033,19.661,8.027a65.606,65.606,0,0,1,15.544,9.506,36.006,36.006,0,0,1,6.4,7.184c1.7,2.56,5.862.16,4.145-2.422Z"/><path class="a" d="M200.372,162.161a38.458,38.458,0,0,1,4.355,9.65q1.792,5.853,3.594,11.7c2.424,7.927,4.793,15.872,6.891,23.893,2.077,7.941,3.886,15.957,5.216,24.058a29.486,29.486,0,0,1,.3,10.457,22.107,22.107,0,0,1-12.509,15.241,33.4,33.4,0,0,1-11.7,2.1c-3.088.02-3.095,4.82,0,4.8,7.361-.048,15.286-1.855,20.756-7.063a28.633,28.633,0,0,0,6.568-8.987,26,26,0,0,0,2.031-11.324,85.2,85.2,0,0,0-1.913-12.631c-.832-4.3-1.785-8.579-2.828-12.834-2.066-8.434-4.483-16.778-7-25.088-1.435-4.745-2.9-9.481-4.356-14.22a48.508,48.508,0,0,0-5.262-12.176c-1.656-2.6-5.812-.192-4.145,2.423Z"/><path class="a" d="M40.292,159.738c-4.211,6.6-5.953,14.4-8.223,21.812-2.426,7.927-4.806,15.871-6.919,23.888s-3.959,16.1-5.319,24.278a39.369,39.369,0,0,0-.721,11.238,22.81,22.81,0,0,0,3.572,10.211c4.791,7.008,13.561,10.272,21.173,13.186a2.419,2.419,0,0,0,2.953-1.676,2.454,2.454,0,0,0-1.677-2.952,96.407,96.407,0,0,1-9.71-4.248,24.523,24.523,0,0,1-7.986-5.921c-4.323-5.266-4.027-12.247-2.976-18.562,2.566-15.42,6.856-30.48,11.4-45.416,1.3-4.285,2.629-8.563,3.942-12.846a41.818,41.818,0,0,1,4.636-10.569c1.666-2.613-2.487-5.023-4.144-2.423Z"/><path class="c" d="M267.57,237.829H396.927v46.537H258.659c0-13.94,0-32.6,0-46.537h8.914"/><path class="c" d="M250.266,189.721c.008.731.008,22.554.008,31.758H388.543c0-1.213,0-1.887,0-1.887V189.721Z"/><path class="c" d="M268.774,162.884H253.628v-9.536H250.8V142.867H389.066v10.481h2.83s0,4.574,0,9.536H268.774"/><path class="e" d="M267.57,237.829v-16.35H404.894v16.35Z"/><path class="a" d="M269.97,237.829v-16.35l-2.4,2.4H398.835c1.891,0,3.818.107,5.706,0,.117-.007.236,0,.353,0l-2.4-2.4v16.35l2.4-2.4H281.225c-4.476,0-8.988-.167-13.462,0-.065,0-.129,0-.193,0-3.089,0-3.094,4.8,0,4.8H404.894a2.435,2.435,0,0,0,2.4-2.4v-16.35a2.435,2.435,0,0,0-2.4-2.4H285.086c-5.711,0-11.439-.132-17.149,0-.122,0-.245,0-.367,0a2.434,2.434,0,0,0-2.4,2.4v16.35C265.17,240.918,269.97,240.923,269.97,237.829Z"/><path class="a" d="M386.142,190.978v28.614c0,3.089,4.8,3.094,4.8,0V190.978c0-3.088-4.8-3.093-4.8,0Z"/><path class="a" d="M261.7,202.811H377.327c3.088,0,3.093-4.8,0-4.8H261.7c-3.089,0-3.094,4.8,0,4.8Z"/><path class="a" d="M261.7,213.188H377.327c3.088,0,3.093-4.8,0-4.8H261.7c-3.089,0-3.094,4.8,0,4.8Z"/><path class="a" d="M267.57,219.079q-8.649,0-17.3,0l2.4,2.4q0-14.27,0-28.538c0-1.073.006-2.147,0-3.22l-2.4,2.4h17.3c3.088,0,3.093-4.8,0-4.8h-17.3a2.433,2.433,0,0,0-2.4,2.4c.071,8.051.008,16.1.008,24.156v7.6a2.435,2.435,0,0,0,2.4,2.4q8.647,0,17.3,0c3.088,0,3.093-4.8,0-4.8Z"/><path class="a" d="M394.527,239.4v44.965l2.4-2.4H264.3c-1.782,0-3.628-.139-5.407,0-.078.006-.159,0-.237,0l2.4,2.4q0-23.268,0-46.537l-2.4,2.4h8.914c3.088,0,3.093-4.8,0-4.8h-8.914a2.435,2.435,0,0,0-2.4,2.4q0,23.268,0,46.537a2.435,2.435,0,0,0,2.4,2.4H379.9c5.587,0,11.208.183,16.793,0,.078,0,.158,0,.237,0a2.435,2.435,0,0,0,2.4-2.4V239.4c0-3.088-4.8-3.093-4.8,0Z"/><path class="a" d="M269.035,263.5H386.341c3.088,0,3.093-4.8,0-4.8H269.035c-3.088,0-3.093,4.8,0,4.8Z"/><path class="a" d="M269.035,252.178H386.341c3.088,0,3.093-4.8,0-4.8H269.035c-3.088,0-3.093,4.8,0,4.8Z"/><path class="a" d="M269.035,274.712H380.576c3.088,0,3.094-4.8,0-4.8H269.035c-3.088,0-3.093,4.8,0,4.8Z"/><path class="e" d="M257.769,125.464c54.068,0,135.959,0,135.959,0v17.4H257.769Z"/><path class="a" d="M394.3,161.629v-8.281a2.435,2.435,0,0,0-2.4-2.4H381.312a2.4,2.4,0,0,0,0,4.8H391.9l-2.4-2.4v8.281a2.4,2.4,0,1,0,4.8,0Z"/><path class="a" d="M386.666,142.867v10.481a2.4,2.4,0,1,0,4.8,0V142.867a2.4,2.4,0,0,0-4.8,0Z"/><path class="a" d="M251.228,153.348v9.536a2.435,2.435,0,0,0,2.4,2.4h15.146a2.4,2.4,0,1,0,0-4.8H253.628l2.4,2.4v-9.536a2.4,2.4,0,0,0-4.8,0Z"/><path class="a" d="M264.74,140.467H250.8a2.435,2.435,0,0,0-2.4,2.4v10.481a2.435,2.435,0,0,0,2.4,2.4H368.782c3.089,0,3.094-4.8,0-4.8H250.8l2.4,2.4V142.867l-2.4,2.4H264.74c3.088,0,3.093-4.8,0-4.8Z"/><path class="a" d="M257.769,127.864H393.728l-2.4-2.4v17.4l2.4-2.4H257.769l2.4,2.4v-17.4c0-3.089-4.8-3.094-4.8,0v17.4a2.435,2.435,0,0,0,2.4,2.4H393.728a2.434,2.434,0,0,0,2.4-2.4v-17.4a2.435,2.435,0,0,0-2.4-2.4q-15.447,0-30.893,0H257.769C254.68,123.064,254.675,127.864,257.769,127.864Z"/><path class="f" d="M268.774,162.884H404.733v26.837H268.774Z"/><path class="a" d="M268.774,165.284H394.056q5.339,0,10.677,0l-2.4-2.4v26.837l2.4-2.4H268.774l2.4,2.4V162.884c0-3.089-4.8-3.094-4.8,0v26.837a2.435,2.435,0,0,0,2.4,2.4H404.733a2.435,2.435,0,0,0,2.4-2.4V162.884a2.435,2.435,0,0,0-2.4-2.4q-15.446,0-30.893,0H268.774C265.686,160.484,265.681,165.284,268.774,165.284Z"/><path class="a" d="M290.419,162.884v26.837c0,3.088,4.8,3.093,4.8,0v-1.027c0-3.088-4.8-3.094-4.8,0v1.027c0,3.088,4.8,3.093,4.8,0V162.884c0-3.089-4.8-3.094-4.8,0Z"/><path class="a" d="M280.114,163.113v26.379c0,3.088,4.8,3.093,4.8,0V163.113c0-3.089-4.8-3.094-4.8,0Z"/><path class="c" d="M394.2,170.564v11.477H349.774v-.179s0-9.4-.011-11.3Z"/><path class="a" d="M391.8,170.564v11.477l2.4-2.4H349.774l2.4,2.4c0-3.826.01-7.652-.011-11.477l-2.4,2.4H394.2c3.088,0,3.093-4.8,0-4.8H349.763a2.433,2.433,0,0,0-2.4,2.4c.021,3.825.011,7.651.011,11.477a2.435,2.435,0,0,0,2.4,2.4H394.2a2.435,2.435,0,0,0,2.4-2.4V170.564C396.6,167.475,391.8,167.47,391.8,170.564Z"/></svg>