<?xml version="1.0" encoding="UTF-8"?><svg id="b" xmlns="http://www.w3.org/2000/svg" width="396.014" height="396.911" viewBox="0 0 396.014 396.911"><defs><style>.l{fill:#bdbdbd;}.l,.m,.n,.o,.p,.q,.r{stroke-width:0px;}.m{fill:#7abee6;}.n{fill:none;}.o{fill:#fff;}.p{fill:#3d8dcc;}.q{fill:#211715;}.r{fill:#645d5c;}</style></defs><g id="c"><g id="d"><path class="o" d="M23.46,219.431c0-3.305.053-111.066.053-113.667C36.998,97.968,186.382,11.709,203.212,1.991c0,3.035-.043,111.276-.043,113.668-4.504,2.6-172.681,99.713-179.709,103.771Z"/></g><g id="e"><path class="q" d="M25.46,219.431c0-4.117.003-8.234.005-12.351.004-8.929.008-17.858.013-26.787.005-10.688.01-21.377.015-32.065.004-9.257.009-18.514.013-27.771.001-3.139.003-6.279.004-9.418,0-1.623.11-3.289.002-4.909-.008-.121,0-.244,0-.365l-.991,1.727c2.527-1.461,5.054-2.92,7.581-4.38,4.616-2.666,9.232-5.332,13.849-7.999,6.207-3.584,12.413-7.169,18.62-10.753,7.298-4.215,14.596-8.429,21.894-12.644,7.891-4.557,15.781-9.113,23.672-13.67,7.984-4.611,15.968-9.221,23.953-13.832,7.579-4.376,15.158-8.753,22.737-13.129,6.675-3.854,13.349-7.708,20.024-11.563,5.271-3.044,10.543-6.088,15.814-9.132,3.38-1.952,6.761-3.904,10.141-5.856.472-.272.943-.545,1.415-.817l-3.009-1.727c0,4.085-.003,8.169-.004,12.254-.003,8.969-.007,17.937-.01,26.906-.004,10.663-.008,21.325-.012,31.988-.004,9.303-.007,18.606-.011,27.909-.001,3.143-.002,6.285-.004,9.428,0,1.594-.104,3.227-.002,4.818.008.121,0,.245,0,.366l.991-1.727c-1.904,1.099-3.807,2.198-5.711,3.298-4.402,2.542-8.803,5.083-13.205,7.625-6.333,3.657-12.667,7.314-19,10.971-7.644,4.414-15.287,8.828-22.931,13.241-8.31,4.798-16.619,9.597-24.929,14.395-8.444,4.876-16.888,9.752-25.332,14.627-7.935,4.582-15.871,9.164-23.806,13.747-6.793,3.923-13.586,7.845-20.38,11.768-5.106,2.948-10.212,5.897-15.318,8.845-2.772,1.601-5.545,3.202-8.317,4.803-.26.15-.52.3-.781.451-2.229,1.287-.217,4.745,2.019,3.454,4.443-2.565,8.886-5.131,13.33-7.697,9.643-5.568,19.286-11.137,28.929-16.705,12.458-7.193,24.915-14.387,37.373-21.58,13.112-7.572,26.225-15.143,39.337-22.715,11.391-6.578,22.783-13.156,34.174-19.734,7.334-4.235,14.667-8.469,22.001-12.704,1.46-.843,2.97-1.635,4.395-2.538,1.111-.704,1.161-1.654,1.162-2.786,0-1.22,0-2.441.001-3.661.004-11.197.008-22.394.013-33.591.006-14.723.011-29.447.017-44.17.004-9.788.008-19.576.011-29.363,0-.641,0-1.282,0-1.922,0-1.522-1.697-2.485-3.009-1.727-5.689,3.285-11.379,6.57-17.068,9.856-10.216,5.899-20.432,11.798-30.648,17.697-12.595,7.273-25.19,14.546-37.785,21.819-12.856,7.424-25.711,14.847-38.567,22.271-10.849,6.265-21.698,12.53-32.547,18.796-6.811,3.933-13.622,7.867-20.432,11.801-.8.462-1.62.902-2.405,1.389-1.219.757-1.239,1.732-1.239,2.945-.001,2.931-.003,5.863-.004,8.794-.005,11.7-.011,23.4-.017,35.099-.007,13.626-.013,27.251-.02,40.877-.004,8.687-.009,17.374-.012,26.06,0,.587,0,1.174,0,1.761,0,2.574,4,2.578,4,0Z"/></g><path class="o" d="M24.078,131.783c11.502-3.451,18-.292,19.917,4.208.958,1.708,1.917,4,2.292,5.5.248.991.417,2.426.527,3.623.03.323.055.629.076.904.38,4.908-1.373,9.945-4.718,13.557-3.345,3.612-8.232,5.746-13.155,5.744-5.211-.002-10.38-2.398-13.722-6.409-2.231-.069-3.495-.046-5.332-.86-1.689-.749-3.134-2.183-3.72-3.992s-.212-3.97,1.092-5.314c.857-.884,1.459-1.249,2.933-1.53,0,0-.939-8.513,6.728-12.263,1.876-.918,4.583-2.417,7.083-3.167Z"/><path class="o" d="M42.128,132.091c-1.727-2.732-4.174-5.057-6.939-6.253-4.111-1.778-6.767-1.76-10.278-1.639-4.247.147-8.121,1.77-11.542,4.292-4.414,3.254-8.181,10.847-6.125,18.403l.416,1.527c.704-.657,1.326-.964,2.606-1.209l6.061-2.763c4.392-1.24,8.723-3.141,12.744-5.281,1.859-.989,4.241-3.334,6.35-3.552,1.165-.12,2.326.662,3.36,1.087,1.423.585,2.903,1.224,4.442,1.408.436.052.884.061,1.323.017-.369-2.048-1.22-4.141-2.419-6.038Z"/><path class="o" d="M40.949,163.277c-.727,7.887-2.553,15.457-5.276,21.876-.227.535-.474,1.082-.82,1.361-.762.615-1.627-.285-2.294-1.175-4.738-6.316-8.331-12.891-11.453-21.758l19.844-.304Z"/><path class="o" d="M69.659,156.811c-.961-.054-1.91.098-2.775.518-4.86,2.358-4.723,10.631-3.25,10.178,2.752,1.783,5.504,3.566,8.255,5.35.187-.033.372-.08.552-.134,2.72-.816,4.842-3.294,5.315-6.093.473-2.8-.683-5.796-2.859-7.62-1.439-1.206-3.363-2.094-5.239-2.199Z"/><path class="q" d="M77.624,153.514c-1.219,1.531-2.4,3.092-3.53,4.689-.285.402-.328,1.083-.202,1.541.128.464.486.967.919,1.195.464.245,1.026.368,1.541.202l.478-.202c.301-.178.54-.417.718-.718.762-1.077,1.546-2.138,2.353-3.182l-.313.405c.286-.37.574-.737.865-1.103.195-.181.333-.396.414-.644.125-.238.183-.495.172-.771,0-.491-.218-1.076-.586-1.414-.381-.35-.882-.61-1.414-.586-.495.022-1.091.18-1.414.586h0Z"/><path class="q" d="M64.751,164.422c.064-.459.147-.914.263-1.363.052-.2.109-.399.172-.596.025-.077.253-.712.169-.508.19-.457.435-.902.708-1.314.059-.089.119-.178.183-.264.208-.281-.145.164.085-.1.165-.19.338-.372.522-.542.564-.52,1.404-.887,2.113-.924.924-.048,1.814.137,2.628.486.993.426,1.775.952,2.479,1.677.612.629,1.134,1.472,1.397,2.23.655,1.883.495,3.623-.539,5.247-.458.72-1.22,1.451-2.004,1.901-.568.326-.724.386-1.35.532-.332.077-.265.074-.61.05-.142-.01-.145-.017-.361-.153-2.184-1.377-4.193,2.082-2.019,3.454,2.778,1.752,6.526-.014,8.548-2.156,2.144-2.272,3.043-5.308,2.572-8.379-.921-5.995-8.149-10.983-13.933-8.046-2.842,1.443-4.458,4.66-4.881,7.706-.149,1.068.26,2.148,1.397,2.46.935.257,2.311-.32,2.46-1.397h0Z"/><path class="p" d="M51.315,168.856c-3.082-2.448-6.678-4.579-10.268-6.727-.65,8.299-2.519,16.295-5.374,23.024-.227.535-.474,1.082-.82,1.361-.762.615-1.627-.285-2.294-1.175-4.817-6.422-8.451-13.111-11.604-22.207-3.627-.455-9.329,3.714-11.752,6.552-1.189,1.393-2.55,3.387-3.358,5.03-1.386,2.817-2.164,5.351-2.956,8.389-1.837,7.047-.865,14.784,2.656,21.158,1.057,1.914,2.341,3.698,3.808,5.318-.15,1.279-.236,2.002-.236,2.002,0,0-.484,4.067-.484,6.667,5.233,1.244,10.541,2.232,16.943,2.578,9.682.523,20.049-.406,25.518-.844.314-4.092.207-22.707.484-27.107,0,0,.082-1.305.164-2.609l.753.402,2.785,1.487c4.187,1.298,8.194-4.679,9.928-7.099,2.692-3.757,5.164-7.679,7.489-11.673-3.489-2.262-6.978-4.524-10.467-6.785-1.781,2.028-4.044,4.517-6.29,6.758-1.316-1.639-2.889-3.118-4.624-4.497Z"/><path class="o" d="M9.93,276.515c.135-1.354.853-3.413,2.003-4.258.942.287,1.925.466,2.528.524,4.884.469,9.516.746,13.835-1.582l3.487-2.551c4.11.614,8.647.843,11.868-.273.365-.126.707-.276,1.036-.438,1.666,1.492,5.285,4.693,6.11,6.209.899,1.652,1.232,3.721.416,5.416-.758,1.575-2.399,2.59-4.105,2.965-1.707.375-3.486.189-5.208-.111-2.921-.509-5.164-1.18-7.961-2.338.126.905.128,1.98-.056,2.65-.474,1.729-1.471,2.666-3.028,3.556-1.683.961-3.961.998-5.893.858-3.001-.218-5.886-1.211-8.708-2.255-1.818-.672-3.732-1.449-4.856-3.029-1.202-1.69-1.674-3.278-1.469-5.342Z"/><path class="q" d="M42.872,268.989c1.53,1.384,3.086,2.743,4.536,4.212.372.377.739.761,1.086,1.161.113.13.223.263.333.397-.311-.379.066.103.12.187.563.892.874,2.064.683,3.079-.484,2.582-3.735,2.836-5.891,2.645-3.038-.27-6.062-1.232-8.88-2.358-1.003-.401-2.197.438-2.46,1.397-.313,1.139.39,2.058,1.397,2.46,2.598,1.038,5.265,1.81,8.03,2.25,2.887.459,6.054.564,8.597-1.129,2.523-1.68,3.612-4.417,3.101-7.386-.383-2.224-1.68-3.893-3.214-5.456-1.471-1.499-3.054-2.88-4.61-4.288-.801-.724-2.038-.791-2.828,0-.736.736-.804,2.101,0,2.828h0Z"/><path class="q" d="M29.11,276.343c2.003,1.359,4.072,4.474,2.397,6.867-1.83,2.615-5.996,2.179-8.684,1.615-1.917-.402-3.776-1.04-5.613-1.713-1.423-.521-3.083-1.055-4.084-2.266-.989-1.195-1.42-2.805-1.196-4.333.136-.928.523-2.321,1.425-2.781,2.294-1.17.272-4.623-2.019-3.454-3.018,1.54-3.868,6.033-3.252,9.052.811,3.979,3.91,6.085,7.469,7.419,3.884,1.456,8.052,2.788,12.259,2.393,3.479-.327,7.077-2.266,8.001-5.884,1.067-4.177-1.324-8.091-4.683-10.37-2.136-1.449-4.139,2.015-2.019,3.454h0Z"/><path class="o" d="M25.576,220.825c2.152.116,4.337.158,6.495.152.254,0,.505,0,.759-.001.038,0,.076,0,.114-.001,5.458-.018,10.734-.377,14.751-.701-.008.241-.011.373-.011.373-.233,11.4-1.383,37.319-1.898,46.628-.612.46-1.332.821-2.134,1.099-3.221,1.116-7.758.887-11.868.273l-3.487,2.551c-4.319,2.328-8.952,2.051-13.835,1.582-1.048-.101-3.244-.556-4.378-1.333-.156-12.441-.017-40.493.751-52.696,4.537,1.002,9.234,1.776,14.741,2.074Z"/><path class="q" d="M28.439,222.869c0,12.169-.009,24.338-.084,36.507-.022,3.594-.051,7.188-.094,10.782-.031,2.575,3.969,2.576,4,0,.158-13.119.168-26.241.176-39.361.002-2.643.002-5.285.002-7.928,0-2.574-4-2.578-4,0h0Z"/><path class="q" d="M45.684,220.647c-.266,12.788-.872,25.575-1.48,38.351-.131,2.759-.266,5.518-.418,8.277l.991-1.727c-3.394,2.423-8.597,1.734-12.461,1.171-1.068-.156-2.149.264-2.46,1.397-.258.941.321,2.304,1.397,2.46,4.757.693,10.712,1.43,15.036-1.23,1.175-.723,1.467-1.5,1.538-2.819.038-.712.076-1.424.112-2.137.087-1.7.17-3.401.251-5.102.417-8.74.792-17.483,1.112-26.228.152-4.137.295-8.274.381-12.413.054-2.575-3.946-2.575-4,0h0Z"/><path class="q" d="M27.287,269.472c-2.704,1.405-5.666,1.707-8.672,1.608-2.435-.081-5.383-.02-7.522-1.359l.991,1.727c-.172-13.986-.073-27.991.312-41.973.093-3.358.205-6.717.399-10.071.149-2.572-3.852-2.563-4,0-.527,9.121-.612,18.275-.701,27.409-.047,4.908-.07,9.817-.067,14.725.002,2.112.008,4.224.023,6.336.006.885.013,1.769.023,2.654.017,1.563.371,2.433,1.854,3.103,2.86,1.292,6.24,1.421,9.332,1.467,3.511.052,6.913-.542,10.047-2.171,2.285-1.188.265-4.641-2.019-3.454h0Z"/><path class="q" d="M14.772,156.894c-.456-.013-.913-.025-1.368-.053-.177-.011-.353-.023-.529-.039-.077-.007-.618-.106-.145-.011-.395-.079-.783-.149-1.169-.268-.176-.054-.348-.116-.521-.178-.545-.197.248.148-.226-.095-.338-.173-.667-.349-.981-.564-.073-.049-.144-.099-.214-.152.173.135.171.13-.006-.015-.128-.12-.262-.233-.386-.358s-.238-.258-.358-.386c-.145-.177-.15-.18-.014-.008-.052-.071-.102-.143-.15-.216-.114-.171-.22-.346-.317-.528-.044-.082-.246-.554-.095-.164-.127-.329-.211-.663-.291-1.006-.039-.233-.04-.228-.001.015-.009-.087-.015-.173-.018-.26-.01-.203-.01-.406.002-.609.006-.111.122-.571.01-.158.045-.166.069-.339.116-.505.017-.062.223-.623.129-.408-.096.217.174-.317.206-.37.052-.086.355-.472.079-.149.108-.127.22-.247.337-.365.104-.104.21-.206.32-.304.068-.061.138-.12.209-.177-.232.176-.261.203-.087.081.113-.061.226-.13.337-.196.368-.22-.409.119.027-.015.376-.116.748-.216,1.135-.292,1.028-.204,1.713-1.484,1.397-2.46-.354-1.093-1.359-1.616-2.46-1.397-1.987.395-3.689,1.502-4.747,3.256-1.091,1.81-1.329,4.228-.617,6.216.729,2.037,2.2,3.768,4.114,4.791,1.978,1.057,4.083,1.282,6.288,1.347,1.047.031,2.047-.942,2-2-.05-1.11-.879-1.967-2-2h0Z"/><path class="q" d="M17.407,161.632c-9.638,3.464-14.823,12.819-16.779,22.37-2,9.765.837,20.105,7.672,27.38,3.614,3.848,8.199,6.692,13.213,8.316,2.455.795,3.506-3.066,1.063-3.857-7.678-2.486-14.155-8.499-16.921-16.123-1.492-4.113-2.03-8.559-1.469-12.905.545-4.222,1.954-8.795,4.137-12.461,2.298-3.86,5.856-7.319,10.148-8.862,2.404-.864,1.367-4.731-1.063-3.857h0Z"/><path class="q" d="M41.546,164.76c4.691,2.818,9.472,5.719,12.979,10.007.684.837,2.125.705,2.828,0,2.174-2.18,4.257-4.447,6.29-6.758l-2.424.313c3.489,2.262,6.978,4.524,10.467,6.785l-.718-2.736c-2.904,4.976-5.918,10.147-9.659,14.554-1.136,1.338-2.731,3.219-4.613,3.404-.204.02-.404-.003-.6-.028.08.01.285.134.056.052-.319-.115-.631-.337-.929-.496l-1.72-.918c-2.27-1.212-4.293,2.24-2.019,3.454,1.516.809,3.018,1.878,4.789,1.934,2.767.089,5.176-1.697,6.998-3.607,1.798-1.885,3.284-4.085,4.764-6.221,2.271-3.278,4.378-6.666,6.387-10.11.563-.965.191-2.148-.718-2.736-3.489-2.262-6.978-4.524-10.467-6.785-.701-.454-1.862-.326-2.424.313-2.034,2.311-4.116,4.578-6.29,6.758h2.828c-3.704-4.53-8.833-7.655-13.789-10.632-2.212-1.329-4.225,2.128-2.019,3.454h0Z"/><path class="q" d="M49.578,192.873c-.544,9.017.178,18.097-.484,27.107l2-2c-6.639.534-13.283,1.028-19.949.999-7.457-.033-14.727-.946-21.98-2.661l1.468,1.929c.016-2.226.223-4.457.484-6.667.127-1.074-1.01-2-2-2-1.186,0-1.873.922-2,2-.261,2.21-.468,4.441-.484,6.667-.006.85.623,1.729,1.468,1.929,7.431,1.757,14.938,2.743,22.579,2.801,6.821.052,13.619-.45,20.413-.996,1.14-.092,1.915-.845,2-2,.662-9.01-.06-18.09.484-27.107.155-2.571-3.845-2.562-4,0h0Z"/><path class="q" d="M42.268,137.001c3.972,7.24,3.721,16.693-2.797,22.41-6.475,5.679-16.36,4.899-22.19-1.262-1.773-1.874-4.598.958-2.828,2.828,5.504,5.816,14.22,7.936,21.713,4.984,7.542-2.971,12.643-10.209,12.774-18.349.072-4.488-1.067-8.711-3.217-12.63-1.239-2.257-4.694-.241-3.454,2.019h0Z"/><path class="q" d="M36.575,144.594c.021.143.233,1.571,1.474,2.241.813.44,1.577.249,1.816.185.185-.049,1.382-.392,1.839-1.649.433-1.191.054-2.796-1.1-3.597-1.197-.831-2.65-.447-3.411.481-.685.836-.706,1.61-.618,2.338Z"/><path class="q" d="M25.074,148.897c.021.143.233,1.571,1.474,2.241.813.44,1.577.249,1.816.185.185-.049,1.382-.392,1.839-1.649.433-1.191.054-2.796-1.1-3.597-1.197-.831-2.65-.447-3.411.481-.685.836-.706,1.61-.618,2.338Z"/><path class="q" d="M45.923,135.46c-1.365-3.922-3.793-7.401-7.159-9.861-3.249-2.375-7.456-3.41-11.434-3.445-4.368-.039-8.478.75-12.32,2.897-3.417,1.91-6.187,4.571-7.987,8.07-2.274,4.42-2.95,9.476-1.707,14.304.642,2.491,4.501,1.435,3.857-1.063-1.648-6.399,1.02-13.525,6.598-17.104s13.617-4.461,19.56-1.12c3.178,1.787,5.548,4.973,6.735,8.384.841,2.416,4.706,1.377,3.857-1.063h0Z"/><path class="q" d="M45.708,135.608c-2.223,1.474-5.248-.365-7.359-1.299-2.657-1.175-4.885-.493-7.205,1.068-2.205,1.483-4.361,2.783-6.777,3.914-2.771,1.298-5.629,2.384-8.57,3.229-2.47.71-1.419,4.571,1.063,3.857,5.632-1.619,11.167-4.003,15.992-7.334.772-.533,1.879-1.46,2.879-1.444.503.008,1.073.389,1.514.593.652.302,1.318.573,1.985.84,2.729,1.092,5.873,1.769,8.497.029,2.135-1.417.135-4.882-2.019-3.454h0Z"/><path class="q" d="M38.949,163.277c-.377,3.97-1.041,7.905-2.02,11.772-.471,1.859-1.012,3.7-1.634,5.514-.301.878-.621,1.75-.96,2.614-.143.363-.283.73-.44,1.087-.073.172-.152.342-.236.51-.254.381-.207.386.142.014h1.063c-.305-.041-.352-.187-.662-.568-.313-.385-.594-.804-.884-1.206-.597-.829-1.179-1.669-1.743-2.521-1.134-1.712-2.198-3.472-3.184-5.274-2.134-3.9-3.873-7.982-5.357-12.17-.854-2.41-4.72-1.372-3.857,1.063,2.408,6.797,5.474,13.33,9.547,19.295.956,1.401,1.914,3.007,3.143,4.183,1.485,1.421,3.659,1.504,4.91-.264,1-1.413,1.533-3.323,2.111-4.943.641-1.796,1.201-3.62,1.69-5.463,1.186-4.468,1.936-9.044,2.372-13.644.102-1.077-.992-2-2-2-1.167,0-1.898.92-2,2h0Z"/><path class="o" d="M19.16,205.428c2.259-3.467,5.051-9.017,8.055-13.948,7.05,1.845,13.446,3.563,19.726,5.131-3.947,7.509-8.087,14.958-12.414,22.315-2.021-.607-5.366-1.494-7.663-2.24l-7.704-11.258Z"/><path class="q" d="M20.887,206.437c2.911-4.51,5.273-9.358,8.055-13.948l-2.259.919c6.572,1.721,13.134,3.483,19.726,5.131l-1.195-2.938c-3.964,7.534-8.101,14.975-12.414,22.315l2.259-.919c-2.551-.759-5.128-1.426-7.663-2.24-2.457-.789-3.509,3.072-1.063,3.857,2.534.814,5.112,1.481,7.663,2.24.847.252,1.817-.167,2.259-.919,4.313-7.34,8.45-14.781,12.414-22.315.585-1.111.106-2.613-1.195-2.938-6.591-1.648-13.153-3.41-19.726-5.131-.87-.228-1.795.154-2.259.919-2.782,4.59-5.144,9.438-8.055,13.948-1.4,2.169,2.061,4.177,3.454,2.019h0Z"/><path class="o" d="M34.361,207.177c.137.3.244.603.312.904,1.276,5.62-4.976,9.53-8.559,9.03-7.032-.982-9.76-4.054-11.524-10.193-.436-2.836.04-5.484,2.523-7.564,1.859-1.557,3.512-2.086,5.023-1.645,2.357.688,3.605,2.323,3.743,4.206,2.122.46,4.386,1.166,6.276,2.47.893.616,1.713,1.715,2.205,2.793Z"/><path class="q" d="M32.433,207.708c1.077,2.557-.227,4.927-2.342,6.294-.48.31-1.1.631-1.429.752-.298.11-.603.203-.912.277-.132.032-.265.059-.399.085-.226.044.219-.003-.149.02-1.301.081-2.69-.284-4.05-.724-2.356-.762-4.011-2.137-5.172-4.262-1.252-2.29-2.312-5.416-.759-7.945.783-1.274,2.661-2.875,4.189-2.634,1.163.184,2.364,1.276,2.47,2.342.085.849.558,1.726,1.468,1.929,1.474.327,2.964.715,4.319,1.397,1.399.704,2.28,1.525,2.968,2.946.47.972,1.856,1.232,2.736.718.993-.581,1.189-1.76.718-2.736-1.827-3.78-5.805-5.322-9.677-6.182l1.468,1.929c-.235-2.362-1.454-4.385-3.605-5.491-2.282-1.174-4.691-1.058-6.884.272-2.158,1.308-3.925,3.293-4.599,5.758-.618,2.259-.35,4.576.432,6.747,1.235,3.431,3.263,6.517,6.625,8.163,1.811.887,3.745,1.393,5.735,1.676,1.907.271,3.708-.149,5.434-.972,4.11-1.96,7.179-6.897,5.273-11.422-.419-.995-1.322-1.71-2.46-1.397-.938.258-1.819,1.458-1.397,2.46Z"/><path class="n" d="M30.217,166.929c-.204.579-.567,1.691-.968,2.885"/><path class="n" d="M33.353,165.425c.731,1.215,1.417,2.457,2.058,3.722"/><g id="f"><path class="o" d="M104.463,355.099l-.918-.519s0-30.086-.005-59.364c33.716-19.476,114.52-66.139,172.945-99.879,17.601-10.164,33.171-19.156,44.811-25.878,14.82,8.567,36.175,20.907,53.133,30.7-59.916,34.597-201.072,116.11-218.622,126.244.005,28.742.005,57.699.005,57.699,0,0-44.371-25.063-51.348-29.003Z"/></g><g id="g"><path class="q" d="M105.473,353.372l-.918-.519.991,1.727c0-13.374,0-26.747-.003-40.121,0-6.414-.002-12.829-.003-19.243l-.991,1.727c10.375-5.993,20.75-11.985,31.125-17.977,13.834-7.99,27.669-15.98,41.503-23.969,15.423-8.907,30.846-17.814,46.27-26.721,15.141-8.744,30.282-17.487,45.423-26.231,16.199-9.355,32.398-18.709,48.597-28.064,1.613-.931,3.226-1.863,4.839-2.794h-2.019c13.757,7.952,27.515,15.902,41.274,23.85,3.953,2.283,7.906,4.567,11.859,6.85v-3.454c-14.352,8.287-28.703,16.574-43.054,24.861-17.407,10.051-34.813,20.103-52.22,30.155-17.495,10.103-34.99,20.205-52.485,30.308-14.55,8.402-29.1,16.804-43.649,25.206-8.571,4.949-17.142,9.899-25.714,14.848-.5.289-1,.577-1.5.866-.609.352-.991,1.025-.991,1.727.003,17.929.004,35.858.005,53.787,0,1.304,0,2.608,0,3.911l3.009-1.727c-5.142-2.905-10.285-5.809-15.427-8.714-8.903-5.028-17.805-10.057-26.708-15.085l-9.214-5.204c-2.244-1.268-4.263,2.186-2.019,3.454l20.409,11.527c8.443,4.769,16.885,9.537,25.328,14.306,1.871,1.057,3.741,2.113,5.612,3.17,1.315.743,3.009-.194,3.009-1.727,0-12.989,0-25.978-.002-38.967,0-6.244-.002-12.487-.003-18.731l-.991,1.727c7.675-4.432,15.35-8.864,23.025-13.296,13.996-8.082,27.992-16.164,41.987-24.246,17.303-9.992,34.606-19.983,51.909-29.975,17.577-10.15,35.153-20.299,52.73-30.449,14.817-8.556,29.634-17.112,44.451-25.668,1.507-.87,3.014-1.74,4.521-2.611,1.298-.749,1.297-2.705,0-3.454-14.129-8.16-28.257-16.323-42.384-24.487-3.583-2.071-7.166-4.142-10.749-6.213-.623-.36-1.396-.36-2.019,0-19.997,11.548-39.995,23.096-59.992,34.645-19.55,11.29-39.099,22.579-58.649,33.869-18.672,10.783-37.343,21.566-56.015,32.349-14.07,8.126-28.14,16.252-42.209,24.379-1.222.706-1.843,1.263-1.882,2.768-.045,1.751,0,3.509,0,5.261,0,3.382.001,6.765.001,10.147,0,6.271.001,12.541.002,18.812,0,7.832,0,15.663.001,23.495,0,.374,0,.749,0,1.123,0,.697.38,1.382.991,1.727l.918.519c2.244,1.268,4.263-2.186,2.019-3.454Z"/></g><path class="o" d="M371.413,235.613c-12.941-3.659-35.69,2.425-35.69,2.425-6.085,1.288-11.377,4.909-12.464,11.493-.179,3.548.821,14.992,1.365,19.454.088.724.039,1.473.307,2.159.275.704.791,1.305,1.316,1.879,2.775,3.032,6.556,3.222,9.21,3.664l2.522.024c-.003-3.676-.008-7.306-.014-9.442-.932-.576-1.498-1.587-1.498-2.688,0-1.881.001-4.165.001-5.588,0,0,0-1.502,0-3.713,5.424,3.006,10.393,5.401,16.773,6.785,1.444.313,3.83.365,5.289.133,2.053-.326,4.311-1.156,5.444-2.556,0,0,6.147-3.531,15.886-9.127l-.458-.129s-1.607-12.97-7.989-14.775Z"/><g id="h"><path class="q" d="M302.066,205.232c9.029,5.213,18.058,10.428,27.087,15.642,1.475.852,2.95,1.704,4.426,2.556.623.36,1.396.36,2.019,0,6.311-3.644,12.62-7.293,18.93-10.94.96-.555,1.92-1.11,2.88-1.664,1.298-.749,1.297-2.704,0-3.454-8.829-5.104-17.662-10.201-26.494-15.301-1.672-.966-3.344-1.931-5.016-2.897-.623-.36-1.396-.36-2.019,0-6.312,3.645-12.622,7.293-18.933,10.94-.96.555-1.92,1.109-2.88,1.664-.829.479-1.07,1.376-.919,2.259h0c.182,1.067,1.494,1.664,2.46,1.398,1.128-.31,1.579-1.392,1.397-2.46h0c-.306.752-.613,1.505-.919,2.258,6.295-3.635,12.587-7.273,18.881-10.91.977-.565,1.954-1.129,2.932-1.694h-2.019c8.949,5.167,17.897,10.335,26.845,15.503,1.555.898,3.11,1.796,4.665,2.695v-3.454c-6.288,3.631-12.573,7.266-18.859,10.899-.983.568-1.967,1.137-2.951,1.705h2.019c-9.114-5.262-18.228-10.526-27.342-15.789-1.39-.803-2.78-1.606-4.171-2.408-2.233-1.289-4.25,2.166-2.019,3.454Z"/></g><path class="o" d="M306.032,215.708c0-1.282.221-2.59.879-3.437.759-.979,1.761-1.744,2.942-2.117,1.626-.515,3.361.166,5.051-.561,1.19-.512,2.127-1.45,3.422-1.473,1.135-.02,2.008.423,2.722,1.306.892,1.103,2.472,3.722,3.514,5.639l.532.978c-.211.066-.444.15-.602.298-2.649,2.468-5.298,4.936-7.948,7.404-.02.019-.04.038-.057.061-1.747-.452-6.204-2.081-8.386-3.773-.471-.365-.929-.832-1.254-1.331-.481-.74-.766-1.613-.804-2.495-.007-.165-.011-.332-.011-.499Z"/><path class="q" d="M326.289,214.055c-.82-1.499-1.683-2.981-2.63-4.405-.952-1.43-2.015-2.835-3.75-3.325-2.118-.598-3.679.34-5.482,1.279-.769.401-1.545.354-2.391.343-1.006-.013-2.027.033-2.985.372-1.738.614-3.469,1.942-4.272,3.633-.83,1.748-1.019,4.086-.473,5.947,1.059,3.606,4.724,5.231,7.917,6.539,3.246,1.33,7.214,2.64,10.347.287.862-.648,1.307-1.728.718-2.736-.497-.85-1.868-1.37-2.736-.718-1.819,1.367-3.927.564-5.854-.142-1.102-.404-2.181-.859-3.228-1.389-.99-.501-2.16-1.058-2.843-1.965-.698-.928-.716-2.233-.491-3.325.214-1.043,1.002-1.854,1.98-2.273,1.363-.584,3.075-.105,4.525-.409.776-.163,1.509-.531,2.19-.927.453-.263.956-.674,1.495-.719.498-.042.766.169,1.126.508.349.329.188.218.096.099.087.112.168.229.249.344.19.268.372.541.552.815.889,1.358,1.708,2.763,2.486,4.187,1.235,2.259,4.69.243,3.454-2.019h0Z"/><path class="l" d="M330.027,217.35c.686.196,1.317.4,1.869.68.197.1.42.188.634.134.245-.062.402-.294.533-.51,3.897-6.427,4.953-14.595,10.943-21.061,2.133-2.068,3.588-2.717,6.265-4.004,4.809-2.312,9.208-4.162,14.516-4.702,1.416-.144,2.868.094,4.253.587,2.667,1.232,5.845,3.589,7.395,6.521,3.607,6.824,4.16,17.231,4.194,22.391-7.622,14.496-11.704,19.462-17.391,22.758-1.127.66-3.565,1.62-4.835,1.9-5.81,1.34-10.93,1.57-15.639-.51-.572-.24-1.143-.55-1.429-1.08-.244-.46-.202-1.02-.168-1.55.193-2.829.404-5.658.611-8.454-.466.507-.978,1.006-1.572,1.511-2.095,1.778-5.195,3.091-7.939,3.231-3.586.183-7.21-1.644-10.407-4.143-2.034-1.59-3.797-3.491-5.499-5.433-.203-.232-.416-.486-.439-.794-.033-.428.308-.783.622-1.076,2.649-2.468,5.298-4.936,7.948-7.404.183-.171.465-.257.706-.329.364-.108.815-.01,1.025.086,1.341.614,2.65.922,3.805,1.252Z"/><path class="q" d="M391.926,263.854c0,8.289.008,16.578.008,24.867,0,2.574,4,2.578,4,0,0-8.289-.008-16.578-.008-24.867,0-2.574-4-2.578-4,0h0Z"/><path class="q" d="M362.171,281.987v23.909c0,2.574,4,2.578,4,0v-23.909c0-2.574-4-2.578-4,0h0Z"/><path class="o" d="M317.41,272.795c.572-.472,1.239-.813,2.017-.999,1.509-.362,3.776-.337,5.809-.044.279.454.642.87,1.01,1.271,2.901,3.17,6.901,3.234,9.564,3.726.003,3.208.006,6.457.008,9.086-1.251.8-2.804,1.196-4.301,1.139-1.987-.077-3.88-.822-5.717-1.583-3.266-1.353-6.608-2.864-8.944-5.518-.212-.241-.417-.497-.602-.765-.558-.805-.738-1.679-.674-2.641.045-.686.218-1.64.583-2.222.356-.567.768-1.055,1.248-1.451Z"/><path class="q" d="M335.987,274.759c-1.75-.282-3.531-.466-5.209-1.071-1.611-.581-3.836-1.99-4.086-3.828-.454-3.342-.69-6.742-.957-10.104-.254-3.193-.668-6.511-.494-9.719.187-3.428,2.773-6.444,5.654-8.102,2.648-1.524,5.676-2.044,8.615-2.735,2.505-.589,1.444-4.447-1.063-3.857-3.022.711-6.056,1.312-8.844,2.743-3.926,2.015-6.979,5.523-8.053,9.843-.401,1.613-.325,3.235-.258,4.882.08,1.981.215,3.959.365,5.936.292,3.853.649,7.708,1.075,11.548.318,2.871,2.724,5.242,5.216,6.5,2.209,1.115,4.568,1.432,6.976,1.82,1.065.172,2.152-.276,2.46-1.397.262-.953-.324-2.287-1.397-2.46h0Z"/><path class="q" d="M336.176,282.542c-1.168,2.228-3.786,2.759-6.084,2.228-2.782-.643-5.631-1.962-8.103-3.377-1.884-1.079-4.839-2.838-4.347-5.373.557-2.869,4.227-2.581,6.415-2.407,1.078.085,2-.98,2-2,0-1.153-.919-1.914-2-2-3.928-.311-8.638.357-10.089,4.676-.639,1.901-.548,4.123.56,5.829,1.048,1.613,2.62,2.903,4.202,3.962s3.305,1.866,5.047,2.612c1.948.835,3.926,1.731,6.029,2.089,3.772.644,7.959-.661,9.825-4.22,1.194-2.278-2.257-4.302-3.454-2.019h0Z"/><path class="q" d="M333.803,266.769c0,7.317.016,14.635.016,21.952,0,2.574,4,2.578,4,0,0-7.317-.016-14.635-.016-21.952,0-2.574-4-2.578-4,0h0Z"/><path class="q" d="M353.513,216.103c.794-3.473-.136-7.342-3.198-9.412-.869-.587-2.254-.195-2.736.718-.534,1.011-.21,2.109.718,2.736.082.055.16.12.244.172-.497-.311-.224-.173-.1-.063.146.13.284.268.414.414.065.073.124.15.188.224-.399-.462-.168-.217-.082-.091.11.161.211.329.304.501.047.086.091.174.133.262.072.15.134.457-.043-.117.058.189.14.372.198.562.117.386.197.78.252,1.178l-.071-.532c.088.708.086,1.417-.003,2.125l.071-.532c-.037.266-.085.529-.145.791-.233,1.018.312,2.213,1.397,2.46,1.018.232,2.211-.306,2.46-1.397h0Z"/><path class="q" d="M382.583,220.51c.156-3.175.026-6.385-.24-9.55-.481-5.716-1.417-11.698-4.108-16.837-1.583-3.024-4.413-5.419-7.402-6.99-3.523-1.852-7.432-1.308-11.144-.358s-7.188,2.532-10.614,4.176c-2.997,1.438-5.631,3.044-7.73,5.685-2.484,3.123-4.176,6.652-5.67,10.33-.679,1.67-1.308,3.36-2.01,5.02-.34.804-.701,1.6-1.087,2.382-.219.443-.447.883-.686,1.316-.089.162-.181.323-.273.483-.174.301-.504.479-.097.27l1.009-.273c-.01,0-.818-.374-1.056-.458-.474-.167-.961-.297-1.445-.432-1.12-.313-2.178-.736-3.275-1.104-2.572-.863-4.349,1.383-6.025,2.944-1.896,1.767-3.925,3.46-5.717,5.332-.749.782-1.268,1.797-1.019,2.906.244,1.084,1.144,1.904,1.861,2.699,3.156,3.496,6.83,6.679,11.314,8.309,4.182,1.52,8.732.776,12.479-1.542,4.257-2.634,6.934-7.344,9.845-11.278.643-.869.144-2.233-.718-2.736-1.018-.595-2.092-.154-2.736.718-3.463,4.68-6.662,10.597-12.971,11.586-2.942.461-5.777-.792-8.194-2.356-1.38-.893-2.641-1.926-3.824-3.064-.602-.579-1.183-1.179-1.75-1.791-.31-.334-.616-.673-.919-1.013l-.302-.341c-.358-.45-.397-.46-.115-.029l-.273,1.009c.381-.758,1.453-1.466,2.076-2.047.903-.841,1.806-1.683,2.709-2.524.843-.785,1.686-1.571,2.529-2.356.172-.16.52-.58.636-.585.433-.02,1.307.52,1.735.658.89.287,1.803.495,2.693.78.827.265,1.569.745,2.464.715,1.958-.066,2.856-2.456,3.582-3.944,1.622-3.326,2.767-6.856,4.287-10.226,1.501-3.327,3.39-6.865,6.323-9.147,1.319-1.026,2.875-1.723,4.372-2.441,1.895-.91,3.8-1.802,5.77-2.539,1.885-.706,3.821-1.283,5.799-1.662,1.94-.371,3.974-.615,5.835.222,3.195,1.436,5.682,4.06,7.011,7.27,1.221,2.95,1.904,6.133,2.38,9.279.671,4.44.914,9.046.694,13.536-.126,2.573,3.874,2.566,4,0h0Z"/><path class="q" d="M339.588,233.003c-.152,2.081-.456,4.215-.443,6.301s1.132,3.323,2.983,4.115c3.394,1.453,7.094,1.868,10.757,1.542,3.518-.313,6.931-1.027,10.155-2.485,3.14-1.42,5.877-3.793,8.146-6.349,1.704-1.919-1.115-4.758-2.828-2.828-1.896,2.136-4.05,4.063-6.607,5.377-2.364,1.214-5.011,1.794-7.626,2.149-2.848.387-5.785.386-8.565-.404-.602-.171-1.211-.365-1.784-.616-.883-.386-.642-.369-.573-1.396.12-1.803.255-3.605.387-5.408.187-2.568-3.814-2.556-4,0h0Z"/><path class="p" d="M393.934,262.561c0-11.056-.016-37.829-.016-44.693,0-1.296-1.376-2.112-2.512-1.488-6.112,3.392-18.064,10.32-24.592,14.224-1.552.928-2.512,2.592-2.512,4.4v24.331c-.202.19-.329.308-.329.308-1.133,1.4-3.392,2.23-5.444,2.556-1.459.232-3.845.18-5.289-.133-6.634-1.439-11.743-3.971-17.423-7.147,0,6.619,0,11.799,0,11.799,5.39,3.109,20.486,11.776,25.474,14.659,1.41.815,3.714.814,5.124,0,5.409-3.124,17.902-10.339,24.991-14.433,1.57-.907,2.528-2.569,2.528-4.382"/><path class="q" d="M333.816,256.787v9.931c0,.702.381,1.375.991,1.727,7.587,4.376,15.186,8.731,22.775,13.102,1.705.982,3.351,2.139,5.35,2.372,2.664.311,4.657-.912,6.858-2.183,4.41-2.547,8.82-5.094,13.231-7.641,2.528-1.46,5.057-2.92,7.585-4.38,1.258-.727,2.597-1.381,3.568-2.494,1.146-1.313,1.7-2.93,1.761-4.66.09-2.575-3.91-2.571-4,0-.083,2.353-2.418,3.164-4.177,4.18-2.144,1.238-4.288,2.476-6.432,3.714-4.27,2.466-8.54,4.932-12.81,7.398-1.518.877-3.191,2.284-5.032,2.12-1.44-.128-2.869-1.298-4.096-2.005-3.754-2.162-7.509-4.32-11.265-6.479s-7.532-4.328-11.295-6.499l.991,1.727v-9.931c0-2.574-4-2.578-4,0h0Z"/><path class="q" d="M366.302,271.528v-32.901c0-1.339-.179-2.83.041-4.153.325-1.959,2.54-2.776,4.057-3.673,3.99-2.36,7.997-4.692,12.013-7.007,1.963-1.131,3.928-2.258,5.898-3.377.854-.485,1.71-.969,2.566-1.45.362-.203.724-.406,1.087-.608-.028.016.452-.229.452-.251-.002.242-.466-.094-.457-.097-.123.034.083-.247-.04.055-.034.083,0,.262,0,.35,0,.234,0,.467,0,.701,0,.583,0,1.167,0,1.75,0,1.485,0,2.97.002,4.455.002,3.833.003,7.665.005,11.498.004,8.58.009,17.16.009,25.741,0,2.574,4,2.578,4,0,0-8.028-.004-16.056-.008-24.085-.002-4.117-.004-8.234-.005-12.352-.001-2.821.231-5.759-.03-8.57-.272-2.93-3.317-4.037-5.717-2.777-1.813.951-3.577,2.009-5.355,3.023-4.363,2.489-8.71,5.008-13.044,7.548-1.873,1.098-3.753,2.187-5.61,3.314-2.335,1.417-3.777,3.57-3.862,6.342-.104,3.367,0,6.755,0,10.123v26.4c0,2.574,4,2.578,4,0h0Z"/><path class="o" d="M346.185,188.812c.131.046.262.091.394.134.606-3.364.997-6.94.242-10.32-.416-1.863-1.288-3.677-2.742-4.914-2.111-1.795-4.532-1.477-7.25-1.758-.015.176-.029.354-.04.532-.259,4.061.57,8.838,3.153,12.091,1.585,1.996,3.834,3.382,6.245,4.235Z"/><path class="r" d="M362.233,157.507c-6.575-2.94-14.413-2.059-19.954,2.916-.433.389-.847.799-1.237,1.23-2.587,2.859-3.883,6.508-4.214,10.301,2.72.281,5.139-.036,7.25,1.758,1.454,1.237,2.326,3.051,2.742,4.914.755,3.38.364,6.956-.24,10.321.1.033.203.066.305.097.024.007.047.014.071.022,6.741,2.047,16.258,1.851,21.454-3.579,2.028-2.119,3.141-4.971,3.699-7.851.875-4.513.431-9.405-1.941-13.343-1.259-2.089-3.028-3.837-5.049-5.189-.925-.619-1.891-1.151-2.886-1.596Z"/><path class="q" d="M347.418,187.115c-3.274-1.048-5.993-3.054-7.38-6.268-1.292-2.993-1.571-6.527-1.116-9.734.98-6.906,6.259-12.173,13.179-13.144,6.297-.884,13.366,2.055,16.551,7.693s2.562,14.824-2.518,19.228c-4.902,4.25-12.877,4.009-18.716,2.224-2.467-.754-3.522,3.105-1.063,3.857,6.645,2.032,15.077,2.056,20.998-2.01,7.001-4.808,8.866-15.339,5.851-22.967-3.057-7.734-11.377-12.493-19.569-12.155-8.375.346-15.942,5.853-18.126,14.068-1.186,4.459-1.082,9.569.621,13.885,1.837,4.657,5.508,7.668,10.226,9.179,2.457.787,3.509-3.074,1.063-3.857Z"/><path class="q" d="M338.316,174.066c1.37.079,2.714.076,3.877.752,1.14.663,1.919,1.861,2.344,3.083,1.145,3.295.734,6.977.147,10.342-.185,1.063.285,2.155,1.397,2.46.964.265,2.274-.327,2.46-1.397.75-4.297,1.287-9.055-.432-13.2-.797-1.921-2.065-3.685-3.897-4.742-1.803-1.04-3.866-1.181-5.896-1.299-1.079-.062-2,.964-2,2,0,1.135.917,1.937,2,2h0Z"/><path class="o" d="M217.867,324.695c-12.941-3.659-35.69,2.425-35.69,2.425-6.085,1.288-11.377,4.909-12.464,11.493-.179,3.548.821,14.992,1.365,19.454.088.724.039,1.473.307,2.159.275.704.791,1.305,1.316,1.879,2.775,3.032,6.556,3.222,9.21,3.664l2.522.024c-.003-3.676-.008-7.306-.014-9.442-.932-.576-1.498-1.587-1.498-2.688,0-1.881.001-4.165.001-5.588,0,0,0-1.502,0-3.713,5.424,3.006,10.393,5.401,16.773,6.785,1.444.313,3.83.365,5.289.133,2.053-.326,4.311-1.156,5.444-2.556,0,0,6.147-3.531,15.886-9.127l-.458-.129s-1.607-12.97-7.989-14.775Z"/><g id="i"><path class="q" d="M148.52,294.314c9.029,5.213,18.058,10.428,27.087,15.642,1.475.852,2.95,1.704,4.426,2.556.623.36,1.396.36,2.019,0,6.311-3.644,12.62-7.293,18.93-10.94.96-.555,1.92-1.11,2.88-1.664,1.298-.749,1.297-2.704,0-3.454-8.829-5.104-17.662-10.201-26.494-15.301-1.672-.966-3.344-1.931-5.016-2.897-.623-.36-1.396-.36-2.019,0-6.312,3.645-12.622,7.293-18.933,10.94-.96.555-1.92,1.109-2.88,1.664-.829.479-1.07,1.376-.919,2.259h0c.182,1.067,1.494,1.664,2.46,1.398,1.128-.31,1.579-1.392,1.397-2.46h0c-.306.752-.613,1.505-.919,2.258,6.295-3.635,12.587-7.273,18.881-10.91.977-.565,1.954-1.129,2.932-1.694h-2.019c8.949,5.167,17.897,10.335,26.845,15.503,1.555.898,3.11,1.796,4.665,2.695v-3.454c-6.288,3.631-12.573,7.266-18.859,10.899-.983.568-1.967,1.137-2.951,1.705h2.019c-9.114-5.262-18.228-10.526-27.342-15.789-1.39-.803-2.78-1.606-4.171-2.408-2.233-1.289-4.25,2.166-2.019,3.454Z"/></g><path class="o" d="M152.487,304.79c0-1.282.221-2.59.879-3.437.759-.979,1.761-1.744,2.942-2.117,1.626-.515,3.361.166,5.051-.561,1.19-.512,2.127-1.45,3.422-1.473,1.135-.02,2.008.423,2.722,1.306.892,1.103,2.472,3.722,3.514,5.639l.532.978c-.211.066-.444.15-.602.298-2.649,2.468-5.298,4.936-7.948,7.404-.02.019-.04.038-.057.061-1.747-.452-6.204-2.081-8.386-3.773-.471-.365-.929-.832-1.254-1.331-.481-.74-.766-1.613-.804-2.495-.007-.165-.011-.332-.011-.499Z"/><path class="q" d="M172.743,303.137c-.82-1.499-1.683-2.981-2.63-4.405-.952-1.43-2.015-2.835-3.75-3.325-2.118-.598-3.679.34-5.482,1.279-.769.401-1.545.354-2.391.343-1.006-.013-2.027.033-2.985.372-1.738.614-3.469,1.942-4.272,3.633-.83,1.748-1.019,4.086-.473,5.947,1.059,3.606,4.724,5.231,7.917,6.539,3.246,1.33,7.214,2.64,10.347.287.862-.648,1.307-1.728.718-2.736-.497-.85-1.868-1.37-2.736-.718-1.819,1.367-3.927.564-5.854-.142-1.102-.404-2.181-.859-3.228-1.389-.99-.501-2.16-1.058-2.843-1.965-.698-.928-.716-2.233-.491-3.325.214-1.043,1.002-1.854,1.98-2.273,1.363-.584,3.075-.105,4.525-.409.776-.163,1.509-.531,2.19-.927.453-.263.956-.674,1.495-.719.498-.042.766.169,1.126.508.349.329.188.218.096.099.087.112.168.229.249.344.19.268.372.541.552.815.889,1.358,1.708,2.763,2.486,4.187,1.235,2.259,4.69.243,3.454-2.019h0Z"/><path class="l" d="M176.481,306.432c.686.196,1.317.4,1.869.68.197.1.42.188.634.134.245-.062.402-.294.533-.51,3.897-6.427,4.953-14.595,10.943-21.061,2.133-2.068,3.588-2.717,6.265-4.004,4.809-2.312,9.208-4.162,14.516-4.702,1.416-.144,2.868.094,4.253.587,2.667,1.232,5.845,3.589,7.395,6.521,3.607,6.824,4.16,17.231,4.194,22.391-7.622,14.496-11.704,19.462-17.391,22.758-1.127.66-3.565,1.62-4.835,1.9-5.81,1.34-10.93,1.57-15.639-.51-.572-.24-1.143-.55-1.429-1.08-.244-.46-.202-1.02-.168-1.55.193-2.829.404-5.658.611-8.454-.466.507-.978,1.006-1.572,1.511-2.095,1.778-5.195,3.091-7.939,3.231-3.586.183-7.21-1.644-10.407-4.143-2.034-1.59-3.797-3.491-5.499-5.433-.203-.232-.416-.486-.439-.794-.033-.428.308-.783.622-1.076,2.649-2.468,5.298-4.936,7.948-7.404.183-.171.465-.257.706-.329.364-.108.815-.01,1.025.086,1.341.614,2.65.922,3.805,1.252Z"/><path class="q" d="M238.381,352.936c0,8.289.008,16.578.008,24.867,0,2.574,4,2.578,4,0,0-8.289-.008-16.578-.008-24.867,0-2.574-4-2.578-4,0h0Z"/><path class="q" d="M208.626,371.069v23.909c0,2.574,4,2.578,4,0v-23.909c0-2.574-4-2.578-4,0h0Z"/><path class="o" d="M163.865,361.877c.572-.472,1.239-.813,2.017-.999,1.509-.362,3.776-.337,5.809-.044.279.454.642.87,1.01,1.271,2.901,3.17,6.901,3.234,9.564,3.726.003,3.208.006,6.457.008,9.086-1.251.8-2.804,1.196-4.301,1.139-1.987-.077-3.88-.822-5.717-1.583-3.266-1.353-6.608-2.864-8.944-5.518-.212-.241-.417-.497-.602-.765-.558-.805-.738-1.679-.674-2.641.045-.686.218-1.64.583-2.222.356-.567.768-1.055,1.248-1.451Z"/><path class="q" d="M182.442,363.841c-1.75-.282-3.531-.466-5.209-1.071-1.611-.581-3.836-1.99-4.086-3.828-.454-3.342-.69-6.742-.957-10.104-.254-3.193-.668-6.511-.494-9.719.187-3.428,2.773-6.444,5.654-8.102,2.648-1.524,5.676-2.044,8.615-2.735,2.505-.589,1.444-4.447-1.063-3.857-3.022.711-6.056,1.312-8.844,2.743-3.926,2.015-6.979,5.523-8.053,9.843-.401,1.613-.325,3.235-.258,4.882.08,1.981.215,3.959.365,5.936.292,3.853.649,7.708,1.075,11.548.318,2.871,2.724,5.242,5.216,6.5,2.209,1.115,4.568,1.432,6.976,1.82,1.065.172,2.152-.276,2.46-1.397.262-.953-.324-2.287-1.397-2.46h0Z"/><path class="q" d="M182.63,371.625c-1.168,2.228-3.786,2.759-6.084,2.228-2.782-.643-5.631-1.962-8.103-3.377-1.884-1.079-4.839-2.838-4.347-5.373.557-2.869,4.227-2.581,6.415-2.407,1.078.085,2-.98,2-2,0-1.153-.919-1.914-2-2-3.928-.311-8.638.357-10.089,4.676-.639,1.901-.548,4.123.56,5.829,1.048,1.613,2.62,2.903,4.202,3.962s3.305,1.866,5.047,2.612c1.948.835,3.926,1.731,6.029,2.089,3.772.644,7.959-.661,9.825-4.22,1.194-2.278-2.257-4.302-3.454-2.019h0Z"/><path class="q" d="M180.258,355.852c0,7.317.016,14.635.016,21.952,0,2.574,4,2.578,4,0,0-7.317-.016-14.635-.016-21.952,0-2.574-4-2.578-4,0h0Z"/><path class="q" d="M199.967,305.185c.794-3.473-.136-7.342-3.198-9.412-.869-.587-2.254-.195-2.736.718-.534,1.011-.21,2.109.718,2.736.082.055.16.12.244.172-.497-.311-.224-.173-.1-.063.146.13.284.268.414.414.065.073.124.15.188.224-.399-.462-.168-.217-.082-.091.11.161.211.329.304.501.047.086.091.174.133.262.072.15.134.457-.043-.117.058.189.14.372.198.562.117.386.197.78.252,1.178l-.071-.532c.088.708.086,1.417-.003,2.125l.071-.532c-.037.266-.085.529-.145.791-.233,1.018.312,2.213,1.397,2.46,1.018.232,2.211-.306,2.46-1.397h0Z"/><path class="q" d="M229.037,309.592c.156-3.175.026-6.385-.24-9.55-.481-5.716-1.417-11.698-4.108-16.837-1.583-3.024-4.413-5.419-7.402-6.99-3.523-1.852-7.432-1.308-11.144-.358s-7.188,2.532-10.614,4.176c-2.997,1.438-5.631,3.044-7.73,5.685-2.484,3.123-4.176,6.652-5.67,10.33-.679,1.67-1.308,3.36-2.01,5.02-.34.804-.701,1.6-1.087,2.382-.219.443-.447.883-.686,1.316-.089.162-.181.323-.273.483-.174.301-.504.479-.097.27l1.009-.273c-.01,0-.818-.374-1.056-.458-.474-.167-.961-.297-1.445-.432-1.12-.313-2.178-.736-3.275-1.104-2.572-.863-4.349,1.383-6.025,2.944-1.896,1.767-3.925,3.46-5.717,5.332-.749.782-1.268,1.797-1.019,2.906.244,1.084,1.144,1.904,1.861,2.699,3.156,3.496,6.83,6.679,11.314,8.309,4.182,1.52,8.732.776,12.479-1.542,4.257-2.634,6.934-7.344,9.845-11.278.643-.869.144-2.233-.718-2.736-1.018-.595-2.092-.154-2.736.718-3.463,4.68-6.662,10.597-12.971,11.586-2.942.461-5.777-.792-8.194-2.356-1.38-.893-2.641-1.926-3.824-3.064-.602-.579-1.183-1.179-1.75-1.791-.31-.334-.616-.673-.919-1.013l-.302-.341c-.358-.45-.397-.46-.115-.029l-.273,1.009c.381-.758,1.453-1.466,2.076-2.047.903-.841,1.806-1.683,2.709-2.524.843-.785,1.686-1.571,2.529-2.356.172-.16.52-.58.636-.585.433-.02,1.307.52,1.735.658.89.287,1.803.495,2.693.78.827.265,1.569.745,2.464.715,1.958-.066,2.856-2.456,3.582-3.944,1.622-3.326,2.767-6.856,4.287-10.226,1.501-3.327,3.39-6.865,6.323-9.147,1.319-1.026,2.875-1.723,4.372-2.441,1.895-.91,3.8-1.802,5.77-2.539,1.885-.706,3.821-1.283,5.799-1.662,1.94-.371,3.974-.615,5.835.222,3.195,1.436,5.682,4.06,7.011,7.27,1.221,2.95,1.904,6.133,2.38,9.279.671,4.44.914,9.046.694,13.536-.126,2.573,3.874,2.566,4,0h0Z"/><path class="q" d="M186.042,322.085c-.152,2.081-.456,4.215-.443,6.301s1.132,3.323,2.983,4.115c3.394,1.453,7.094,1.868,10.757,1.542,3.518-.313,6.931-1.027,10.155-2.485,3.14-1.42,5.877-3.793,8.146-6.349,1.704-1.919-1.115-4.758-2.828-2.828-1.896,2.136-4.05,4.063-6.607,5.377-2.364,1.214-5.011,1.794-7.626,2.149-2.848.387-5.785.386-8.565-.404-.602-.171-1.211-.365-1.784-.616-.883-.386-.642-.369-.573-1.396.12-1.803.255-3.605.387-5.408.187-2.568-3.814-2.556-4,0h0Z"/><path class="o" d="M192.64,277.894c.131.046.262.091.394.134.606-3.364.997-6.94.242-10.32-.416-1.863-1.288-3.677-2.742-4.914-2.111-1.795-4.532-1.477-7.25-1.758-.015.176-.029.354-.04.532-.259,4.061.57,8.838,3.153,12.091,1.585,1.996,3.834,3.382,6.245,4.235Z"/><path class="r" d="M208.688,246.589c-6.575-2.94-14.413-2.059-19.954,2.916-.433.389-.847.799-1.237,1.23-2.587,2.859-3.883,6.508-4.214,10.301,2.72.281,5.139-.036,7.25,1.758,1.454,1.237,2.326,3.051,2.742,4.914.755,3.38.364,6.956-.24,10.321.1.033.203.066.305.097.024.007.047.014.071.022,6.741,2.047,16.258,1.851,21.454-3.579,2.028-2.119,3.141-4.971,3.699-7.851.875-4.513.431-9.405-1.941-13.343-1.259-2.089-3.028-3.837-5.049-5.189-.925-.619-1.891-1.151-2.886-1.596Z"/><path class="q" d="M193.873,276.197c-3.274-1.048-5.993-3.054-7.38-6.268-1.292-2.993-1.571-6.527-1.116-9.734.98-6.906,6.259-12.173,13.179-13.144,6.297-.884,13.366,2.055,16.551,7.693s2.562,14.824-2.518,19.228c-4.902,4.25-12.877,4.009-18.716,2.224-2.467-.754-3.522,3.105-1.063,3.857,6.645,2.032,15.077,2.056,20.998-2.01,7.001-4.808,8.866-15.339,5.851-22.967-3.057-7.734-11.377-12.493-19.569-12.155-8.375.346-15.942,5.853-18.126,14.068-1.186,4.459-1.082,9.569.621,13.885,1.837,4.657,5.508,7.668,10.226,9.179,2.457.787,3.509-3.074,1.063-3.857Z"/><path class="q" d="M184.77,263.148c1.37.079,2.714.076,3.877.752,1.14.663,1.919,1.861,2.344,3.083,1.145,3.295.734,6.977.147,10.342-.185,1.063.285,2.155,1.397,2.46.964.265,2.274-.327,2.46-1.397.75-4.297,1.287-9.055-.432-13.2-.797-1.921-2.065-3.685-3.897-4.742-1.803-1.04-3.866-1.181-5.896-1.299-1.079-.062-2,.964-2,2,0,1.135.917,1.937,2,2h0Z"/><g id="j"><path class="q" d="M149.103,320.498h-.003c.336.091.673.182,1.009.273-10.975-6.337-21.945-12.683-32.918-19.024-1.716-.992-3.432-1.984-5.148-2.975l.919,2.259.003-.02c.147-1.069-.259-2.147-1.397-2.46-.934-.257-2.312.32-2.46,1.397l-.003.02c-.123.892.081,1.775.919,2.259,11.146,6.437,22.288,12.881,33.431,19.321,1.103.638,2.207,1.275,3.31,1.913.659.381,1.551,1.069,2.337,1.038,2.565-.101,2.578-4.102,0-4h0Z"/></g><g id="k"><path class="q" d="M223.911,250.913c9.029,5.213,18.058,10.428,27.087,15.642,1.475.852,2.95,1.704,4.426,2.556.623.36,1.396.36,2.019,0,6.311-3.644,12.62-7.293,18.93-10.94.96-.555,1.92-1.11,2.88-1.664,1.298-.749,1.297-2.704,0-3.454-8.829-5.104-17.662-10.201-26.494-15.301-1.672-.966-3.344-1.931-5.016-2.897-.623-.36-1.396-.36-2.019,0-6.312,3.645-12.622,7.293-18.933,10.94-.96.555-1.92,1.109-2.88,1.664-.829.479-1.07,1.376-.919,2.259h0c.182,1.067,1.494,1.664,2.46,1.398,1.128-.31,1.579-1.392,1.397-2.46h0c-.306.752-.613,1.505-.919,2.258,6.295-3.635,12.587-7.273,18.881-10.91.977-.565,1.954-1.129,2.932-1.694h-2.019c8.949,5.167,17.897,10.335,26.845,15.503,1.555.898,3.11,1.796,4.665,2.695v-3.454c-6.288,3.631-12.573,7.266-18.859,10.899-.983.568-1.967,1.137-2.951,1.705h2.019c-9.114-5.262-18.228-10.526-27.342-15.789-1.39-.803-2.78-1.606-4.171-2.408-2.233-1.289-4.25,2.166-2.019,3.454Z"/></g><path class="o" d="M261.449,248.102c-.051-.117-.09-.242-.115-.374-.074-.379.133-1.025.469-1.231.248-.151.489-.171.674-.393.069-.083.105-.187.132-.291.329-1.267-.534-2.569-.569-3.875-.009-.348.08-.728.316-.99.304-.337.734-.621,1.138-.775,1.208-.46,2.475-.392,3.703.015,1.329.44,2.489,1.305,3.383,2.354-1.783,2.17-3.083,4.504-4.174,6.88l-.795.183c-1.12.258-3.534-.052-4.161-1.504Z"/><path class="q" d="M265.079,247.678c-.045.01-.105.014-.146.029-.032.012.521-.045.332-.044-.101,0-.204.018-.306.022-.228.009-.453-.009-.68-.021-.318-.017.495.1.069.008-.121-.026-.242-.047-.362-.077s-.238-.069-.357-.105c-.403-.12.308.168.039.026-.107-.056-.214-.108-.317-.171-.057-.035-.11-.079-.169-.111-.162-.09.21.162.209.159-.03-.058-.341-.389-.113-.08.279.378-.167-.416.005.027.122.313.044.119.029.054-.045-.185.011-.176.009.233.002-.343-.094.439-.016.07.029-.136.159-.291-.063.135.073-.14.249-.287-.184.146-.468.468-.053.167.171.048,2.146-1.143,1.359-3.766.899-5.602-.028-.11-.154-.428-.115-.547-.021.065.102.436.027.062-.013-.063.03-.29-.018.002-.049.298-.008.057.013.003,0,0-.179.434-.265.42.012.002.151-.149.163-.163.139-.178-.346.195.03-.024.063-.037.144-.073.201-.118.182-.14-.132.039-.139.044.126-.101.423-.141.581-.179.044-.011.211-.073.251-.055-.149-.068-.274.017-.027.004.226-.012.45-.022.677-.011.085.004.17.016.254.019.237.007-.317-.075.061.014.226.053.452.101.674.169.081.025.161.051.241.079.139.048.412.05.027-.005.154.022.349.164.486.237.182.097.359.202.531.314.086.056.171.114.255.173.04.028.303.239.106.075-.204-.171.047.046.096.088.078.067.154.136.229.206.169.157.33.322.487.49.715.767,2.115.777,2.828,0,.754-.821.763-2.01,0-2.828-1.455-1.56-3.378-2.661-5.503-2.946-2.281-.306-5.53.463-6.136,3.065-.263,1.13.064,2.25.366,3.335.064.23.106.468.171.697.078.276-.003-.353-.008-.069-.002.098-.005.21.008.307.036.268.101-.334.016-.074-.15.458,1.017-.795.458-.606-.248.084-.44.228-.644.387-.998.771-1.431,2.27-1.055,3.471.303.967.924,1.693,1.749,2.26,1.372.944,3.338,1.161,4.938.817,1.024-.22,1.716-1.473,1.397-2.46-.349-1.079-1.363-1.633-2.46-1.397h0Z"/><path class="o" d="M286.889,303.77c-1.133,1.4-3.392,2.23-5.444,2.556-1.459.232-3.845.18-5.289-.133-6.634-1.439-11.743-3.971-17.423-7.147,0,1.415,0,2.954,0,4.458l-.504-.243c-3.102-1.423-7.623-3.258-11.011-4.764-.75-.333-1.216-1.094-1.18-1.914.043-.988.089-1.964.137-2.924,1.088-6.584,6.379-10.206,12.464-11.493l28.84-3.614-.59,25.22Z"/><path class="o" d="M258.534,330.699c.068-.045.135-.091.201-.139-.002-2.302-.005-5.159-.007-8.073-1.287-.053-2.653-.1-3.837-.159-1.473-.073-3.051-.184-4.208-1.098-.35-.276-.85-1.52-1.049-2.565-.049-.298-.097-.595-.144-.892-1.316-.388-4.466.039-5.763.35-1.284.308-2.331,1.315-3.032,2.434-.328.524-.384,1.113-.425,1.73-.057.865.103,1.687.605,2.41.167.241.351.471.542.688,2.1,2.386,5.104,3.744,8.04,4.96,1.652.684,3.354,1.354,5.14,1.423,1.374.053,2.799-.319,3.938-1.069Z"/><path class="o" d="M249.759,319.209c-.049-.183-.092-.367-.125-.545-.745-4.523-1.232-8.94-1.608-13.837-.125-1.63-.17-3.984-.284-5.615l-.035-.501c3.322,1.462,7.566,3.192,10.522,4.548l.503.231c-.002,2.755-.005,5.099-.005,7.38,0,2.961.003,7.351.005,11.617-1.287-.053-2.655-.1-3.84-.159-1.473-.073-3.051-.184-4.208-1.098-.29-.229-.684-1.125-.923-2.02Z"/><path class="q" d="M258.107,280.236c-6.025,1.314-11.573,4.992-13.447,11.116-.509,1.661-.661,3.494-.622,5.23.05,2.248,1.478,3.344,3.373,4.169,3.266,1.421,6.569,2.756,9.809,4.236.982.448,2.153.28,2.736-.718.503-.86.27-2.286-.718-2.736-2.821-1.288-5.691-2.466-8.541-3.689-.627-.269-1.254-.54-1.879-.814-.189-.083-.818-.38-.809-.362.072.142.047-.521.044-.456.071-1.418.102-2.72.553-4.077,1.539-4.633,6.062-7.06,10.564-8.042,2.514-.548,1.45-4.405-1.063-3.857h0Z"/><path class="q" d="M258.61,327.681c-1.085,2.07-3.512,2.368-5.587,1.824-2.659-.697-5.423-1.956-7.733-3.44-1.532-.984-4.184-2.965-2.54-4.962,1.312-1.592,4.125-1.59,6.02-1.457,1.079.076,2-.974,2-2,0-1.146-.918-1.924-2-2-1.315-.092-2.632.064-3.932.25-1.23.176-2.442.417-3.49,1.131-2.621,1.785-3.951,5.138-2.514,8.118,1.213,2.515,4.037,4.297,6.444,5.506,2.721,1.367,5.73,2.767,8.786,3.075,3.133.316,6.509-1.182,8.001-4.027,1.194-2.278-2.257-4.302-3.454-2.019h0Z"/><path class="q" d="M245.742,299.213c.375,5.702.707,11.358,1.51,17.024.345,2.431.503,5.641,2.876,7.022,2.48,1.444,5.875,1.118,8.639,1.229,2.574.104,2.569-3.896,0-4-1.292-.052-2.585-.094-3.876-.161-.944-.049-2.092-.046-2.901-.613.25.175.122.236.037-.05-.064-.214-.169-.424-.237-.641-.177-.57-.271-1.149-.364-1.738-.194-1.229-.373-2.461-.529-3.696-.605-4.787-.839-9.569-1.155-14.377-.168-2.555-4.169-2.574-4,0h0Z"/><path class="q" d="M256.719,310.896c0,7.317.016,14.635.016,21.952,0,2.574,4,2.578,4,0,0-7.317-.016-14.635-.016-21.952,0-2.574-4-2.578-4,0h0Z"/><path class="o" d="M240.707,258.264c-.987-.105-1.948-.367-2.926-.191-1.135.204-2.151.791-2.969,1.604-.801.796-1.157,2.202-1.271,3.531-.07.818.089,1.659.444,2.399.24.5.608.986.999,1.379,1.625,1.633,4.903,4.058,6.688,5.008.116-.208.3-.39.475-.553,2.649-2.468,5.298-4.936,7.948-7.404.183-.171.465-.257.706-.329.086-.026.177-.04.269-.043l-.847-1.393-2.077-3.374c-.554-.9-1.251-1.895-2.301-2.013-1.199-.134-2.174.942-3.334,1.273-.616.176-1.215.169-1.804.106Z"/><path class="q" d="M251.951,261.263c-1.636-2.658-3.677-7.55-7.667-6.151-.756.265-1.377.739-2.105,1.047-.439.186-1.11.148-1.671.079-1.02-.126-1.957-.288-2.984-.131-.867.133-1.71.438-2.471.879-3.199,1.854-4.415,6.179-2.851,9.508.63,1.341,1.773,2.351,2.892,3.284,1.152.961,2.353,1.872,3.592,2.718,2.781,1.899,6.135,3.167,9.334,1.354,2.239-1.269.226-4.726-2.019-3.454-.839.475-1.764.422-2.699.133-.161-.05-.326-.129-.489-.172.018.005.367.2.195.077-.134-.096-.316-.158-.463-.239-.413-.226-.813-.476-1.208-.732-1.754-1.137-3.325-2.292-4.811-3.762-.796-.788-1.114-1.638-.96-2.758.13-.951.353-1.675,1.063-2.219.92-.705,1.846-.767,2.952-.608,1.595.229,3.016.252,4.504-.45.299-.141.583-.309.871-.47.151-.085.584-.254.612-.299.032-.052.183-.052.001-.032-.153.017-.052-.185-.011-.011.018.075.049.016.126.083.114.098.219.216.314.332.854,1.049,1.709,2.734,2.497,4.014,1.347,2.188,4.808.181,3.454-2.019h0Z"/><path class="m" d="M258.735,265.159c-.061.104-.123.207-.185.31-.131.216-.288.449-.533.51-.214.054-.437-.034-.634-.134-1.481-.752-3.537-.953-5.674-1.932-.21-.096-.661-.194-1.025-.086-.24.071-.522.158-.706.329-2.649,2.468-5.298,4.936-7.948,7.404-.314.293-.654.648-.622,1.076.023.307.236.562.439.794,1.701,1.942,3.464,3.843,5.499,5.433,3.197,2.499,6.822,4.326,10.407,4.143,2.385-.122,5.038-1.129,7.062-2.562-.104,1.432-.206,2.868-.304,4.303-.034.53-.076,1.09.168,1.55.286.53.858.84,1.429,1.08,4.708,2.08,9.829,1.85,15.639.51,1.27-.28,3.708-1.24,4.835-1.9,4.088-2.37,13.869-7.036,18.144-13.992,1.347-2.193,1.391-8.608,1.159-12.461-.39-5.284-1.414-11.899-3.964-16.724-1.55-2.932-4.728-5.289-7.395-6.521-1.193-.664-2.837-.731-4.253-.587-5.308.541-9.708,2.39-14.516,4.702-2.677,1.287-4.132,1.936-6.265,4.004-.089.096-.178.193-.265.291-5.664,6.315-6.804,14.18-10.494,20.461Z"/><path class="q" d="M267.815,243.284c-2.857,3.242-4.785,6.974-6.426,10.941-.734,1.775-1.404,3.577-2.144,5.349-.367.88-.757,1.751-1.179,2.605-.219.444-.447.884-.687,1.318-.119.216-.241.431-.366.644-.256.384-.258.42-.005.111l1.009-.273c-.01,0-.818-.374-1.056-.458-.474-.167-.961-.297-1.445-.432-1.12-.313-2.178-.736-3.275-1.104-2.572-.863-4.349,1.383-6.025,2.944-1.896,1.767-3.925,3.46-5.717,5.332-.749.782-1.268,1.797-1.019,2.906.244,1.084,1.144,1.904,1.861,2.699,3.156,3.496,6.83,6.679,11.314,8.309,4.182,1.52,8.732.776,12.479-1.542,4.257-2.634,6.934-7.344,9.845-11.278.643-.869.144-2.233-.718-2.736-1.018-.595-2.092-.154-2.736.718-3.463,4.68-6.662,10.597-12.971,11.586-2.942.461-5.777-.792-8.194-2.356-1.38-.893-2.641-1.926-3.824-3.064-.602-.579-1.183-1.179-1.75-1.791-.31-.334-.616-.673-.919-1.013l-.302-.341c-.358-.45-.397-.46-.115-.029l-.273,1.009c.378-.75,1.449-1.462,2.076-2.047.843-.785,1.686-1.571,2.529-2.356s1.686-1.571,2.529-2.356c.151-.141.693-.787.756-.8.132-.026.751.336.962.415.916.345,1.863.588,2.803.856.785.224,1.551.654,2.332.848,2.095.52,3.111-1.312,3.935-2.872,3.316-6.276,4.746-13.468,9.546-18.914,1.696-1.925-1.122-4.764-2.828-2.828h0Z"/><path class="q" d="M273.898,235.314c-3.274-1.048-5.993-3.054-7.38-6.268-1.292-2.993-1.571-6.527-1.116-9.734.98-6.906,6.259-12.173,13.179-13.144,6.297-.884,13.366,2.055,16.551,7.693s2.562,14.824-2.518,19.228c-4.902,4.25-12.877,4.009-18.716,2.224-2.467-.754-3.522,3.105-1.063,3.857,6.645,2.032,15.077,2.056,20.998-2.01,7.001-4.808,8.866-15.339,5.851-22.967-3.057-7.734-11.377-12.493-19.569-12.155-8.375.346-15.942,5.853-18.126,14.068-1.186,4.459-1.082,9.569.621,13.885,1.837,4.657,5.508,7.668,10.226,9.179,2.457.787,3.509-3.074,1.063-3.857Z"/><path class="q" d="M314.842,307.981c0,8.289.008,16.578.008,24.867,0,2.574,4,2.578,4,0,0-8.289-.008-16.578-.008-24.867,0-2.574-4-2.578-4,0h0Z"/><path class="q" d="M285.087,326.114v23.909c0,2.574,4,2.578,4,0v-23.909c0-2.574-4-2.578-4,0h0Z"/><path class="q" d="M279.001,263.919c.794-3.473-.136-7.342-3.198-9.412-.869-.587-2.254-.195-2.736.718-.534,1.011-.21,2.109.718,2.736.082.055.16.12.244.172-.497-.311-.224-.173-.1-.063.146.13.284.268.414.414.065.073.124.15.188.224-.399-.462-.168-.217-.082-.091.11.161.211.329.304.501.047.086.091.174.133.262.072.15.134.457-.043-.117.058.189.14.372.198.562.117.386.197.78.252,1.178l-.071-.532c.088.708.086,1.417-.003,2.125l.071-.532c-.037.266-.085.529-.145.791-.233,1.018.312,2.213,1.397,2.46,1.018.232,2.211-.306,2.46-1.397h0Z"/><path class="q" d="M308.071,268.326c.308-6.281-.212-12.824-1.67-18.936-1.141-4.781-2.994-9.283-6.96-12.389-2.075-1.625-4.474-3.116-7.156-3.329-2.821-.224-5.875.509-8.559,1.324-3.098.94-6.061,2.285-8.976,3.681-2.531,1.212-5.015,2.501-6.935,4.607-1.731,1.899,1.09,4.736,2.828,2.828,1.459-1.601,3.292-2.615,5.22-3.546,2.325-1.124,4.66-2.235,7.094-3.106,2.465-.882,5.086-1.617,7.71-1.792,2.34-.156,4.197.863,6.035,2.238,3.507,2.623,4.914,6.598,5.881,10.714.876,3.729,1.283,7.549,1.453,11.371.094,2.106.138,4.228.035,6.336-.126,2.573,3.874,2.566,4,0h0Z"/><path class="r" d="M294.228,208.439c-1.893-1.732-4.334-3.14-7.867-3.907-6.096-1.324-12.47-.094-17.155,4.105-3.297,2.955-5.48,7.111-6.106,11.49,2.803.324,5.293-.057,7.458,1.784,1.454,1.237,2.326,3.051,2.742,4.914.971,4.345.047,9.016-.788,13.143.481.624,1.304.912,2.032,1.278,3.289,1.649,10.372,3.232,19.099-.607,1.435-.631,3.449-2.018,4.375-3.282.822-1.121,1.692-3.075,1.958-4.667.585-3.5,1.056-7.135-.103-13.7-.48-2.717-2.063-7.272-5.647-10.55Z"/><path class="q" d="M295.642,207.025c-5.433-4.871-13.748-6.224-20.623-3.968-7.332,2.406-12.677,8.94-13.848,16.538-.212,1.378.531,2.385,1.929,2.532,2.888.303,5.768-.032,7.4,2.848,1.66,2.929,1.365,6.836.899,10.034-.234,1.602-.886,3.351-.886,4.959,0,1.672,1.919,2.489,3.196,3.09,2.044.96,4.166,1.512,6.405,1.785,5.96.725,13.076-.709,17.793-4.552,4.279-3.486,4.842-9.973,4.66-15.135-.235-6.682-1.893-13.402-6.925-18.13-1.875-1.762-4.709,1.061-2.828,2.828,5.247,4.93,6.307,12.801,5.611,19.658-.15,1.473-.345,2.981-.843,4.379-.653,1.833-1.744,3.133-3.38,4.17-3.282,2.08-7.607,2.982-11.459,2.954-1.709-.012-3.386-.228-5.031-.695-1.251-.356-2.84-.729-3.784-1.766l.514,1.946c1.038-5.139,2.244-10.977.215-16.034-.873-2.176-2.354-4.175-4.526-5.185-2.214-1.03-4.655-.904-7.031-1.153l1.929,2.532c.956-6.202,4.964-11.747,11.054-13.745,5.481-1.798,12.341-.997,16.731,2.939,1.912,1.714,4.75-1.106,2.828-2.828Z"/><path class="q" d="M262.822,280.446c-.085,1.114-.165,2.227-.243,3.341-.061.875-.194,1.815.043,2.679.507,1.854,2.251,2.604,3.894,3.218,3.281,1.227,6.899,1.438,10.358,1.057,3.362-.37,6.592-1.067,9.67-2.493s5.76-3.769,7.993-6.279c1.706-1.917-1.113-4.756-2.828-2.828-1.843,2.071-3.912,3.915-6.36,5.244-2.249,1.221-4.762,1.792-7.27,2.191-2.694.429-5.535.535-8.209-.069-.712-.161-1.415-.364-2.102-.611-.272-.098-1.277-.474-1.288-.495-.228-.417.099-1.599.134-2.094.067-.955.137-1.909.21-2.863.196-2.567-3.805-2.555-4,0h0Z"/><path class="q" d="M333.703,256.025c5.113,2.886,10.347,5.605,16.018,7.222,4.923,1.403,11.863,2.128,15.666-2.189,1.696-1.925-1.123-4.765-2.828-2.828-1.425,1.618-3.851,2.08-5.918,2.11-2.447.036-4.759-.588-7.08-1.316-4.887-1.533-9.394-3.944-13.838-6.452-2.245-1.267-4.263,2.187-2.019,3.454h0Z"/><path class="p" d="M316.849,306.688c0-11.056-.016-37.829-.016-44.693,0-1.296-1.376-2.112-2.512-1.488-6.112,3.392-18.064,10.32-24.592,14.224-1.552.928-2.512,2.592-2.512,4.4v24.309c-.202.203-.329.33-.329.33-1.133,1.4-3.392,2.23-5.444,2.556-1.459.232-3.845.18-5.289-.133-6.634-1.439-11.743-3.971-17.424-7.147,0,6.618,0,11.799,0,11.799,5.39,3.109,20.486,11.776,25.474,14.659,1.41.815,3.714.814,5.124,0,5.409-3.124,17.902-10.339,24.991-14.433,1.57-.907,2.528-2.569,2.528-4.382"/><path class="q" d="M289.217,314.328v-32.861c0-1.467-.271-3.165.751-4.366.553-.65,1.415-1.029,2.137-1.458.878-.522,1.758-1.041,2.638-1.56,4.001-2.357,8.017-4.69,12.043-7.003,1.851-1.064,3.704-2.123,5.562-3.173.765-.432,1.531-.864,2.298-1.292.134-.075.335-.159.462-.257.47-.366.127.049-.014-.082-.32-.297-.237-.305-.26.123-.139,2.601.001,5.248.002,7.852.002,3.785.003,7.571.005,11.356.004,8.36.008,16.72.009,25.08,0,2.574,4,2.578,4,0,0-14.778.252-29.582-.016-44.358-.043-2.396-1.898-4.506-4.463-3.948-.969.211-1.866.847-2.723,1.328-.911.512-1.821,1.027-2.729,1.543-4.287,2.437-8.556,4.906-12.813,7.394-1.922,1.123-3.842,2.251-5.757,3.387-2.064,1.225-3.93,2.434-4.753,4.827-.576,1.674-.378,3.587-.378,5.335v32.132c0,2.574,4,2.578,4,0h0Z"/><path class="q" d="M256.619,300.152c5.113,2.886,10.347,5.605,16.018,7.222,4.923,1.403,11.863,2.128,15.666-2.189,1.696-1.925-1.123-4.765-2.828-2.828-1.425,1.618-3.851,2.08-5.918,2.11-2.447.036-4.759-.588-7.08-1.316-4.887-1.533-9.394-3.944-13.838-6.452-2.245-1.267-4.263,2.187-2.019,3.454h0Z"/><path class="q" d="M256.732,300.914v9.931c0,.702.381,1.375.991,1.727,7.587,4.376,15.186,8.731,22.775,13.102,1.705.982,3.351,2.139,5.35,2.372,2.664.311,4.657-.912,6.858-2.183,4.41-2.547,8.82-5.094,13.231-7.641,2.528-1.46,5.057-2.92,7.585-4.38,1.258-.727,2.597-1.381,3.568-2.494,1.146-1.313,1.7-2.93,1.761-4.66.09-2.575-3.91-2.571-4,0-.083,2.353-2.418,3.164-4.177,4.18-2.144,1.238-4.288,2.476-6.432,3.714-4.27,2.466-8.54,4.932-12.81,7.398-1.518.877-3.191,2.284-5.032,2.12-1.44-.128-2.869-1.298-4.096-2.005-3.754-2.162-7.509-4.32-11.265-6.479s-7.532-4.328-11.295-6.499l.991,1.727v-9.931c0-2.574-4-2.578-4,0h0Z"/><path class="p" d="M240.388,351.643c0-11.056-.016-37.829-.016-44.693,0-1.296-1.376-2.112-2.512-1.488-6.112,3.392-18.064,10.32-24.592,14.224-1.552.928-2.512,2.592-2.512,4.4,0,4.856,0,15.428,0,24.316l-.329.324c-1.133,1.4-3.392,2.23-5.444,2.556-1.459.232-3.845.18-5.289-.133-6.634-1.439-11.743-3.971-17.424-7.147,0,6.618,0,11.799,0,11.799,5.39,3.109,20.486,11.776,25.474,14.659,1.41.815,3.714.814,5.124,0,5.409-3.124,17.902-10.339,24.991-14.433,1.57-.907,2.528-2.569,2.528-4.382"/><path class="q" d="M212.756,360.61v-32.901c0-1.339-.179-2.83.041-4.153.325-1.959,2.54-2.776,4.057-3.673,3.99-2.36,7.997-4.692,12.013-7.007,1.963-1.131,3.928-2.258,5.898-3.377.854-.485,1.71-.969,2.566-1.45.362-.203.724-.406,1.087-.608-.028.016.452-.229.452-.251-.002.242-.466-.094-.457-.097-.123.034.083-.247-.04.055-.034.083,0,.262,0,.35,0,.234,0,.467,0,.701,0,.583,0,1.167,0,1.75,0,1.485,0,2.97.002,4.455.002,3.833.003,7.665.005,11.498.004,8.58.009,17.16.009,25.741,0,2.574,4,2.578,4,0,0-8.028-.004-16.056-.008-24.085-.002-4.117-.004-8.234-.005-12.352-.001-2.821.231-5.759-.03-8.57-.272-2.93-3.317-4.037-5.717-2.777-1.813.951-3.577,2.009-5.355,3.023-4.363,2.489-8.71,5.008-13.044,7.548-1.873,1.098-3.753,2.187-5.61,3.314-2.335,1.417-3.777,3.57-3.862,6.342-.104,3.367,0,6.755,0,10.123v26.4c0,2.574,4,2.578,4,0h0Z"/><path class="q" d="M180.158,345.108c5.113,2.886,10.347,5.605,16.018,7.222,4.923,1.403,11.863,2.128,15.666-2.189,1.696-1.925-1.123-4.765-2.828-2.828-1.425,1.618-3.851,2.08-5.918,2.11-2.447.036-4.759-.588-7.08-1.316-4.887-1.533-9.394-3.944-13.838-6.452-2.245-1.267-4.263,2.187-2.019,3.454h0Z"/><path class="q" d="M180.271,345.869v9.931c0,.702.381,1.375.991,1.727,7.587,4.376,15.186,8.731,22.775,13.102,1.705.982,3.351,2.139,5.35,2.372,2.664.311,4.657-.912,6.858-2.183,4.41-2.547,8.82-5.094,13.231-7.641,2.528-1.46,5.057-2.92,7.585-4.38,1.258-.727,2.597-1.381,3.568-2.494,1.146-1.313,1.7-2.93,1.761-4.66.09-2.575-3.91-2.571-4,0-.083,2.353-2.418,3.164-4.177,4.18-2.144,1.238-4.288,2.476-6.432,3.714-4.27,2.466-8.54,4.932-12.81,7.398-1.518.877-3.191,2.284-5.032,2.12-1.44-.128-2.869-1.298-4.096-2.005-3.754-2.162-7.509-4.32-11.265-6.479s-7.532-4.328-11.295-6.499l.991,1.727v-9.931c0-2.574-4-2.578-4,0h0Z"/></g></svg>