<svg xmlns="http://www.w3.org/2000/svg" width="265.137" height="273.06" viewBox="0 0 265.137 273.06"><defs><style>.a{fill:none;}.b{fill:#645d5c;}.c{fill:#fff;}.d{fill:#7abee6;}.e{fill:#211715;}</style></defs><path class="a" d="M222.022,23.834c6.555,7.04,9.44,14.735,11.014,23.983a45.631,45.631,0,0,1,.212,14.069c-.72,5.019-2.008,16.862-6.239,22.918"/><path class="a" d="M213.787,16.689C202.631,7.44,191.86,4.591,180.9,4.312c-17.366-.443-31.785,5.189-41.94,15.468-5.863,5.934-10.43,14.857-12.532,22.957a84.959,84.959,0,0,0-1.605,29.1"/><path class="b" d="M195.547,125.2c13.388,4.5,29.512,1.518,38.255-10.207,7.67-10.286,5.791-22,4.023-33.822-.91-6.081-2.25-12-2.732-18.445-.709-9.474-2.048-21.31-5.627-29.517-2.681-6.136-8.378-15.676-17.575-20.353l-5.828-3.643L204.8,8.416a63.249,63.249,0,0,0-25.058-5.955c-17.408-.761-32.155,6.573-39.33,12.846-8.047,7.856-11.579,15.9-15.872,31.172-2.443,8.761-4.953,17.511-6.828,26.416-1.872,8.887-3.049,18.406-.491,27.292,2.507,8.708,8.494,14.141,16.839,17.128Z"/><path class="c" d="M226.784,82.6c-.432-1.227-1.584-3.408-5.17-4.279a7.367,7.367,0,0,0-5.405.7,16.422,16.422,0,0,1-2.346.175c-1.268.034-3.132.157-5.023.049l-.5-1.147C202.2,64.18,188.28,47.364,179.2,39.694a165.867,165.867,0,0,1-14,11.808,90.484,90.484,0,0,1-15.19,8.8,89.981,89.981,0,0,1-12.25,4.55,74.891,74.891,0,0,1-12.869,2.288c.365,7.621.358,15.241.51,22.243.159,7.326,1.244,14.3,3.89,20.286a30.117,30.117,0,0,0,6.49,9.5,37.87,37.87,0,0,0,17.541,10.159v5.7c.055,3.33-3.511,5.2-6.324,6.166.077,3.768.526,10.577,1.185,18.774a59.318,59.318,0,0,0,21.978,2.684,59.1,59.1,0,0,0,21.9-4.351c2.886-6.776,5.594-13.27,8.023-19.21a11.119,11.119,0,0,1-4.24-4.516,22.243,22.243,0,0,1-1.38-5.33,56.886,56.886,0,0,1-.58-7.04l0-1.391,3.562-2.716a61.7,61.7,0,0,0,7.59-7.948s2.234-2.864,3.218-4.526c0,0,.259-.437.664-1.116a14.045,14.045,0,0,0,7.7-.892,19.3,19.3,0,0,0,8.015-7.911C226.743,92.257,228.075,86.272,226.784,82.6Z"/><path class="d" d="M100.032,169.282a48.182,48.182,0,0,1,10.3-11.847c5.9-4.805,13.164-7.74,20.259-10.389,4.286-1.7,12.4-4.084,16.414-5.856.288,14.127,5.812,71,8,83.525h6.146c13.114-24.744,28.608-60.359,39.033-85.842,20.115,9.263,44.752,16.193,55.664,37.432,6.592,12.832,7.093,29.845,6.793,44.458a415.867,415.867,0,0,1-4.051,49.958H53.422a437.106,437.106,0,0,0-12.557-48.441L78.2,210.738a2.157,2.157,0,0,1,3.3,1.594l4.471,12.285c1.858-13.452,2.9-27.281,7.136-40.271A68.06,68.06,0,0,1,100.032,169.282Z"/><path class="e" d="M150.925,135.024a2.312,2.312,0,0,1-.75,1.694,8.327,8.327,0,0,1-2.269,1.529,47.1,47.1,0,0,1-5.2,2.052c-4.235,1.52-8.567,2.785-12.756,4.432a2.473,2.473,0,0,0-1.676,2.953,2.418,2.418,0,0,0,2.952,1.676c4.665-1.835,9.5-3.189,14.192-4.96q.775-.292,1.542-.606c.634-.261.946-.389,1.331-.526a16.134,16.134,0,0,0,3.33-1.6,8.081,8.081,0,0,0,4.1-6.641c.05-3.09-4.75-3.091-4.8,0Z"/><path class="c" d="M154.256,219.739c-1.753-12.986-4.5-40.293-6.066-59.766l.24.076a59.059,59.059,0,0,0,21.734,2.6,58.965,58.965,0,0,0,21.905-4.357c-9.48,22.239-20.9,47.51-30.923,66.427H155C154.782,223.467,154.531,221.78,154.256,219.739Z"/><path class="e" d="M197.591,138.9c-9.261,22.6-19,45.031-29.643,67.013-2.862,5.911-5.8,11.785-8.874,17.589l2.072-1.189H155l2.314,1.762c-.28-1.614-.507-3.236-.728-4.859-.047-.345.059.447.012.1-.016-.124-.033-.247-.049-.371-.033-.254-.067-.508-.1-.762q-.111-.855-.218-1.709-.235-1.878-.459-3.758c-.71-5.974-1.352-11.956-1.967-17.941-1.338-13.016-2.567-26.048-3.554-39.1-.364-4.82-.747-9.653-.85-14.487-.066-3.085-4.866-3.1-4.8,0,.219,10.321,1.3,20.66,2.224,30.935,1.168,13.028,2.448,26.05,3.965,39.043.553,4.733,1.08,9.488,1.9,14.185A2.415,2.415,0,0,0,155,227.115h6.146a2.393,2.393,0,0,0,2.073-1.189c11.605-21.921,21.672-44.678,31.375-67.492q3.872-9.1,7.626-18.256a2.415,2.415,0,0,0-1.676-2.953,2.461,2.461,0,0,0-2.953,1.677Z"/><path class="e" d="M130.627,152.732c-.94,1.218-1.858,2.453-2.741,3.714-.933,1.334-2.264,2.821-2.328,4.524-.053,1.405.784,2.419,1.551,3.491q1.169,1.633,2.33,3.272.542.761,1.084,1.517c.165.229.69,1.253.951,1.311l.085.117a1.05,1.05,0,0,1,.3-1.125s-.049.061-.057.066c-.114.061-.233.266-.319.366l-2.8,3.21-2.895,3.325a4.873,4.873,0,0,0-1.48,4.52c.912,4.446,2.078,8.855,3.113,13.273q2.138,9.117,4.272,18.235c.7,3.006,5.333,1.733,4.628-1.276q-3.464-14.8-6.935-29.592l-.278-1.186c-.34-1.451.116-.038-.525.109.163-.038.5-.575.6-.689L132,176.682c1.825-2.1,5.506-5.05,3.868-8.143a29.023,29.023,0,0,0-2.17-3.071q-1.222-1.713-2.442-3.43c-.166-.231-.331-.462-.5-.692l-.279-.387q-.408-.725-.234.582c.032.016,1.127-1.714,1.262-1.912,1.041-1.526,2.138-3.012,3.266-4.475a2.413,2.413,0,0,0-.861-3.283,2.462,2.462,0,0,0-3.284.861Z"/><path class="e" d="M209.321,153.335a43.454,43.454,0,0,1,3.485,7.054c.458,1.215.864,2.449,1.2,3.7a5.161,5.161,0,0,1,.21.812c0-.006-1.588.745.056-.3a6.432,6.432,0,0,1-.968.4c-1.218.455-2.438.905-3.65,1.376-1.264.49-2.895.9-3.858,1.9a3.833,3.833,0,0,0-.932,3.534c.349,1.342,1.47,2.312,2.344,3.335.824.965,1.635,1.94,2.454,2.908q.638.754,1.283,1.5c.185.212.37.424.557.635l.274.308q.645.913.252-.805c-.32-.034-1.871,2.684-2.124,3.048q-1.237,1.792-2.461,3.594c-3.057,4.5-6.054,9.042-9.056,13.58-3.518,5.316-7.05,10.622-10.67,15.869a2.423,2.423,0,0,0,.861,3.284,2.45,2.45,0,0,0,3.284-.861c6.581-9.539,12.841-19.291,19.342-28.884,1.618-2.387,3.538-4.708,4.969-7.207,1.635-2.858-.984-4.949-2.685-6.948-.871-1.023-1.73-2.056-2.6-3.08-.218-.258-1.089-1.575-1.412-1.638l-.04-.038q-.418-.426-.038,1.006-.687.525-.162.265.314-.129.627-.255c1.282-.515,2.576-1,3.87-1.479,1.349-.5,2.9-.871,3.944-1.927,2.3-2.33.926-5.669-.019-8.291a49.809,49.809,0,0,0-4.2-8.821c-1.593-2.642-5.745-.232-4.145,2.423Z"/><path class="e" d="M147.81,162.365c7.473,2.349,15.033,2.895,22.815,2.677a62.969,62.969,0,0,0,22.052-4.42,2.477,2.477,0,0,0,1.676-2.952,2.416,2.416,0,0,0-2.952-1.676,59.173,59.173,0,0,1-20.776,4.248,80.082,80.082,0,0,1-10.776-.211,55.512,55.512,0,0,1-10.763-2.3c-2.954-.928-4.218,3.7-1.276,4.629Z"/><path class="e" d="M170.551,83.653c-.43-2.416.7-7.715,5.163-7.627,5.825.752,5.339,7.266,3,10.069C176.8,88.39,171.95,88.845,170.551,83.653Z"/><path class="e" d="M135.806,80.481c-.375-2.419.7-7.74,4.792-7.688,5.333.708,4.836,7.242,2.672,10.07C141.5,85.179,137.047,85.674,135.806,80.481Z"/><path class="e" d="M153.2,87.656c-.863,1.2-1.7,2.422-2.455,3.692a4.862,4.862,0,0,0-.7,1.659,3.442,3.442,0,0,0,.062,1.7,3.7,3.7,0,0,0,.942,1.466,4.868,4.868,0,0,0,1.923,1.164c.278.093.571.119.855.187a2.524,2.524,0,0,0,1.849-.242,2.4,2.4,0,0,0-.573-4.387,7.161,7.161,0,0,1-.992-.238l.574.242a2.425,2.425,0,0,1-.5-.3l.486.375a3.439,3.439,0,0,1-.456-.455l.376.486a.7.7,0,0,1-.095-.151l.242.573a1.052,1.052,0,0,1-.064-.248l.086.638a1.023,1.023,0,0,1,0-.175l-.086.638a2.054,2.054,0,0,1,.122-.455l-.242.574a15.171,15.171,0,0,1,1.391-2.294c.457-.684.922-1.362,1.4-2.029a2.419,2.419,0,0,0,.242-1.849,2.45,2.45,0,0,0-1.1-1.435,2.423,2.423,0,0,0-1.849-.242,2.742,2.742,0,0,0-1.435,1.1Z"/><path class="e" d="M206.189,104.409a50.369,50.369,0,0,1-3.057,4.317c.663-.881-.128.142-.288.336q-.589.711-1.194,1.409-1.349,1.555-2.8,3.023-.714.721-1.454,1.418c-.268.252-.537.5-.81.746-.137.124-.275.248-.414.37q-.447.373.059,0c-.079.222-.851.555-1.038.677l-2.838,1.851a2.4,2.4,0,0,0,2.422,4.145l2.948-1.923a27.921,27.921,0,0,0,4.519-3.887,54.868,54.868,0,0,0,8.085-10.056,2.4,2.4,0,1,0-4.145-2.423Z"/><path class="e" d="M182.192,124.42a55.618,55.618,0,0,1-19.614,3.682,35.259,35.259,0,0,1-17.038-4.457,33.636,33.636,0,0,1-12.627-12.116c-3.051-5.339-4.4-11.53-4.883-17.611-.69-8.594-.324-17.281-.69-25.9-.131-3.077-4.931-3.093-4.8,0,.346,8.146.1,16.328.59,24.465.412,6.826,1.7,13.672,4.768,19.834,5.935,11.909,18.892,19.445,31.915,20.453,8.079.625,16.071-1.02,23.655-3.726a2.462,2.462,0,0,0,1.676-2.953,2.422,2.422,0,0,0-2.952-1.676Z"/><path class="e" d="M217.421,81.092a5.231,5.231,0,0,1,4.149-.293,5.441,5.441,0,0,1,1.627.789,3.779,3.779,0,0,1,.488.435,2.628,2.628,0,0,1,.311.357c.118.176.224.359.328.544.047.086.275.615.15.3s.1.348.132.451a6.911,6.911,0,0,1,.235,1.082,13.153,13.153,0,0,1-.171,3.844c-.96,5.272-4.349,10.809-9.421,13.018.443-.193-.212.057-.36.1-.347.109-.7.2-1.054.283a11.557,11.557,0,0,1-1.9.276,7.509,7.509,0,0,1-4.28-.775c-2.683-1.541-5.1,2.6-2.422,4.145,3.237,1.86,7.437,1.8,10.928.7,3.7-1.171,6.7-3.963,8.956-7.028a22.792,22.792,0,0,0,4.241-9.813c.533-3.261.615-7.03-1.421-9.83A10.261,10.261,0,0,0,215,76.948c-2.713,1.479-.293,5.625,2.423,4.144Z"/><path class="e" d="M152.388,110.019a17.143,17.143,0,0,0,11.237,1.8,23.32,23.32,0,0,0,3.8-1.342,2.454,2.454,0,0,0,1.677-2.952,2.429,2.429,0,0,0-2.953-1.677,27.14,27.14,0,0,1-3.458,1.272c-.119.027-.623.047-.69.13.054-.067.477-.051.1-.017-.154.013-.308.028-.463.039a14.583,14.583,0,0,1-1.633.014c-.262-.011-.524-.03-.785-.054-.131-.012-.262-.031-.393-.042.2.017.327.052.051.007-.545-.089-1.086-.194-1.621-.334a14.848,14.848,0,0,1-1.5-.485c-.3-.114-.052.028.085.036a1.287,1.287,0,0,1-.385-.184c-.218-.111-.431-.232-.64-.361a2.4,2.4,0,0,0-2.422,4.145Z"/><path class="c" d="M210.62,104.705a4.378,4.378,0,0,0-4.666,4.211c0,2.541,1.948,4.29,4.666,4.29,2.823,0,4.666-1.766,4.666-4.29A4.375,4.375,0,0,0,210.62,104.705Z"/><path class="e" d="M210.62,102.305a7.066,7.066,0,0,0-6.744,4.62,6.6,6.6,0,0,0,2.529,7.446,7.875,7.875,0,0,0,7.908.347,6.608,6.608,0,0,0,3.236-7.079c-.561-3.281-3.779-5.3-6.929-5.334a2.4,2.4,0,0,0,0,4.8c.14,0,.28.013.42.015.392.006-.189-.027-.233-.041.2.066.433.078.642.137.123.035.242.079.363.118.373.117-.222-.1-.228-.1a2,2,0,0,1,.635.354c.068.045.4.29.044.022s-.038-.018.024.04c.141.132.256.289.394.421-.442-.421-.25-.354-.138-.163.048.082.1.159.15.242s.081.173.131.252c.084.134-.223-.62-.051-.1.032.1.189.48.139.555-.013.019-.056-.686-.041-.294,0,.118.015.234.015.352,0,.263-.16.872.033.084-.05.2-.076.414-.138.618-.027.088-.07.177-.09.266.128-.578.2-.426.088-.218-.089.16-.179.315-.274.472-.122.2-.291.211.147-.183-.051.046-.1.112-.144.163-.075.08-.153.157-.233.23-.189.17-.377.182.143-.1-.164.088-.312.209-.477.3a1.28,1.28,0,0,1-.311.152s.61-.218.244-.112c-.2.056-.387.123-.586.167a1.786,1.786,0,0,1-.374.07l.38-.053c-.088.01-.176.017-.264.023a6.409,6.409,0,0,1-.679.007c-.088,0-.176-.014-.264-.018-.491-.021.6.115.128.018-.2-.041-.4-.085-.6-.146-.077-.023-.152-.052-.229-.076-.393-.12.58.288.031.007-.172-.087-.331-.192-.494-.294s-.189-.251.215.172c-.076-.08-.172-.147-.251-.224s-.464-.536-.184-.171.04.045-.008-.028c-.061-.094-.118-.191-.171-.289-.111-.207-.124-.477.051.163-.02-.072-.055-.144-.079-.215-.062-.186-.1-.376-.147-.567-.107-.452.037.63.023.158,0-.083-.011-.166-.013-.249,0-.12,0-.24,0-.36.017-.281.152-.379-.032.18.07-.212.11-.445.175-.661.11-.365-.111.278-.113.259-.011-.093.165-.322.213-.4s.083-.127.123-.192c.219-.358-.427.454-.059.08.144-.147.328-.288.457-.446-.345.424-.341.248-.108.091.1-.067.2-.13.308-.189.087-.049.187-.086.271-.14.169-.079.072-.04-.289.118.078-.031.157-.061.236-.088a6.787,6.787,0,0,1,.755-.192c.246-.052.158.1-.236.031a3.505,3.505,0,0,0,.558-.027,2.4,2.4,0,1,0,0-4.8Z"/><path class="e" d="M134.693,115a24.444,24.444,0,0,1-11.843-8.469c-3.522-5.006-4.667-11.208-4.7-17.231-.045-7.11,1.417-14.113,3.049-21,1.72-7.259,3.75-14.445,5.779-21.623,2.769-9.8,5.983-19.747,12.93-27.4C146.7,11.8,157.329,7.509,167.274,5.69a60.791,60.791,0,0,1,21.741.17c5.353.979,11.182,2.512,15.836,5.421,2.627,1.642,5.039-2.509,2.423-4.145-4.446-2.778-9.967-4.421-15.062-5.522a67.266,67.266,0,0,0-20.935-1.3C159.808,1.491,147.653,5.7,138.9,13.444c-8.22,7.277-12.377,17.949-15.457,28.187-2.2,7.3-4.216,14.684-6.069,22.082-1.837,7.33-3.549,14.8-3.951,22.368-.4,7.491.6,15.6,4.722,22.039,3.589,5.6,9.1,9.267,15.272,11.509a2.421,2.421,0,0,0,2.952-1.676A2.449,2.449,0,0,0,134.693,115Z"/><path class="e" d="M213.532,16.592c6.995,4.732,12.2,12.587,14.875,20.532a78.975,78.975,0,0,1,3.174,14.532c.7,5.1.9,10.243,1.553,15.344,1.332,10.417,4.28,20.876,3.828,31.452a27.226,27.226,0,0,1-4.212,13.863,26.5,26.5,0,0,1-9.29,8.575c-8.265,4.628-18.4,4.929-27.275,1.991-2.939-.974-4.2,3.66-1.276,4.628a39.6,39.6,0,0,0,27.688-.879,31,31,0,0,0,18.458-22.174,50.6,50.6,0,0,0,.216-15.806c-.679-5.769-1.7-11.481-2.658-17.208-1.814-10.857-1.746-21.928-4.673-32.614-2.83-10.335-9.022-20.317-17.986-26.381-2.565-1.735-4.97,2.422-2.422,4.145Z"/><path class="e" d="M177.619,37.9c-5.836,5.257-11.628,10.489-18.306,14.675a87.983,87.983,0,0,1-21.069,9.635,73.275,73.275,0,0,1-13.275,2.528,2.471,2.471,0,0,0-2.4,2.4,2.416,2.416,0,0,0,2.4,2.4,84.042,84.042,0,0,0,12.525-2.113,88.519,88.519,0,0,0,12.022-4.286A91.777,91.777,0,0,0,170.4,50.544c3.671-2.931,7.13-6.113,10.618-9.255,2.3-2.072-1.1-5.458-3.394-3.394Z"/><path class="e" d="M177.619,41.486a105.241,105.241,0,0,1,11.907,12.265,131.534,131.534,0,0,1,11.681,16.061,81.688,81.688,0,0,1,5.055,9.5,2.419,2.419,0,0,0,3.284.861,2.46,2.46,0,0,0,.861-3.284,96.586,96.586,0,0,0-10.025-16.953,146.827,146.827,0,0,0-12.652-15.39,88.345,88.345,0,0,0-6.717-6.451,2.463,2.463,0,0,0-3.394,0,2.421,2.421,0,0,0,0,3.394Z"/><path class="e" d="M191.489,122.2a51.128,51.128,0,0,0,1.155,10.239,13.3,13.3,0,0,0,2.027,4.863,17.28,17.28,0,0,0,4.227,3.87,2.4,2.4,0,0,0,2.422-4.145,12.682,12.682,0,0,1-1.554-1.206c-.262-.239-.516-.488-.756-.75-.116-.125-.229-.253-.337-.384.154.187-.025-.031-.075-.1a11.159,11.159,0,0,1-1.462-4.017c-.169-.782-.3-1.57-.409-2.362-.059-.435.036.29-.015-.126-.02-.163-.041-.326-.06-.49q-.055-.477-.1-.956c-.143-1.473-.209-2.952-.261-4.431a2.4,2.4,0,1,0-4.8,0Z"/><path class="c" d="M171.585,268.7a121.656,121.656,0,0,0,9.768-24.048,1.6,1.6,0,0,0-.777-1.8c-2.218-1.246-5.715-3.563-6.485-5.115-3.095-6.238-7.263-8.468-12.9-12.688a97.15,97.15,0,0,0-8.642-5.731c-1.877-1.144-5.164-3.656-7.423-3.849s-3.47-.129-4.752,1.76a3.875,3.875,0,0,0-.611,3.767,14.867,14.867,0,0,0,3.063,4.02c1.319,1.365,2.925,2.82,4.312,4.289a151.205,151.205,0,0,0-15.226-.756,6.874,6.874,0,0,0-3.837.969,6.791,6.791,0,0,0-2.2,2.609,5.254,5.254,0,0,0,0,4.19,11.433,11.433,0,0,0,3.317,4.21c-1.206,3.632-2.1,5.47-.907,9.16,1.351,4.17,2.116,9.39,4.828,13.244A10.278,10.278,0,0,0,136,265.832a11.686,11.686,0,0,0,3.49,1.2c7.115,1.038,16.829.591,23.566,1.371a33.716,33.716,0,0,1,5.919,2.116,1.613,1.613,0,0,0,2.031-.73Q171.3,269.242,171.585,268.7Z"/><path class="c" d="M225.18,207.235c.642-3.458,1.194-6.459,1.578-8.609a2.819,2.819,0,0,0-2.073-3.223c-14.911-3.817-53.6-12.335-66.432-15.224a2.821,2.821,0,0,0-3.362,2.129l-7.352,32.9-.191.947a55.727,55.727,0,0,1,5.2,3.161,97.15,97.15,0,0,1,8.642,5.731c5.639,4.22,9.807,6.45,12.9,12.688.77,1.552,4.267,3.869,6.485,5.115l1.86-1.791c4.516,1.481,33.3,6.344,35.445,6.021l.214-1.321.811-5.007C220.344,232.966,223.2,217.919,225.18,207.235Z"/><path class="e" d="M150,228.909c-1.815-2.154-3.958-3.992-5.893-6.033-1.275-1.344-3.325-3.434-1.2-4.941.024-.016.438-.146.269-.121a6.508,6.508,0,0,1,1.584.02,7.485,7.485,0,0,1,2.527.989c2.042,1.148,3.983,2.507,5.974,3.743,3.915,2.432,7.626,5.162,11.323,7.909a29.339,29.339,0,0,1,4.571,4.08c1.492,1.692,2.253,3.844,3.694,5.538a22.019,22.019,0,0,0,5.419,4.181c.211.129.88.7,1.1.645-.544.133-.119-1.657-.473-.371q-.125.454-.255.907-.544,1.89-1.175,3.752a123.126,123.126,0,0,1-6.519,15.47c-.194.391-1.757,3.938-2.009,3.9l.4-.3q.478-.035.151-.125c-.063-.11-.576-.24-.688-.287-.529-.22-1.057-.44-1.589-.652a20.888,20.888,0,0,0-6.48-1.427c-5.261-.39-10.544-.31-15.809-.63-2.47-.149-5.514-.076-7.707-1.4-2.232-1.347-3.474-4.283-4.277-6.636-.906-2.654-1.514-5.4-2.334-8.08a7.712,7.712,0,0,1-.384-3.67,29.563,29.563,0,0,1,1.291-4.214,2.327,2.327,0,0,0-.617-2.335c-1.3-1.01-3.084-2.808-3.049-4.592a3.426,3.426,0,0,1,2.936-3.219,36.6,36.6,0,0,1,7.028.04q3.93.148,7.847.5a2.419,2.419,0,0,0,2.4-2.4,2.449,2.449,0,0,0-2.4-2.4q-4.9-.43-9.811-.562c-2.867-.072-6.29-.469-8.836,1.154a8.256,8.256,0,0,0-3.93,7.526,11.34,11.34,0,0,0,4.421,7.347l-.618-2.335c-.974,2.91-1.884,5.623-1.338,8.728.252,1.437.789,2.835,1.172,4.242s.74,2.814,1.163,4.207a24.279,24.279,0,0,0,4.006,8.194,11.97,11.97,0,0,0,8.34,4.283c5.968.757,12.008.617,18.007.9a20.577,20.577,0,0,1,6.873,1.081c1.081.409,2.136.955,3.235,1.315a4.046,4.046,0,0,0,4.547-1.547,36.417,36.417,0,0,0,2.418-4.622q1.148-2.325,2.215-4.688c1.357-3.008,2.624-6.06,3.754-9.16q.765-2.1,1.437-4.237a16.794,16.794,0,0,0,1.1-4.29c.095-3.185-3.7-4.352-5.8-5.962a8.423,8.423,0,0,1-1.788-1.72,38.086,38.086,0,0,0-2.207-3.628,28.159,28.159,0,0,0-5.411-5.439A149.219,149.219,0,0,0,155.5,218.31c-2.6-1.609-5.12-3.532-7.969-4.673-2.559-1.024-6.029-1.044-8.109.986a7.5,7.5,0,0,0-2.312,4.847,7.706,7.706,0,0,0,2.037,5.008c2.233,2.839,5.128,5.067,7.453,7.825a2.421,2.421,0,0,0,3.394,0,2.451,2.451,0,0,0,0-3.394Z"/><path class="e" d="M149.853,215.842l4.853-21.712,2.344-10.493a4.64,4.64,0,0,1,.153-.682c.28-.7.781-.379,1.431-.233q3.326.747,6.653,1.488c12.786,2.854,25.575,5.7,38.343,8.64,5.745,1.322,11.49,2.654,17.215,4.064a13.927,13.927,0,0,1,3.2.8c.354.2.315.182.35.574-.021-.235-.067.332-.093.479l-.153.847q-.759,4.184-1.543,8.363c-2.234,12-4.694,23.967-6.645,36.013l-.4,2.445,2.315-1.762a15.906,15.906,0,0,1-3.858-.331c-.177-.023-.839-.113-.3-.039-.3-.041-.605-.083-.908-.126q-.93-.131-1.86-.269-2.09-.309-4.174-.644c-5.947-.949-11.887-1.972-17.792-3.159a53.576,53.576,0,0,1-5.914-1.368c-2.947-.95-4.209,3.683-1.277,4.629,4.314,1.391,8.987,1.989,13.434,2.785,5.784,1.036,11.585,2.018,17.409,2.807a21.342,21.342,0,0,0,5.24.515,2.472,2.472,0,0,0,2.314-1.762c1.9-11.738,4.229-23.4,6.414-35.093q.885-4.739,1.759-9.477c.585-3.19,1.805-6.933-1.333-9.219A11.25,11.25,0,0,0,223,192.5q-1.86-.462-3.723-.91-4.405-1.064-8.822-2.087c-13.486-3.142-27-6.155-40.516-9.171q-3.858-.861-7.716-1.723c-1-.224-2-.459-3-.673a5.4,5.4,0,0,0-5.787,1.941,8.519,8.519,0,0,0-1.212,3.381l-1.147,5.13-5.719,25.594-.13.581c-.673,3.009,3.954,4.294,4.628,1.276Z"/><path class="e" d="M210.019,145.76c15.331,6.493,32.335,13.47,41.661,28.113,5,7.856,7.106,17.131,7.992,26.3.977,10.106.692,20.327.243,30.454q-.848,19.146-3.463,38.164a2.482,2.482,0,0,0,1.676,2.952,2.417,2.417,0,0,0,2.952-1.676c1.62-11.7,2.786-23.455,3.428-35.249a251.205,251.205,0,0,0,.2-31.9c-.716-9.788-2.471-19.772-7.149-28.51-4.267-7.969-10.822-14.348-18.267-19.362-8.328-5.607-17.639-9.532-26.847-13.432a2.483,2.483,0,0,0-3.284.861,2.418,2.418,0,0,0,.861,3.284Z"/><path class="e" d="M100.783,217.452q1.194,25.784,1.97,51.585c.093,3.081,4.893,3.094,4.8,0q-.777-25.8-1.97-51.585c-.143-3.076-4.943-3.093-4.8,0Z"/><path class="e" d="M89.475,216.115c1.466-11.742,2.988-23.643,7.236-34.765,3.6-9.428,9.437-18.458,17.945-24.136,5.113-3.413,10.838-5.711,16.569-7.854a2.467,2.467,0,0,0,1.677-2.952,2.42,2.42,0,0,0-2.953-1.677,94.717,94.717,0,0,0-15.9,7.186,46.451,46.451,0,0,0-12.57,11.176c-7.2,9.2-11.218,20.313-13.566,31.654-1.461,7.058-2.346,14.22-3.238,21.368a2.413,2.413,0,0,0,2.4,2.4,2.461,2.461,0,0,0,2.4-2.4Z"/><path class="e" d="M95.227,243.039,84.33,213.1c-.85-2.339-1.718-4.9-4.647-5.026a10.129,10.129,0,0,0-3.3.717l-4.017,1.242-15.124,4.675-17.014,5.258a2.449,2.449,0,0,0-1.676,2.953c4.055,16.18,8.291,32.315,12.557,48.441.79,2.983,5.421,1.718,4.629-1.276-4.267-16.126-8.5-32.261-12.558-48.441L41.5,224.593l27.884-8.619,7.09-2.191a18.7,18.7,0,0,0,3.1-.928c-.028.125-.556-.276-.565-.269s.165.325.171.346a20.232,20.232,0,0,0,.69,1.909l5.023,13.8,5.7,15.672a2.464,2.464,0,0,0,2.952,1.677,2.421,2.421,0,0,0,1.677-2.953Z"/><path class="c" d="M6.432,178.684a10.828,10.828,0,0,1,4.926-.077c.98.316,1.936.614,2.779.885.062-.421.111-.75.111-.75a3.637,3.637,0,0,1,1.637-2.762c1.694-1.29,4.242-.637,5.618-.256,4.886,1.354,24.746,8.936,31.309,12.958,2.259,1.384,6.332,1.493,10.275-1a72.446,72.446,0,0,1,1.428-8.115,6.78,6.78,0,0,1,3.982-5.149,5.073,5.073,0,0,1,4.365.471c1.245.806,1.939,2.846,2.286,4.288,2.336,9.707,3.19,10.57,4.106,19.949l.078.808-.671,6.374A23.3,23.3,0,0,1,71.84,220.4c-3.808,3.721-8.912,6.756-17.711,6.667-9.144-1.6-17.714-6.485-22.483-9.33-3.493-2.084-6.6-4.286-11.646-7.894-2.509-1.793-10.953-8.578-11.65-9.292-1.179-1.207-2.359-3.49-1.547-5.507a17.071,17.071,0,0,1-1.793-1.487,5.668,5.668,0,0,1-1.3-5.294c.048-.12.1-.236.155-.35-1.179-2-2.053-3.246-.969-6.118A5.045,5.045,0,0,1,6.432,178.684Z"/><path class="e" d="M65.408,188.276c.322-2.234.638-4.455,1.115-6.662.441-2.041,1.159-5.364,3.952-5.085,1.221.122,1.633.978,2,2.043a47.746,47.746,0,0,1,1.251,5.068c.78,3.43,1.507,6.874,2.105,10.34a45.251,45.251,0,0,1,.884,7.5,36.778,36.778,0,0,1-.528,5.384,21.425,21.425,0,0,1-8.579,14.008,19.736,19.736,0,0,1-6.578,3.052,23.4,23.4,0,0,1-4.29.677,16.183,16.183,0,0,1-5.425-.6,68.655,68.655,0,0,1-17-7.467A166.854,166.854,0,0,1,11,199.685c-1.055-.885-3.072-3.095-1.673-4.226,1.254-1.014,4.917,1.13,6.479,1.954A130.07,130.07,0,0,1,33.64,208.875a2.415,2.415,0,0,0,3.284-.861,2.46,2.46,0,0,0-.861-3.284,130.914,130.914,0,0,0-17.7-11.389c-2.6-1.379-5.643-3.084-8.676-2.866a6.087,6.087,0,0,0-5.274,7.956c.666,2.354,2.241,3.873,4.042,5.355q2.922,2.4,5.9,4.737A168.246,168.246,0,0,0,28.8,218.81a84.473,84.473,0,0,0,18.3,8.943,46.164,46.164,0,0,0,5.738,1.509,18.807,18.807,0,0,0,5.914-.064,25.692,25.692,0,0,0,9.275-2.919A26.084,26.084,0,0,0,80.21,210.862a41.712,41.712,0,0,0,1.136-7.257,34.273,34.273,0,0,0-.551-8.863c-.578-3.764-1.347-7.5-2.176-11.214-.763-3.425-1.188-8.31-4.3-10.531a7.525,7.525,0,0,0-9.956,1.529c-1.954,2.359-2.48,5.445-2.976,8.387-.229,1.358-.407,2.724-.6,4.087a2.48,2.48,0,0,0,1.676,2.952,2.416,2.416,0,0,0,2.952-1.676Z"/><path class="e" d="M8.015,192.974c-1.13-.863-2.408-2.051-2.1-3.653a2.424,2.424,0,0,1,2.267-1.843c1.852-.251,3.847.683,5.539,1.356a162.653,162.653,0,0,1,16.026,7.536,67.226,67.226,0,0,1,8.2,4.961,2.418,2.418,0,0,0,3.284-.861,2.456,2.456,0,0,0-.861-3.283c-5.608-4.121-12.155-7.138-18.462-10.012-2.763-1.26-5.552-2.5-8.4-3.545-2.986-1.094-6.532-1.568-9.307.346a6.928,6.928,0,0,0-3.06,6.35c.29,3.094,2.121,5.007,4.46,6.793a2.414,2.414,0,0,0,3.283-.861,2.459,2.459,0,0,0-.861-3.284Z"/><path class="e" d="M41.016,188.945a176.306,176.306,0,0,0-20.431-9.438c-5.357-2.21-13.245-6.206-18.3-1.133A8.491,8.491,0,0,0,.01,183.8a9.075,9.075,0,0,0,1.651,5.112c1.57,2.658,5.721.246,4.145-2.423-.766-1.295-1.268-2.116-.758-3.606a2.844,2.844,0,0,1,2.312-1.96c3.093-.756,6.515.975,9.4,2.163,7.394,3.048,14.878,6.028,21.834,10,2.686,1.535,5.107-2.61,2.423-4.145Z"/><path class="e" d="M16.648,178.742c.139-1.326,2.208-1.177,3.148-.974a29.237,29.237,0,0,1,2.9.836c2.667.875,5.3,1.855,7.923,2.853a181.716,181.716,0,0,1,18.385,7.863,34.173,34.173,0,0,0,4.356,2.228,12.344,12.344,0,0,0,8.266-.462,2.47,2.47,0,0,0,1.676-2.952,2.418,2.418,0,0,0-2.952-1.677c-2,.775-4.361,1.27-6.329.153-1.112-.631-2.22-1.254-3.366-1.824-3.235-1.611-6.561-3.035-9.894-4.426A189.559,189.559,0,0,0,22.78,173.6a12.018,12.018,0,0,0-5.967-.6,6.418,6.418,0,0,0-4.965,5.749,2.416,2.416,0,0,0,2.4,2.4,2.454,2.454,0,0,0,2.4-2.4Z"/><path class="e" d="M36.908,208.489l11.459-10.413a2.417,2.417,0,0,0,0-3.394,2.454,2.454,0,0,0-3.394,0L33.514,205.1a2.417,2.417,0,0,0,0,3.394,2.454,2.454,0,0,0,3.394,0Z"/></svg>