<svg fill="#000000" width="800px" height="800px" viewBox="0 -1 16 16" id="new-password-16px" xmlns="http://www.w3.org/2000/svg">
  <style>*{fill:#6EE9C2;}</style>
  <path d="M 7.435 7.194 C 7.435 5.962 7.563 4.97 7.816 4.22 C 8.069 3.47 8.446 2.89 8.945 2.484 C 9.444 2.077 10.074 1.873 10.831 1.873 C 11.39 1.873 11.88 1.985 12.301 2.21 C 12.723 2.435 13.071 2.759 13.345 3.183 C 13.62 3.607 13.835 4.123 13.992 4.732 C 14.148 5.34 14.226 6.162 14.226 7.194 C 14.226 8.414 14.101 9.401 13.85 10.151 C 13.599 10.901 13.224 11.482 12.725 11.892 C 12.225 12.301 11.594 12.506 10.831 12.506 C 9.828 12.506 9.04 12.146 8.466 11.426 C 7.78 10.56 7.435 9.149 7.435 7.194 Z M 8.75 7.194 C 8.75 8.903 8.95 10.04 9.35 10.605 C 9.75 11.172 10.243 11.454 10.831 11.454 C 11.419 11.454 11.912 11.171 12.312 10.602 C 12.711 10.034 12.912 8.898 12.912 7.194 C 12.912 5.479 12.711 4.34 12.312 3.776 C 11.912 3.213 11.414 2.931 10.817 2.931 C 10.229 2.931 9.761 3.18 9.411 3.677 C 8.969 4.311 8.75 5.484 8.75 7.194 Z"></path>
  <path d="M 3.663 12.007 L 3.663 10.662 L 1.944 10.662 L 1.944 10.086 L 3.663 10.086 L 3.663 9.492 L 1.944 9.492 L 1.944 8.88 L 3.356 8.88 L 1.673 5.934 L 2.502 5.934 L 3.704 8.072 C 3.84 8.315 3.945 8.527 4.019 8.71 C 4.083 8.563 4.196 8.338 4.359 8.035 L 5.494 5.934 L 6.381 5.934 L 4.702 8.88 L 6.115 8.88 L 6.115 9.492 L 4.409 9.492 L 4.409 10.086 L 6.115 10.086 L 6.115 10.662 L 4.409 10.662 L 4.409 12.007 L 3.663 12.007 Z"></path>
</svg>