<svg fill="#000000" width="800px" height="800px" viewBox="0 -1 16 16" id="new-password-16px" xmlns="http://www.w3.org/2000/svg">
  <style>*{fill:#6EE9C2;}</style>
  <path data-name="Path 64" d="M 39 -232 C 38.996 -228.136 35.864 -225.004 32 -225 C 28.136 -225.004 25.004 -228.136 25 -232 L 25 -233.293 L 23.854 -232.146 C 23.76 -232.052 23.633 -232 23.5 -232 C 23.367 -232 23.24 -232.052 23.146 -232.146 C 22.95 -232.341 22.95 -232.659 23.146 -232.854 L 25.146 -234.854 C 25.193 -234.9 25.248 -234.937 25.309 -234.963 C 25.431 -235.013 25.569 -235.013 25.691 -234.963 C 25.752 -234.937 25.807 -234.9 25.854 -234.854 L 27.854 -232.854 C 28.05 -232.659 28.05 -232.341 27.854 -232.146 C 27.76 -232.052 27.633 -232 27.5 -232 C 27.367 -232 27.24 -232.052 27.146 -232.146 L 26 -233.293 L 26 -232 C 26.003 -228.688 28.688 -226.003 32 -226 C 35.312 -226.003 37.997 -228.688 38 -232 C 37.997 -235.312 35.312 -237.997 32 -238 C 31.724 -238 31.5 -238.224 31.5 -238.5 C 31.5 -238.776 31.724 -239 32 -239 C 35.864 -238.996 38.996 -235.864 39 -232 Z" transform="translate(-23 239)"></path>
  <path d="M 3.772 8.53 L 3.772 4.951 L 4.475 4.951 L 5.94 7.341 L 5.94 4.951 L 6.611 4.951 L 6.611 8.53 L 5.886 8.53 L 4.443 6.196 L 4.443 8.53 Z M 7.376 8.53 L 7.376 4.951 L 10.029 4.951 L 10.029 5.556 L 8.098 5.556 L 8.098 6.35 L 9.895 6.35 L 9.895 6.953 L 8.098 6.953 L 8.098 7.927 L 10.098 7.927 L 10.098 8.53 Z M 11.218 8.53 L 10.364 4.951 L 11.103 4.951 L 11.643 7.409 L 12.297 4.951 L 13.157 4.951 L 13.784 7.451 L 14.333 4.951 L 15.061 4.951 L 14.192 8.53 L 13.425 8.53 L 12.712 5.854 L 12.002 8.53 Z" transform="matrix(0.901733, 0, 0, 1, 1.177782, 0)"></path>
</svg>