<svg viewBox="0 0 60 60" xmlns="http://www.w3.org/2000/svg">
<style>*{fill:#6EE9C2;}</style>
<path d="M28,4 C12.561,4 7.10542736e-15,16.561 7.10542736e-15,32 C7.10542736e-15,33.012 0.059,34.058 0.176,35.11 C0.237,35.659 0.735,36.05 1.28,35.994 C1.829,35.933 2.225,35.438 2.164,34.89 C2.055,33.91 2,32.938 2,32 C2,17.664 13.664,6 28,6 C42.337,6 54,17.664 54,32 C54,46.336 42.337,58 28,58 C23.179,58 18.47,56.668 14.382,54.149 C13.913,53.858 13.296,54.005 13.006,54.475 C12.716,54.945 12.863,55.562 13.333,55.851 C17.736,58.565 22.808,60 28,60 C43.439,60 56,47.439 56,32 C56,16.561 43.439,4 28,4 L28,4 Z M24,51 C24,50.448 23.552,50 23,50 L5,50 C4.448,50 4,50.448 4,51 C4,51.552 4.448,52 5,52 L23,52 C23.552,52 24,51.552 24,51 L24,51 Z M18,45 C18,44.448 17.552,44 17,44 L1,44 C0.448,44 5.32907052e-15,44.448 5.32907052e-15,45 C5.32907052e-15,45.552 0.448,46 1,46 L17,46 C17.552,46 18,45.552 18,45 L18,45 Z M2,39 C2,39.552 2.448,40 3,40 L11,40 C11.552,40 12,39.552 12,39 C12,38.448 11.552,38 11,38 L3,38 C2.448,38 2,38.448 2,39 L2,39 Z M28,30 C26.897,30 26,30.897 26,32 C26,33.103 26.897,34 28,34 C29.103,34 30,33.103 30,32 C30,30.897 29.103,30 28,30 L28,30 Z M12.428,15.038 L25.98,28.567 C26.575,28.216 27.26,28 28,28 C30.206,28 32,29.794 32,32 C32,34.206 30.206,36 28,36 C25.794,36 24,34.206 24,32 C24,31.261 24.215,30.576 24.566,29.981 L11.015,16.453 C10.625,16.063 10.624,15.43 11.014,15.039 C11.404,14.646 12.037,14.646 12.428,15.038 L12.428,15.038 Z M32.722,53.512 L32.981,54.477 C33.102,54.923 33.506,55.217 33.946,55.217 C34.032,55.217 34.12,55.206 34.207,55.183 C34.74,55.039 35.057,54.49 34.913,53.957 L34.653,52.992 C34.51,52.459 33.959,52.141 33.428,52.286 C32.895,52.43 32.578,52.979 32.722,53.512 L32.722,53.512 Z M38.129,51.556 L38.63,52.421 C38.815,52.741 39.15,52.92 39.496,52.92 C39.666,52.92 39.839,52.876 39.996,52.785 C40.475,52.509 40.638,51.897 40.36,51.419 L39.859,50.554 C39.582,50.076 38.97,49.913 38.493,50.189 C38.015,50.466 37.852,51.078 38.129,51.556 L38.129,51.556 Z M42.844,48.266 L43.552,48.973 C43.747,49.168 44.003,49.266 44.259,49.266 C44.515,49.266 44.771,49.168 44.967,48.972 C45.356,48.582 45.356,47.948 44.966,47.558 L44.258,46.851 C43.867,46.461 43.233,46.46 42.843,46.852 C42.453,47.243 42.453,47.876 42.844,48.266 L42.844,48.266 Z M47.548,42.137 C47.069,41.861 46.458,42.024 46.182,42.503 C45.905,42.981 46.069,43.593 46.548,43.869 L47.414,44.369 C47.571,44.46 47.743,44.503 47.913,44.503 C48.259,44.503 48.595,44.324 48.78,44.003 C49.057,43.524 48.893,42.913 48.414,42.637 L47.548,42.137 Z M49.954,38.922 C50.041,38.945 50.128,38.957 50.214,38.957 C50.655,38.957 51.06,38.662 51.179,38.215 C51.321,37.681 51.005,37.133 50.472,36.99 L49.505,36.731 C48.974,36.588 48.423,36.905 48.28,37.438 C48.138,37.972 48.454,38.521 48.987,38.663 L49.954,38.922 Z M47.002,33.003 L51,33.003 C51.553,33.003 52,32.555 52,32.003 C52,31.451 51.553,31.003 51,31.003 L47.002,31.003 C46.449,31.003 46.002,31.451 46.002,32.003 C46.002,32.555 46.449,33.003 47.002,33.003 L47.002,33.003 Z M48.282,26.567 C48.401,27.014 48.806,27.309 49.247,27.309 C49.333,27.309 49.42,27.298 49.507,27.274 L50.474,27.016 C51.007,26.873 51.323,26.325 51.181,25.791 C51.038,25.258 50.489,24.941 49.956,25.084 L48.989,25.343 C48.456,25.485 48.14,26.034 48.282,26.567 L48.282,26.567 Z M47.419,19.636 L46.552,20.136 C46.073,20.412 45.908,21.023 46.185,21.501 C46.369,21.823 46.706,22.002 47.052,22.002 C47.221,22.002 47.393,21.959 47.55,21.868 L48.417,21.368 C48.896,21.092 49.061,20.481 48.784,20.002 C48.509,19.524 47.898,19.359 47.419,19.636 L47.419,19.636 Z M43.555,17.445 C43.811,17.445 44.065,17.348 44.261,17.153 L44.97,16.446 C45.361,16.056 45.361,15.423 44.972,15.032 C44.582,14.642 43.949,14.64 43.558,15.03 L42.849,15.737 C42.457,16.127 42.457,16.76 42.847,17.151 C43.042,17.347 43.298,17.445 43.555,17.445 L43.555,17.445 Z M22.304,11.751 C22.389,11.751 22.476,11.74 22.562,11.717 C23.095,11.576 23.413,11.028 23.271,10.494 L23.014,9.528 C22.872,8.995 22.323,8.676 21.791,8.819 C21.257,8.96 20.939,9.508 21.082,10.042 L21.338,11.008 C21.458,11.456 21.862,11.751 22.304,11.751 L22.304,11.751 Z M17.001,13.948 C17.17,13.948 17.342,13.905 17.5,13.814 C17.978,13.538 18.142,12.927 17.866,12.448 L17.366,11.582 C17.089,11.104 16.478,10.939 16,11.216 C15.522,11.492 15.358,12.104 15.634,12.582 L16.134,13.448 C16.319,13.769 16.655,13.948 17.001,13.948 L17.001,13.948 Z M38.498,13.813 C38.655,13.905 38.828,13.948 38.998,13.948 C39.343,13.948 39.679,13.77 39.864,13.449 L40.365,12.584 C40.643,12.106 40.479,11.494 40.001,11.218 C39.524,10.94 38.911,11.104 38.635,11.582 L38.134,12.447 C37.856,12.925 38.02,13.537 38.498,13.813 L38.498,13.813 Z M33.434,11.716 C33.521,11.739 33.608,11.75 33.694,11.75 C34.135,11.75 34.539,11.456 34.659,11.01 L34.919,10.044 C35.062,9.511 34.746,8.962 34.213,8.818 C33.683,8.676 33.132,8.991 32.987,9.524 L32.728,10.49 C32.584,11.023 32.9,11.572 33.434,11.716 L33.434,11.716 Z M27,51 L27,55 C27,55.552 27.448,56 28,56 C28.552,56 29,55.552 29,55 L29,51 C29,50.448 28.552,50 28,50 C27.448,50 27,50.448 27,51 L27,51 Z M29,13 L29,9 C29,8.448 28.552,8 28,8 C27.448,8 27,8.448 27,9 L27,13 C27,13.552 27.448,14 28,14 C28.552,14 29,13.552 29,13 L29,13 Z M2.414,11 L3,11.586 L7.586,7 L7,6.414 L2.414,11 Z M0.293,11.707 C-0.098,11.316 -0.098,10.684 0.293,10.293 L6.293,4.293 C6.684,3.902 7.316,3.902 7.707,4.293 L9.707,6.293 C10.098,6.684 10.098,7.316 9.707,7.707 L3.707,13.707 C3.512,13.902 3.256,14 3,14 C2.744,14 2.488,13.902 2.293,13.707 L0.293,11.707 Z M25,2 L31,2 C31.553,2 32,1.552 32,1 C32,0.448 31.553,0 31,0 L25,0 C24.448,0 24,0.448 24,1 C24,1.552 24.448,2 25,2 L25,2 Z M50.259,11.155 L54.707,6.707 C55.098,6.316 55.098,5.684 54.707,5.293 C54.316,4.902 53.684,4.902 53.293,5.293 L48.845,9.741 C48.454,10.132 48.454,10.765 48.845,11.155 C49.04,11.351 49.296,11.448 49.552,11.448 C49.808,11.448 50.063,11.351 50.259,11.155 L50.259,11.155 Z M60,6 C60,9.309 57.309,12 54,12 C53.447,12 53,11.552 53,11 C53,10.448 53.447,10 54,10 C56.206,10 58,8.206 58,6 C58,3.794 56.206,2 54,2 C51.794,2 50,3.794 50,6 C50,6.552 49.553,7 49,7 C48.447,7 48,6.552 48,6 C48,2.691 50.691,0 54,0 C57.309,0 60,2.691 60,6 L60,6 Z" />
</svg>