<?xml version="1.0" encoding="UTF-8"?>
<svg id="_レイヤー_1" data-name="レイヤー 1" xmlns="http://www.w3.org/2000/svg" viewBox="0 0 1628.35 1228.35">
  <defs>
    <style>
      .cls-1 {
        fill: #6ee9c2;
        stroke-width: 0px;
      }
    </style>
  </defs>
  <g>
    <path class="cls-1" d="M1235.84,196.56C1023-11.29,688.5-19.93,465.49,167.88c-23.15,19.5-24.39,54.74-2.73,75.89h0c18.92,18.47,48.72,19.48,68.95,2.46,183.15-154.07,457.73-146.92,632.47,23.72,142.44,139.1,177.77,347.09,104.91,520.39l-36.98-30.92c-3.79-3.17-9.58-1.16-10.6,3.67l-38.72,183.53c-.71,3.38,2.42,6.32,5.75,5.38l193.21-54.14c5.07-1.42,6.47-7.95,2.43-11.33l-33.38-27.9c105.23-216.31,66.35-485.02-114.95-662.07Z"/>
    <path class="cls-1" d="M1166.61,983.25c-18.92-18.47-48.72-19.48-68.95-2.46-183.15,154.07-457.73,146.92-632.47-23.72-142.44-139.1-177.78-347.09-104.91-520.38l34.72,29.02c4.81,4.02,12.18,1.47,13.48-4.67l36.42-172.59c1.49-7.05-5.03-13.15-11.97-11.21l-182.05,51.01c-6.45,1.81-8.23,10.1-3.09,14.4l30.8,25.74c-105.22,216.3-66.35,485.02,114.95,662.07,212.84,207.85,547.34,216.48,770.35,28.68,23.15-19.5,24.39-54.74,2.73-75.89h0Z"/>
  </g>
  <g>
    <path class="cls-1" d="M475.86,732.12c.61-31.28.91-68.03.91-102.95,0-30.37-.3-59.22-.61-82v-1.21c0-21.26,11.84-29.76,25.21-29.76,11.24,0,23.38,6.38,29.76,16.4,19.13,30.37,69.85,125.12,92.93,159.74,1.82,2.73,3.34,4.25,4.25,4.25s2.13-.91,2.13-12.75c0-28.55-.91-123.3-1.82-151.24-.3-10.02,7.9-16.4,17.61-16.4,8.81,0,17.61,5.47,17.61,15.79v.61c-.61,21.26-.91,50.72-.91,81.09,0,38.57.3,78.35.91,104.77v.61c0,18.22-13.36,28.85-27.64,28.85-9.72,0-19.44-4.86-26.12-15.18-21.26-33.71-78.05-137.57-94.45-165.21-1.21-1.82-3.34-5.77-4.86-5.77-1.82,0-1.82,3.04-1.82,17.01,0,31.58.91,121.17,1.82,153.37v.61c0,9.72-8.5,14.27-17.31,14.27s-17.61-4.86-17.61-14.58v-.3Z"/>
    <path class="cls-1" d="M788.06,547.17c-30.37,0-36.75.61-37.66,13.67-.61,7.29-.3,22.17-.61,39.78,0,6.07.3,6.07,37.66,6.07,13.97,0,28.55,0,34.01-.3,17.01-.91,17.01,15.18,17.01,16.1,0,8.81-5.47,17.31-16.1,17.31h-1.52c-7.59-.61-19.13-.91-30.67-.91-37.66,0-40.7.3-40.7,6.68,0,45.25.3,52.24.91,57.4,1.52,13.97,6.38,14.58,49.2,14.58,17.92,0,37.35-.3,43.12-.61h1.52c10.63,0,16.4,7.59,16.4,15.49s-6.07,16.4-19.13,17.01c-3.95.3-21.56.61-39.18.61s-34.92-.3-38.87-.61c-27.94-2.13-45.25-12.15-46.47-38.87-.61-12.76-.61-35.23-.61-59.83,0-37.05.3-78.35.91-97.49.61-24.3,16.4-37.05,41-38.27,5.47-.3,22.78-.61,39.78-.61s34.01.3,38.57.61c11.54.61,17.01,8.2,17.01,16.1s-6.38,16.4-17.92,16.4c0,0-27.03-.3-47.68-.3Z"/>
    <path class="cls-1" d="M1077.17,747c-13.67,0-27.33-10.02-32.8-32.19-7.9-32.19-23.69-126.03-27.03-151.54-.61-3.95-1.52-5.47-2.43-5.47s-1.82,2.13-2.43,5.47c-3.95,27.64-18.53,113.89-28.24,151.24-5.47,21.87-20.35,32.5-34.92,32.5s-29.16-10.63-33.71-32.19c-32.5-153.67-36.75-176.75-36.75-182.22,0-10.63,9.41-16.1,18.53-16.1,8.5,0,16.7,4.56,18.22,13.36,30.37,174.62,30.98,176.45,35.23,176.45,2.43,0,4.56-3.34,5.47-7.9,5.77-25.21,22.17-117.23,30.07-157.62,3.04-16.4,15.49-23.69,27.94-23.69,13.36,0,26.72,8.2,29.46,22.47,6.68,34.62,21.87,122.09,28.24,157.31.91,5.16,2.43,6.99,3.95,6.99,4.25,0,6.07,0,40.39-174.32,1.82-8.81,9.42-13.06,17.01-13.06,9.41,0,19.13,6.07,19.13,15.79,0,5.77-16.1,78.05-41.61,183.74-4.86,20.04-19.44,30.98-33.71,30.98Z"/>
  </g>
</svg>