<?xml version="1.0" encoding="UTF-8"?>
<svg id="_レイヤー_1" data-name="レイヤー 1" xmlns="http://www.w3.org/2000/svg" viewBox="0 0 1599.99 1199.99">
  <defs>
    <style>
      .cls-1 {
        fill: #6ee9c2;
        stroke-width: 0px;
      }
    </style>
  </defs>
  <path class="cls-1" d="M752.39,732.9c-3.77-43.3-6.59-85.67-6.59-127.09,0-34.83,1.88-68.72,4.71-104.5,13.18-160.98,100.73-249.48,224.06-249.48s209,84.73,223.12,239.12c3.77,41.42,6.59,82.85,6.59,123.33,0,96.97-5.65,357.74-229.71,357.74-120.5,0-207.11-83.79-222.18-239.12ZM1104.48,738.55c5.65-40.48,8.47-84.73,8.47-128.97,0-37.66-1.88-75.31-5.65-110.15-9.41-103.56-60.25-164.75-132.74-164.75s-124.27,64.02-133.68,169.46c-2.82,34.83-4.71,69.67-4.71,105.44,0,39.54,1.88,80.02,6.59,118.62,12.24,100.73,64.02,160.04,131.8,160.04s116.74-54.6,129.92-149.69Z"/>
  <path class="cls-1" d="M611.58,836.04c-32.06,0-66.68-1.28-101.31-1.28-2.56,0-3.21,1.92-3.21,3.85,0,30.78.64,64.76.64,94.89,0,19.88-15.39,29.49-31.42,29.49s-32.06-10.26-32.06-30.78v-94.25c0-2.56-.64-3.85-3.21-3.85-42.32,0-82.71.64-112.21,1.92-21.8.64-26.93-19.23-26.93-26.29,0-13.46,8.98-26.93,25.65-26.93h1.28c21.8.64,64.12,1.28,110.92,1.28,3.21,0,4.49-.64,4.49-3.85v-12.18c-.64-7.69-17.31-39.75-26.93-39.75-33.34,0-64.12,0-88.48,1.28-23.08.64-26.93-21.16-26.93-25.65,0-12.82,8.98-25.65,25.65-25.65h1.28c12.82.64,32.06.64,55.14.64,2.56,0,4.49,0,4.49-1.28,0-2.57-89.12-134.01-98.1-147.47-4.49-6.41-6.41-12.82-6.41-18.59,0-16.67,15.39-30.14,31.42-30.14,9.62,0,19.24,5.13,25.65,16.03,25.65,44.88,71.81,114.13,115.41,178.89,1.92,2.57,1.92,1.92,5.77,2.57h28.21c3.21-.64,3.85-.64,5.13-2.57,39.75-55.78,89.12-134,113.49-179.53,5.77-10.26,14.75-14.75,23.72-14.75,16.67,0,33.98,14.11,33.98,31.42,0,10.26-5.77,20.52-101.31,161.58-.64,1.28-1.28,1.92-1.28,2.57s.64.64,3.21.64h44.88c18.59,0,27.57,12.82,27.57,25.01,0,13.46-9.62,26.29-27.57,26.29h-.64c-8.98,0-69.89-.64-78.22-.64-7.69,0-25.65,22.44-26.29,39.11v12.18c0,2.56.64,3.85,3.85,3.85,41.04,0,78.22-.64,100.66-1.28h.64c17.95,0,27.57,13.46,27.57,26.29,0,13.46-9.62,26.93-27.57,26.93h-.64Z"/>
</svg>