<svg id="_レイヤー_1" data-name="レイヤー 1" viewBox="124.849 0 1351.83 1199.99" xmlns="http://www.w3.org/2000/svg">
  <defs>
    <style>
      .cls-1, .cls-2 {
        fill-rule: evenodd;
      }

      .cls-1, .cls-2, .cls-3 {
        stroke-width: 0px;
      }

      .cls-1, .cls-3 {
        fill: #6ee9c2;
      }

      .cls-2 {
        fill: #fff;
      }
    </style>
  </defs>
  <path class="cls-3" d="M920.13,953.16c-1.46,0-2.95-.16-4.43-.5-10.68-2.44-17.37-13.07-14.93-23.76,6.08-26.64,15.61-49.45,29.16-69.72,14.5-21.71,34.1-37.4,51.36-49.89,12.2-8.83,27.89-20.78,40.98-35.01,27.38-29.76,46.64-62.9,57.26-98.49,10.4-34.87,12.87-73.26,7.32-114.1-7.27-53.55-29.18-102.02-65.11-144.05-29.15-34.1-62.46-60.31-99.01-77.91-36.67-17.66-77.79-27.21-122.22-28.39-14.97.3-28.02,1.32-39.88,3.1-47.51,7.17-89.7,24.37-125.41,51.14-44.78,33.58-77.86,72.46-98.32,115.56-20.96,44.14-29.36,94.23-24.99,148.86,3.64,45.55,20.63,88.1,50.5,126.44,14.58,18.73,33.65,36.22,60,55.05,10.7,7.65,24.47,18.28,36.1,32.77,22.01,27.43,31.73,58.72,37.74,82.91,2.64,10.64-3.84,21.4-14.48,24.04-10.64,2.64-21.4-3.84-24.04-14.48-7.47-30.08-16.78-50.93-30.18-67.63-6.7-8.36-15.41-16.16-28.22-25.32-29.55-21.12-51.23-41.12-68.23-62.95-34.71-44.57-54.47-94.25-58.75-147.66-9.77-122.1,37.02-222.81,139.07-299.33,41.01-30.75,89.22-50.48,143.29-58.63,13.71-2.07,28.58-3.23,45.49-3.55h.44s.44,0,.44,0c100.44,2.55,184.84,42.99,250.84,120.2,40.97,47.92,65.96,103.27,74.27,164.5,12.84,94.6-12.29,176.96-74.71,244.8-15.49,16.84-33.21,30.38-46.92,40.3-15.12,10.94-30.64,23.33-41.62,39.77-10.81,16.18-18.48,34.66-23.46,56.5-2.1,9.2-10.28,15.43-19.33,15.43Z"></path>
  <path class="cls-1" d="M424.73,438.76c-4.14.2-7.87-1.01-11.41-3.06-40.19-23.21-80.44-46.33-120.58-69.65-11.56-6.71-15.03-19.66-8.71-30.47,6.28-10.76,19.43-14.01,30.81-7.45,39.93,23.01,79.81,46.1,119.75,69.1,8.29,4.77,12.81,11.82,12.06,21.3-.75,9.4-5.92,16.01-15.04,19.27-2.27.81-4.57.78-6.87.96Z"></path>
  <path class="cls-1" d="M1175.72,438.75c-10.62-.04-19.1-6.45-21.67-15.94-2.69-9.96,1.25-19.65,10.62-25.13,16.65-9.76,33.4-19.34,50.12-28.99,23.34-13.47,46.69-26.94,70.05-40.38,11.69-6.73,24.88-3.57,31.19,7.4,6.26,10.86,2.73,23.69-8.88,30.43-40.14,23.3-80.39,46.42-120.58,69.63-3.55,2.05-7.3,3.19-10.84,2.98Z"></path>
  <path class="cls-1" d="M779.95,125.49c0-23.33-.05-46.66.03-69.98.03-9.62,5.76-17.59,14.49-20.71,8.8-3.15,18.18-.55,24.35,6.8,3.46,4.12,5.09,8.94,5.09,14.28.01,46.65.07,93.31-.04,139.96-.03,12.58-10.14,22.5-22.19,22.31-12.25-.2-21.67-9.92-21.72-22.67-.08-23.33-.02-46.66-.02-69.98Z"></path>
  <path class="cls-1" d="M608.98,252.79c-.06,9.95-6.35,18.15-16.1,20.99-9.34,2.72-19.38-.95-24.57-9.72-10.68-18.03-21.03-36.26-31.51-54.41-12.9-22.33-25.86-44.61-38.66-66.99-6.15-10.76-3.53-23.05,6-29.73,10.72-7.51,24.94-4.32,31.85,7.48,13.19,22.54,26.16,45.21,39.22,67.82,9.82,17,19.64,33.99,29.47,50.98,2.44,4.21,4.57,8.52,4.31,13.59Z"></path>
  <path class="cls-1" d="M994.87,252.3c-.31-4.01,1.28-8.01,3.47-11.8,23.02-39.91,46.02-79.84,69.14-119.69,6.81-11.74,19.87-15.25,30.86-8.69,10.68,6.38,13.69,19.28,7,30.91-22.98,39.94-46.01,79.84-69.07,119.73-5.47,9.47-15.26,13.78-24.91,11.24-9.84-2.59-16.45-11.08-16.49-21.69Z"></path>
  <path class="cls-1" d="M775.11,565.05c-37.81-6.08-71.18,18.32-78.33,56.96-5.57,30.08.92,58.4,12.66,85.86,10.93,25.56,26.84,47.63,47.71,66.1,8.5,7.52,8.4,18.07.08,23.36-5.83,3.71-12.07,2.77-18.17-2.85-19.26-17.75-35.5-37.89-47.54-61.22-15.35-29.75-24.78-61.12-23.74-94.9.86-28.07,8.5-54.08,29.53-73.87,29.29-27.55,63.38-34.77,101.43-20.61,3.24,1.21,5.86,1.36,9.12.03,53.61-21.75,112.56,11.76,121.86,68.93,5.21,32.04-1.18,62.37-12.43,92.09-12.53,33.1-31.22,62.42-54.96,88.59-6.4,7.05-14.93,7.96-21.02,2.3-6.09-5.66-5.56-13.92,1.03-21.05,31.71-34.31,52.75-74.09,60.74-120.32,3.12-18.04,2.36-35.98-4.88-53.15-10.38-24.62-37.5-40.04-63.96-36.56-.84.11-1.65.44-3.03.83,9.84,10.7,17.01,22.42,20.94,35.97,5.02,17.32,4.68,34.57-1.11,51.61-7.81,22.99-26.04,37.22-47.22,37.18-20.99-.03-39.9-14.48-47.23-37.27-9.85-30.6-4.64-58.69,15.84-83.72.91-1.11,1.79-2.23,2.66-3.37.08-.11.01-.33.01-.93Z"></path>
  <path class="cls-2" d="M828.57,626.59c-.56,8.56-1.72,17.28-6.46,25.05-9.38,15.39-26.43,15.56-36.22.4-11.73-18.16-8.75-47.4,7.54-65.33,11.08-12.2,8.68-11.95,19.86-.27,10.52,10.99,15.17,24.65,15.27,40.15Z"></path>
  <path class="cls-3" d="M797.15,1181.87c-52.18,0-94.63-42.45-94.63-94.63,0-10.96,8.88-19.84,19.84-19.84s19.84,8.88,19.84,19.84c0,30.29,24.65,54.94,54.94,54.94s54.94-24.65,54.94-54.94c0-10.96,8.88-19.84,19.84-19.84s19.84,8.88,19.84,19.84c0,52.18-42.45,94.63-94.63,94.63Z"></path>
  <rect class="cls-3" x="637.65" y="930.32" width="318.98" height="42.5" rx="21.25" ry="21.25"></rect>
  <rect class="cls-3" x="637.65" y="987.53" width="318.98" height="42.5" rx="21.25" ry="21.25"></rect>
  <rect class="cls-3" x="637.65" y="1044.74" width="318.98" height="42.5" rx="21.25" ry="21.25"></rect>
</svg>