<svg id="_レイヤー_1" data-name="レイヤー 1" viewBox="204.775 92.707 1431.436 1002.835" xmlns="http://www.w3.org/2000/svg">
  <defs>
    <style>
      .cls-1 {
        fill: #6ee9c2;
        stroke-width: 0px;
      }
    </style>
  </defs>
  <g>
    <path class="cls-1" d="M1202.09,184.54h-109.71c-11.08,0-20.06-8.98-20.06-20.06s8.98-20.06,20.06-20.06h109.71c11.08,0,20.06,8.98,20.06,20.06s-8.98,20.06-20.06,20.06Z"></path>
    <g>
      <path class="cls-1" d="M1147.24,1055.58c-124.41,0-239.68-56.35-316.25-154.59-6.81-8.74-5.25-21.34,3.49-28.16,8.74-6.81,21.34-5.25,28.16,3.49,68.91,88.42,172.64,139.13,284.6,139.13,198.84,0,360.61-161.77,360.61-360.61s-161.77-360.61-360.61-360.61c-108.83,0-210.74,48.43-279.6,132.86-7.01,8.59-19.65,9.87-28.23,2.87-8.59-7-9.87-19.64-2.87-28.23,76.51-93.82,189.76-147.63,310.7-147.63,220.96,0,400.73,179.77,400.73,400.73s-179.77,400.73-400.73,400.73Z"></path>
      <path class="cls-1" d="M1147.24,294.25c-11.08,0-20.06-8.98-20.06-20.06v-109.71c0-11.08,8.98-20.06,20.06-20.06s20.06,8.98,20.06,20.06v109.71c0,11.08-8.98,20.06-20.06,20.06Z"></path>
      <g>
        <path class="cls-1" d="M1382.97,374.12c-5.13,0-10.27-1.96-14.18-5.88-7.84-7.83-7.84-20.54,0-28.37l46.91-46.91c7.84-7.84,20.54-7.83,28.37,0,7.84,7.83,7.84,20.54,0,28.37l-46.91,46.91c-3.92,3.92-9.05,5.88-14.19,5.88Z"></path>
        <path class="cls-1" d="M1453.34,350.66c-5.14,0-10.27-1.96-14.19-5.88l-46.91-46.91c-7.83-7.83-7.83-20.54,0-28.37,7.83-7.83,20.54-7.83,28.37,0l46.91,46.91c7.83,7.83,7.83,20.54,0,28.37-3.92,3.92-9.05,5.87-14.18,5.87Z"></path>
        <path class="cls-1" d="M911.5,374.12c-5.14,0-10.27-1.96-14.19-5.88l-46.91-46.91c-7.83-7.83-7.83-20.54,0-28.37,7.83-7.83,20.54-7.83,28.37,0l46.91,46.91c7.83,7.83,7.83,20.54,0,28.37-3.92,3.92-9.05,5.88-14.18,5.88Z"></path>
        <path class="cls-1" d="M841.13,350.66c-5.13,0-10.27-1.96-14.18-5.87-7.84-7.83-7.84-20.54,0-28.37l46.91-46.91c7.84-7.84,20.54-7.83,28.37,0,7.84,7.83,7.84,20.54,0,28.37l-46.91,46.91c-3.92,3.92-9.05,5.88-14.19,5.88Z"></path>
      </g>
      <circle class="cls-1" cx="1147.24" cy="654.85" r="52.99" transform="translate(-164.96 502.8) rotate(-23.11)"></circle>
      <path class="cls-1" d="M1300.63,491.87l-157.26,130.03c-.94.78-1.01,2.19-.14,3.05l33.91,33.91c.86.86,2.28.79,3.05-.14l130.03-157.26c5.27-6.37-3.22-14.86-9.59-9.59Z"></path>
      <g>
        <circle class="cls-1" cx="1147.05" cy="354.44" r="23.2" transform="translate(28.78 791.28) rotate(-38.51)"></circle>
        <path class="cls-1" d="M1016.96,383.19c6.41,11.09,2.6,25.28-8.49,31.69-11.1,6.41-25.28,2.6-31.69-8.49-6.41-11.09-2.6-25.28,8.49-31.69,11.1-6.41,25.28-2.6,31.69,8.49Z"></path>
        <path class="cls-1" d="M898.58,484.72c11.09,6.41,14.9,20.59,8.49,31.69-6.41,11.1-20.59,14.9-31.69,8.49-11.09-6.41-14.9-20.59-8.49-31.69,6.41-11.09,20.59-14.9,31.69-8.49Z"></path>
        <circle class="cls-1" cx="846.83" cy="655.04" r="23.2" transform="translate(13.16 1326.75) rotate(-76.58)"></circle>
        <path class="cls-1" d="M875.57,785.13c11.1-6.41,25.28-2.6,31.69,8.49,6.41,11.1,2.6,25.28-8.49,31.69-11.09,6.41-25.28,2.6-31.69-8.49-6.41-11.09-2.6-25.28,8.49-31.69Z"></path>
        <path class="cls-1" d="M977.1,903.51c6.41-11.09,20.59-14.9,31.69-8.49,11.09,6.41,14.9,20.59,8.49,31.69-6.41,11.09-20.59,14.9-31.69,8.49-11.09-6.41-14.9-20.59-8.49-31.69Z"></path>
        <path class="cls-1" d="M1124.23,955.26c0-12.81,10.39-23.2,23.2-23.2s23.2,10.39,23.2,23.2-10.39,23.2-23.2,23.2-23.2-10.39-23.2-23.2Z"></path>
        <path class="cls-1" d="M1277.51,926.52c-6.41-11.1-2.6-25.28,8.49-31.69,11.09-6.41,25.28-2.6,31.69,8.49,6.41,11.1,2.6,25.28-8.49,31.69-11.09,6.41-25.28,2.6-31.69-8.49Z"></path>
        <path class="cls-1" d="M1395.89,824.99c-11.09-6.41-14.9-20.59-8.49-31.69,6.41-11.09,20.59-14.9,31.69-8.49,11.1,6.41,14.9,20.59,8.49,31.69-6.41,11.09-20.59,14.9-31.69,8.49Z"></path>
        <circle class="cls-1" cx="1447.65" cy="654.67" r="23.2" transform="translate(477.89 1913.18) rotate(-76.72)"></circle>
        <circle class="cls-1" cx="1407.31" cy="504.49" r="23.2" transform="translate(555.77 1733.27) rotate(-75)"></circle>
        <path class="cls-1" d="M1317.37,406.2c-6.41,11.09-20.59,14.9-31.69,8.49-11.09-6.41-14.9-20.59-8.49-31.69,6.41-11.09,20.59-14.9,31.69-8.49,11.09,6.41,14.9,20.59,8.49,31.69Z"></path>
      </g>
    </g>
  </g>
  <path class="cls-1" d="M817.41,501.67h-431.41c-11.08,0-20.06-8.98-20.06-20.06s8.98-20.06,20.06-20.06h431.41c11.08,0,20.06,8.98,20.06,20.06s-8.98,20.06-20.06,20.06Z"></path>
  <path class="cls-1" d="M767.65,732.88h-495.55c-11.08,0-20.06-8.98-20.06-20.06s8.98-20.06,20.06-20.06h495.55c11.08,0,20.06,8.98,20.06,20.06s-8.98,20.06-20.06,20.06Z"></path>
  <path class="cls-1" d="M772.19,617.27h-280.57c-11.08,0-20.06-8.98-20.06-20.06s8.98-20.06,20.06-20.06h280.57c11.08,0,20.06,8.98,20.06,20.06s-8.98,20.06-20.06,20.06Z"></path>
  <path class="cls-1" d="M805.53,848.48h-251.72c-11.08,0-20.06-8.98-20.06-20.06s8.98-20.06,20.06-20.06h251.72c11.08,0,20.06,8.98,20.06,20.06s-8.98,20.06-20.06,20.06Z"></path>
</svg>