<?xml version="1.0" encoding="UTF-8"?>
<svg id="_レイヤー_1" data-name=" レイヤー 1" xmlns="http://www.w3.org/2000/svg" version="1.1" viewBox="0 0 150 150">
  <defs>
    <style>
      .cls-1 {
        fill: #fff;
      }

      .cls-1, .cls-2 {
        stroke-width: 0px;
      }

      .cls-2 {
        fill: #0d498c;
      }
    </style>
  </defs>
  <path class="cls-2" d="M97.17,7.45c-8.51,0-16.24,2.72-22.17,7.66-5.93-4.94-13.66-7.66-22.17-7.66-18.67,0-38.51,13.74-38.51,39.2,0,28.83,10.7,41.09,17.77,49.2,2.46,2.82,4.58,5.25,4.75,6.9.96,9.18,2.78,17.88,5.12,24.5,1.34,3.78,5.41,15.29,14.84,15.29.62,0,1.24-.06,1.86-.16,5.11-.91,8.75-4.21,10.51-9.53,1.51-4.56,1.86-10.94,1.15-20.7-.1-1.43.14-2.1.3-2.27.19-.21,1.07-.88,4.37-.88s4.18.67,4.37.88c.16.17.4.84.3,2.27-.71,9.76-.35,16.14,1.15,20.7,1.76,5.32,5.39,8.62,10.51,9.53.61.11,1.24.16,1.86.16,9.42,0,13.5-11.51,14.84-15.29,2.35-6.63,4.16-15.33,5.12-24.5.17-1.65,2.3-4.08,4.75-6.9,7.08-8.11,17.77-20.37,17.77-49.2,0-25.46-19.84-39.2-38.5-39.2ZM125.33,70.34c-.25.77-.51,1.51-.79,2.23-.54,1.44-1.13,2.8-1.73,4.07-.61,1.27-1.25,2.46-1.9,3.59-.65,1.12-1.33,2.17-2.01,3.17-1.02,1.49-2.05,2.84-3.07,4.09-.68.84-1.35,1.63-2,2.38-.33.38-.65.75-.96,1.11-.95,1.09-1.85,2.11-2.66,3.1-.81.99-1.54,1.95-2.14,2.92-.61.97-1.09,1.94-1.43,2.94-.22.67-.38,1.36-.45,2.08-.05.52-.11,1.04-.17,1.56-.02.16-.04.33-.06.49-.04.35-.09.71-.13,1.06-.03.22-.06.43-.09.65-.04.3-.08.61-.12.91-.03.23-.07.46-.1.69-.04.29-.08.58-.13.87-.04.24-.08.48-.11.71-.04.28-.09.55-.13.83-.04.25-.08.49-.13.73-.05.27-.09.53-.14.8-.04.25-.09.49-.14.74-.05.26-.1.52-.15.78-.05.25-.1.49-.15.73-.05.26-.1.51-.15.76-.05.24-.1.49-.15.73-.05.25-.11.5-.16.74-.05.24-.11.48-.17.73-.06.24-.11.48-.17.72-.06.24-.12.48-.17.71-.06.24-.12.47-.18.71-.06.23-.12.47-.18.7-.06.23-.12.46-.18.69-.06.23-.13.46-.19.68-.06.22-.13.44-.19.66-.07.22-.13.45-.2.67-.06.22-.13.43-.2.64-.07.22-.14.43-.21.65-.07.21-.14.41-.2.62-.07.21-.14.42-.21.62-.07.2-.14.4-.21.59-.07.2-.15.4-.22.6-.07.19-.15.38-.22.57-.07.19-.15.38-.22.57-.07.19-.15.37-.23.55-.08.18-.15.36-.23.54-.08.17-.15.34-.23.51-.08.17-.16.35-.24.51-.08.17-.16.33-.24.49-.08.16-.16.32-.24.48-.08.16-.16.31-.25.46-.08.15-.17.3-.25.44-.08.15-.17.28-.26.42-.08.14-.17.27-.25.4-.09.14-.18.26-.27.39-.08.12-.17.25-.25.37-.09.12-.18.24-.27.35-.09.11-.17.22-.26.33-.09.11-.19.21-.28.32-.09.1-.17.19-.26.28-.1.1-.2.19-.29.28-.09.08-.17.16-.26.24-.1.09-.21.16-.31.24-.09.06-.17.13-.26.19-.11.07-.22.13-.33.2-.08.05-.16.1-.25.14-.12.06-.24.11-.36.15-.07.03-.15.07-.22.09-.15.05-.3.08-.45.12-.05.01-.1.03-.14.04-.2.03-.4.05-.59.05,0,0,0,0,0,0-.21,0-.42-.02-.62-.06-4.36-.78-7.24-4.51-5.91-22.83.77-10.64-9.08-10.65-11.65-10.65s-12.42.02-11.65,10.65c1.33,18.32-1.55,22.05-5.91,22.83-.21.04-.42.06-.62.06,0,0,0,0,0,0-.2,0-.4-.02-.6-.05-.05,0-.09-.03-.14-.04-.15-.03-.3-.07-.45-.12-.07-.02-.15-.06-.22-.09-.12-.05-.24-.1-.36-.16-.08-.04-.16-.09-.24-.14-.11-.07-.23-.13-.34-.2-.08-.06-.16-.12-.24-.18-.11-.08-.21-.16-.32-.25-.08-.07-.16-.15-.25-.23-.1-.1-.21-.19-.31-.29-.08-.08-.16-.18-.25-.27-.1-.11-.2-.22-.3-.33-.08-.1-.16-.2-.24-.31-.1-.12-.19-.24-.29-.37-.08-.11-.16-.23-.24-.35-.09-.14-.19-.27-.28-.41-.08-.12-.16-.25-.24-.38-.09-.15-.18-.3-.27-.45-.08-.13-.16-.27-.23-.41-.09-.16-.18-.32-.26-.49-.08-.14-.15-.29-.23-.44-.09-.17-.17-.35-.26-.52-.07-.16-.15-.31-.22-.47-.08-.18-.17-.37-.25-.56-.07-.16-.14-.33-.21-.5-.08-.19-.16-.39-.24-.59-.07-.17-.14-.35-.21-.53-.08-.2-.16-.41-.24-.62-.07-.18-.14-.37-.2-.55-.08-.21-.15-.42-.23-.64-.07-.19-.13-.39-.2-.58-.07-.22-.15-.44-.22-.66-.06-.2-.13-.4-.19-.6-.07-.23-.14-.46-.21-.69-.06-.2-.12-.41-.18-.62-.07-.24-.14-.47-.2-.71-.06-.21-.12-.42-.18-.64-.07-.24-.13-.49-.2-.73-.06-.22-.11-.43-.17-.65-.06-.25-.13-.5-.19-.75-.05-.22-.11-.44-.16-.67-.06-.26-.12-.52-.18-.78-.05-.22-.1-.45-.15-.67-.06-.26-.11-.52-.17-.79-.05-.23-.1-.46-.15-.69-.06-.27-.11-.54-.16-.8-.05-.23-.09-.46-.14-.69-.05-.27-.1-.55-.16-.83-.04-.23-.09-.46-.13-.7-.05-.28-.1-.55-.15-.83-.04-.23-.08-.47-.12-.7-.05-.28-.09-.56-.14-.85-.04-.23-.08-.47-.11-.7-.04-.29-.09-.58-.13-.87-.03-.23-.07-.45-.1-.68-.04-.31-.09-.63-.13-.94-.03-.21-.06-.41-.08-.62-.05-.36-.09-.73-.13-1.09-.02-.16-.04-.31-.06-.47-.06-.52-.12-1.04-.17-1.56-.07-.72-.23-1.41-.45-2.08-.33-1.01-.82-1.98-1.43-2.94-.61-.97-1.33-1.93-2.14-2.92-.81-.99-1.71-2.02-2.66-3.1-.32-.36-.64-.73-.96-1.11-.65-.76-1.32-1.55-2-2.38-1.02-1.25-2.05-2.61-3.07-4.09-.68-.99-1.35-2.04-2.01-3.17-.65-1.12-1.29-2.31-1.9-3.59-.61-1.27-1.19-2.62-1.73-4.07-.27-.72-.53-1.47-.79-2.23-.33-1.01-.63-2.07-.92-3.16h31.61v16.85h39.95v-16.85h30.95c-.29,1.09-.59,2.16-.92,3.16ZM88.3,67.18v9.85h-25.95v-9.85h25.95ZM62.36,60.18v-9.1h25.95v9.1h-25.95ZM125.33,31.51c.15.3.29.61.44.93.06.14.13.28.19.43.19.45.38.91.56,1.37.03.08.06.17.09.26.14.39.28.79.41,1.19.05.16.1.33.15.5.1.34.2.68.3,1.03.05.17.09.34.14.52.1.4.19.81.28,1.22.02.12.05.23.08.35.11.52.2,1.06.28,1.6.02.14.04.29.06.43.06.41.11.82.15,1.24.02.19.04.38.05.57.04.4.07.81.09,1.22.01.18.02.36.03.54.03.58.04,1.17.04,1.77,0,5.08-.36,9.56-.97,13.57-.14-.02-.28-.04-.42-.04h-31.97v-16.1h-39.95v16.1H22.72c-.14,0-.28.03-.42.04-.62-4.01-.97-8.49-.97-13.57,0-.6.02-1.19.04-1.77,0-.18.02-.36.03-.54.02-.41.05-.82.09-1.22.02-.19.03-.38.05-.57.04-.42.1-.83.15-1.25.02-.14.04-.29.06-.43.08-.54.18-1.08.28-1.6.02-.11.05-.22.07-.33.09-.42.18-.83.29-1.24.04-.17.09-.33.13-.5.1-.36.2-.71.3-1.06.05-.16.1-.32.15-.47.14-.42.28-.84.43-1.25.02-.07.05-.13.07-.2.18-.47.37-.94.57-1.39.06-.13.12-.26.17-.38.15-.33.3-.66.46-.98.07-.15.15-.29.22-.44.16-.32.33-.63.5-.94.07-.12.13-.24.2-.36.24-.42.49-.83.75-1.23.03-.05.06-.09.09-.14.23-.35.47-.7.71-1.04.09-.12.17-.24.26-.36.2-.27.4-.54.61-.8.09-.12.19-.24.28-.36.24-.29.48-.57.72-.85.06-.07.13-.15.19-.22.31-.35.63-.68.95-1.01.08-.08.16-.15.24-.23.25-.25.51-.49.77-.73.11-.1.22-.2.33-.3.24-.22.49-.43.74-.64.11-.09.21-.18.32-.27.35-.28.69-.56,1.05-.82,0,0,.02-.01.02-.02.37-.27.74-.53,1.11-.79.11-.07.22-.15.33-.22.27-.18.55-.36.83-.53.13-.08.25-.15.38-.23.29-.17.59-.34.88-.51.1-.06.2-.11.3-.17.4-.21.8-.42,1.2-.61.07-.04.15-.07.22-.1.33-.16.67-.31,1.01-.46.13-.06.26-.11.39-.17.29-.12.59-.24.89-.36.13-.05.26-.1.39-.15.36-.13.72-.26,1.08-.38.06-.02.12-.04.19-.06.42-.14.85-.26,1.28-.38.11-.03.23-.06.34-.09.32-.08.64-.17.96-.24.14-.03.28-.07.43-.1.31-.07.63-.13.95-.19.12-.02.25-.05.37-.07.44-.08.87-.15,1.31-.21.04,0,.08,0,.12-.01.4-.05.79-.1,1.19-.13.14-.01.28-.02.41-.03.31-.03.62-.05.93-.06.15,0,.29-.02.44-.02.34-.01.68-.02,1.02-.02.08,0,.16,0,.24,0,.02,0,.04,0,.06,0,.48,0,.96.01,1.43.04.12,0,.24.01.35.02.39.02.78.05,1.17.09.11.01.21.02.32.03.47.05.94.11,1.41.19.1.02.2.03.3.05.39.06.77.14,1.15.22.12.02.24.05.36.08.46.1.92.21,1.37.34.06.02.13.04.19.06.4.11.79.23,1.18.36.12.04.24.08.36.12.43.15.87.31,1.29.48.01,0,.03,0,.04.01.44.18.86.37,1.29.56.12.05.23.11.34.16.36.18.72.36,1.07.55.07.04.13.07.2.11.41.23.81.47,1.2.71.1.06.2.13.3.2.32.21.64.42.95.65.09.06.17.12.26.19.38.28.74.57,1.11.87.08.07.16.13.23.2.3.25.59.51.87.78.09.08.18.17.27.25.34.33.68.67,1,1.02.05.05.09.11.14.16.28.31.55.63.82.96.08.1.16.2.24.31.3.39.6.78.88,1.19.28-.41.58-.81.88-1.19.08-.1.16-.21.25-.31.27-.33.54-.65.82-.97.05-.05.09-.1.14-.16.33-.36.66-.7,1-1.03.08-.08.17-.16.26-.24.29-.27.59-.54.89-.8.07-.06.14-.13.22-.19.37-.3.74-.6,1.12-.88.08-.06.16-.11.24-.17.32-.23.65-.46.98-.67.09-.06.18-.12.27-.18.4-.25.81-.5,1.22-.73.05-.03.11-.06.16-.08.37-.2.74-.39,1.12-.58.1-.05.21-.1.31-.15.86-.4,1.75-.76,2.65-1.07.11-.04.22-.07.33-.11.41-.13.82-.26,1.23-.38.05-.01.1-.03.15-.04.46-.13.92-.24,1.39-.34.11-.02.22-.05.34-.07.39-.08.78-.15,1.18-.22.09-.02.19-.03.28-.05.47-.07.94-.14,1.41-.19.1-.01.21-.02.31-.03.39-.04.78-.07,1.18-.09.12,0,.24-.02.35-.02.48-.02.95-.04,1.43-.04.02,0,.04,0,.06,0,.08,0,.16,0,.24,0,.34,0,.68,0,1.02.02.15,0,.29.01.44.02.31.02.61.04.92.06.14.01.28.02.42.04.39.04.78.08,1.17.13.05,0,.1.01.15.02.43.06.87.13,1.3.21.13.02.26.05.39.07.31.06.61.12.92.19.15.03.3.07.45.1.31.07.61.15.92.23.13.03.25.07.38.1.42.12.84.24,1.26.38.09.03.17.06.26.09.34.11.67.23,1,.35.15.05.29.11.44.17.28.11.55.22.83.33.15.06.3.12.44.19.31.13.61.27.92.42.1.05.2.09.31.14.39.19.78.39,1.17.6.13.07.25.14.38.21.27.15.54.3.8.46.15.09.29.18.44.26.25.15.5.31.75.48.13.09.27.17.4.26.34.23.68.47,1.01.72.07.05.15.11.22.17.31.23.61.47.91.71.13.1.25.21.38.32.23.19.45.38.67.58.13.12.26.23.39.35.23.21.46.43.68.65.1.1.21.2.31.3.31.32.62.64.92.98.09.1.17.2.26.3.22.25.44.5.65.76.11.13.22.27.33.41.19.24.38.48.56.73.1.14.2.27.3.41.22.31.43.62.64.94.05.08.11.16.16.24.25.39.49.79.73,1.2.08.14.15.28.23.41.16.29.32.58.47.88.08.16.16.32.24.48Z"/>
  <path class="cls-1" d="M95.3,84.03h-39.95v-16.85h-31.61c.29,1.09.59,2.16.92,3.16.25.77.51,1.51.79,2.23.54,1.44,1.13,2.8,1.73,4.07.61,1.27,1.25,2.46,1.9,3.59.65,1.12,1.33,2.17,2.01,3.17,1.02,1.49,2.05,2.84,3.07,4.09.68.84,1.35,1.63,2,2.38.33.38.65.75.96,1.11.95,1.09,1.85,2.11,2.66,3.1.81.99,1.54,1.95,2.14,2.92.61.97,1.09,1.94,1.43,2.94.22.67.38,1.36.45,2.08.05.52.11,1.04.17,1.56.02.16.04.31.06.47.04.36.09.73.13,1.09.03.21.06.41.08.62.04.31.08.63.13.94.03.23.07.45.1.68.04.29.08.58.13.87.04.23.07.47.11.7.05.28.09.57.14.85.04.23.08.47.12.7.05.28.1.56.15.83.04.23.09.46.13.7.05.28.1.55.16.83.04.23.09.46.14.69.05.27.11.54.16.8.05.23.1.46.15.69.06.26.11.53.17.79.05.23.1.45.15.67.06.26.12.52.18.78.05.22.11.44.16.67.06.25.12.5.19.75.06.22.11.44.17.65.06.25.13.49.2.73.06.21.12.43.18.64.07.24.13.48.2.71.06.21.12.41.18.62.07.23.14.46.21.69.06.2.13.4.19.6.07.22.15.44.22.66.07.2.13.39.2.58.07.22.15.43.23.64.07.19.14.37.2.55.08.21.16.41.24.62.07.18.14.35.21.53.08.2.16.4.24.59.07.17.14.34.21.5.08.19.17.37.25.56.07.16.15.32.22.47.09.18.17.35.26.52.08.15.15.3.23.44.09.17.18.33.26.49.08.14.15.28.23.41.09.16.18.3.27.45.08.13.16.26.24.38.09.14.19.28.28.41.08.12.16.23.24.35.09.13.19.25.29.37.08.1.16.21.24.31.1.12.2.22.3.33.08.09.16.18.25.27.1.1.2.2.31.29.08.08.16.16.25.23.11.09.21.17.32.25.08.06.16.13.24.18.11.08.22.14.34.2.08.05.16.1.24.14.12.06.24.11.36.16.07.03.15.07.22.09.15.05.3.08.45.12.05,0,.09.03.14.04.2.03.4.05.6.05.21,0,.41-.02.62-.06,4.36-.78,7.24-4.51,5.91-22.83-.77-10.64,9.08-10.65,11.65-10.65s12.42.02,11.65,10.65c-1.33,18.32,1.55,22.05,5.91,22.83.21.04.42.06.62.06.2,0,.4-.02.6-.05.05,0,.1-.03.14-.04.15-.03.3-.07.45-.12.07-.03.15-.06.22-.09.12-.05.24-.09.36-.15.08-.04.16-.1.25-.14.11-.06.22-.12.33-.2.09-.06.17-.13.26-.19.1-.08.21-.15.31-.24.09-.07.17-.16.26-.24.1-.09.2-.18.29-.28.09-.09.17-.19.26-.28.09-.1.19-.21.28-.32.09-.1.17-.22.26-.33.09-.12.18-.23.27-.35.09-.12.17-.24.25-.37.09-.13.18-.26.27-.39.08-.13.17-.27.25-.4.09-.14.17-.28.26-.42.08-.14.17-.29.25-.44.08-.15.17-.3.25-.46.08-.16.16-.32.24-.48.08-.16.16-.32.24-.49.08-.17.16-.34.24-.51.08-.17.16-.34.23-.51.08-.18.16-.36.23-.54.08-.18.15-.36.23-.55.08-.19.15-.38.22-.57.07-.19.15-.38.22-.57.07-.2.15-.4.22-.6.07-.2.14-.39.21-.59.07-.21.14-.41.21-.62.07-.2.14-.41.2-.62.07-.21.14-.43.21-.65.07-.21.13-.43.2-.64.07-.22.13-.44.2-.67.06-.22.13-.44.19-.66.06-.23.13-.45.19-.68.06-.23.12-.46.18-.69.06-.23.12-.46.18-.7.06-.23.12-.47.18-.71.06-.24.12-.47.17-.71.06-.24.11-.48.17-.72.06-.24.11-.48.17-.73.05-.25.11-.5.16-.74.05-.24.1-.48.15-.73.05-.25.1-.51.15-.76.05-.24.1-.49.15-.73.05-.26.1-.52.15-.78.05-.25.09-.49.14-.74.05-.27.09-.53.14-.8.04-.24.09-.49.13-.73.05-.27.09-.55.13-.83.04-.24.08-.47.11-.71.04-.29.09-.58.13-.87.03-.23.07-.46.1-.69.04-.3.08-.6.12-.91.03-.22.06-.43.09-.65.05-.35.09-.71.13-1.06.02-.16.04-.33.06-.49.06-.52.12-1.04.17-1.56.07-.72.23-1.41.45-2.08.33-1.01.82-1.98,1.43-2.94.61-.97,1.33-1.93,2.14-2.92.81-.99,1.71-2.02,2.66-3.1.32-.36.64-.73.96-1.11.65-.76,1.32-1.55,2-2.38,1.02-1.25,2.05-2.61,3.07-4.09.68-.99,1.35-2.04,2.01-3.17.65-1.12,1.29-2.31,1.9-3.59.61-1.27,1.19-2.62,1.73-4.07.27-.72.53-1.47.79-2.23.33-1.01.63-2.07.92-3.16h-30.95v16.85Z"/>
  <rect class="cls-1" x="62.36" y="67.18" width="25.95" height="9.85"/>
  <rect class="cls-1" x="62.36" y="51.08" width="25.95" height="9.1"/>
  <path class="cls-1" d="M124.39,29.74c-.24-.41-.48-.81-.73-1.2-.05-.08-.11-.16-.16-.24-.21-.32-.42-.63-.64-.94-.1-.14-.2-.28-.3-.41-.18-.25-.37-.49-.56-.73-.11-.14-.22-.27-.33-.41-.21-.26-.43-.51-.65-.76-.09-.1-.17-.2-.26-.3-.3-.33-.61-.66-.92-.98-.1-.1-.21-.2-.31-.3-.22-.22-.45-.44-.68-.65-.13-.12-.26-.24-.39-.35-.22-.2-.44-.39-.67-.58-.13-.11-.25-.21-.38-.32-.3-.24-.6-.48-.91-.71-.07-.06-.15-.11-.22-.17-.33-.25-.67-.48-1.01-.72-.13-.09-.27-.18-.4-.26-.25-.16-.5-.32-.75-.48-.14-.09-.29-.18-.44-.26-.26-.16-.53-.31-.8-.46-.13-.07-.25-.14-.38-.21-.39-.21-.77-.41-1.17-.6-.1-.05-.2-.09-.31-.14-.3-.14-.61-.28-.92-.42-.15-.06-.29-.13-.44-.19-.27-.11-.55-.22-.83-.33-.15-.06-.29-.11-.44-.17-.33-.12-.67-.24-1-.35-.09-.03-.17-.06-.26-.09-.42-.13-.84-.26-1.26-.38-.13-.04-.25-.07-.38-.1-.31-.08-.61-.16-.92-.23-.15-.04-.3-.07-.45-.1-.31-.07-.61-.13-.92-.19-.13-.02-.26-.05-.39-.07-.43-.08-.86-.15-1.3-.21-.05,0-.1-.01-.15-.02-.39-.05-.78-.09-1.17-.13-.14-.01-.28-.02-.42-.04-.31-.03-.61-.05-.92-.06-.15,0-.29-.02-.44-.02-.34-.01-.68-.02-1.02-.02-.1,0-.2,0-.29,0-.48,0-.96.01-1.43.04-.12,0-.24.01-.35.02-.39.02-.79.05-1.18.09-.1.01-.21.02-.31.03-.47.05-.95.11-1.41.19-.09.01-.19.03-.28.05-.39.07-.79.14-1.18.22-.11.02-.23.05-.34.07-.47.1-.93.21-1.39.34-.05.01-.1.03-.15.04-.41.12-.82.24-1.23.38-.11.04-.22.07-.33.11-.9.31-1.79.67-2.65,1.07-.1.05-.21.1-.31.15-.38.18-.75.37-1.12.58-.05.03-.11.06-.16.08-.41.23-.82.47-1.22.73-.09.06-.18.12-.27.18-.33.22-.66.44-.98.67-.08.06-.16.11-.24.17-.38.28-.75.57-1.12.88-.07.06-.14.13-.22.19-.3.26-.6.52-.89.8-.09.08-.17.16-.26.24-.34.33-.68.67-1,1.03-.05.05-.09.1-.14.16-.28.31-.56.64-.82.97-.08.1-.16.2-.25.31-.3.39-.6.78-.88,1.19-.28-.41-.58-.81-.88-1.19-.08-.1-.16-.2-.24-.31-.27-.33-.54-.65-.82-.96-.05-.05-.09-.11-.14-.16-.32-.35-.66-.69-1-1.02-.09-.09-.18-.17-.27-.25-.28-.27-.57-.53-.87-.78-.08-.07-.15-.14-.23-.2-.36-.3-.73-.59-1.11-.87-.09-.06-.17-.12-.26-.19-.31-.22-.63-.44-.95-.65-.1-.07-.2-.13-.3-.2-.39-.25-.79-.49-1.2-.71-.07-.04-.13-.07-.2-.11-.35-.19-.71-.38-1.07-.55-.11-.06-.23-.11-.34-.16-.42-.2-.85-.39-1.29-.56-.01,0-.03,0-.04-.01-.43-.17-.86-.33-1.29-.48-.12-.04-.24-.08-.36-.12-.39-.13-.79-.25-1.18-.36-.06-.02-.13-.04-.19-.06-.45-.12-.91-.23-1.37-.34-.12-.03-.24-.05-.36-.08-.38-.08-.76-.15-1.15-.22-.1-.02-.2-.04-.3-.05-.47-.07-.93-.13-1.41-.19-.11-.01-.21-.02-.32-.03-.39-.04-.78-.07-1.17-.09-.12,0-.24-.01-.35-.02-.48-.02-.95-.04-1.43-.04-.1,0-.2,0-.29,0-.34,0-.68,0-1.02.02-.15,0-.29.01-.44.02-.31.02-.62.04-.93.06-.14.01-.28.02-.41.03-.4.04-.8.08-1.19.13-.04,0-.08,0-.12.01-.44.06-.87.13-1.31.21-.12.02-.25.05-.37.07-.32.06-.63.12-.95.19-.14.03-.28.06-.43.1-.32.08-.64.16-.96.24-.11.03-.23.06-.34.09-.43.12-.86.25-1.28.38-.06.02-.12.04-.19.06-.36.12-.72.24-1.08.38-.13.05-.26.1-.39.15-.3.11-.59.23-.89.36-.13.05-.26.11-.39.17-.34.15-.67.3-1.01.46-.07.03-.15.07-.22.1-.4.2-.8.4-1.2.61-.1.05-.2.11-.3.17-.3.16-.59.33-.88.51-.13.08-.25.15-.38.23-.28.17-.55.35-.83.53-.11.07-.22.14-.33.22-.38.25-.75.52-1.11.79,0,0-.02.01-.02.02-.36.26-.71.54-1.05.82-.11.09-.21.18-.32.27-.25.21-.5.42-.74.64-.11.1-.22.2-.33.3-.26.24-.51.48-.77.73-.08.08-.16.15-.24.23-.32.33-.64.66-.95,1.01-.06.07-.13.15-.19.22-.24.28-.48.56-.72.85-.1.12-.19.24-.28.36-.21.26-.41.53-.61.8-.09.12-.18.24-.26.36-.24.34-.48.69-.71,1.04-.03.05-.06.09-.09.14-.26.4-.51.81-.75,1.23-.07.12-.13.24-.2.36-.17.31-.34.62-.5.94-.07.14-.15.29-.22.44-.16.32-.31.65-.46.98-.06.13-.12.25-.17.38-.2.46-.39.92-.57,1.39-.02.07-.05.13-.07.2-.15.41-.3.83-.43,1.25-.05.16-.1.31-.15.47-.11.35-.21.7-.3,1.06-.04.17-.09.33-.13.5-.1.41-.2.82-.29,1.24-.02.11-.05.22-.07.33-.11.53-.2,1.06-.28,1.6-.02.14-.04.28-.06.43-.06.41-.11.83-.15,1.25-.02.19-.04.38-.05.57-.04.4-.07.81-.09,1.22-.01.18-.02.36-.03.54-.03.58-.04,1.17-.04,1.77,0,5.08.36,9.56.97,13.57.14-.02.28-.04.42-.04h32.63v-16.1h39.95v16.1h31.97c.14,0,.28.03.42.04.62-4.01.97-8.49.97-13.57,0-.6-.02-1.19-.04-1.77,0-.18-.02-.36-.03-.54-.02-.41-.05-.81-.09-1.22-.02-.19-.03-.38-.05-.57-.04-.42-.1-.83-.15-1.24-.02-.14-.04-.29-.06-.43-.08-.54-.18-1.07-.28-1.6-.02-.12-.05-.23-.08-.35-.09-.41-.18-.82-.28-1.22-.04-.17-.09-.35-.14-.52-.09-.35-.19-.69-.3-1.03-.05-.17-.1-.33-.15-.5-.13-.4-.27-.8-.41-1.19-.03-.09-.06-.17-.09-.26-.18-.47-.36-.92-.56-1.37-.06-.14-.13-.28-.19-.43-.14-.31-.29-.62-.44-.93-.08-.16-.16-.32-.24-.48-.15-.3-.31-.59-.47-.88-.08-.14-.15-.28-.23-.41Z"/>
</svg>