<?xml version="1.0" encoding="UTF-8"?>
<svg id="_レイヤー_1" data-name=" レイヤー 1" xmlns="http://www.w3.org/2000/svg" version="1.1" viewBox="0 0 150 150">
  <defs>
    <style>
      .cls-1 {
        fill: #fff;
      }

      .cls-1, .cls-2 {
        stroke-width: 0px;
      }

      .cls-2 {
        fill: #0d498c;
      }
    </style>
  </defs>
  <path class="cls-2" d="M35.35,104.06c1,9.59,2.9,18.69,5.35,25.61,1.38,3.91,5.59,15.8,15.23,15.8.63,0,1.27-.06,1.89-.17,12.96-2.31,12.96-17.38,11.94-31.32-.09-1.26.06-2.27.4-2.63.29-.31,1.33-1.03,4.83-1.03s4.54.72,4.83,1.03c.34.36.49,1.37.4,2.63-1.01,13.94-1.01,29.02,11.95,31.32.62.11,1.26.17,1.89.17,9.64,0,13.85-11.89,15.23-15.8,2.45-6.92,4.35-16.02,5.35-25.61.19-1.83,2.34-4.3,5.06-7.42,7.39-8.47,18.55-21.26,18.55-51.35,0-26.47-20.62-40.75-40.02-40.75-8.94,0-17.05,2.89-23.24,8.13-6.18-5.24-14.29-8.13-23.24-8.13-19.4,0-40.02,14.28-40.02,40.75,0,30.09,11.16,42.89,18.55,51.35,2.72,3.12,4.87,5.58,5.06,7.42ZM24.89,76.72c.64,1.33,1.31,2.58,1.99,3.76-.69-1.18-1.35-2.43-1.99-3.76ZM26.36,49.5c-2.68,0-5.21.66-7.44,1.81-.11-1.92-.18-3.91-.18-6.02,0-.63.02-1.24.04-1.85,0-.19.02-.37.03-.56.02-.43.06-.85.09-1.27.02-.2.04-.4.06-.6.05-.44.1-.88.16-1.31.02-.15.04-.3.06-.44.09-.57.19-1.13.3-1.68.02-.12.05-.23.08-.34.09-.44.19-.87.3-1.3.04-.18.09-.35.14-.53.1-.37.21-.74.32-1.11.05-.17.1-.33.15-.5.14-.44.29-.87.45-1.3.03-.07.05-.15.08-.22.19-.5.39-.98.59-1.46.06-.13.12-.27.18-.4.16-.35.32-.69.48-1.03.08-.15.15-.31.23-.46.17-.33.35-.66.53-.98.07-.13.14-.25.21-.38.25-.44.51-.87.78-1.29.03-.05.07-.1.1-.15.24-.37.49-.73.75-1.09.09-.13.18-.25.28-.38.21-.28.42-.56.64-.83.1-.13.2-.25.3-.37.25-.3.5-.6.75-.89.07-.08.13-.15.2-.23.33-.36.66-.71,1-1.06.08-.08.17-.16.25-.24.26-.26.53-.52.8-.77.11-.11.23-.21.35-.31.26-.23.52-.45.78-.67.11-.09.22-.19.33-.28.36-.3.73-.58,1.1-.86,0,0,.02-.01.02-.02.38-.29.77-.56,1.17-.83.11-.08.23-.15.35-.23.29-.19.58-.37.87-.55.13-.08.26-.16.39-.24.31-.18.62-.36.93-.53.1-.06.21-.12.31-.17.42-.22.83-.44,1.26-.64.08-.04.16-.07.23-.11.35-.17.7-.33,1.05-.48.14-.06.28-.12.41-.17.31-.13.62-.25.93-.37.14-.05.27-.11.41-.16.37-.14.75-.27,1.13-.39.07-.02.13-.05.2-.07.44-.14.89-.28,1.34-.4.12-.03.24-.06.37-.1.33-.09.66-.17,1-.25.15-.04.3-.07.45-.1.33-.07.65-.14.98-.2.13-.03.27-.05.4-.08.46-.08.91-.15,1.37-.22.04,0,.08,0,.12-.01.42-.06.83-.1,1.25-.14.15-.01.29-.02.44-.04.32-.03.64-.05.97-.07.15,0,.31-.02.46-.02.35-.01.71-.02,1.06-.02.08,0,.17,0,.25,0,.02,0,.04,0,.06,0,.5,0,1,.02,1.5.04.13,0,.25.01.38.02.41.02.82.06,1.22.1.11.01.23.02.34.03.49.05.98.12,1.47.19.11.02.21.04.31.05.4.07.8.14,1.2.23.13.03.25.05.38.08.48.11.96.22,1.44.35.07.02.13.04.2.06.42.12.83.24,1.24.38.13.04.25.08.38.13.45.16.91.32,1.35.5.01,0,.03.01.04.02.46.18.91.38,1.35.59.12.06.24.11.36.17.38.18.75.38,1.12.58.07.04.14.07.21.11.43.24.85.49,1.26.75.11.07.21.14.31.2.34.22.67.45,1,.68.09.06.18.13.27.19.39.29.78.59,1.16.91.08.07.16.14.25.21.31.26.61.54.91.82.09.09.19.17.28.26.36.35.71.7,1.05,1.08.05.06.1.11.15.17.29.33.58.66.86,1.01.09.11.17.21.26.32.32.41.63.82.92,1.25.3-.43.61-.84.92-1.25.08-.11.17-.21.26-.32.28-.35.57-.69.86-1.02.05-.05.09-.11.14-.16.34-.37.69-.73,1.05-1.08.09-.08.18-.17.27-.25.31-.29.62-.57.93-.84.08-.06.15-.13.23-.19.38-.32.77-.62,1.17-.92.08-.06.16-.12.24-.17.34-.24.68-.48,1.03-.71.1-.06.19-.12.29-.19.42-.27.85-.52,1.28-.76.05-.03.11-.06.17-.09.39-.21.78-.41,1.18-.6.11-.05.22-.1.33-.16.9-.42,1.83-.8,2.78-1.12.12-.04.23-.08.35-.12.43-.14.86-.27,1.29-.39.05-.01.11-.03.16-.05.48-.13.97-.25,1.45-.36.12-.03.24-.05.36-.07.41-.08.82-.16,1.23-.23.1-.02.2-.03.3-.05.49-.08.98-.14,1.48-.19.11-.01.22-.02.33-.03.41-.04.82-.07,1.23-.1.12,0,.25-.02.37-.02.5-.02,1-.04,1.5-.04.02,0,.04,0,.06,0,.08,0,.17,0,.25,0-.03,0-.06,0-.1,0-1.03,3.02-1.59,6.26-1.59,9.62,0,16.34,13.25,29.59,29.59,29.59,1.62,0,3.2-.15,4.74-.42-.09,1.97-.23,3.87-.42,5.66-.48,4.36-1.24,8.21-2.2,11.64-.96,3.43-2.12,6.43-3.4,9.1-.64,1.33-1.31,2.58-1.99,3.76-3.09,5.29-6.54,9.09-9.41,12.39-1.59,1.83-3,3.51-4.06,5.19-.21.34-.41.68-.59,1.02-.37.68-.67,1.37-.9,2.07s-.39,1.43-.47,2.18c-.06.54-.12,1.09-.18,1.64-.02.19-.05.39-.07.58-.04.35-.08.7-.13,1.06-.03.23-.06.46-.09.69-.04.32-.08.63-.13.95-.03.24-.07.48-.11.72-.04.3-.09.6-.13.91-.04.25-.08.5-.12.74-.05.29-.09.58-.14.88-.04.25-.09.51-.13.76-.05.28-.1.56-.15.84-.05.26-.1.52-.14.77-.05.27-.1.54-.15.82-.05.26-.1.51-.15.77-.05.27-.11.54-.16.8-.05.26-.11.51-.16.77-.06.26-.11.52-.17.77-.06.26-.12.51-.17.77-.06.25-.12.51-.18.76-.06.25-.12.5-.18.75-.06.25-.12.49-.18.74-.06.25-.13.49-.19.73-.06.24-.13.48-.19.72-.07.24-.13.48-.2.71-.07.23-.13.47-.2.7-.07.23-.14.47-.21.7-.07.23-.14.45-.21.67-.07.23-.14.45-.21.67-.07.22-.14.44-.21.65-.07.22-.15.44-.22.65-.07.21-.15.42-.22.62-.08.21-.15.42-.23.63-.08.2-.15.4-.23.6-.08.2-.16.4-.24.6-.08.19-.16.38-.24.57-.08.19-.16.38-.24.57-.08.18-.16.36-.24.54-.08.18-.17.36-.25.53-.08.17-.17.34-.25.51-.08.17-.17.34-.25.5-.09.16-.17.32-.26.48-.09.16-.17.31-.26.46-.09.15-.18.3-.27.44-.09.14-.18.29-.26.43-.09.14-.18.27-.28.41-.09.13-.18.26-.27.39-.09.13-.19.25-.28.37-.09.12-.18.23-.27.34-.1.12-.2.22-.3.33-.09.1-.18.2-.27.3-.1.1-.2.2-.31.29-.09.08-.18.17-.27.25-.11.09-.21.17-.32.25-.09.07-.18.14-.27.2-.11.08-.23.14-.34.2-.09.05-.17.11-.26.15-.12.06-.25.11-.37.16-.08.03-.16.07-.24.1-.15.05-.31.09-.47.12-.05.01-.1.03-.15.04-.21.03-.41.05-.62.05,0,0,0,0,0,0-.22,0-.43-.02-.65-.06-.71-.13-1.39-.33-2.02-.65-.32-.17-.63-.37-.92-.6-.17-.13-.33-.27-.49-.43-.22-.22-.42-.47-.62-.74-.1-.14-.2-.28-.29-.43-.31-.49-.58-1.07-.83-1.74-.28-.76-.53-1.64-.73-2.67-.11-.55-.2-1.14-.28-1.77-.04-.34-.08-.7-.12-1.07-.1-.99-.17-2.08-.2-3.27-.02-.82-.04-1.69-.03-2.61,0-.92.03-1.89.06-2.92.06-1.54.15-3.21.28-5.01.05-.7.06-1.35.03-1.96-.11-2.14-.7-3.79-1.57-5.05-.12-.18-.25-.35-.39-.52-.54-.66-1.16-1.2-1.83-1.64-.17-.11-.34-.21-.51-.31-.69-.39-1.41-.7-2.14-.93-2.36-.75-4.71-.75-5.81-.75-2.7,0-13.02.02-12.21,11.17.22,3,.33,5.63.34,7.93.02,2.76-.11,5.05-.35,6.95-.12.95-.27,1.8-.45,2.57-.36,1.53-.83,2.71-1.39,3.62-.09.15-.19.3-.29.43-.2.27-.41.52-.62.74-.11.11-.22.21-.33.31-.34.29-.7.53-1.07.73-.63.32-1.3.53-2.02.65-.22.04-.44.06-.65.06,0,0,0,0,0,0-.21,0-.42-.02-.62-.05-.05,0-.1-.03-.15-.04-.16-.03-.32-.07-.47-.12-.08-.03-.15-.07-.23-.1-.13-.05-.25-.1-.38-.16-.08-.04-.17-.1-.25-.15-.12-.07-.23-.13-.35-.21-.09-.06-.17-.13-.26-.2-.11-.08-.22-.16-.33-.26-.09-.07-.17-.16-.26-.24-.11-.1-.22-.2-.32-.31-.09-.09-.17-.19-.26-.28-.1-.11-.21-.23-.31-.35-.09-.1-.17-.21-.26-.32-.1-.13-.2-.26-.3-.39-.08-.12-.17-.24-.25-.36-.1-.14-.2-.28-.29-.43-.08-.13-.17-.26-.25-.4-.1-.16-.19-.31-.29-.47-.08-.14-.16-.29-.24-.43-.09-.17-.19-.34-.28-.51-.08-.15-.16-.31-.24-.47-.09-.18-.18-.36-.27-.55-.08-.16-.15-.33-.23-.5-.09-.19-.18-.39-.26-.58-.08-.17-.15-.35-.22-.52-.09-.2-.17-.41-.26-.62-.07-.18-.15-.37-.22-.55-.08-.21-.17-.43-.25-.65-.07-.19-.14-.38-.21-.58-.08-.22-.16-.45-.24-.68-.07-.2-.14-.4-.2-.6-.08-.23-.16-.47-.23-.7-.07-.21-.13-.42-.2-.63-.07-.24-.15-.48-.22-.72-.06-.21-.13-.43-.19-.65-.07-.25-.14-.5-.21-.75-.06-.22-.12-.44-.18-.66-.07-.26-.14-.51-.21-.77-.06-.23-.12-.45-.18-.68-.07-.26-.13-.53-.2-.79-.06-.23-.11-.46-.17-.7-.06-.27-.13-.54-.19-.82-.05-.23-.11-.46-.16-.7-.06-.28-.12-.56-.18-.84-.05-.23-.1-.47-.15-.7-.06-.29-.12-.58-.17-.86-.05-.24-.09-.47-.14-.71-.06-.29-.11-.58-.16-.87-.04-.24-.09-.48-.13-.72-.05-.29-.1-.59-.15-.88-.04-.24-.08-.48-.12-.73-.05-.3-.1-.61-.15-.91-.04-.24-.08-.47-.11-.71-.05-.31-.09-.63-.14-.94-.03-.23-.07-.46-.1-.69-.05-.33-.09-.65-.13-.98-.03-.22-.06-.44-.09-.66-.05-.36-.09-.72-.13-1.08-.02-.19-.05-.37-.07-.56-.06-.55-.12-1.09-.18-1.64-.08-.75-.24-1.47-.47-2.18-.23-.7-.54-1.39-.9-2.07-.18-.34-.38-.68-.59-1.02-1.06-1.69-2.47-3.36-4.06-5.19-2.56-2.95-5.6-6.31-8.42-10.77,8.32-.76,14.83-7.75,14.83-16.26,0-9.02-7.32-16.34-16.34-16.34Z"/>
  <path class="cls-1" d="M27.87,82.1c2.82,4.46,5.86,7.82,8.42,10.77,1.59,1.83,3,3.51,4.06,5.19.21.34.41.68.59,1.02.37.68.67,1.37.9,2.07.23.7.39,1.43.47,2.18.06.54.12,1.09.18,1.64.02.19.05.37.07.56.04.36.09.72.13,1.08.03.22.06.44.09.66.04.33.09.65.13.98.03.23.07.46.1.69.05.31.09.63.14.94.04.24.08.47.11.71.05.3.1.61.15.91.04.24.08.48.12.73.05.29.1.59.15.88.04.24.09.48.13.72.05.29.11.58.16.87.05.24.09.47.14.71.06.29.11.58.17.86.05.24.1.47.15.7.06.28.12.56.18.84.05.23.11.47.16.7.06.27.13.55.19.82.06.23.11.46.17.7.07.27.13.53.2.79.06.23.12.45.18.68.07.26.14.52.21.77.06.22.12.44.18.66.07.25.14.5.21.75.06.22.13.43.19.65.07.24.15.49.22.72.07.21.13.42.2.63.08.24.15.47.23.7.07.2.14.4.2.6.08.23.16.46.24.68.07.19.14.39.21.58.08.22.16.43.25.65.07.19.15.37.22.55.08.21.17.41.26.62.07.18.15.35.22.52.09.2.18.39.26.58.08.17.15.33.23.5.09.19.18.37.27.55.08.16.16.32.24.47.09.17.18.34.28.51.08.15.16.29.24.43.09.16.19.32.29.47.08.13.16.27.25.4.1.15.2.29.29.43.08.12.17.24.25.36.1.14.2.26.3.39.09.11.17.22.26.32.1.12.21.23.31.35.09.09.17.19.26.28.11.11.21.21.32.31.09.08.17.16.26.24.11.09.22.17.33.26.09.07.17.14.26.2.12.08.23.14.35.21.08.05.17.1.25.15.13.06.25.11.38.16.08.03.15.07.23.1.16.05.31.09.47.12.05.01.1.03.15.04.21.04.42.05.63.05.22,0,.44-.02.65-.06.71-.13,1.39-.33,2.02-.65.38-.19.74-.43,1.07-.73.11-.1.22-.2.33-.31.22-.22.42-.47.62-.74.1-.14.2-.28.29-.43.56-.91,1.03-2.09,1.39-3.62.18-.76.33-1.62.45-2.57.24-1.9.37-4.19.35-6.95-.01-2.3-.12-4.93-.34-7.93-.81-11.15,9.52-11.17,12.21-11.17,1.1,0,3.45,0,5.81.75.72.23,1.45.53,2.14.93.17.1.34.2.51.31.67.44,1.29.98,1.83,1.64.13.16.26.34.39.52.87,1.26,1.46,2.91,1.57,5.05.03.61.02,1.27-.03,1.96-.13,1.8-.22,3.47-.28,5.01-.04,1.03-.06,2-.06,2.92,0,.92,0,1.79.03,2.61.04,1.19.1,2.28.2,3.27.04.37.08.73.12,1.07.08.63.18,1.22.28,1.77.2,1.03.45,1.91.73,2.67.25.67.53,1.25.83,1.74.09.15.19.3.29.43.2.27.41.52.62.74.16.16.32.3.49.43.29.24.6.44.92.6.63.32,1.3.53,2.02.65.22.04.44.06.65.06.21,0,.42-.02.63-.05.05,0,.1-.03.15-.04.16-.03.31-.07.47-.12.08-.03.16-.07.24-.1.12-.05.25-.1.37-.16.09-.04.17-.1.26-.15.11-.07.23-.13.34-.2.09-.06.18-.13.27-.2.11-.08.22-.16.32-.25.09-.08.18-.17.27-.25.1-.1.21-.19.31-.29.09-.09.18-.2.27-.3.1-.11.2-.22.3-.33.09-.11.18-.23.27-.34.1-.12.19-.24.28-.37.09-.12.18-.26.27-.39.09-.13.18-.27.28-.41.09-.14.18-.28.26-.43.09-.15.18-.29.27-.44.09-.15.17-.31.26-.46.09-.16.17-.32.26-.48.09-.16.17-.33.25-.5.08-.17.17-.34.25-.51.08-.17.17-.35.25-.53.08-.18.16-.36.24-.54.08-.19.16-.38.24-.57.08-.19.16-.38.24-.57.08-.2.16-.4.24-.6.08-.2.15-.39.23-.6.08-.21.16-.42.23-.63.07-.2.15-.41.22-.62.08-.22.15-.43.22-.65.07-.22.14-.43.21-.65.07-.22.14-.45.21-.67.07-.22.14-.45.21-.67.07-.23.14-.46.21-.7.07-.23.13-.46.2-.7.07-.24.13-.47.2-.71.06-.24.13-.48.19-.72.06-.24.13-.49.19-.73.06-.24.12-.49.18-.74.06-.25.12-.5.18-.75.06-.25.12-.5.18-.76.06-.25.12-.51.17-.77.06-.26.11-.51.17-.77.05-.26.11-.51.16-.77.06-.27.11-.53.16-.8.05-.26.1-.51.15-.77.05-.27.1-.54.15-.82.05-.26.1-.51.14-.77.05-.28.1-.56.15-.84.04-.25.09-.51.13-.76.05-.29.09-.58.14-.88.04-.25.08-.49.12-.74.05-.3.09-.6.13-.91.04-.24.07-.48.11-.72.04-.32.09-.63.13-.95.03-.23.06-.46.09-.69.05-.35.09-.7.13-1.06.02-.19.05-.39.07-.58.06-.55.12-1.09.18-1.64.08-.75.24-1.47.47-2.18s.54-1.39.9-2.07c.18-.34.38-.68.59-1.02,1.06-1.69,2.47-3.36,4.06-5.19,2.86-3.3,6.32-7.1,9.41-12.39.69-1.18,1.35-2.43,1.99-3.76,1.28-2.67,2.44-5.67,3.4-9.1.96-3.43,1.72-7.28,2.2-11.64.2-1.79.33-3.69.42-5.66-1.54.27-3.11.42-4.74.42-16.34,0-29.59-13.25-29.59-29.59,0-3.36.56-6.6,1.59-9.62-.07,0-.14,0-.22,0-.5,0-1,.02-1.5.04-.12,0-.25.01-.37.02-.41.02-.82.06-1.23.1-.11.01-.22.02-.33.03-.5.05-.99.12-1.48.19-.1.02-.2.03-.3.05-.41.07-.82.15-1.23.23-.12.02-.24.05-.36.07-.49.11-.97.22-1.45.36-.05.01-.11.03-.16.05-.43.12-.86.25-1.29.39-.12.04-.23.08-.35.12-.95.32-1.87.7-2.78,1.12-.11.05-.22.1-.33.16-.4.19-.79.39-1.18.6-.05.03-.11.06-.17.09-.43.24-.86.5-1.28.76-.1.06-.19.12-.29.19-.35.23-.69.46-1.03.71-.08.06-.16.11-.24.17-.4.29-.79.6-1.17.92-.08.06-.15.13-.23.19-.32.27-.63.55-.93.84-.09.08-.18.17-.27.25-.36.35-.71.71-1.05,1.08-.05.05-.09.11-.14.16-.3.33-.58.67-.86,1.02-.09.11-.17.21-.26.32-.32.41-.63.82-.92,1.25-.3-.43-.61-.84-.92-1.25-.09-.11-.17-.22-.26-.32-.28-.34-.56-.68-.86-1.01-.05-.06-.1-.11-.15-.17-.34-.37-.69-.73-1.05-1.08-.09-.09-.18-.17-.28-.26-.3-.28-.6-.55-.91-.82-.08-.07-.16-.14-.25-.21-.38-.31-.76-.62-1.16-.91-.09-.07-.18-.13-.27-.19-.33-.24-.66-.46-1-.68-.1-.07-.21-.14-.31-.2-.41-.26-.83-.51-1.26-.75-.07-.04-.14-.07-.21-.11-.37-.2-.75-.39-1.12-.58-.12-.06-.24-.12-.36-.17-.45-.21-.89-.41-1.35-.59-.01,0-.03-.01-.04-.02-.44-.18-.9-.34-1.35-.5-.13-.04-.25-.09-.38-.13-.41-.13-.82-.26-1.24-.38-.07-.02-.13-.04-.2-.06-.47-.13-.95-.25-1.44-.35-.13-.03-.25-.05-.38-.08-.4-.08-.8-.16-1.2-.23-.1-.02-.21-.04-.31-.05-.49-.08-.98-.14-1.47-.19-.11-.01-.23-.02-.34-.03-.41-.04-.81-.07-1.22-.1-.13,0-.25-.02-.38-.02-.5-.02-1-.04-1.5-.04-.1,0-.21,0-.31,0-.35,0-.71.01-1.06.02-.15,0-.31.01-.46.02-.32.02-.64.04-.97.07-.15.01-.29.02-.44.04-.42.04-.83.09-1.25.14-.04,0-.08,0-.12.01-.46.06-.91.14-1.37.22-.13.02-.27.05-.4.08-.33.06-.66.13-.98.2-.15.03-.3.07-.45.1-.33.08-.67.16-1,.25-.12.03-.24.06-.37.1-.45.12-.9.26-1.34.4-.07.02-.13.05-.2.07-.38.12-.76.26-1.13.39-.14.05-.27.1-.41.16-.31.12-.62.24-.93.37-.14.06-.28.11-.41.17-.35.15-.71.31-1.05.48-.08.04-.16.07-.23.11-.42.21-.84.42-1.26.64-.11.06-.21.12-.31.17-.31.17-.62.35-.93.53-.13.08-.26.16-.39.24-.29.18-.58.36-.87.55-.12.08-.23.15-.35.23-.39.27-.79.54-1.17.83,0,0-.02.01-.02.02-.37.28-.74.57-1.1.86-.11.09-.22.19-.33.28-.26.22-.52.45-.78.67-.12.1-.23.21-.35.31-.27.25-.54.51-.8.77-.08.08-.17.16-.25.24-.34.34-.67.7-1,1.06-.07.08-.13.15-.2.23-.26.29-.51.59-.75.89-.1.12-.2.25-.3.37-.22.27-.43.55-.64.83-.09.13-.19.25-.28.38-.25.36-.5.72-.75,1.09-.03.05-.07.1-.1.15-.27.42-.53.85-.78,1.29-.07.12-.14.25-.21.38-.18.32-.36.65-.53.98-.08.15-.15.3-.23.46-.17.34-.33.68-.48,1.03-.06.13-.12.26-.18.4-.21.48-.41.96-.59,1.46-.03.07-.05.14-.08.22-.16.43-.31.86-.45,1.3-.05.17-.1.33-.15.5-.11.36-.22.73-.32,1.11-.05.17-.09.35-.14.53-.11.43-.21.86-.3,1.3-.02.12-.05.23-.08.34-.11.55-.21,1.11-.3,1.68-.02.15-.04.3-.06.44-.06.43-.12.87-.16,1.31-.02.2-.04.4-.06.6-.04.42-.07.84-.09,1.27-.01.19-.02.37-.03.56-.03.61-.04,1.23-.04,1.85,0,2.11.07,4.1.18,6.02,2.23-1.15,4.76-1.81,7.44-1.81,9.02,0,16.34,7.32,16.34,16.34,0,8.52-6.52,15.5-14.83,16.26Z"/>
</svg>