<?xml version="1.0" encoding="UTF-8"?>
<svg id="_レイヤー_1" data-name=" レイヤー 1" xmlns="http://www.w3.org/2000/svg" version="1.1" viewBox="0 0 150 150">
  <defs>
    <style>
      .cls-1 {
        fill: #fff;
      }

      .cls-1, .cls-2 {
        stroke-width: 0px;
      }

      .cls-2 {
        fill: #0d498c;
      }
    </style>
  </defs>
  <path class="cls-2" d="M12.36,96.03c-.24,2.02-3.34,7.37-5.22,9.14-2.85.89-4.91,3.54-4.91,6.68s2.07,5.8,4.91,6.68c1.89,1.78,4.98,7.13,5.22,9.14.04,3.83,3.16,6.92,7,6.92s6.95-3.09,7-6.92c.24-2.02,3.34-7.37,5.22-9.14,1.77-.55,3.24-1.79,4.1-3.41,1.01,7.05,2.52,13.61,4.37,18.84,1.32,3.72,5.32,15.04,14.65,15.04.61,0,1.23-.06,1.84-.16,5.06-.9,8.65-4.16,10.39-9.41,1.48-4.47,1.83-10.73,1.14-20.28-.1-1.39.14-1.98.25-2.09.13-.13.91-.81,4.15-.81s4.03.67,4.15.81c.1.11.35.7.25,2.09-.69,9.55-.34,15.81,1.14,20.28,1.74,5.26,5.33,8.51,10.39,9.41.61.11,1.23.16,1.84.16,9.32,0,13.33-11.32,14.65-15.04,2.3-6.48,4.08-15,5.01-23.97.16-1.56,2.22-3.92,4.6-6.65,6.93-7.94,17.4-19.94,17.4-48.17,0-3.09-.3-6-.86-8.73,3.65-.21,6.56-3.2,6.6-6.9.24-2.02,3.34-7.37,5.22-9.14,2.85-.89,4.91-3.54,4.91-6.68s-2.07-5.8-4.91-6.68c-1.89-1.78-4.98-7.13-5.22-9.14-.04-3.83-3.16-6.92-7-6.92s-6.95,3.09-7,6.92c-.24,2.02-3.34,7.37-5.22,9.14-2.33.73-4.12,2.65-4.7,5.04-6.01-3.53-12.88-5.35-19.6-5.35-8.3,0-15.85,2.64-21.65,7.43-5.81-4.79-13.35-7.43-21.65-7.43-18.31,0-37.77,13.48-37.77,38.45,0,15.62,3.21,26.26,7.24,34-.3-.04-.61-.07-.92-.07-3.84,0-6.95,3.09-7,6.92ZM31.58,105.17c-.8-.76-1.82-2.16-2.75-3.68.55.64,1.09,1.26,1.61,1.85.63.73,1.24,1.42,1.8,2.09-.21-.09-.42-.19-.65-.26ZM124.64,20.54c.42-.52.85-1.08,1.26-1.67.42-.59.83-1.21,1.22-1.85.39-.64.77-1.29,1.12-1.95,1.4-2.63,2.39-5.29,2.39-7.09,0,1.2.44,2.78,1.15,4.49.09.21.18.43.28.64.29.65.61,1.31.96,1.96.47.88.98,1.75,1.52,2.58.27.42.54.82.82,1.22,1.94,2.76,4.05,4.85,5.41,4.85-1.16,0-2.87,1.54-4.57,3.71-.28.36-.56.74-.84,1.14-.69.98-1.37,2.05-1.98,3.14-.24.44-.48.87-.7,1.31-.22.44-.43.87-.62,1.31-.39.86-.71,1.7-.95,2.49-.18.59-.32,1.15-.39,1.67-.05.34-.08.67-.08.97,0-.3-.03-.62-.08-.97-.08-.52-.21-1.08-.39-1.67-.3-.98-.73-2.05-1.25-3.14-.1-.22-.21-.44-.32-.66-.22-.44-.46-.88-.7-1.31-.24-.44-.5-.87-.76-1.29-.65-1.06-1.35-2.08-2.06-2.99-.14-.18-.28-.36-.42-.53-1.55-1.89-3.08-3.18-4.14-3.18,1.06,0,2.59-1.29,4.14-3.18ZM20.04,55.18s0,0,0,0c0-.9.04-1.77.1-2.62.01-.2.03-.39.04-.58.07-.83.16-1.66.29-2.45.02-.11.04-.22.06-.33.12-.72.26-1.43.42-2.12.04-.16.07-.32.11-.48.19-.75.39-1.48.63-2.2.05-.15.1-.29.15-.43.22-.64.45-1.26.71-1.87.05-.11.09-.22.13-.33.29-.67.6-1.32.93-1.96.08-.15.15-.29.23-.43.33-.61.67-1.2,1.04-1.78.02-.03.04-.07.06-.1.38-.6.79-1.17,1.21-1.73.1-.13.2-.26.3-.39.42-.54.86-1.07,1.32-1.58.05-.06.11-.11.16-.17.42-.46.86-.91,1.31-1.34.11-.1.21-.21.32-.31.49-.46.99-.89,1.51-1.31.1-.08.2-.16.3-.24.47-.37.94-.72,1.43-1.06.1-.07.2-.14.3-.21.55-.37,1.1-.72,1.67-1.05.13-.08.26-.15.39-.22.54-.31,1.08-.6,1.63-.87.06-.03.11-.06.17-.09.6-.29,1.2-.55,1.81-.8.14-.06.29-.12.43-.17.61-.24,1.23-.47,1.86-.67.05-.02.1-.03.15-.04.59-.19,1.19-.35,1.79-.51.14-.04.29-.07.43-.11.63-.15,1.26-.28,1.9-.4.11-.02.22-.03.33-.05.57-.09,1.15-.17,1.72-.24.12-.01.25-.03.37-.04.64-.06,1.28-.1,1.92-.13.14,0,.28,0,.41,0,.23,0,.47-.02.7-.02.31,0,.61.01.91.02.16,0,.31,0,.47.01.65.03,1.3.08,1.94.15.14.01.27.04.4.05.52.06,1.04.14,1.55.24.18.03.37.07.55.1.56.11,1.12.24,1.68.39.07.02.15.03.22.05.62.17,1.23.36,1.83.57.16.06.32.12.48.18.47.17.93.36,1.38.56.16.07.31.13.47.2.58.27,1.15.55,1.71.86.08.04.15.09.23.13.48.28.96.57,1.42.88.15.1.31.21.46.31.43.3.85.61,1.26.94.1.08.2.16.3.24.49.41.97.84,1.43,1.29.11.11.22.23.33.34.36.36.71.74,1.04,1.13.12.14.25.28.37.43.42.51.83,1.04,1.21,1.6.38-.56.79-1.09,1.21-1.6.12-.15.24-.29.37-.43.34-.39.68-.77,1.04-1.13.11-.12.22-.23.34-.35.46-.45.94-.88,1.43-1.29.11-.09.21-.17.32-.25.4-.32.82-.63,1.24-.93.16-.11.32-.22.48-.33.45-.3.91-.59,1.38-.85.09-.05.17-.11.26-.15.55-.31,1.12-.59,1.69-.85.16-.08.33-.14.49-.22.44-.19.89-.38,1.35-.54.17-.06.34-.13.51-.19.6-.21,1.2-.4,1.82-.57.08-.02.17-.04.25-.06.54-.14,1.09-.27,1.64-.38.19-.04.38-.07.57-.11.51-.09,1.02-.17,1.54-.23.14-.02.28-.04.41-.05.64-.07,1.29-.12,1.93-.15.16,0,.31,0,.47-.01.3,0,.61-.02.91-.02.23,0,.47.01.7.02.14,0,.27,0,.41,0,.64.02,1.28.06,1.92.13.12.01.25.03.37.04.58.06,1.16.14,1.73.24.11.02.21.03.32.05.64.11,1.28.25,1.91.4.14.03.27.07.41.1.61.16,1.22.32,1.83.52.04.01.08.02.11.03.63.2,1.26.43,1.88.68.13.05.27.11.4.16.62.25,1.23.52,1.84.82.04.02.08.04.12.06.57.28,1.14.59,1.7.9.12.07.23.13.35.2.58.34,1.15.7,1.7,1.08.09.06.17.12.25.18.51.35,1,.72,1.49,1.11.09.07.17.13.26.2.53.43,1.04.87,1.54,1.34.1.09.19.18.29.27.47.45.93.92,1.37,1.4.04.04.08.08.11.12.47.52.91,1.06,1.34,1.61.09.12.18.24.27.35.43.57.84,1.15,1.23,1.76,0,.01.02.03.03.05.38.59.73,1.21,1.07,1.84.07.13.15.27.22.4.33.64.65,1.3.95,1.98.04.1.08.2.12.3.26.62.5,1.26.72,1.91.05.14.1.27.14.41.23.72.44,1.46.63,2.21.04.15.07.31.11.47.16.7.31,1.41.43,2.14.02.11.04.21.06.32.12.8.22,1.62.29,2.46.02.19.03.38.04.58.06.86.1,1.73.1,2.63,0,11.29-1.79,19.65-4.34,26.1-.77,1.94-1.6,3.7-2.48,5.32-.88,1.62-1.8,3.1-2.73,4.46-1,1.45-2.01,2.78-3,4-1.33,1.63-2.62,3.09-3.81,4.46-.89,1.02-1.72,2-2.45,2.95-.49.64-.94,1.26-1.33,1.89-.99,1.57-1.65,3.16-1.83,4.91-.05.51-.11,1.02-.17,1.52-.02.18-.04.36-.07.54-.04.33-.08.65-.12.98-.03.21-.06.41-.08.62-.04.3-.08.61-.12.91-.03.22-.06.43-.09.65-.04.29-.08.58-.13.87-.04.24-.07.47-.11.71-.04.27-.08.53-.13.8-.04.24-.08.48-.12.71-.05.26-.09.52-.14.79-.04.24-.09.48-.13.72-.05.25-.09.51-.14.76-.05.24-.09.48-.14.71-.05.25-.1.5-.15.75-.05.23-.1.47-.15.7-.05.25-.11.5-.16.74-.05.23-.11.46-.16.7-.05.24-.11.48-.17.71-.06.23-.11.47-.17.7-.06.23-.11.46-.17.69-.06.23-.12.45-.18.68-.06.23-.12.45-.18.67-.06.22-.12.44-.18.66-.06.22-.12.44-.19.65-.06.22-.13.43-.19.65-.06.21-.13.42-.19.63-.07.21-.13.42-.2.62-.07.21-.13.41-.2.61-.07.2-.14.4-.21.6-.07.2-.14.39-.21.59-.07.2-.14.39-.21.58-.07.19-.14.38-.21.56-.07.19-.15.37-.22.56-.07.18-.15.36-.22.53-.07.18-.15.35-.23.53-.08.17-.15.34-.23.51-.08.17-.15.33-.23.5-.08.16-.16.32-.23.48-.08.16-.16.31-.24.47-.08.15-.16.3-.24.45-.08.14-.16.29-.24.43-.08.14-.17.28-.25.42-.08.13-.16.26-.24.39-.09.13-.17.26-.26.39-.08.12-.16.24-.25.35-.09.12-.18.24-.27.35-.08.11-.17.21-.25.31-.09.11-.18.21-.28.31-.08.09-.17.19-.25.28-.1.1-.19.18-.29.27-.08.08-.17.16-.25.23-.1.09-.2.16-.3.24-.08.06-.16.13-.25.19-.11.07-.21.13-.32.19-.08.05-.16.1-.24.14-.12.06-.23.1-.35.15-.07.03-.14.07-.22.09-.14.05-.29.08-.44.11-.05.01-.09.03-.14.04-.19.03-.39.05-.58.05,0,0,0,0,0,0-.2,0-.41-.02-.61-.05-.4-.07-.79-.17-1.16-.3-.25-.09-.49-.19-.72-.31-.12-.06-.23-.13-.35-.2-.34-.21-.66-.46-.97-.77-.1-.1-.2-.21-.3-.33-.58-.69-1.08-1.6-1.48-2.82-.07-.2-.13-.41-.19-.63-.62-2.2-.95-5.27-.93-9.55,0-1.61.07-3.39.19-5.36.04-.66.08-1.33.13-2.03.02-.32.04-.64.04-.94.02-1.83-.3-3.3-.85-4.49-.09-.2-.19-.39-.29-.57-1.46-2.56-4.07-3.63-6.37-4.08-1.64-.32-3.12-.32-3.9-.32s-2.26,0-3.9.32c-.66.13-1.34.31-2.01.56-.4.15-.79.32-1.17.52-.76.4-1.48.9-2.11,1.55-.54.56-1.01,1.23-1.38,2.02-.32.69-.57,1.49-.71,2.39-.14.9-.18,1.91-.1,3.05.15,2.1.25,4,.29,5.72.01.57.02,1.13.03,1.67h0c0,1.72-.04,3.24-.14,4.58-.05.67-.11,1.3-.19,1.89-.08.59-.16,1.14-.26,1.65-.2,1.02-.45,1.9-.74,2.64-.29.75-.62,1.36-.99,1.87-.28.38-.57.71-.89.98-.14.12-.28.23-.43.33-.31.22-.64.39-.98.53-.47.2-.95.34-1.47.43,0,0,0,0,0,0-.2.04-.41.05-.61.05,0,0,0,0,0,0-.19,0-.39-.02-.58-.05-.05,0-.09-.03-.14-.04-.15-.03-.29-.06-.44-.11-.07-.02-.14-.06-.21-.09-.12-.05-.24-.09-.36-.15-.08-.04-.15-.09-.23-.14-.11-.06-.22-.12-.33-.2-.08-.05-.16-.12-.24-.18-.1-.08-.21-.15-.31-.24-.08-.07-.16-.15-.24-.22-.1-.09-.2-.18-.3-.29-.08-.08-.16-.17-.24-.26-.1-.11-.19-.21-.29-.32-.08-.1-.16-.2-.24-.3-.09-.12-.19-.24-.28-.36-.08-.11-.16-.22-.24-.34-.09-.13-.18-.26-.27-.4-.08-.12-.15-.25-.23-.37-.09-.14-.18-.29-.27-.44-.08-.13-.15-.27-.23-.4-.09-.16-.17-.31-.26-.48-.07-.14-.15-.29-.22-.43-.08-.17-.17-.34-.25-.51-.07-.15-.14-.31-.22-.47-.08-.18-.16-.36-.24-.54-.07-.16-.14-.32-.21-.49-.08-.19-.16-.38-.24-.58-.07-.17-.13-.34-.2-.51-.08-.2-.16-.4-.23-.61-.07-.18-.13-.35-.2-.53-.08-.21-.15-.42-.23-.64-.06-.18-.13-.37-.19-.56-.07-.22-.14-.43-.22-.65-.06-.19-.12-.39-.19-.59-.07-.22-.14-.45-.21-.68-.06-.2-.12-.4-.18-.6-.07-.23-.13-.46-.2-.7-.06-.21-.12-.41-.17-.62-.07-.24-.13-.48-.19-.72-.05-.21-.11-.41-.16-.62-.06-.25-.12-.5-.19-.75-.05-.21-.1-.43-.16-.64-.06-.25-.12-.51-.18-.76-.05-.22-.1-.43-.15-.65-.06-.26-.12-.53-.17-.79-.05-.22-.09-.43-.14-.65-.06-.27-.11-.54-.16-.81-.04-.22-.09-.44-.13-.66-.05-.27-.1-.54-.15-.82-.04-.22-.08-.45-.12-.67-.05-.27-.1-.54-.14-.82-.04-.23-.08-.46-.12-.68-.05-.27-.09-.54-.13-.82-.04-.23-.07-.46-.11-.69-.04-.29-.09-.58-.13-.87-.03-.21-.06-.42-.09-.64-.04-.31-.09-.63-.13-.94-.03-.2-.05-.39-.08-.59-.04-.33-.08-.67-.12-1-.02-.18-.04-.35-.06-.53-.06-.51-.12-1.02-.17-1.52-.18-1.75-.84-3.33-1.83-4.91-.79-1.26-1.79-2.51-2.91-3.83-.28-.33-.57-.67-.87-1.01-1.19-1.37-2.48-2.82-3.81-4.46-.99-1.22-2.01-2.55-3-4-4.98-7.27-9.55-17.82-9.55-35.89ZM20.79,101.25c.68,1.51,1.54,3.08,2.48,4.54.13.21.27.41.41.62.68,1.02,1.4,1.96,2.1,2.77.42.48.84.92,1.24,1.29.27.25.53.47.78.66.63.47,1.21.74,1.7.74-.48,0-1.06.27-1.7.74-.25.19-.52.41-.78.66-.4.37-.82.81-1.24,1.29-.7.81-1.41,1.75-2.1,2.77-.14.2-.27.41-.41.62-.94,1.46-1.8,3.03-2.48,4.54-.65,1.46-1.13,2.85-1.33,4.03,0,.03,0,.05,0,.08-.06.36-.09.71-.09,1.02h0s0,0,0,0c0-2.4-1.76-6.34-3.91-9.67-.13-.21-.27-.41-.41-.62-.68-1.02-1.4-1.96-2.1-2.77-.42-.48-.84-.92-1.24-1.29-.27-.25-.53-.47-.78-.66-.63-.47-1.21-.74-1.7-.74.48,0,1.06-.27,1.7-.74.25-.19.52-.41.78-.66.4-.37.82-.81,1.24-1.29.7-.81,1.41-1.75,2.1-2.77.14-.2.27-.41.41-.62,2.15-3.33,3.91-7.27,3.91-9.67,0,0,0,0,0,0h0c0,.31.04.66.09,1.02,0,.03,0,.05,0,.08.2,1.18.67,2.57,1.33,4.03Z"/>
  <path class="cls-1" d="M32.58,95.07c1.33,1.63,2.62,3.09,3.81,4.46.3.34.59.68.87,1.01,1.13,1.32,2.12,2.57,2.91,3.83.99,1.57,1.65,3.16,1.83,4.91.05.51.11,1.02.17,1.52.02.18.04.35.06.53.04.33.08.67.12,1,.03.2.05.39.08.59.04.31.08.63.13.94.03.21.06.42.09.64.04.29.08.58.13.87.04.23.07.46.11.69.04.27.09.55.13.82.04.23.08.46.12.68.05.27.09.55.14.82.04.22.08.45.12.67.05.27.1.54.15.82.04.22.09.44.13.66.05.27.11.54.16.81.04.22.09.43.14.65.06.27.11.53.17.79.05.22.1.43.15.65.06.26.12.51.18.76.05.22.1.43.16.64.06.25.12.5.19.75.05.21.11.42.16.62.06.24.13.49.19.72.06.21.11.42.17.62.07.23.13.47.2.7.06.2.12.4.18.6.07.23.14.45.21.68.06.2.12.39.19.59.07.22.14.44.22.65.06.19.13.37.19.56.07.21.15.43.23.64.06.18.13.36.2.53.08.21.15.41.23.61.07.17.13.34.2.51.08.2.16.39.24.58.07.16.14.33.21.49.08.18.16.36.24.54.07.16.14.31.22.47.08.17.17.34.25.51.07.15.15.29.22.43.09.16.17.32.26.48.08.14.15.27.23.4.09.15.18.3.27.44.08.13.15.25.23.37.09.14.18.27.27.4.08.11.16.23.24.34.09.13.19.24.28.36.08.1.16.21.24.3.1.11.19.22.29.32.08.09.16.18.24.26.1.1.2.19.3.29.08.07.16.15.24.22.1.09.21.16.31.24.08.06.16.13.24.18.11.07.22.13.33.2.08.04.15.1.23.14.12.06.24.11.36.15.07.03.14.06.21.09.14.05.29.08.44.11.05,0,.09.03.14.04.19.03.39.05.59.05.2,0,.4-.02.61-.05,0,0,0,0,0,0,.51-.09,1-.23,1.47-.43.34-.14.67-.31.98-.53.15-.1.29-.21.43-.33.32-.27.61-.6.89-.98.37-.51.7-1.13.99-1.87.29-.74.54-1.62.74-2.64.1-.51.19-1.06.26-1.65.08-.59.14-1.22.19-1.89.1-1.35.15-2.87.14-4.58h0c0-.54-.01-1.09-.03-1.67-.04-1.72-.14-3.63-.29-5.72-.08-1.14-.04-2.15.1-3.05.14-.9.39-1.69.71-2.39.37-.79.84-1.46,1.38-2.02.63-.65,1.35-1.16,2.11-1.55.38-.2.77-.37,1.17-.52.67-.25,1.36-.43,2.01-.56,1.64-.32,3.12-.32,3.9-.32s2.26,0,3.9.32c2.3.45,4.91,1.52,6.37,4.08.1.18.2.37.29.57.55,1.19.88,2.67.85,4.49,0,.3-.02.62-.04.94-.05.7-.1,1.38-.13,2.03-.12,1.97-.18,3.75-.19,5.36-.03,4.29.31,7.36.93,9.55.06.22.13.43.19.63.4,1.22.9,2.13,1.48,2.82.1.11.2.22.3.33.3.31.63.56.97.77.11.07.23.14.35.2.23.12.47.22.72.31.37.13.76.23,1.16.3.2.04.41.05.61.05.2,0,.39-.02.59-.05.05,0,.09-.03.14-.04.15-.03.29-.06.44-.11.07-.02.14-.06.22-.09.12-.05.24-.09.35-.15.08-.04.16-.09.24-.14.11-.06.22-.12.32-.19.08-.06.16-.12.25-.19.1-.08.2-.15.3-.24.08-.07.17-.15.25-.23.1-.09.19-.18.29-.27.08-.09.17-.18.25-.28.09-.1.19-.2.28-.31.08-.1.17-.21.25-.31.09-.12.18-.23.27-.35.08-.11.16-.23.25-.35.09-.13.18-.25.26-.39.08-.13.16-.26.24-.39.08-.14.17-.28.25-.42.08-.14.16-.28.24-.43.08-.15.16-.3.24-.45.08-.15.16-.31.24-.47.08-.16.16-.31.23-.48.08-.16.15-.33.23-.5.08-.17.15-.34.23-.51.08-.17.15-.35.23-.53.07-.18.15-.35.22-.53.07-.18.15-.37.22-.56.07-.19.14-.37.21-.56.07-.19.14-.38.21-.58.07-.19.14-.39.21-.59.07-.2.14-.4.21-.6.07-.2.13-.41.2-.61.07-.21.13-.41.2-.62.07-.21.13-.42.19-.63.06-.21.13-.43.19-.65.06-.22.12-.43.19-.65.06-.22.12-.44.18-.66.06-.22.12-.45.18-.67.06-.23.12-.45.18-.68.06-.23.11-.46.17-.69.06-.23.11-.46.17-.7.06-.24.11-.47.17-.71.05-.23.11-.46.16-.7.05-.25.11-.49.16-.74.05-.23.1-.46.15-.7.05-.25.1-.5.15-.75.05-.24.1-.47.14-.71.05-.25.1-.51.14-.76.04-.24.09-.48.13-.72.05-.26.09-.52.14-.79.04-.24.08-.48.12-.71.04-.27.09-.53.13-.8.04-.24.08-.47.11-.71.04-.29.09-.58.13-.87.03-.22.06-.43.09-.65.04-.3.08-.61.12-.91.03-.21.06-.41.08-.62.04-.33.08-.65.12-.98.02-.18.05-.36.07-.54.06-.51.12-1.02.17-1.52.18-1.75.84-3.33,1.83-4.91.39-.63.84-1.26,1.33-1.89.73-.95,1.56-1.92,2.45-2.95,1.19-1.37,2.48-2.82,3.81-4.46.99-1.22,2.01-2.55,3-4,.93-1.36,1.85-2.84,2.73-4.46.88-1.62,1.71-3.39,2.48-5.32,2.55-6.45,4.34-14.81,4.34-26.1,0-.9-.04-1.77-.1-2.63-.01-.19-.03-.39-.04-.58-.07-.84-.16-1.66-.29-2.46-.02-.11-.04-.21-.06-.32-.12-.73-.26-1.44-.43-2.14-.04-.16-.07-.31-.11-.47-.19-.76-.4-1.49-.63-2.21-.04-.14-.09-.27-.14-.41-.22-.65-.46-1.29-.72-1.91-.04-.1-.08-.2-.12-.3-.29-.68-.61-1.34-.95-1.98-.07-.14-.14-.27-.22-.4-.34-.63-.7-1.24-1.07-1.84,0-.01-.02-.03-.03-.05-.39-.61-.81-1.19-1.23-1.76-.09-.12-.18-.24-.27-.35-.43-.55-.88-1.09-1.34-1.61-.04-.04-.08-.08-.11-.12-.44-.49-.9-.95-1.37-1.4-.1-.09-.19-.18-.29-.27-.5-.47-1.01-.91-1.54-1.34-.08-.07-.17-.13-.26-.2-.49-.38-.98-.75-1.49-1.11-.08-.06-.17-.12-.25-.18-.56-.38-1.12-.74-1.7-1.08-.12-.07-.23-.13-.35-.2-.56-.32-1.12-.62-1.7-.9-.04-.02-.08-.04-.12-.06-.6-.29-1.22-.56-1.84-.82-.13-.05-.27-.11-.4-.16-.62-.24-1.25-.47-1.88-.68-.04-.01-.08-.02-.11-.03-.6-.19-1.21-.36-1.83-.52-.14-.03-.27-.07-.41-.1-.63-.15-1.27-.29-1.91-.4-.11-.02-.21-.03-.32-.05-.58-.1-1.15-.17-1.73-.24-.12-.01-.25-.03-.37-.04-.64-.06-1.28-.1-1.92-.13-.14,0-.27,0-.41,0-.54-.01-1.08,0-1.62,0-.16,0-.31,0-.47.01-.65.03-1.29.08-1.93.15-.14.02-.28.04-.41.05-.52.06-1.03.14-1.54.23-.19.03-.38.07-.57.11-.55.11-1.1.23-1.64.38-.08.02-.17.04-.25.06-.61.17-1.22.36-1.82.57-.17.06-.34.13-.51.19-.45.17-.9.35-1.35.54-.16.07-.33.14-.49.22-.57.26-1.14.55-1.69.85-.09.05-.17.1-.26.15-.47.27-.93.55-1.38.85-.16.11-.32.22-.48.33-.42.29-.83.6-1.24.93-.11.09-.22.16-.32.25-.49.41-.97.84-1.43,1.29-.12.11-.23.23-.34.35-.36.36-.7.74-1.04,1.13-.12.14-.25.29-.37.43-.42.51-.83,1.04-1.21,1.6-.38-.56-.79-1.09-1.21-1.6-.12-.15-.24-.29-.37-.43-.34-.39-.69-.77-1.04-1.13-.11-.11-.22-.23-.33-.34-.46-.45-.94-.88-1.43-1.29-.1-.08-.2-.16-.3-.24-.41-.33-.83-.64-1.26-.94-.15-.11-.3-.21-.46-.31-.46-.31-.94-.6-1.42-.88-.08-.04-.15-.09-.23-.13-.56-.31-1.13-.59-1.71-.86-.15-.07-.31-.14-.47-.2-.46-.2-.92-.39-1.38-.56-.16-.06-.32-.12-.48-.18-.6-.21-1.21-.41-1.83-.57-.07-.02-.15-.03-.22-.05-.55-.15-1.11-.27-1.68-.39-.18-.04-.37-.07-.55-.1-.51-.09-1.03-.17-1.55-.24-.13-.02-.27-.04-.4-.05-.64-.07-1.29-.12-1.94-.15-.16,0-.31,0-.47-.01-.54-.02-1.08-.02-1.61,0-.14,0-.28,0-.41,0-.64.02-1.28.06-1.92.13-.12.01-.25.03-.37.04-.58.06-1.15.14-1.72.24-.11.02-.22.03-.33.05-.64.11-1.27.25-1.9.4-.14.03-.29.07-.43.11-.6.15-1.2.32-1.79.51-.05.02-.1.03-.15.04-.63.2-1.25.43-1.86.67-.14.06-.29.11-.43.17-.61.25-1.22.51-1.81.8-.06.03-.11.06-.17.09-.55.27-1.1.56-1.63.87-.13.07-.26.15-.39.22-.57.33-1.12.68-1.67,1.05-.1.07-.2.14-.3.21-.48.34-.96.69-1.43,1.06-.1.08-.2.16-.3.24-.52.42-1.02.86-1.51,1.31-.11.1-.22.21-.32.31-.45.43-.89.88-1.31,1.34-.05.06-.11.11-.16.17-.46.51-.89,1.04-1.32,1.58-.1.13-.2.26-.3.39-.42.56-.83,1.13-1.21,1.73-.02.03-.04.07-.06.1-.37.57-.71,1.17-1.04,1.78-.08.14-.16.29-.23.43-.33.63-.64,1.28-.93,1.96-.05.11-.09.22-.13.33-.25.61-.49,1.23-.71,1.87-.05.14-.1.28-.15.43-.23.71-.44,1.45-.63,2.2-.04.16-.07.32-.11.48-.16.69-.3,1.4-.42,2.12-.02.11-.04.22-.06.33-.12.8-.22,1.62-.29,2.45-.02.19-.03.39-.04.58-.06.86-.1,1.73-.1,2.62,0,0,0,0,0,0,0,18.07,4.57,28.62,9.55,35.89,1,1.45,2.01,2.78,3,4Z"/>
  <path class="cls-1" d="M19.46,97.14c-.06-.36-.09-.71-.09-1.02,0,0,0,0,0,0,0,2.4-1.76,6.34-3.91,9.67-.13.21-.27.41-.41.62-.68,1.02-1.4,1.96-2.1,2.77-.42.48-.84.92-1.24,1.29-.27.25-.53.47-.78.66-.63.47-1.21.74-1.7.74.48,0,1.06.27,1.7.74.25.19.52.41.78.66.4.37.82.81,1.24,1.29.7.81,1.41,1.75,2.1,2.77.14.2.27.41.41.62,2.15,3.34,3.91,7.27,3.91,9.67,0,0,0,0,0,0,0-.31.04-.66.09-1.02,0-.03,0-.05,0-.08.2-1.18.67-2.57,1.33-4.03.68-1.51,1.54-3.08,2.48-4.54.13-.21.27-.41.41-.62.68-1.02,1.4-1.96,2.1-2.77.42-.48.84-.92,1.24-1.29.27-.25.53-.47.78-.66.63-.47,1.21-.74,1.7-.74-.48,0-1.06-.27-1.7-.74-.25-.19-.52-.41-.78-.66-.4-.37-.82-.81-1.24-1.29-.7-.81-1.41-1.75-2.1-2.77-.14-.2-.27-.41-.41-.62-.94-1.46-1.8-3.03-2.48-4.54-.65-1.46-1.13-2.85-1.33-4.03,0-.03,0-.05,0-.08Z"/>
  <path class="cls-1" d="M124.64,26.91c.14.17.28.35.42.53.7.91,1.4,1.92,2.06,2.99.26.43.52.86.76,1.29.24.44.48.87.7,1.31.11.22.22.44.32.66.52,1.09.95,2.16,1.25,3.14.18.59.32,1.15.39,1.67.05.34.08.67.08.97,0-.3.03-.62.08-.97.08-.52.21-1.08.39-1.67.24-.79.57-1.63.95-2.49.19-.43.4-.87.62-1.31.22-.44.46-.88.7-1.31.61-1.09,1.28-2.16,1.98-3.14.28-.39.56-.77.84-1.14,1.69-2.18,3.41-3.71,4.57-3.71-1.35,0-3.46-2.09-5.41-4.85-.28-.39-.55-.8-.82-1.22-.54-.83-1.05-1.7-1.52-2.58-.35-.66-.67-1.32-.96-1.96-.1-.22-.19-.43-.28-.64-.71-1.7-1.15-3.28-1.15-4.49,0,1.8-.99,4.46-2.39,7.09-.35.66-.73,1.31-1.12,1.95-.39.64-.8,1.26-1.22,1.85-.42.59-.84,1.15-1.26,1.67-1.55,1.89-3.08,3.18-4.14,3.18,1.06,0,2.59,1.29,4.14,3.18Z"/>
</svg>