<?xml version="1.0" encoding="UTF-8"?>
<svg id="_レイヤー_1" data-name=" レイヤー 1" xmlns="http://www.w3.org/2000/svg" version="1.1" viewBox="0 0 150 150">
  <defs>
    <style>
      .cls-1 {
        fill: #fff;
      }

      .cls-1, .cls-2 {
        stroke-width: 0px;
      }

      .cls-2 {
        fill: #0d498c;
      }
    </style>
  </defs>
  <path class="cls-1" d="M46.26,42.52c.17.28.34.56.51.84.06.09.12.18.17.27.12.19.24.37.36.56.07.11.14.21.21.32.11.17.22.33.34.5.08.11.15.22.23.32.11.16.22.32.34.47.08.11.15.21.23.31.11.15.23.3.34.45.08.1.15.2.23.3.12.15.24.3.36.44.07.09.14.17.21.26.14.16.27.31.41.47.05.06.11.13.16.19.19.21.38.41.56.59.03.03.06.06.09.08.16.15.31.3.46.44.06.06.12.11.19.16.12.1.24.2.35.29.07.06.14.1.21.16.11.08.21.16.31.22.07.05.14.09.21.13.1.06.2.12.29.17.07.03.13.07.2.1.09.04.19.08.28.11.06.02.12.04.18.06.09.02.18.04.27.05.05,0,.1.02.15.02.09,0,.18-.01.26-.03.04,0,.09,0,.13-.02.12-.03.24-.09.35-.16,1.19-.82,1.53-2.32-1.36-7.57-1.68-3.05,1.24-4.4,2-4.75.09-.04.2-.09.34-.15.01,0,.02,0,.03-.01.14-.06.3-.12.47-.17.02,0,.03-.01.05-.02.17-.05.36-.1.56-.14.02,0,.04,0,.07-.01.2-.04.4-.05.61-.06.03,0,.07,0,.1,0,.07,0,.13,0,.2.01.06,0,.12,0,.18.02.07,0,.13.02.2.04.06.01.12.02.17.04.07.02.13.05.2.07.06.02.11.04.17.07.07.03.13.07.2.11.05.03.11.06.16.1.07.05.13.1.19.16.05.04.1.08.15.13.07.06.13.14.19.22.04.05.09.1.13.15.07.09.13.2.19.31.03.05.07.1.1.16.09.17.18.36.25.57.12.33.24.64.36.94.04.1.08.18.11.28.08.19.16.38.23.56.04.1.09.2.13.29.07.16.14.31.21.46.04.09.09.18.13.27.07.14.13.27.2.4.04.08.08.16.12.24.07.13.14.25.2.37.03.06.07.13.11.18.08.14.16.26.24.38.02.03.04.06.06.09.1.14.19.28.29.4.03.03.05.06.08.09.07.08.14.17.2.24.03.04.07.07.1.1.06.06.12.12.17.17.04.03.07.06.11.09.05.04.11.09.16.12.03.02.07.05.1.07.05.03.11.06.16.09.03.02.06.03.09.05.06.03.12.05.18.07.02,0,.05.02.07.02.08.02.17.04.25.05.02,0,.03,0,.05,0,.06,0,.13,0,.19,0,.19,0,.37-.03.56-.08,2.13-.55,1.26-6.53-.52-11.78-1.21-3.57,4.5-7.78-.87-19.48-.13-.29-.28-.57-.42-.84-.05-.09-.1-.17-.15-.26-.1-.17-.2-.35-.31-.51-.06-.1-.13-.19-.19-.28-.1-.15-.2-.29-.31-.43-.07-.09-.14-.18-.22-.27-.11-.13-.21-.26-.32-.38-.08-.09-.16-.17-.23-.25-.11-.12-.23-.23-.34-.34-.08-.08-.16-.15-.24-.22-.12-.11-.24-.21-.37-.31-.08-.06-.16-.13-.24-.19-.13-.1-.27-.19-.41-.29-.08-.05-.15-.1-.23-.15-.17-.11-.34-.2-.51-.3-.05-.03-.09-.06-.14-.08-.22-.12-.45-.23-.68-.32-.05-.02-.11-.04-.16-.06-.18-.07-.35-.14-.53-.2-.08-.03-.17-.05-.25-.08-.15-.05-.3-.09-.45-.13-.09-.02-.19-.05-.28-.07-.14-.03-.29-.06-.43-.09-.1-.02-.2-.03-.3-.05-.14-.02-.28-.04-.42-.06-.1-.01-.2-.02-.3-.03-.14-.01-.29-.02-.43-.03-.1,0-.19,0-.29,0-.12,0-.23,0-.35,0-.15,0-.31,0-.46.02-.11,0-.23.02-.34.03-.15.01-.3.03-.45.05-.11.02-.22.03-.33.05-.15.03-.3.06-.45.09-.11.02-.22.05-.32.07-.15.04-.3.08-.45.13-.1.03-.2.06-.3.09-.16.05-.31.11-.47.17-.09.03-.18.06-.26.1-.18.08-.36.16-.54.25-.05.03-.11.05-.16.08-.23.12-.46.24-.68.38-.05.03-.09.06-.14.09-.17.11-.34.22-.5.33-.07.05-.14.11-.21.16-.13.1-.26.2-.39.31-.08.07-.15.13-.22.2-.11.1-.23.21-.33.32-.07.07-.14.15-.22.23-.1.11-.2.22-.29.33-.07.08-.13.17-.2.25-.09.12-.18.24-.26.36-.06.09-.12.18-.18.27-.08.13-.15.25-.23.38-.05.09-.1.18-.15.28-.07.14-.13.28-.2.42-.04.09-.08.18-.12.27-.06.16-.12.33-.17.49-.03.08-.06.16-.08.24-.07.25-.13.51-.18.77-.29-.17-.58-.31-.88-.44-.08-.03-.15-.07-.23-.1-.28-.11-.57-.22-.86-.29-.02,0-.03-.01-.05-.02-.31-.08-.62-.14-.93-.18-.08-.01-.16-.02-.24-.03-.29-.03-.57-.05-.86-.05-.03,0-.06,0-.09,0-.04,0-.09,0-.13,0-.18,0-.35.01-.53.02-.08,0-.15.01-.23.02-.15.02-.29.03-.44.06-.08.01-.16.03-.24.04-.15.03-.29.06-.44.09-.07.02-.14.03-.21.05-.2.05-.4.11-.6.17-.01,0-.03,0-.04.01-.21.07-.42.15-.63.23-.07.03-.13.06-.2.09-.14.06-.28.12-.42.19-.08.04-.15.07-.22.11-.13.07-.26.14-.39.21-.07.04-.14.08-.21.12-.15.09-.29.18-.43.27-.05.03-.1.06-.15.09-.19.13-.37.26-.54.4-.05.04-.1.08-.15.12-.13.1-.26.21-.38.32-.06.06-.12.11-.18.17-.11.1-.22.21-.32.32-.06.06-.12.12-.18.19-.11.12-.21.24-.31.36-.05.06-.1.11-.14.17-.14.18-.28.36-.42.55-.02.03-.04.06-.06.09-.11.16-.22.33-.32.49-.04.07-.08.14-.12.21-.08.14-.15.27-.23.41-.04.08-.08.16-.12.23-.07.14-.13.28-.19.43-.03.08-.07.15-.1.23-.07.18-.14.37-.2.56-.01.04-.03.07-.04.11-.07.23-.13.46-.19.69-.02.07-.03.14-.04.21-.04.17-.07.34-.09.51-.01.09-.02.18-.04.27-.02.16-.04.33-.05.49,0,.09-.01.18-.02.27,0,.18-.01.37,0,.56,0,.07,0,.14,0,.21,0,.26.03.52.05.78,0,.06.02.11.02.17.03.21.06.42.1.63.02.09.04.18.06.28.04.18.08.36.13.55.03.1.05.2.08.3.06.19.12.38.19.57.03.09.06.18.09.26.1.28.22.56.35.84,5.37,11.7,12.29,10.12,14.21,13.36Z"/>
  <path class="cls-2" d="M79.61,64.87c-.28-1.12-.72-2.17-1.31-3.13,6.45-11.42,10.53-21.59,7.78-30.43-1.7-5.48-5.86-9.71-12.36-12.58l-1.56,3.55c-.22-2.86-.99-6.23-2.83-10.23-2.79-6.09-8.31-9.72-14.76-9.72-5.25,0-9.93,2.38-12.77,6.14-.28-.02-.57-.03-.85-.03-5.33,0-10.49,2.89-13.47,7.54-3,4.67-3.32,10.4-.88,15.7,2.16,4.71,4.63,7.76,7,9.83l-5.65-1.7c-2.04,6.8-1.53,12.7,1.53,17.56,4.93,7.84,15.32,11.36,28.2,13.88.39,1.18.97,2.27,1.7,3.24-1.06,25.85,4.34,50.48,16.09,73.21l9.59-4.96c-10.41-20.15-15.34-41.05-15.01-63.75,2.58-.34,4.89-1.53,6.63-3.3,18.44,11.42,30.9,28.74,38,52.84l10.36-3.05c-8.12-27.55-23.4-47.91-45.41-60.59ZM32.05,29.16c-.13-.28-.24-.56-.35-.84-.03-.09-.06-.18-.09-.26-.07-.19-.13-.38-.19-.57-.03-.1-.06-.2-.08-.3-.05-.18-.09-.37-.13-.55-.02-.09-.04-.18-.06-.28-.04-.21-.07-.42-.1-.63,0-.06-.02-.11-.02-.17-.03-.26-.05-.52-.05-.78,0-.07,0-.14,0-.21,0-.19,0-.38,0-.56,0-.09.01-.18.02-.27.01-.17.03-.33.05-.49.01-.09.02-.18.04-.27.03-.17.06-.34.09-.51.01-.07.03-.14.04-.21.05-.23.12-.47.19-.69.01-.04.03-.08.04-.11.06-.19.13-.38.2-.56.03-.08.06-.15.1-.23.06-.14.13-.29.19-.43.04-.08.08-.16.12-.23.07-.14.15-.28.23-.41.04-.07.08-.14.12-.21.1-.17.21-.33.32-.49.02-.03.04-.06.06-.09.13-.19.27-.37.42-.55.05-.06.1-.11.14-.17.1-.12.21-.24.31-.36.06-.06.12-.12.18-.19.1-.11.21-.21.32-.32.06-.06.12-.11.18-.17.12-.11.25-.22.38-.32.05-.04.1-.08.15-.12.18-.14.36-.27.54-.4.05-.03.1-.06.15-.09.14-.09.28-.19.43-.27.07-.04.14-.08.21-.12.13-.07.26-.14.39-.21.07-.04.15-.08.22-.11.14-.07.28-.13.42-.19.07-.03.13-.06.2-.09.21-.08.42-.16.63-.23.01,0,.03,0,.04-.01.2-.06.4-.12.6-.17.07-.02.14-.03.21-.05.15-.03.29-.07.44-.09.08-.01.16-.03.24-.04.15-.02.29-.04.44-.06.08,0,.15-.02.23-.02.18-.01.35-.02.53-.02.04,0,.09,0,.13,0,0,0,.02,0,.03,0,.02,0,.05,0,.07,0,.29,0,.58.02.86.05.08,0,.16.02.24.03.31.04.62.1.93.18.02,0,.03.01.05.02.29.08.58.18.86.29.08.03.15.06.23.1.3.13.59.27.88.44.05-.26.11-.52.18-.77.02-.08.05-.16.08-.24.05-.17.11-.33.17-.49.04-.09.08-.18.12-.27.06-.14.12-.29.2-.42.05-.09.1-.19.15-.28.07-.13.15-.26.23-.38.06-.09.12-.18.18-.27.08-.12.17-.24.26-.36.06-.08.13-.17.2-.25.09-.11.19-.22.29-.33.07-.08.14-.15.22-.23.11-.11.22-.21.33-.32.07-.07.15-.14.22-.2.13-.11.26-.21.39-.31.07-.05.14-.11.21-.16.16-.12.33-.23.5-.33.05-.03.09-.06.14-.09.22-.13.45-.26.68-.38.05-.03.11-.05.16-.08.18-.09.36-.17.54-.25.09-.04.18-.07.26-.1.15-.06.31-.12.47-.17.1-.03.2-.06.3-.09.15-.04.3-.09.45-.13.11-.03.22-.05.32-.07.15-.03.3-.06.45-.09.11-.02.22-.04.33-.05.15-.02.3-.04.45-.05.11-.01.23-.02.34-.03.15-.01.31-.02.46-.02.07,0,.15,0,.22,0,.04,0,.09,0,.13,0,.1,0,.19,0,.29,0,.14,0,.29.01.43.03.1,0,.2.02.3.03.14.02.28.03.42.06.1.02.2.03.3.05.14.03.29.06.43.09.09.02.19.04.28.07.15.04.3.09.45.13.08.03.17.05.25.08.18.06.35.13.53.2.05.02.11.04.16.06.23.1.45.21.68.32.05.02.09.05.14.08.17.09.35.19.51.3.08.05.15.1.23.15.14.09.27.19.41.29.08.06.16.13.24.19.12.1.25.2.37.31.08.07.16.15.24.22.12.11.23.22.34.34.08.08.16.16.23.25.11.12.22.25.32.38.07.09.15.18.22.27.11.14.21.28.31.43.06.09.13.18.19.28.11.17.21.34.31.51.05.09.1.17.15.26.15.27.29.55.42.84,5.37,11.7-.33,15.92.87,19.48,1.78,5.25,2.65,11.22.52,11.78-.19.05-.37.08-.56.08,0,0,0,0-.01,0-.06,0-.12,0-.17-.01-.02,0-.03,0-.05,0-.08-.01-.17-.03-.25-.05-.02,0-.05-.02-.07-.02-.06-.02-.12-.04-.18-.07-.03-.01-.06-.03-.09-.05-.05-.03-.11-.06-.16-.09-.03-.02-.07-.05-.1-.07-.05-.04-.11-.08-.16-.12-.03-.03-.07-.06-.11-.09-.06-.05-.11-.11-.17-.17-.03-.03-.07-.07-.1-.1-.07-.07-.14-.16-.2-.24-.03-.03-.05-.06-.08-.09-.09-.12-.19-.25-.29-.4-.02-.03-.04-.06-.06-.09-.08-.12-.16-.24-.24-.38-.03-.06-.07-.12-.11-.18-.07-.12-.13-.24-.2-.37-.04-.08-.08-.16-.12-.24-.07-.13-.13-.26-.2-.4-.04-.09-.09-.18-.13-.27-.07-.15-.14-.3-.21-.46-.04-.1-.09-.19-.13-.29-.08-.18-.16-.37-.23-.56-.04-.09-.07-.18-.11-.28-.12-.3-.24-.61-.36-.94-.08-.21-.16-.4-.25-.57-.03-.06-.07-.1-.1-.16-.06-.11-.12-.21-.19-.31-.04-.06-.09-.1-.13-.15-.06-.08-.12-.15-.19-.22-.05-.05-.1-.08-.15-.13-.06-.05-.13-.11-.19-.16-.05-.04-.11-.06-.16-.1-.07-.04-.13-.08-.2-.11-.06-.03-.11-.05-.17-.07-.07-.03-.13-.05-.2-.07-.06-.02-.12-.03-.17-.04-.07-.01-.13-.03-.2-.04-.06,0-.12-.01-.18-.02-.07,0-.13-.01-.2-.01-.03,0-.07,0-.1,0-.21,0-.42.02-.61.06-.02,0-.04,0-.07.01-.2.04-.39.09-.56.14-.02,0-.03.01-.05.02-.17.06-.33.12-.47.17-.01,0-.02,0-.03.01-.14.06-.25.11-.34.15-.76.35-3.68,1.7-2,4.75,2.89,5.25,2.54,6.75,1.36,7.57-.11.08-.23.13-.35.16-.04.01-.09.01-.13.02-.07.01-.14.03-.22.03-.01,0-.03,0-.04,0-.05,0-.1-.01-.15-.02-.09-.01-.18-.02-.27-.05-.06-.02-.12-.04-.18-.06-.09-.03-.18-.07-.28-.11-.06-.03-.13-.06-.2-.1-.1-.05-.19-.11-.29-.17-.07-.04-.14-.08-.21-.13-.1-.07-.21-.15-.31-.22-.07-.05-.14-.1-.21-.16-.12-.09-.23-.19-.35-.29-.06-.05-.12-.1-.19-.16-.15-.14-.31-.29-.46-.44-.03-.03-.06-.05-.09-.08-.19-.19-.37-.39-.56-.59-.05-.06-.11-.12-.16-.19-.14-.15-.27-.3-.41-.47-.07-.08-.14-.17-.21-.26-.12-.14-.24-.29-.36-.44-.08-.1-.15-.2-.23-.3-.11-.15-.23-.3-.34-.45-.08-.1-.15-.21-.23-.31-.11-.15-.23-.31-.34-.47-.08-.11-.15-.21-.23-.32-.11-.16-.23-.33-.34-.5-.07-.11-.14-.21-.21-.32-.12-.18-.24-.37-.36-.56-.06-.09-.12-.18-.17-.27-.17-.28-.35-.56-.51-.84-1.92-3.24-8.84-1.66-14.21-13.36ZM68.53,72.29c-2.56,0-4.64-2.08-4.64-4.64s2.08-4.64,4.64-4.64,4.64,2.08,4.64,4.64-2.08,4.64-4.64,4.64ZM69,56.23c-.16,0-.31-.02-.47-.02-3.65,0-6.89,1.71-8.99,4.38-9.87-1.96-18.14-4.55-20.93-8.98-.44-.7-1.69-2.71-.72-7.15.92.49,1.78.88,2.53,1.22.32.15.73.33,1.02.47,4.29,7.07,8.57,10.65,12.72,10.65,1.49,0,2.91-.44,4.12-1.28,1.79-1.24,2.75-2.75,3.17-4.34.95.44,2.03.7,3.25.7.69,0,1.38-.09,2.08-.27,1.97-.51,3.6-1.81,4.6-3.66,2.15-3.99.85-10.36-.73-15.22.08-.31.2-.74.31-1.08.17-.58.36-1.24.54-1.95,3.4,2.03,4.05,4.06,4.28,4.81,1.55,5-1.85,12.96-6.77,21.72Z"/>
  <path class="cls-1" d="M68.53,63.01c-2.56,0-4.64,2.08-4.64,4.64s2.08,4.64,4.64,4.64,4.64-2.08,4.64-4.64-2.08-4.64-4.64-4.64Z"/>
</svg>