<svg id="_レイヤー_1" data-name="レイヤー 1" version="1.1" viewBox="0 0 300 300" xmlns="http://www.w3.org/2000/svg">
  <defs>
    <style>
      .cls-1 {
        fill: #f1f7fc;
        stroke-width: 0px;
      }
    </style>
  </defs>
  <path class="cls-1" d="M 150 213.01 C 153.57 213.01 164.42 213.01 170.59 219.64 C 174.1 223.41 175.62 228.83 175.11 235.74 C 172.45 272.38 176.41 286.88 189.75 289.26 C 190.32 289.36 190.88 289.41 191.44 289.41 C 193.72 289.41 195.98 288.58 198.17 286.93 C 210.51 277.64 219.26 242.48 222.47 211.75 C 223.34 203.42 229.28 196.61 236.8 187.99 C 252.38 170.13 273.71 145.68 273.71 85.43 C 273.71 44.43 247.45 21.67 222.87 14.04 C 194.6 5.26 165.61 13.51 150 34.55 C 134.39 13.51 104.626 3.101 77.13 14.04 C 52.464 23.853 25.855 55.479 26.29 85.43 C 27.166 145.674 47.63 170.13 63.2 187.99 C 70.72 196.61 76.66 203.42 77.53 211.75 C 80.74 242.48 89.49 277.64 101.83 286.93 C 104.56 288.98 107.39 289.76 110.25 289.26 C 123.58 286.88 127.55 272.38 124.89 235.74 C 124.39 228.82 125.91 223.41 129.42 219.64 C 135.59 213.01 146.44 213.01 150.01 213.01 L 150 213.01 Z M 115.626 235.386 C 118.092 276.576 114.046 272.286 107.871 279.179 C 106.468 280.745 103.429 273.661 102.416 271.242 C 94.905 253.316 91.089 240.082 87.949 209.972 C 86.989 200.742 78.959 188.871 71.612 179.456 C 59.355 163.747 37.027 144.63 37.027 85.46 C 37.027 61.676 60.596 33.084 78.476 27.109 C 106.075 17.886 134.736 26.939 149.316 48.159 C 149.846 48.939 151.146 48.939 151.676 48.159 C 166.256 26.939 194.83 18.15 222.516 27.109 C 239.133 32.486 262.067 54.172 262.388 85.46 C 262.995 144.627 243.051 163.37 227.771 180.88 C 219.921 189.88 212.474 200.468 211.514 209.698 C 208.374 239.808 204.071 260.976 196.882 273.149 C 195.55 275.405 192.075 279.566 190.658 277.999 C 185.559 272.362 180.472 279.93 183.672 235.93 C 184.232 228.19 181.873 216.751 177.803 212.371 C 170.783 204.821 153.515 202.348 149.635 202.348 C 145.755 202.348 128.843 205.198 121.823 212.748 C 117.753 217.128 115.05 227.647 115.61 235.387 L 115.626 235.386 Z"></path>
</svg>