<?xml version="1.0" encoding="UTF-8"?>
<svg id="_レイヤー_1" data-name="レイヤー 1" xmlns="http://www.w3.org/2000/svg" version="1.1" viewBox="0 0 300 300">
  <defs>
    <style>
      .cls-1 {
        fill: #f1f7fc;
        stroke-width: 0px;
      }
    </style>
  </defs>
  <path class="cls-1" d="M150,213.01c3.57,0,14.42,0,20.59,6.63,3.51,3.77,5.03,9.19,4.52,16.1-2.66,36.64,1.3,51.14,14.64,53.52.57.1,1.13.15,1.69.15,2.28,0,4.54-.83,6.73-2.48,12.34-9.29,21.09-44.45,24.3-75.18.87-8.33,6.81-15.14,14.33-23.76,15.58-17.86,36.91-42.31,36.91-102.56,0-41-26.26-63.76-50.84-71.39-28.27-8.78-57.26-.53-72.87,20.51-15.61-21.04-44.61-29.29-72.87-20.51-24.58,7.63-50.84,30.39-50.84,71.39,0,60.25,21.34,84.7,36.91,102.56,7.52,8.62,13.46,15.43,14.33,23.76,3.21,30.73,11.96,65.89,24.3,75.18,2.73,2.05,5.56,2.83,8.42,2.33,13.33-2.38,17.3-16.88,14.64-53.52-.5-6.92,1.02-12.33,4.53-16.1,6.17-6.63,17.02-6.63,20.59-6.63ZM122.03,235.95c3.2,44-4.66,49.13-12.28,50.49-2.07.37-4.1-.22-6.2-1.79-11.65-8.77-20.03-43.07-23.17-73.18-.96-9.23-7.17-16.34-15.02-25.34-15.28-17.52-36.21-41.5-36.21-100.67,0-39.44,25.22-61.32,48.83-68.65,27.79-8.63,56.26-.17,70.84,21.05.53.78,1.83.78,2.36,0,14.58-21.22,43.05-29.68,70.84-21.05,23.6,7.33,48.83,29.21,48.83,68.65,0,59.17-20.93,83.16-36.21,100.67-7.85,9-14.06,16.11-15.02,25.34-3.14,30.11-11.53,64.42-23.17,73.18-2.09,1.58-4.12,2.16-6.2,1.79-7.62-1.36-15.48-6.49-12.28-50.49.56-7.74-1.21-13.88-5.28-18.26-7.02-7.55-18.81-7.55-22.69-7.55s-15.67,0-22.69,7.55c-4.07,4.38-5.85,10.52-5.29,18.26Z"/>
</svg>